<svg width="36" height="36" viewBox="0 0 36 36" fill="none" xmlns="http://www.w3.org/2000/svg"><path d="M35.565 14.974c.303 1.932.666 4.13.242 5.965-.532 2.32-1.658 5.722-3.001 7.593-2.614 3.632-6.693 6.28-12.345 7.18-5.797.91-10.408-.316-14.402-3.997C3.142 29.03.964 25.483.31 21.255c-.314-2.017-.448-4.203-.12-6.11.701-4.07 2.783-7.35 5.7-10.06 2.505-2.308 5.59-4.3 9.294-4.883 4.769-.753 9.005.668 12.72 3.146 4.115 2.758 6.838 6.378 7.661 11.626z" fill="#E06F00"/><path d="M35.081 15.06c.29 1.882.654 4.02.242 5.806-.52 2.26-1.61 5.577-2.917 7.387-2.541 3.535-6.51 6.11-12.005 6.985-5.64.887-10.118-.304-14.003-3.887-2.856-2.624-4.962-6.075-5.616-10.18-.302-1.957-.435-4.095-.12-5.941.677-3.96 2.71-7.156 5.554-9.78C8.65 3.203 11.65 1.271 15.256.7c4.648-.729 8.763.656 12.382 3.061 3.994 2.66 6.644 6.184 7.443 11.298z" fill="#F4810F"/><path d="M33.362 15.533c.267 1.677.581 3.584.206 5.176-.472 2.016-1.452 4.968-2.626 6.596-2.287 3.147-5.47 5.698-10.796 6.232-5.107.51-9.089-.255-12.574-3.45-2.554-2.332-4.442-5.406-5.023-9.075-.278-1.75-.387-3.644-.097-5.296.618-3.536 2.433-6.378 4.999-8.723 2.19-2.005 4.89-3.73 8.12-4.24 4.176-.656 7.456.024 10.7 2.175 3.582 2.369 6.377 6.05 7.091 10.605z" fill="#E06F00"/><path d="M32.794 15.63c.254 1.616.556 3.45.206 4.981-.46 1.932-1.404 4.787-2.53 6.342-2.203 3.037-5.277 5.49-10.396 6.001-4.914.498-8.75-.255-12.103-3.317-2.457-2.247-4.284-5.199-4.829-8.734-.266-1.677-.375-3.511-.097-5.103.595-3.4 2.348-6.147 4.805-8.394 2.106-1.932 4.708-3.596 7.819-4.094 4.018-.632 7.176.024 10.299 2.09 3.45 2.295 6.136 5.843 6.826 10.228z" fill="#B51212"/><path d="M32.225 15.728c.242 1.555.532 3.316.193 4.798-.435 1.86-1.343 4.605-2.432 6.111-2.118 2.916-5.071 5.285-9.997 5.783-4.732.474-8.423-.243-11.655-3.195-2.36-2.163-4.115-5.006-4.647-8.407-.254-1.616-.363-3.377-.097-4.908.569-3.268 2.263-5.916 4.623-8.079 2.033-1.858 4.527-3.462 7.528-3.936 3.86-.607 6.91.024 9.912 2.017 3.328 2.174 5.918 5.588 6.572 9.816z" fill="#FFE9B0"/><path d="M22.404 26.832c.084.024.492.24.54.036.048-.204-.456-.18-.516-.144-.012.048-.024.108-.024.108zm-6.24 2.772c.012.468-.816 1.164-.972 1.092-.144-.084.792-.756.972-1.092z" fill="#41B619"/><path d="M22.872 26.82c.372-.024.732.576.66.624-.072.048-.384-.444-.66-.624zm-5.447-6.515c.36.108.72 1.116.504 1.152-.084.024-.3-.9-.504-1.152zm-8.941 4.192c.36.108.72 1.116.504 1.152-.084.024-.3-.9-.504-1.152zM9.72 9.348c.36.108.72 1.116.504 1.152-.084.024-.3-.9-.504-1.152zm15.948 14.016c-.288-.528-1.764-.108-1.704.06.06.168 1.248-.312 1.704-.06zm0 0c-.108.672-.924 1.056-.756 1.128.156.06 1.044-.396.756-1.128z" fill="#41B619"/><path d="M25.668 23.364c.672.048.372 1.272.552 1.236.168-.048.168-1.5-.552-1.236zm-19.224-2.58c-.288-.528-1.764-.108-1.704.06.072.168 1.26-.312 1.704-.06zm18.744-6.12c-.564-.216-1.416 1.056-1.26 1.14.156.096.756-1.044 1.26-1.14zm-7.478-.734c-.564-.217-1.416 1.055-1.26 1.14.156.095.756-1.045 1.26-1.14zm.64-6.712c-.565-.216-1.417 1.056-1.26 1.14.155.096.755-1.044 1.26-1.14zm2.845-2.388c-.057-.6-1.575-.8-1.58-.624-.018.183 1.27.216 1.58.625zm-6.411 1.23c-.108.672-.924 1.056-.756 1.128.168.06 1.044-.396.756-1.128zm9 12.06c.672.048.372 1.272.552 1.236.18-.048.18-1.5-.552-1.236zm6.612-1.135c.672.048.372 1.272.552 1.236.168-.036.168-1.488-.552-1.236z" fill="#41B619"/><path d="M26.76 26.976l-.24.18-.072-.228.144-.192.168.24zm-17.04-10.2l-.24.18-.072-.228.144-.192.168.24zM6.756 14.52l-.24.18-.072-.228.144-.192.168.24zm16.824 7.2l-.084.288-.192-.132-.012-.24.288.084zm-8.45-5.472l-.084.288-.192-.132-.012-.24.288.084zm6.23-3.6l-.084.288-.192-.132-.011-.24.287.084zm5.688-3.588l-.084.288-.192-.132-.012-.24.288.084zM25.836 18l-.288-.048.12-.204.228-.036-.06.288zm-12.36 9.156l-.288-.048.12-.204.228-.036-.06.288zm15-12.876l-.288-.048.12-.204.228-.036-.06.288zm-2.7 14.268l-.288-.06.12-.204.228-.024-.06.288z" fill="#422918"/><g clip-path="url(#clip0)"><path fill-rule="evenodd" clip-rule="evenodd" d="M15.893 9.478v-.403a4.959 4.959 0 00-1.383-.195c-2.762 0-5.008 2.253-5.008 5.023 0 .358.038.713.112 1.06v.006l.37 1.86h.393l4.133-5.013 3.508 4.253.002.005.62.752h.394l.369-1.86v-.005a5.027 5.027 0 00-3.51-5.886v.403z" fill="#FF5A35"/><path fill-rule="evenodd" clip-rule="evenodd" d="M15.083 11.816a4.216 4.216 0 013.263 2.443c.351.77.474 1.66.294 2.57v.003h.394l-.401 2.02h-.394l-.653-.587v-.003l-3.079-2.768-3.729 3.355h-.394l-.4-2.02h.39c-.478-2.423 1.197-4.69 3.557-5.013h1.152z" fill="#FF7A3C"/><path fill-rule="evenodd" clip-rule="evenodd" d="M17.942 16.463a3.823 3.823 0 00-2.293-2h-2.286a3.82 3.82 0 00-2.587 4.386h-.392l.232 1.176a1.1 1.1 0 001.075.885c.817 0 1.48-.493 1.48-1.1v-2.248c0-.74.599-1.34 1.336-1.34.738 0 1.336.6 1.336 1.34v2.248c0 .605.666 1.1 1.481 1.1a1.1 1.1 0 001.074-.885l.232-1.175h-.391a3.816 3.816 0 00-.297-2.389v.002z" fill="#FF9A42"/><path d="M14.553 15.858V9.545" stroke="#fff" stroke-linecap="round" stroke-linejoin="round"/></g><g clip-path="url(#clip1)"><path d="M16.185 7.863l-.487 3.408 3.408-.487-2.921-2.921z" fill="#FF9D73"/><path d="M19.106 10.784a1.385 1.385 0 00-1.17-.389l-.681.098a.682.682 0 01-.586-.196.685.685 0 01-.196-.586l.098-.68a1.376 1.376 0 00-.386-1.168l-1.746-1.746a.173.173 0 00-.242 0l-.338.337c-1.829 1.83-1.859 4.853-.03 6.683a4.71 4.71 0 006.657.001l.366-.365a.172.172 0 000-.243l-1.746-1.746z" fill="#FF533E"/><path d="M19.513 12.165l-5.195.486a4.017 4.017 0 005.682 0l-.487-.486z" fill="#FF2E23"/><path d="M19.513 12.165l-.894-.894a.686.686 0 00-.584-.194l-.681.098a1.378 1.378 0 01-1.558-1.561l.097-.681a.687.687 0 00-.193-.585l-1.38-1.38a4.017 4.017 0 000 5.682c1.298 1.301 3.623 1.084 5.193-.486z" fill="#FF2E23"/><path d="M15.358 11.268a.347.347 0 00-.345.345c0 .19.154.344.345.345a.347.347 0 00.345-.345v-.343l-.345-.002zm1.56.848a.346.346 0 10.488 0l-.244-.245-.244.245zm-2.066-2.066a.346.346 0 110-.489l.244.245-.244.244z" fill="#FFE9B0"/></g><g clip-path="url(#clip2)"><path d="M12.579 20.383l-1.736 2.973 3.34.834-1.604-3.807z" fill="#FF9D73"/><path d="M14.183 24.19a1.385 1.385 0 00-.938-.802l-.667-.166a.682.682 0 01-.469-.402.685.685 0 01.04-.617l.347-.593c.219-.37.25-.83.083-1.227l-.96-2.275a.173.173 0 00-.224-.092l-.44.185c-2.383 1.005-3.551 3.795-2.546 6.178a4.71 4.71 0 006.165 2.511l.477-.2a.172.172 0 00.091-.225l-.959-2.275z" fill="#FF533E"/><path d="M14.04 25.621l-4.996-1.507a4.017 4.017 0 005.263 2.142l-.267-.635z" fill="#FF2E23"/><path d="M14.04 25.621l-.491-1.164a.687.687 0 00-.468-.4l-.668-.166a1.378 1.378 0 01-.854-2.034l.347-.593a.687.687 0 00.04-.615l-.758-1.798a4.017 4.017 0 00-2.141 5.262c.711 1.695 2.947 2.37 4.993 1.508z" fill="#FF2E23"/><path d="M10.529 23.225a.347.347 0 00-.45.19.347.347 0 00.19.449.347.347 0 00.45-.19l.129-.318-.319-.131zm1.125 1.373a.346.346 0 10.453.184l-.134-.318-.319.134zm-1.134-2.692a.346.346 0 11.184-.453l.134.319-.318.134z" fill="#FFE9B0"/></g><path d="M13.702 8.308c.233.12.478.203.747.182.139-.008.272-.04.402-.087-.003-.013 0-.033-.004-.046a1.356 1.356 0 011.341-1.286 1.355 1.355 0 011.448-1.162 1.407 1.407 0 011.316 1.352 1.4 1.4 0 011.191 1.456c-.022.51-.33.93-.758 1.143.08.183.17.351.29.507a.813.813 0 00.298.26 2.088 2.088 0 001.313-1.84c.058-1.022-.632-1.921-1.586-2.195a2.188 2.188 0 00-2.01-1.817l-.009-.005-.007-.005a2.112 2.112 0 00-2.186 1.542 2.101 2.101 0 00-1.799 1.97c.01.018.018.023.013.03z" fill="#348717"/><path d="M14.046 8.445c.129.04.265.053.403.045a1.46 1.46 0 00.402-.087c-.003-.013-.001-.033-.004-.046a1.356 1.356 0 011.341-1.286 1.355 1.355 0 011.448-1.162 1.407 1.407 0 011.316 1.352 1.4 1.4 0 011.191 1.456c-.022.51-.33.93-.758 1.143.08.183.17.351.29.507a1.768 1.768 0 001.272-1.605c.049-.94-.642-1.753-1.56-1.894a1.832 1.832 0 00-1.718-1.757l-.008-.005-.007-.005a1.775 1.775 0 00-1.884 1.522 1.765 1.765 0 00-1.742 1.68c.011.05.014.096.018.142z" fill="#41B619"/><path d="M9.822 25.163c.088-.246.14-.5.083-.764a1.446 1.446 0 00-.138-.387c-.013.005-.033.005-.045.01a1.356 1.356 0 01-1.45-1.162 1.355 1.355 0 01-1.342-1.284 1.407 1.407 0 011.169-1.48 1.401 1.401 0 011.288-1.372 1.34 1.34 0 011.232.602c.172-.103.327-.214.465-.354a.813.813 0 00.219-.328 2.088 2.088 0 00-1.995-1.063c-1.021.077-1.823.878-1.97 1.86a2.187 2.187 0 00-1.54 2.23l-.003.009-.004.008a2.112 2.112 0 001.814 1.966 2.101 2.101 0 002.188 1.526c.017-.012.02-.02.029-.017z" fill="#348717"/><path d="M9.913 24.805c.023-.133.018-.27-.008-.406a1.446 1.446 0 00-.138-.387c-.013.005-.033.005-.046.01a1.356 1.356 0 01-1.45-1.162 1.355 1.355 0 01-1.34-1.284 1.407 1.407 0 011.168-1.48 1.401 1.401 0 011.288-1.372 1.34 1.34 0 011.232.602c.172-.103.327-.214.465-.354a1.767 1.767 0 00-1.757-1.051c-.939.075-1.654.866-1.675 1.794a1.832 1.832 0 00-1.517 1.932l-.004.009-.004.008c.062.948.835 1.66 1.754 1.669a1.765 1.765 0 001.893 1.508.982.982 0 01.139-.036z" fill="#41B619"/><path d="M28.405 23.214c-.261.017-.515.07-.735.225a1.445 1.445 0 00-.301.28c.009.01.017.028.026.037a1.356 1.356 0 01-.496 1.791c.27.653.005 1.41-.652 1.738a1.407 1.407 0 01-1.821-.49 1.401 1.401 0 01-1.768-.644c-.241-.45-.191-.97.068-1.37a2.317 2.317 0 00-.508-.287.814.814 0 00-.388-.072 2.088 2.088 0 00-.19 2.253c.472.908 1.524 1.328 2.484 1.077.637.76 1.744 1 2.657.536h.018a2.112 2.112 0 001.092-2.442 2.101 2.101 0 00.541-2.612c-.018-.01-.027-.01-.027-.02z" fill="#348717"/><path d="M28.04 23.272c-.132.03-.255.09-.37.167a1.444 1.444 0 00-.301.28c.009.01.017.028.026.038a1.356 1.356 0 01-.496 1.79c.27.653.004 1.41-.652 1.739a1.407 1.407 0 01-1.821-.491 1.401 1.401 0 01-1.768-.644 1.341 1.341 0 01.068-1.37 2.325 2.325 0 00-.509-.287 1.768 1.768 0 00-.273 2.03c.438.833 1.447 1.178 2.309.831a1.832 1.832 0 002.373.633h.01l.009.001a1.775 1.775 0 00.842-2.27c.794-.487 1.08-1.5.64-2.334a.951.951 0 01-.087-.113z" fill="#41B619"/><g clip-path="url(#clip3)"><path d="M27.63 22.783l-1.24-3.212-2.736 2.09 3.977 1.122z" fill="#FF9D73"/><path d="M23.654 21.661c.416.118.87.03 1.212-.232l.546-.418a.682.682 0 01.607-.116c.21.06.378.211.457.416l.247.642c.153.402.494.713.908.83l2.376.67a.173.173 0 00.211-.119l.13-.459c.702-2.49-.75-5.142-3.239-5.845a4.71 4.71 0 00-5.81 3.252l-.14.497a.172.172 0 00.12.212l2.375.67z" fill="#FF533E"/><path d="M22.625 20.656l4.295-2.963a4.017 4.017 0 00-4.957 2.776l.662.187z" fill="#FF2E23"/><path d="M22.625 20.656l1.216.343c.217.06.44.01.605-.117l.546-.418a1.378 1.378 0 012.123.601l.247.642a.687.687 0 00.455.415l1.879.53a4.017 4.017 0 00-2.777-4.957c-1.768-.501-3.691.825-4.294 2.96z" fill="#FF2E23"/><path d="M26.689 19.408a.347.347 0 00.132-.47.347.347 0 00-.47-.132.347.347 0 00-.132.47l.168.299.302-.167zm-1.775.022a.346.346 0 10-.427.24l.333.093.094-.333zm2.811.793a.346.346 0 11.239.427l-.333-.094.094-.333z" fill="#FFE9B0"/></g><g clip-path="url(#clip4)"><path d="M20.785 28.83c.238-.127.476-.222.706-.372.278-.183.516-.405.738-.643.111-.127.23-.262.349-.381l.365-.365a6.25 6.25 0 00.674-.786c.064-.095.12-.182.175-.285a1.931 1.931 0 01-.508-.508 1.984 1.984 0 012.61-2.849c.025-.055.049-.111.072-.167a5.171 5.171 0 011.072-1.483c.372-.357.817-.627 1.253-.92.199-.136.405-.279.595-.421a6.804 6.804 0 00-.809-.572.31.31 0 01-.278.199.333.333 0 01-.349-.302.292.292 0 01.056-.198 6.343 6.343 0 00-2.5-.564.306.306 0 01-.135.31.322.322 0 01-.452-.087.317.317 0 01-.056-.199 5.967 5.967 0 00-2.436.754.31.31 0 01.04.341.33.33 0 01-.436.15.346.346 0 01-.151-.15 6.113 6.113 0 00-1.738 1.88.31.31 0 01.198.279.333.333 0 01-.301.349.292.292 0 01-.199-.056 6.344 6.344 0 00-.563 2.5.306.306 0 01.31.135.322.322 0 01-.088.452.317.317 0 01-.198.055 6.29 6.29 0 00.754 2.452.313.313 0 01.341-.04.33.33 0 01.15.437.346.346 0 01-.15.15c.254.35.524.652.825.937a.16.16 0 01.064-.031z" fill="#F6D633"/><path d="M22.95 22.38a.112.112 0 01-.158 0l-1.61-1.612a.112.112 0 01.158-.158l1.603 1.602c.048.048.055.12.008.167zm-.753 1.309c-.031.031-.071.04-.11.031l-2.199-.595c-.063-.016-.095-.08-.08-.143.017-.063.08-.095.144-.08l2.19.588c.063.016.095.08.079.143 0 .016-.008.04-.024.056zm0 1.507a.104.104 0 01-.047.032l-2.198.58c-.064.015-.127-.017-.143-.08-.016-.064.016-.127.08-.143l2.197-.58c.064-.015.127.017.143.08a.134.134 0 01-.032.111zm.754 1.309l-1.603 1.603a.112.112 0 01-.159-.158l1.603-1.603a.112.112 0 01.159.158zm2.817-4.88a.118.118 0 01-.111.032c-.064-.016-.095-.08-.08-.142l.588-2.19c.015-.064.079-.096.143-.08.063.016.095.08.079.143l-.58 2.182a.141.141 0 01-.04.055zm-1.508 0c-.016.016-.023.024-.047.032-.064.016-.127-.016-.143-.08l-.587-2.19c-.016-.063.016-.126.08-.142.063-.016.126.016.142.08l.587 2.19a.115.115 0 01-.032.11z" fill="#FCFBFA"/></g><g clip-path="url(#clip5)"><path d="M24.012 16.892a4.88 4.88 0 100-9.76 4.88 4.88 0 000 9.76z" fill="#9B0A33"/><path d="M25.74 16.294a4.619 4.619 0 10-3.454-8.568 4.619 4.619 0 003.453 8.569z" fill="#AF0931"/><path d="M21.602 10.278a.653.653 0 100-1.306.653.653 0 000 1.306zm2.908-1.615c0 .238-.19.428-.427.428a.426.426 0 01-.427-.428c0-.237.19-.427.428-.427.237 0 .427.19.427.427zm2.506 1.663a.74.74 0 01-.736.736.74.74 0 01-.736-.736.74.74 0 01.736-.736c.404 0 .736.32.736.736zm-3.277.807a.392.392 0 100-.783.392.392 0 000 .783zm-1.745 1.365a.796.796 0 11-.796-.795c.44 0 .796.344.796.796zm2.826.642a.557.557 0 11-1.115.001.557.557 0 011.115-.001zm2.754-.226c0 .32-.26.594-.593.594a.588.588 0 01-.594-.594c0-.32.261-.593.594-.593.332 0 .593.26.593.593zm-1.638 2.043a.37.37 0 01-.369.368.37.37 0 01-.367-.368.37.37 0 01.367-.369.37.37 0 01.369.369zm-2.696.154a.481.481 0 01-.487.487.481.481 0 01-.486-.487c0-.273.213-.487.486-.487s.487.214.487.487z" fill="#FFC2C2"/></g><g clip-path="url(#clip6)"><path d="M14.532 31.772a4.88 4.88 0 100-9.76 4.88 4.88 0 000 9.76z" fill="#9B0A33"/><path d="M16.26 31.174a4.619 4.619 0 10-3.453-8.568 4.619 4.619 0 003.452 8.568z" fill="#AF0931"/><path d="M12.122 25.158a.653.653 0 100-1.306.653.653 0 000 1.306zm2.908-1.615a.425.425 0 01-.426.428.426.426 0 01-.428-.428c0-.237.19-.427.428-.427.237 0 .427.19.427.427zm2.506 1.663a.74.74 0 01-.736.736.74.74 0 01-.736-.736.74.74 0 01.736-.736c.404 0 .736.32.736.736zm-3.277.807a.392.392 0 100-.784.392.392 0 000 .784zm-1.745 1.365a.796.796 0 11-.796-.795c.44 0 .796.344.796.795zm2.826.642a.557.557 0 11-1.115.001.557.557 0 011.114-.001zm2.754-.226c0 .32-.26.594-.593.594a.588.588 0 01-.594-.594c0-.32.261-.594.594-.594.332 0 .593.262.593.594zm-1.638 2.043a.37.37 0 01-.368.367.37.37 0 01-.369-.367.37.37 0 01.369-.369.37.37 0 01.368.369zm-2.696.153a.482.482 0 01-.487.488.482.482 0 01-.486-.487c0-.273.213-.487.486-.487.274 0 .487.214.487.487z" fill="#FFC2C2"/></g><path d="M20.737 10.489c0-.429.279-.775.612-.775.34 0 .517.272.551.632a1.06 1.06 0 00.225-.626c.007-.577-.477-1.053-1.082-1.06-.599-.007-1.089.462-1.095 1.04 0 .51.789.897.789.789zm3.266.027c0-.429-.266-.782-.606-.782-.34 0-.524.265-.565.625a1.025 1.025 0 01-.21-.632c.006-.578.496-1.046 1.095-1.04.599.007 1.082.476 1.082 1.06-.007.497-.796.87-.796.769z" fill="#6E4736"/><path d="M22.406 7.314h-.015c-1.512 0-2.729.853-2.736 1.918-.008 1.17.695 1.639.937 1.337.083-.106.06-.265.053-.469 0-.475.31-.762.68-.755.424.008.5.295.5.77 0 .4-.537 2.425-.522 2.613.015.19.423.703 1.035.718h.015c.62 0 1.029-.514 1.051-.703.015-.188-.484-2.22-.484-2.62 0-.476.084-.763.507-.763.37 0 .68.287.673.77 0 .197-.03.356.053.469.234.302.945-.151.952-1.322.008-1.072-1.202-1.94-2.699-1.963z" fill="#D1AD88"/><g clip-path="url(#clip7)"><path d="M7.101 12.535c.303-.303.745-.35.981-.115.24.24.173.558-.057.837a1.06 1.06 0 00.6-.284c.414-.403.409-1.081-.015-1.514-.418-.428-1.096-.443-1.51-.04-.36.361-.076 1.193.001 1.116zm2.29 2.329c.303-.303.365-.74.125-.981-.24-.24-.558-.183-.842.043.03-.222.13-.428.298-.597.413-.403 1.091-.388 1.51.04.419.428.429 1.101.015 1.514-.355.346-1.178.053-1.106-.02z" fill="#6E4736"/><path d="M10.527 11.47l-.006-.005-.005-.005c-1.07-1.069-2.533-1.326-3.291-.579-.833.823-.667 1.65-.283 1.608.134-.016.23-.144.369-.293.336-.337.758-.32 1.015-.053.294.304.144.56-.192.897-.283.283-2.094 1.335-2.217 1.48-.122.143-.197.795.226 1.239l.005.005.005.005c.439.439 1.09.364 1.24.247.144-.123 1.228-1.912 1.51-2.195.337-.337.599-.48.898-.181.262.261.278.684-.069 1.02-.139.139-.272.23-.293.368-.048.38.775.562 1.608-.26.763-.753.522-2.223-.52-3.297z" fill="#D1AD88"/></g><g clip-path="url(#clip8)"><path d="M17.91 26.295c.207-.207.51-.24.67-.079.165.165.12.382-.038.573a.725.725 0 00.41-.194c.283-.276.28-.74-.01-1.036a.732.732 0 00-1.033-.027c-.246.246-.052.816 0 .763zm1.566 1.593c.207-.207.25-.507.085-.671-.164-.165-.381-.125-.575.03a.702.702 0 01.204-.409.732.732 0 011.032.027.736.736 0 01.01 1.036c-.242.237-.805.036-.756-.013z" fill="#6E4736"/><path d="M20.253 25.567l-.004-.004-.003-.003c-.732-.732-1.733-.908-2.252-.396-.57.562-.456 1.129-.193 1.1.091-.011.157-.099.252-.201.23-.23.519-.22.694-.036.201.208.1.383-.13.614-.194.193-1.433.913-1.517 1.011-.084.099-.135.545.154.848l.004.004.003.003c.3.3.746.25.848.169.099-.084.84-1.308 1.034-1.502.23-.23.409-.328.614-.123.179.179.19.467-.048.698-.095.095-.186.157-.2.252-.033.259.53.384 1.1-.179.522-.515.357-1.52-.356-2.255z" fill="#D1AD88"/></g><defs><clipPath id="clip0"><path fill="#fff" transform="translate(8.52 8.88)" d="M0 0h12v12H0z"/></clipPath><clipPath id="clip1"><path fill="#fff" transform="translate(12 5.76)" d="M0 0h9.12v9.12H0z"/></clipPath><clipPath id="clip2"><path fill="#fff" transform="rotate(22.145 -38.324 32.69)" d="M0 0h9.12v9.12H0z"/></clipPath><clipPath id="clip3"><path fill="#fff" transform="rotate(150.75 13.21 15.502)" d="M0 0h9.12v9.12H0z"/></clipPath><clipPath id="clip4"><path fill="#fff" transform="translate(18 18)" d="M0 0h10.92v10.92H0z"/></clipPath><clipPath id="clip5"><path fill="#fff" transform="translate(18 6)" d="M0 0h12v12H0z"/></clipPath><clipPath id="clip6"><path fill="#fff" transform="translate(8.52 20.88)" d="M0 0h12v12H0z"/></clipPath><clipPath id="clip7"><path fill="#fff" transform="rotate(45 -4.794 13.78)" d="M0 0h8.76v8.76H0z"/></clipPath><clipPath id="clip8"><path fill="#fff" transform="rotate(45 -18.143 34.042)" d="M0 0h5.992v5.992H0z"/></clipPath></defs></svg>