<svg width="90" height="40" viewBox="0 0 90 40" fill="none" xmlns="http://www.w3.org/2000/svg"><path d="M12.967 12.249l-3.87.836a62.7 62.7 0 01.057 8.429l-5.102-7.34-4.027.87.076.227 8.626 11.136c1.356-.334 2.472-.758 3.361-1.235.688-3.728.992-8.045.879-12.923zm8.82 9.609c-.379-1.14-1.239-1.584-2.549-1.301-.704.152-1.142.41-1.36.761-.212.372-.21.819-.02 1.388.189.57.47.976.872 1.175.381.202.934.225 1.638.073 1.31-.283 1.791-.977 1.419-2.096zm-1.662-2.856l-1.817-7.988c-1.564.338-2.608.665-3.124.94-.536.278-.664.712-.397 1.265l2.836 6.324 2.502-.54zm14.312-3.842l-2.34-7.042-3.559.768 2.209 6.643c.6 1.803.153 2.855-1.333 3.176-1.447.313-2.447-.427-3.046-2.23l-2.234-6.719c-1.642.355-2.627.67-2.929.897-.32.232-.326.782-.049 1.618l1.786 5.37c.568 1.709 1.518 2.927 2.883 3.63 1.371.72 2.89.88 4.592.513 1.72-.372 2.983-1.112 3.761-2.236.76-1.12.859-2.586.26-4.389zm7.3 2.39c-.378-1.14-1.239-1.584-2.549-1.301-.703.152-1.142.409-1.36.761-.212.371-.21.818-.02 1.388s.471.976.872 1.174c.382.203.934.226 1.638.074 1.31-.283 1.791-.977 1.42-2.097zm-1.661-2.856l-1.818-7.988c-1.564.338-2.608.665-3.124.94-.536.278-.664.712-.397 1.265l2.836 6.324 2.503-.54zm12.714-.834l-4.262.921c-.469.101-.833.078-1.091-.07-.26-.147-.458-.43-.603-.866l-.278-.835 4.223-.912-.782-2.353-4.223.912-.808-2.43 5.435-1.173c-.126-.38-.234-.641-.297-.831-.057-.17-.146-.375-.254-.637-.101-.242-.184-.428-.261-.533-.077-.106-.193-.203-.309-.3a.774.774 0 00-.395-.179 1.552 1.552 0 00-.475.021l-4.34.937-1.036.224c-.215.047-.482.125-.789.211a7.491 7.491 0 00-.626.196c-.105.064-.229.131-.386.226s-.249.196-.263.28l-.068.361a.862.862 0 00.027.462c.031.156.094.346.17.574l2.26 6.794c.453 1.367 1.049 2.275 1.792 2.684.744.41 1.85.456 3.296.143l5.239-1.131-.896-2.695zm6.11-.017c-.378-1.139-1.239-1.583-2.548-1.3-.704.151-1.142.409-1.36.761-.212.371-.21.818-.021 1.388.19.569.471.976.872 1.174.382.203.934.226 1.638.074 1.31-.283 1.791-.977 1.42-2.097zm-1.661-2.855L55.42 3c-1.564.338-2.608.665-3.124.939-.536.279-.664.713-.397 1.265l2.836 6.324 2.503-.54z" fill="#fff"/><path d="M40.326 26.777c-.965-2.903-3.25-3.976-6.846-3.2l-1.232.266c-1.642.355-2.627.67-2.929.897-.32.232-.326.783-.049 1.618l3.484 10.476 3.558-.768-1.06-3.189 1.016-.22c1.662-.358 2.872-1.067 3.624-2.145.752-1.077.901-2.33.434-3.735zm-3.649.809c.202.607.15 1.147-.114 1.611-.265.464-.833.77-1.674.951l-.508.11-1.212-3.644.587-.126c.801-.173 1.451-.171 1.918-.028.473.162.807.537 1.003 1.126zm11.337 5.952L43.926 21.24c-1.643.355-2.628.67-2.929.897-.321.232-.327.783-.049 1.618l3.508 10.552 3.558-.769zm12.163-2.626l-.953-2.866-5.533 1.195 3.212-7.67c-.023-.89-.26-1.856-.731-2.894l-9.169 1.98a1.81 1.81 0 00-.483.186.499.499 0 00-.244.337c-.034.15-.074.28-.076.403 0 .123.03.34.098.61.07.27.125.502.188.691l.297.892 5.552-1.199-3.212 7.67c.004.895.261 1.857.732 2.894l10.322-2.229zm11.703-2.527l-.953-2.866-5.533 1.195 3.212-7.67c-.023-.89-.26-1.856-.731-2.894l-9.169 1.98a1.811 1.811 0 00-.483.186.499.499 0 00-.244.337c-.034.15-.074.28-.076.403 0 .122.03.34.098.61.069.27.125.501.188.691l.297.892 5.552-1.199-3.212 7.67c.004.895.26 1.857.732 2.894l10.322-2.229zm14.107-3.046l-.076-.228L76.98 14c-1.59.384-2.818.914-3.722 1.597.295.384.367.979.23 1.761-.55 2.946-.795 6.559-.754 10.842l3.89-.84a39.32 39.32 0 01-.11-1.909l4.378-.945 1.206 1.672 3.89-.84zm-6.897-3.352l-2.64.57c.008-1.426.067-2.76.171-4.024l2.469 3.454z" fill="#FFD600"/></svg>