<svg width="477" height="123" viewBox="0 0 477 123" fill="none" xmlns="http://www.w3.org/2000/svg"><ellipse cx="238.5" rx="306.5" ry="122.5" fill="#41B619"/><path d="M173.01 45.11l-7.913 1.714c.434 5.702.456 11.452.117 17.28l-10.429-15.047-8.233 1.783.154.466 17.636 22.828c2.772-.684 5.054-1.553 6.872-2.53 1.406-7.644 2.027-16.494 1.796-26.493zm18.032 19.698c-.774-2.335-2.533-3.246-5.211-2.667-1.438.312-2.334.84-2.78 1.562-.433.76-.429 1.677-.042 2.844.387 1.168.963 2.002 1.783 2.408.78.415 1.91.462 3.349.15 2.677-.58 3.662-2.002 2.901-4.297zm-3.397-5.853l-3.716-16.375c-3.198.692-5.331 1.362-6.387 1.925-1.096.57-1.358 1.461-.811 2.594l5.798 12.964 5.116-1.108zm29.26-7.879l-4.786-14.434-7.274 1.575 4.515 13.617c1.225 3.697.313 5.854-2.725 6.512-2.957.64-5.002-.877-6.228-4.573L195.84 40c-3.357.727-5.371 1.372-5.987 1.839-.656.476-.668 1.604-.1 3.316l3.651 11.01c1.161 3.502 3.103 6 5.893 7.44 2.804 1.477 5.911 1.805 9.388 1.052 3.517-.761 6.098-2.28 7.69-4.584 1.552-2.296 1.755-5.3.53-8.997zm14.924 4.9c-.774-2.334-2.532-3.246-5.21-2.666-1.439.311-2.335.839-2.781 1.561-.433.76-.429 1.677-.042 2.845.387 1.167.963 2.001 1.784 2.407.78.415 1.909.463 3.348.15 2.678-.579 3.663-2.001 2.901-4.297zm-3.397-5.853l-3.716-16.375c-3.197.692-5.331 1.363-6.387 1.925-1.096.57-1.357 1.461-.81 2.594l5.797 12.964 5.116-1.108zm25.994-1.709l-8.713 1.887c-.959.208-1.703.16-2.232-.142-.528-.303-.935-.882-1.231-1.777l-.568-1.712 8.633-1.869-1.6-4.824-8.633 1.87-1.651-4.98 11.111-2.407c-.258-.778-.478-1.314-.607-1.703-.117-.35-.298-.77-.519-1.305-.208-.498-.377-.878-.534-1.094-.157-.216-.395-.415-.632-.614s-.541-.341-.807-.367a3.169 3.169 0 00-.971.043l-8.873 1.921-2.118.46c-.44.094-.986.254-1.613.432-.626.177-1.053.311-1.28.402-.214.13-.468.268-.789.463-.321.194-.509.402-.538.575l-.14.74c-.07.306-.046.635.057.946.063.32.192.709.347 1.176l4.618 13.928c.929 2.801 2.147 4.664 3.667 5.503 1.52.838 3.779.933 6.737.292l10.711-2.319-1.832-5.525zm12.492-.036c-.774-2.334-2.533-3.246-5.21-2.666-1.439.311-2.335.84-2.781 1.561-.433.761-.429 1.678-.042 2.845.387 1.167.963 2.001 1.783 2.407.78.415 1.91.463 3.349.151 2.678-.58 3.662-2.002 2.901-4.298zm-3.397-5.853l-3.716-16.375c-3.198.692-5.331 1.363-6.387 1.925-1.096.571-1.358 1.462-.811 2.594l5.798 12.964 5.116-1.108z" fill="#fff"/><path d="M228.945 74.894c-1.973-5.953-6.644-8.152-13.998-6.56l-2.518.545c-3.357.727-5.371 1.372-5.987 1.839-.656.475-.668 1.604-.1 3.316l7.121 21.476 7.274-1.575-2.167-6.537 2.078-.45c3.397-.735 5.871-2.188 7.409-4.398 1.538-2.21 1.843-4.777.888-7.656zm-7.461 1.657c.413 1.245.309 2.352-.232 3.303-.542.951-1.705 1.578-3.423 1.95l-1.039.225-2.477-7.47 1.199-.26c1.638-.354 2.968-.35 3.922-.056.967.333 1.65 1.102 2.05 2.308zm23.179 12.203l-8.359-25.211c-3.358.727-5.371 1.371-5.988 1.838-.656.476-.667 1.604-.1 3.316l7.173 21.632 7.274-1.575zm24.865-5.384l-1.948-5.875-11.311 2.45 6.567-15.725c-.048-1.825-.533-3.805-1.496-5.931l-18.745 4.058a3.709 3.709 0 00-.987.38 1.025 1.025 0 00-.499.693c-.07.307-.152.575-.155.826-.002.25.06.696.201 1.249.14.553.255 1.029.384 1.418l.606 1.828 11.351-2.457-6.566 15.724c.008 1.833.533 3.805 1.495 5.931l21.103-4.57zm23.926-5.18l-1.948-5.876-11.311 2.45 6.567-15.725c-.048-1.825-.534-3.804-1.496-5.931l-18.745 4.059a3.709 3.709 0 00-.987.38 1.025 1.025 0 00-.499.692c-.07.307-.152.575-.155.826-.002.25.06.696.201 1.25.14.553.255 1.028.384 1.417l.606 1.829 11.351-2.458-6.566 15.724c.008 1.834.533 3.805 1.495 5.932l21.103-4.57zm28.842-6.246l-.155-.467-18.261-22.775c-3.251.787-5.761 1.873-7.61 3.274.603.787.751 2.006.469 3.61-1.125 6.04-1.625 13.445-1.541 22.226l7.954-1.723a79.749 79.749 0 01-.227-3.912l8.953-1.939 2.465 3.428 7.953-1.722zm-14.101-6.871l-5.396 1.168c.016-2.922.137-5.659.349-8.248l5.047 7.08z" fill="#FFD600"/><g clip-path="url(#clip0)"><path d="M29.578 11.514c1.528-2.445 4.358-3.43 6.263-2.24 1.943 1.213 1.984 3.397.893 5.576a7.14 7.14 0 003.513-2.77c2.1-3.277 1.038-7.718-2.397-9.917-3.396-2.175-7.867-1.244-9.968 2.032-1.818 2.912 1.308 7.94 1.696 7.32zm18.559 11.808c1.528-2.446 1.273-5.412-.67-6.626-1.944-1.213-3.939-.355-5.457 1.557-.147-1.494.201-3.004 1.05-4.363 2.1-3.276 6.572-4.207 9.968-2.032s4.482 6.578 2.397 9.917c-1.81 2.81-7.651 2.13-7.288 1.547z" fill="#6E4736"/><path d="M50.442-.664L50.4-.691l-.043-.027C41.719-6.112 31.722-5.58 27.879.476c-4.219 6.66-1.873 11.842.586 10.98.853-.307 1.289-1.294 1.973-2.486 1.698-2.718 4.492-3.251 6.581-1.886 2.392 1.553 1.8 3.462.102 6.18-1.428 2.286-11.715 11.933-12.302 13.065-.587 1.133-.087 5.523 3.357 7.794l.043.027.043.026c3.541 2.212 7.706.735 8.509-.262.76-1.025 5.157-14.41 6.585-16.696 1.697-2.718 3.196-4.06 5.615-2.55 2.116 1.322 2.863 4.067 1.095 6.8-.7 1.122-1.439 1.92-1.368 2.864.26 2.562 5.937 2.509 10.156-4.15 3.87-6.1.058-15.376-8.412-20.846z" fill="#D1AD88"/></g><g clip-path="url(#clip1)"><path d="M434.566 71.838l-2.509 17.564 17.564-2.51-15.055-15.054z" fill="#FF9D73"/><path d="M449.621 86.893a7.136 7.136 0 00-6.033-2.006l-3.508.503a3.516 3.516 0 01-3.021-1.006 3.53 3.53 0 01-1.006-3.021l.503-3.508a7.092 7.092 0 00-1.989-6.017l-8.997-8.997a.893.893 0 00-1.251 0l-1.738 1.738c-9.427 9.427-9.581 25.01-.154 34.437 9.452 9.468 24.847 9.468 34.307.008l1.884-1.884a.885.885 0 000-1.25l-8.997-8.997z" fill="#FF533E"/><path d="M451.716 94.005l-26.772 2.51c8.088 8.087 21.193 8.087 29.281 0l-2.509-2.51z" fill="#FF2E23"/><path d="M451.716 94.006l-4.604-4.604a3.54 3.54 0 00-3.013-1l-3.508.504a7.101 7.101 0 01-6.033-2.005 7.078 7.078 0 01-1.997-6.042l.503-3.507a3.54 3.54 0 00-.999-3.013l-7.113-7.113c-8.087 8.087-8.087 21.193 0 29.28 6.691 6.708 18.676 5.587 26.764-2.5z" fill="#FF2E23"/><path d="M430.304 89.385c-.975 0-1.771.796-1.779 1.779 0 .974.796 1.77 1.779 1.778.974 0 1.77-.796 1.778-1.778v-1.77l-1.778-.009zm8.038 4.369a1.782 1.782 0 000 2.517c.691.69 1.819.698 2.518 0a1.775 1.775 0 000-2.517l-1.259-1.259-1.259 1.259zm-10.645-10.645c-.69.69-1.819.698-2.517 0a1.775 1.775 0 010-2.518 1.774 1.774 0 012.517 0l1.259 1.259-1.259 1.259z" fill="#FFE9B0"/></g><path d="M338.012 29.541c3.749-5.31 3.378-12.023-.828-14.992-4.206-2.97-10.655-1.07-14.404 4.24-3.75 5.312-3.379 12.024.827 14.993 4.206 2.97 10.656 1.07 14.405-4.24z" fill="#000"/><path d="M337.778 18.976c-.435.632-1.896.356-3.279-.632-1.382-.948-2.133-2.251-1.698-2.883.434-.632 1.896-.356 3.278.632 1.383.987 2.133 2.251 1.699 2.883z" fill="#58595B"/><g clip-path="url(#clip2)"><path d="M123.241 70.145c1.046-.558 2.093-.976 3.104-1.64 1.221-.801 2.267-1.778 3.244-2.824a34.321 34.321 0 011.535-1.675l1.604-1.604c1.081-1.081 2.093-2.232 2.965-3.453.279-.419.523-.802.767-1.256a8.493 8.493 0 01-2.232-2.232c-2.721-3.976-1.674-9.418 2.302-12.138a8.72 8.72 0 019.173-.384l.314-.732a22.733 22.733 0 014.709-6.523c1.639-1.57 3.592-2.755 5.511-4.046a70.242 70.242 0 002.616-1.849 29.958 29.958 0 00-3.558-2.51c-.209.488-.663.871-1.221.871-.767.07-1.465-.558-1.534-1.325a1.278 1.278 0 01.244-.872 27.884 27.884 0 00-10.987-2.477c.104.524-.14 1.047-.593 1.36a1.416 1.416 0 01-1.988-.383c-.21-.28-.245-.593-.245-.872a26.232 26.232 0 00-10.708 3.314c.349.418.419.976.175 1.5-.349.697-1.221 1.01-1.919.662a1.517 1.517 0 01-.662-.663c-3.174 2.268-5.79 5.093-7.639 8.267.488.21.872.663.872 1.22.07.768-.558 1.465-1.325 1.535a1.281 1.281 0 01-.872-.244 27.882 27.882 0 00-2.477 10.987c.523-.104 1.047.14 1.361.593a1.417 1.417 0 01-.384 1.988c-.279.21-.593.244-.872.244a27.658 27.658 0 003.313 10.778c.419-.349.977-.418 1.5-.174.698.349 1.012 1.22.663 1.918-.14.28-.384.523-.663.663a29.399 29.399 0 003.628 4.116c.07-.07.174-.105.279-.14z" fill="#F6D633"/><path d="M132.763 41.788a.494.494 0 01-.697 0l-7.081-7.08a.495.495 0 010-.698.495.495 0 01.698 0l7.045 7.046c.21.209.244.523.035.732zm-3.314 5.755a.517.517 0 01-.488.14l-9.661-2.616c-.28-.07-.419-.349-.349-.628.069-.28.349-.419.628-.349l9.626 2.581c.279.07.419.35.349.628 0 .07-.035.175-.105.244zm0 6.627a.439.439 0 01-.209.14l-9.661 2.546c-.279.07-.559-.07-.628-.349-.07-.279.069-.558.349-.628l9.661-2.546c.279-.07.558.07.628.349a.587.587 0 01-.14.488zm3.314 5.755l-7.046 7.046a.494.494 0 01-.697-.698l7.045-7.045a.495.495 0 01.698 0 .495.495 0 010 .697zm12.382-21.45a.517.517 0 01-.488.14c-.279-.07-.419-.35-.349-.629l2.581-9.626c.07-.28.349-.419.628-.35.279.07.419.35.349.629l-2.546 9.591c-.035.105-.105.175-.175.245zm-6.627-.001c-.07.07-.104.105-.209.14-.279.07-.558-.07-.628-.349l-2.581-9.627c-.07-.279.07-.558.349-.627.279-.07.558.07.628.348l2.581 9.627a.517.517 0 01-.14.488z" fill="#FCFBFA"/></g><path d="M310.399 99a1.3 1.3 0 01-.921-.382l-2.889-2.89-.419-1.46-1.497-.455-1.854-1.854-.494-1.536-1.418-.375-2.725-2.726a1.303 1.303 0 01-.263-1.466c1.075-2.336 2.563-2.799 3.876-3.208.906-.282 1.689-.526 2.575-1.412 1.083-1.083 1.389-1.794 1.743-2.616.402-.934.857-1.992 2.294-3.43 1.437-1.436 2.496-1.892 3.429-2.293.823-.354 1.533-.66 2.617-1.743 1.083-1.084 1.389-1.794 1.743-2.617.401-.933.857-1.992 2.294-3.429 1.437-1.437 2.496-1.893 3.429-2.294.823-.354 1.533-.66 2.617-1.743.886-.886 1.13-1.67 1.412-2.576.409-1.313.872-2.8 3.207-3.876a1.304 1.304 0 011.467.263l2.755 2.755.259 1.476 1.657.44 1.849 1.85.144 1.36 1.773.556 2.859 2.859a1.302 1.302 0 01-.377 2.106c-1.281.59-1.457 1.155-1.808 2.282-.32 1.026-.717 2.303-2.058 3.644-1.437 1.437-2.495 1.893-3.429 2.294-.823.354-1.533.66-2.617 1.743-1.083 1.084-1.389 1.794-1.743 2.617-.401.934-.857 1.992-2.294 3.429-1.437 1.437-2.495 1.892-3.429 2.294-.823.354-1.533.66-2.616 1.743-1.084 1.084-1.389 1.794-1.743 2.617-.402.933-.857 1.992-2.295 3.429-1.34 1.34-2.617 1.738-3.643 2.057-1.127.351-1.693.527-2.283 1.808a1.302 1.302 0 01-1.184.759z" fill="#FC5866"/><path d="M337.142 61.403c-1.884 1.117-2.356 2.489-2.777 3.712-.319.93-.621 1.81-1.605 2.793-1.189 1.19-1.951 1.54-2.834 1.945-.97.445-2.069.95-3.589 2.47-1.52 1.52-2.025 2.62-2.47 3.589-.406.882-.756 1.644-1.945 2.834-1.189 1.19-1.951 1.54-2.834 1.944-.969.446-2.069.95-3.589 2.47-1.52 1.52-2.025 2.62-2.47 3.59-.405.882-.755 1.644-1.944 2.833-.984.984-1.863 1.286-2.793 1.605-1.19.41-2.52.867-3.62 2.625l1.916 1.916.011-.02c.693-1.42 1.349-1.646 2.54-2.055 1.06-.364 2.379-.818 3.789-2.227 1.52-1.52 2.025-2.62 2.47-3.59.405-.882.755-1.644 1.944-2.833 1.19-1.19 1.952-1.54 2.834-1.945.97-.445 2.069-.95 3.589-2.47 1.52-1.52 2.025-2.62 2.47-3.59.406-.882.756-1.644 1.945-2.833 1.189-1.19 1.952-1.54 2.834-1.945.97-.445 2.069-.95 3.589-2.47 1.41-1.41 1.863-2.729 2.228-3.789.409-1.19.634-1.846 2.056-2.54a1.37 1.37 0 00.172-.103l-1.917-1.916z" fill="#FFE7CC"/><path d="M335.293 59.553l-1.916-1.916c-1.885 1.117-2.357 2.49-2.777 3.713-.32.93-.622 1.809-1.606 2.792-1.189 1.19-1.951 1.54-2.834 1.945-.969.445-2.069.95-3.589 2.47-1.52 1.52-2.025 2.62-2.47 3.59-.405.882-.755 1.644-1.945 2.833-1.189 1.19-1.951 1.54-2.833 1.945-.97.445-2.069.95-3.589 2.47-1.52 1.52-2.025 2.62-2.471 3.59-.405.882-.755 1.644-1.944 2.833-.984.983-1.862 1.285-2.793 1.605-1.19.409-2.52.867-3.619 2.625l1.915 1.916.011-.02c.694-1.421 1.35-1.647 2.54-2.056 1.06-.364 2.379-.817 3.789-2.227 1.52-1.52 2.025-2.62 2.47-3.589.405-.882.755-1.644 1.945-2.834 1.189-1.19 1.951-1.54 2.833-1.944.97-.446 2.07-.95 3.59-2.47 1.52-1.52 2.024-2.62 2.47-3.59.405-.882.755-1.644 1.944-2.833 1.19-1.19 1.952-1.54 2.834-1.945.97-.446 2.069-.95 3.59-2.47 1.409-1.41 1.863-2.73 2.227-3.79.409-1.19.634-1.846 2.056-2.54.061-.03.118-.065.172-.103z" fill="#FFFAF4"/><defs><clipPath id="clip0"><path fill="#fff" transform="rotate(31.987 56.657 40.315)" d="M0 0h59v59H0z"/></clipPath><clipPath id="clip1"><path fill="#fff" transform="translate(413 61)" d="M0 0h47v47H0z"/></clipPath><clipPath id="clip2"><path fill="#fff" transform="translate(111 22.538)" d="M0 0h48v48H0z"/></clipPath></defs></svg>