<svg width="39" height="60" viewBox="0 0 39 60" fill="none" xmlns="http://www.w3.org/2000/svg"><path fill="#fff" d="M0 0h39v60H0z"/><path d="M13.142 35.869a.65.65 0 00-.792.472c0 .092-.556 2.111-2.599 2.111a.647.647 0 100 1.296 4.075 4.075 0 003.864-3.094.642.642 0 00-.473-.785zm8.97 2.583c-2.02 0-2.598-2.02-2.598-2.11a.666.666 0 00-.808-.488.666.666 0 00-.488.807 4.07 4.07 0 003.902 3.094c.358 0 .648-.29.648-.647a.66.66 0 00-.656-.656zm12.17-20.668a5.848 5.848 0 00-6.782 3.788 3.866 3.866 0 000 2.523 2.313 2.313 0 002.248 1.531.657.657 0 00.587-.716.657.657 0 00-.716-.587.997.997 0 01-.907-.701 2.563 2.563 0 01.053-1.654 4.552 4.552 0 015.205-2.926c2.089.556 3.75 2.766 3.75 5.106a6.128 6.128 0 01-3.56 5.517c-.914.359-1.866.61-2.834.74-.51.099-1.044.19-1.57.32-2.446.579-3.75 1.943-3.75 3.833a.647.647 0 101.296 0c0-1.57 1.494-2.263 2.744-2.576.487-.114.998-.206 1.486-.297a13.866 13.866 0 003.132-.83 7.456 7.456 0 004.336-6.7 6.612 6.612 0 00-4.717-6.37z" fill="#FFD93B"/><path d="M30.411 23.736a.651.651 0 00-.914-.084 10.432 10.432 0 01-3.186 1.791c-2.804.96-5.875.846-8.596-.335a.556.556 0 00-.107-.03 10.467 10.467 0 01-2.324-1.44 12.363 12.363 0 00-7.934-2.752 12.665 12.665 0 00-6.698 1.89 1.28 1.28 0 00-.648 1.22c.023.487.327.922.785 1.12a8.165 8.165 0 011.646.983c.038.03.084.046.122.06.35.268.724.572 1.128.93a6.972 6.972 0 012.255 3.636 8.265 8.265 0 002.683 4.328 8.391 8.391 0 004.656 2.096h.061l-.022.015c.06 0 .122 0 .175-.015h5.296c6.493 0 11.775-5.853 11.775-13.009a.62.62 0 00-.153-.404z" fill="#FFD93B"/><path d="M17.715 25.13a10.452 10.452 0 01-2.431-1.485 12.362 12.362 0 00-7.934-2.751c-2.37-.016-4.686.64-6.698 1.882a1.28 1.28 0 00-.648 1.22c.023.487.327.922.785 1.12a8.165 8.165 0 011.646.983c.22.152.51.152.731 0a5.846 5.846 0 013.125-.854 5.744 5.744 0 013.254.953 6.307 6.307 0 001.715.846.61.61 0 01.45.571v1.738c0 1.074.876 1.95 1.95 1.95.107.008.222.008.336 0a2.01 2.01 0 001.623-2.034v-1.661a.647.647 0 01.488-.648 8.824 8.824 0 001.661-.648.683.683 0 00.282-.305.678.678 0 00-.335-.876z" fill="#F35244"/><path d="M30.564 39.1c0 .358-.29.648-.648.648h-2.85l-.404.815a3.331 3.331 0 01-2.995 1.791H8.197a3.317 3.317 0 01-2.996-1.79l-.419-.816H1.947a.647.647 0 110-1.296h27.969c.358 0 .648.29.648.648z" fill="#EBEBE9"/></svg>