<svg width="301" height="301" viewBox="0 0 301 301" fill="none" xmlns="http://www.w3.org/2000/svg"><path d="M296.84 125.287c2.521 16.096 5.547 34.42 2.017 49.707-4.438 19.336-13.818 47.683-25.012 63.273-21.785 30.27-55.773 52.34-102.873 59.831-48.309 7.593-86.735-2.632-120.017-33.307-24.306-22.373-42.46-51.934-47.906-87.165-2.623-16.805-3.732-35.028-1.009-50.922C7.89 92.79 25.237 65.456 49.543 42.88 70.42 23.645 96.138 7.042 127 2.182c39.736-6.276 75.036 5.569 105.998 26.22 34.291 22.982 56.983 53.15 63.842 96.885z" fill="#E06F00"/><path d="M292.805 125.995c2.421 15.692 5.446 33.51 2.017 48.392-4.336 18.83-13.413 46.467-24.306 61.552-21.179 29.46-54.26 50.922-100.048 58.211-46.998 7.39-84.315-2.531-116.69-32.396-23.801-21.867-41.35-50.618-46.796-84.836-2.521-16.3-3.63-34.117-1.009-49.505 5.648-33.004 22.592-59.629 46.293-81.496C72.538 27.188 97.55 11.09 127.605 6.333 166.333.26 200.624 11.8 230.779 31.845c33.283 22.17 55.37 51.53 62.026 94.15z" fill="#F4810F"/><path d="M278.484 129.943c2.219 13.971 4.841 29.865 1.714 43.127-3.933 16.806-12.102 41.406-21.885 54.972-19.062 26.221-45.587 47.48-89.963 51.935-42.561 4.252-75.742-2.126-104.788-28.752-21.28-19.437-37.014-45.05-41.855-75.624-2.32-14.578-3.227-30.371-.807-44.139 5.144-29.46 20.272-53.15 41.653-72.688 18.255-16.704 40.746-31.08 67.674-35.332 34.795-5.467 62.127.203 89.156 18.122 29.853 19.74 53.15 50.416 59.101 88.379z" fill="#E06F00"/><path d="M286.562 128.267c2.337 14.878 5.119 31.77 1.892 45.865-4.229 17.786-12.908 44.075-23.256 58.394-20.252 27.966-48.515 50.563-95.583 55.261-45.176 4.587-80.45-2.349-111.272-30.539-22.588-20.695-39.39-47.878-44.398-80.431-2.447-15.438-3.449-32.33-.89-46.984 5.453-31.322 21.587-56.604 44.175-77.3 19.362-17.786 43.285-33.111 71.882-37.698 36.942-5.817 65.984.224 94.693 19.241 31.712 21.143 56.415 53.807 62.757 94.191z" fill="#B51212"/><path d="M281.671 129.493c2.229 14.281 4.904 30.459 1.783 44.071-4.011 17.071-12.369 42.287-22.398 56.122-19.501 26.777-46.69 48.534-92.044 53.109-43.57 4.351-77.558-2.232-107.31-29.344-21.73-19.86-37.888-45.968-42.79-77.209-2.341-14.839-3.344-31.017-.892-45.076 5.237-30.013 20.838-54.336 42.567-74.196C79.308 39.9 102.263 25.172 129.9 20.82c35.547-5.578 63.629.223 91.264 18.521 30.644 19.972 54.491 51.324 60.508 90.152z" fill="#EBB4A8"/><path d="M186.7 224.1c.7.2 4.1 2 4.5.3.4-1.7-3.8-1.5-4.3-1.2-.1.4-.2.9-.2.9zm-52 23.1c.1 3.9-6.8 9.7-8.1 9.1-1.2-.7 6.6-6.3 8.1-9.1z" fill="#41B619"/><path d="M190.6 224c3.1-.2 6.1 4.8 5.5 5.2-.6.4-3.2-3.7-5.5-5.2zm-45.391-54.295c3 .9 6 9.3 4.2 9.6-.7.2-2.5-7.5-4.2-9.6zM70.7 204.644c3 .9 6 9.3 4.2 9.6-.7.2-2.5-7.5-4.2-9.6zM81 78.4c3 .9 6 9.3 4.2 9.6-.7.2-2.5-7.5-4.2-9.6zm132.9 116.8c-2.4-4.4-14.7-.9-14.2.5s10.4-2.6 14.2-.5zm0 0c-.9 5.6-7.7 8.8-6.3 9.4 1.3.5 8.7-3.3 6.3-9.4z" fill="#41B619"/><path d="M213.9 195.2c5.6.4 3.1 10.6 4.6 10.3 1.4-.4 1.4-12.5-4.6-10.3zM53.7 173.702c-2.4-4.4-14.7-.9-14.2.5.6 1.4 10.5-2.6 14.2-.5zM209.9 122.7c-4.7-1.8-11.8 8.8-10.5 9.5 1.3.8 6.3-8.7 10.5-9.5zm-62.319-6.121c-4.7-1.8-11.8 8.8-10.5 9.5 1.3.8 6.3-8.7 10.5-9.5zm5.328-55.929c-4.7-1.8-11.8 8.8-10.5 9.5 1.3.8 6.3-8.7 10.5-9.5zm23.711-19.893c-.468-5.011-13.117-6.681-13.168-5.206-.142 1.52 10.59 1.795 13.168 5.206zM123.2 51c-.9 5.6-7.7 8.8-6.3 9.4 1.4.5 8.7-3.3 6.3-9.4zm75 100.5c5.6.4 3.1 10.6 4.6 10.3 1.5-.4 1.5-12.5-4.6-10.3zm55.1-9.455c5.6.4 3.1 10.6 4.6 10.3 1.4-.3 1.4-12.4-4.6-10.3z" fill="#41B619"/><path d="M223 225.3l-2 1.5-.6-1.9 1.2-1.6 1.4 2zm-142-85l-2 1.5-.6-1.9 1.2-1.6 1.4 2zm-24.7-18.8l-2 1.5-.6-1.9 1.2-1.6 1.4 2zm140.2 60l-.7 2.4-1.6-1.1-.1-2 2.4.7zm-70.42-45.6l-.7 2.4-1.6-1.1-.1-2 2.4.7zm51.924-30l-.7 2.4-1.6-1.1-.1-2 2.4.7zM225.4 76l-.7 2.4-1.6-1.1-.1-2 2.4.7zm-10.1 74.5l-2.4-.4 1-1.7 1.9-.3-.5 2.4zm-103 76.3l-2.4-.4 1-1.7 1.9-.3-.5 2.4zm125-107.3l-2.4-.4 1-1.7 1.9-.3-.5 2.4zm-22.5 118.9l-2.4-.5 1-1.7 1.9-.2-.5 2.4z" fill="#422918"/></svg>