<svg width="100" height="100" viewBox="0 0 100 100" fill="none" xmlns="http://www.w3.org/2000/svg"><g clip-path="url(#clip0)"><path d="M25.502 99.18c2.18-1.162 4.36-2.034 6.467-3.415 2.543-1.67 4.723-3.706 6.758-5.886 1.017-1.162 2.107-2.397 3.197-3.487l3.343-3.343c2.252-2.253 4.36-4.65 6.176-7.194a31.24 31.24 0 001.599-2.616c-1.817-1.235-3.343-2.761-4.65-4.65-5.669-8.284-3.489-19.62 4.795-25.288 5.886-3.997 13.37-4.07 19.111-.8l.654-1.526a47.347 47.347 0 019.81-13.588c3.415-3.27 7.485-5.74 11.481-8.43 1.817-1.235 3.706-2.543 5.45-3.85a62.425 62.425 0 00-7.412-5.232c-.436 1.017-1.38 1.816-2.543 1.816-1.599.145-3.052-1.163-3.197-2.761-.073-.654.145-1.308.508-1.817-7.194-3.27-15.041-5.014-22.89-5.159.219 1.09-.29 2.18-1.235 2.834-1.38.945-3.197.581-4.142-.8-.435-.58-.508-1.235-.508-1.816a54.638 54.638 0 00-22.309 6.903c.727.872.872 2.035.364 3.125-.727 1.453-2.544 2.107-3.997 1.38a3.162 3.162 0 01-1.38-1.38c-6.613 4.723-12.063 10.61-15.914 17.222 1.017.436 1.816 1.38 1.816 2.543.146 1.599-1.162 3.052-2.761 3.197-.654.073-1.308-.145-1.817-.508-3.27 7.193-5.014 15.041-5.159 22.89 1.09-.219 2.18.29 2.834 1.235.945 1.38.581 3.197-.8 4.141-.58.436-1.235.51-1.816.51a57.597 57.597 0 006.903 22.453c.872-.727 2.035-.872 3.125-.363 1.453.726 2.107 2.543 1.38 3.996a3.162 3.162 0 01-1.38 1.38c2.325 3.198 4.796 5.96 7.557 8.575.146-.145.364-.218.582-.29z" fill="#F6D633"/><path d="M45.34 40.104a1.03 1.03 0 01-1.454 0L29.135 25.353a1.03 1.03 0 010-1.454 1.03 1.03 0 011.453 0l14.679 14.679c.436.436.508 1.09.072 1.526zm-6.904 11.989c-.29.291-.654.364-1.017.291l-20.129-5.45c-.581-.145-.872-.727-.726-1.308.145-.581.726-.872 1.308-.727l20.055 5.378c.582.145.872.726.727 1.308a.784.784 0 01-.218.508zm0 13.807c-.145.145-.218.218-.436.29l-20.128 5.305c-.582.145-1.163-.145-1.308-.727-.146-.581.145-1.162.726-1.308l20.129-5.304c.581-.146 1.162.145 1.308.726.072.364-.073.8-.291 1.018zm6.904 11.99L30.66 92.567a1.03 1.03 0 01-1.453 0 1.03 1.03 0 010-1.453l14.679-14.679a1.03 1.03 0 011.453 0 1.03 1.03 0 010 1.453zM71.136 33.2c-.291.29-.654.363-1.018.29-.581-.145-.872-.726-.726-1.307l5.377-20.056c.145-.581.727-.872 1.308-.727.581.146.872.727.727 1.308l-5.305 19.983c-.073.218-.218.364-.363.51zm-13.806 0c-.146.145-.219.218-.437.29-.581.146-1.163-.145-1.308-.726l-5.377-20.056c-.145-.581.145-1.162.727-1.308.58-.145 1.162.146 1.308.727l5.377 20.056c.073.363 0 .726-.29 1.017z" fill="#FCFBFA"/></g><defs><clipPath id="clip0"><path fill="#fff" d="M0 0h100v100H0z"/></clipPath></defs></svg>