<svg width="100" height="100" viewBox="0 0 100 100" fill="none" xmlns="http://www.w3.org/2000/svg"><path d="M72.544 86.129c-3.442.43-15.152.876-15.652.876L19.3 15.12s38.893-6.1 55.79 2.4c0 69.386-.825 59.576-2.545 68.61z" fill="#E4DDC2"/><path d="M45.242 49.003c-1.423-1.13-2.544-2.663-1.552-4.057 1.248-1.753 2.85-3.901 4.84-4.72.622-.255 1.44-.338 2.505-.125 4.302.86 3.011 0 5.592 0 2.581 0 1.29 3.01-2.58 3.01-2.839 0-2.947 5.342-5.623 6.287-1.075.38-2.288.313-3.182-.395zm15.586-18.505a449.677 449.677 0 013.44-6.349 2.346 2.346 0 012.806-1.071c1.159.386 1.833 1.581 1.307 2.684-.34.715-.81 1.519-1.43 2.294a5.51 5.51 0 01-.743.775c-.81.683-2.268 1.934-2.268 2.993a1.326 1.326 0 01-1.97 1.16l-.485-.27a1.648 1.648 0 01-.657-2.216z" fill="#395C47"/><path d="M56.592 87.005L14 22.117l5.299-6.998 37.593 71.886h-.3z" fill="#CCC9B1"/><path d="M37.27 26.335c-4.732-.86.43-4.732 4.301-6.022.717-.287 2.581-.43 4.302 1.29 2.15 2.151 3.441-.43 6.022-1.29 2.581-.86 3.012 1.29 3.872 3.011.86 1.72-3.011 5.592-4.732 7.743-1.72 2.15-3.011-3.011-6.452-5.592-3.442-2.581-2.581 1.72-7.313.86zm19.357 47.319c0-2.581-5.162-6.022-3.441-8.173l6.022-4.302c-.286 1.434-.516 4.56.86 5.592 1.721 1.29 2.151 1.29 0 4.302-1.72 2.409-.143 7.026.861 9.033-.717.43-2.581 1.033-4.302 0-2.15-1.29 0-3.871 0-6.452zM69.354 48.41c0 1.72-2.151 4.301-2.581 6.022-.574.574-1.98 1.377-3.012 0-1.29-1.72-.43-4.732 0-6.022s2.151-3.442 4.302-4.302c2.151-.86 1.29 2.581 1.29 4.302z" fill="#395C47"/></svg>