<svg width="100" height="100" viewBox="0 0 100 100" fill="none" xmlns="http://www.w3.org/2000/svg"><path d="M71.78 72.914s-4.88 19.989-5.113 19.989c-.58 0-1.278.116-1.86.116L21.113 9.462s45.207-7.089 64.846 2.79l-10.11 43.23c-2.208.349-4.648 1.162-6.508 3.254-3.486 2.79-3.835 7.438-1.627 10.46 1.046 1.743 2.44 2.905 4.068 3.718z" fill="#FBBE36"/><path d="M64.46 93.019L14.952 17.597l6.16-8.134 43.695 83.556h-.349z" fill="#F2B12E"/><path d="M68.992 23.407c-2.092 1.511-5.579 1.628-6.973-.813-.93-1.278-.814-3.254.697-4.416 1.278-1.395 3.021-1.395 4.3-1.51 1.975.115 3.37 1.859 3.254 3.718 0 .93-.349 2.092-1.278 3.021zm-8.368 21.035c-3.719 2.673-9.878 3.022-12.318-1.51-1.627-2.209-1.395-5.695 1.162-7.787 2.208-2.44 5.23-2.556 7.554-2.673 3.486.233 5.926 3.254 5.81 6.624a7.57 7.57 0 01-2.208 5.346z" fill="#DB942C"/></svg>