<svg width="100" height="100" viewBox="0 0 100 100" fill="none" xmlns="http://www.w3.org/2000/svg"><path d="M14.186 56.231c1.94.996 3.983 1.694 6.225 1.521 1.154-.065 2.26-.343 3.345-.727-.023-.106-.005-.276-.028-.382.306-5.99 5.19-10.627 11.174-10.72.844-5.821 5.967-10.119 12.068-9.681 6.035.396 10.778 5.317 10.963 11.264 5.873.927 10.278 6.082 9.93 12.136-.186 4.249-2.758 7.757-6.32 9.525.667 1.528 1.417 2.929 2.422 4.223.635.87 1.482 1.698 2.473 2.163 6.138-2.45 10.595-8.276 10.948-15.329.478-8.518-5.27-16.008-13.218-18.291-1.333-8.155-8.239-14.582-16.757-15.144l-.065-.042-.065-.042c-8.583-.605-16.037 4.992-18.215 12.853-8.19 1.2-14.555 7.964-14.991 16.418.088.149.153.191.11.255z" fill="#348717"/><path d="M17.048 57.374c1.075.339 2.21.443 3.363.378 1.154-.065 2.26-.343 3.345-.727-.023-.106-.005-.276-.028-.382.306-5.99 5.19-10.627 11.174-10.72.844-5.821 5.967-10.119 12.068-9.68 6.035.395 10.778 5.316 10.963 11.263 5.873.927 10.277 6.082 9.93 12.136-.186 4.249-2.758 7.757-6.32 9.525.667 1.528 1.417 2.929 2.422 4.223 5.85-1.728 10.275-6.938 10.595-13.374.404-7.838-5.353-14.607-13.005-15.786-.235-7.71-6.413-14.116-14.311-14.636l-.065-.043-.065-.042c-7.897-.52-14.624 5.096-15.695 12.68A14.712 14.712 0 0016.9 56.185c.093.425.12.807.148 1.19z" fill="#41B619"/></svg>