<svg width="100" height="100" viewBox="0 0 100 100" fill="none" xmlns="http://www.w3.org/2000/svg"><path d="M18.278 49.163v-.25c0-.178 0-.32.036-.5 0-.106 0-.177.036-.284 0-.143.035-.285.035-.464 0-.107.036-.214.036-.285.036-.142.036-.285.071-.428 0-.106.036-.213.036-.32.036-.143.036-.286.071-.428.036-.107.036-.214.072-.321.035-.143.07-.285.07-.428.037-.107.037-.214.072-.32l.107-.428c.036-.107.071-.214.071-.321l.107-.428c.036-.107.072-.214.107-.285.036-.143.107-.285.143-.428.036-.107.071-.178.107-.285.035-.143.107-.285.178-.463.036-.107.071-.179.107-.286.071-.142.107-.32.178-.463.036-.071.072-.178.107-.25.071-.142.143-.32.214-.463l.107-.214c.071-.178.142-.32.25-.499l.106-.214c.107-.178.179-.356.286-.534a.27.27 0 00.07-.143c.108-.214.215-.392.357-.606 0-.036.036-.036.036-.071.143-.25.285-.464.428-.678 1.105-2.067.89-1.568 2.638-3.493 1.497-1.711 3.28-3.244 5.275-4.598.25-.143.5-.321.713-.464 7.2-4.527 16.398-6.808 23.384-6.808 12.94 0 25.523 12.832 28.09 25.915.356 1.497.677 4.277.428 6.274-.036.356-.072.748-.143 1.176a17.205 17.205 0 01-1.105 3.957c-.178.499-.392.927-.57 1.283 0 .036-.036.036-.036.071-.499.998-1.07 1.96-1.71 2.888-1.462 2.174-3.138 3.885-5.597 5.81-.57.428-1.141.891-1.747 1.283-.143.107-.285.179-.428.286-.25.178-.499.32-.748.499-.214.142-.428.25-.642.392l-.749.428c-.178.106-.392.213-.57.32-.285.143-.57.321-.855.464-.143.071-.321.178-.464.25-.32.177-.677.32-.998.498-.107.036-.214.107-.32.143-.393.178-.82.392-1.248.57-.036 0-.072.036-.107.036-4.385 1.853-9.055 2.994-13.44 3.208h-.035c-.499.036-.962.036-1.461.036-6.773 0-14.936-2.496-20.747-7.237-6.63-5.418-10.48-13.581-10.48-21.352.071-.25.071-.499.071-.748z" fill="#AFAFAF"/><path d="M18.279 49.198c0 7.771 3.814 15.934 10.48 21.353 5.81 4.74 13.973 7.236 20.746 7.236 14.544 0 32.973-10.551 32.973-25.095C82.478 38.184 68.433 22 53.89 22c-6.987 0-16.184 2.281-23.385 6.773C22.735 33.62 18.28 41.64 18.28 49.198z" fill="#FCFAF7"/><path d="M25.087 33.229c1.747-1.676 2.959-2.78 4.67-3.957-.856 2.353-1.177 3.957-1.177 6.345 0 7.771 1.498 13.011 8.128 18.465 5.81 4.741 13.973 7.236 20.746 7.236 10.872 0 18.608-4.349 24.525-13.367.463 1.96.891 6.202 0 7.913-2.103 3.957-1.96 3.351-5.882 6.31-6.487 4.955-15.435 7.95-23.099 7.95-6.773 0-14.971-2.496-20.746-7.237-6.63-5.419-10.48-13.582-10.48-21.353 0-4.063.998-4.598 3.315-8.305z" fill="#F7F6F2"/><path d="M21.843 37.364c1.14-2.068.891-1.569 2.638-3.494-.856 2.353-1.711 4.171-1.711 6.56 0 7.77 3.814 15.933 10.48 21.352 5.81 4.74 13.974 7.236 20.746 7.236 10.873 0 22.565-6.38 28.482-15.435 0 1.89-.962 5.276-1.853 7.022-2.104 3.957-4.1 6.31-7.985 9.269-6.488 4.954-15.435 7.949-23.1 7.949-6.772 0-14.935-2.495-20.746-7.236-6.63-5.419-10.48-13.582-10.48-21.353-.035-4.028 1.212-8.163 3.53-11.87z" fill="#F0EFEB"/></svg>