<svg width="100" height="100" viewBox="0 0 100 100" fill="none" xmlns="http://www.w3.org/2000/svg"><path d="M31.243 51.24c0-4.888 3.184-8.844 6.99-8.844 3.884 0 5.903 3.103 6.291 7.215 1.554-2.017 2.486-4.422 2.563-7.138.078-6.595-5.437-12.026-12.35-12.103-6.834-.078-12.426 5.276-12.504 11.87 0 5.82 9.01 10.242 9.01 9zm37.281.31c0-4.887-3.029-8.922-6.912-8.922-3.884 0-5.98 3.026-6.447 7.138-1.553-2.017-2.408-4.5-2.408-7.215.078-6.595 5.67-11.949 12.505-11.871 6.835.078 12.35 5.431 12.35 12.103-.078 5.664-9.088 9.931-9.088 8.768z" fill="#6E4736"/><path d="M50.302 15h-.172c-17.26 0-31.154 9.741-31.24 21.897-.087 13.362 7.94 18.706 10.7 15.258.95-1.207.691-3.017.605-5.345 0-5.43 3.538-8.707 7.767-8.62 4.832.086 5.695 3.362 5.695 8.793 0 4.569-6.127 27.672-5.954 29.827.172 2.156 4.832 8.018 11.822 8.19h.173c7.077 0 11.737-5.862 11.996-8.017.172-2.155-5.524-25.345-5.524-29.914 0-5.431.95-8.707 5.782-8.707 4.23 0 7.767 3.276 7.681 8.793 0 2.242-.345 4.052.604 5.345 2.675 3.448 10.787-1.724 10.874-15.086C81.197 25.172 67.389 15.259 50.302 15z" fill="#D1AD88"/></svg>