<svg width="100" height="100" viewBox="0 0 100 100" fill="none" xmlns="http://www.w3.org/2000/svg"><path d="M65.138 22.837c-2.818-1.451-8.737-1.636-10.245 1.864-.413.94.057 1.878 1.11 1.978 1.537.142 3.088-.341 4.61-.47 1.622-.142 3.159-.412 4.496-1.366.655-.47.868-1.579.029-2.006z" fill="#FFE49A"/><path d="M56.003 26.665c1.537.142 3.088-.342 4.61-.47 1.622-.142 3.159-.413 4.496-1.366.655-.47.854-1.565.015-2.006a7.827 7.827 0 00-1.665-.612c.242.512 0 1.195-.47 1.537-1.351.953-2.874 1.223-4.496 1.366-1.238.1-2.49.426-3.728.47.085.582.526 1.024 1.238 1.08z" fill="#FFC44D"/><path d="M38.274 29.268c-.355-.683-1.223-1.095-1.963-1.067-6.83.256-14.528 7.513-18.44 12.65-.655.853-.015 2.319 1.18 1.92 4.639-1.565 8.41-4.809 12.55-7.313 1.964-1.21 8.452-2.732 6.673-6.19z" fill="#FFEEAD"/><path d="M36.296 28.201c-.07 0-.142.015-.213.015 0 .014.014.014.028.028 1.793 3.458-4.71 4.98-6.687 6.175-3.913 2.376-7.513 5.393-11.81 7.03-.1.782.484 1.621 1.423 1.294 4.639-1.565 8.41-4.81 12.55-7.314 1.977-1.195 8.466-2.717 6.687-6.175-.356-.669-1.238-1.081-1.978-1.053z" fill="#FFC44D"/><path d="M54.196 20.475c-1.537-.982-3.614.384-4.795 1.38-1.153.968-2.277 2.192-2.604 3.714-.213 1.053.2 2.134 1.153 2.66 1.052.584 2.703.257 3.23-.924.512-1.152 1.038-1.55 2.02-2.533.526-.526 1.18-.967 1.55-1.636.513-.925.356-2.063-.554-2.66z" fill="#FFEEAD"/><path d="M52.688 22.154c-.37.655-1.039 1.11-1.551 1.637-.982.982-1.508 1.38-2.02 2.547-.342.754-1.139 1.166-1.936 1.21.2.27.456.511.769.696 1.052.584 2.703.256 3.23-.925.512-1.152 1.038-1.55 2.02-2.532.526-.527 1.18-.968 1.55-1.637.513-.924.356-2.063-.568-2.646-.456-.285-.94-.356-1.452-.313.342.569.328 1.323-.042 1.963z" fill="#FFC44D"/><path d="M54.395 24.16c-.74-.313-1.266.513-1.18 1.125.298 2.22-.044 3.841-.812 5.933-.242.669-.768 1.679-.384 2.39.299.527.982.74 1.522.441 3.017-1.664 4.554-8.28.854-9.889z" fill="#FFEEAD"/><path d="M54.395 24.16a.687.687 0 00-.554-.014c1.977 2.376.569 7.356-1.95 8.879 0 .2.043.398.143.583.298.527.981.74 1.522.441 3.002-1.664 4.539-8.28.84-9.889z" fill="#FFC44D"/><path d="M65.195 39.328c-2.433-.085-4.625 2.42-6.474 3.728-2.277 1.608-5.052 2.604-6.816 4.838-1.508 1.907.968 4.155 2.746 2.533 3.43-3.116 9.989-5.194 11.383-10.102.142-.541-.341-.982-.84-.997z" fill="#FFEEAD"/><path d="M65.195 39.328a3.079 3.079 0 00-.811.072c0 .056-.015.113-.029.184-1.394 4.91-7.954 6.987-11.383 10.103a2.03 2.03 0 01-1.166.54c.597.812 1.835 1.139 2.845.214 3.43-3.116 9.989-5.194 11.383-10.102.142-.555-.341-.996-.84-1.01z" fill="#FFC44D"/><path d="M72.793 27.249c-1.409-.157-2.519.925-3.415 1.864-1.01 1.053-2.206 2.163-2.945 3.429-.783 1.352.569 3.187 2.091 2.376 1.338-.711 2.29-2.02 3.187-3.216.783-1.053 1.864-2.205 1.836-3.6-.014-.455-.299-.796-.754-.853z" fill="#FFEBB1"/><path d="M72.793 27.248c-.342-.043-.669 0-.982.086-.1 1.294-1.081 2.376-1.821 3.372-.897 1.195-1.85 2.49-3.188 3.215a1.565 1.565 0 01-.47.171c.328.811 1.225 1.352 2.192.825 1.338-.711 2.291-2.02 3.187-3.215.783-1.053 1.864-2.206 1.836-3.6-.014-.455-.299-.797-.754-.854z" fill="#FFC44D"/><path d="M56.515 27.376c-2.02-2.988-5.82-2.091-8.907-1.394-4.311.982-8.295 2.547-12.777 2.789-.826.043-1.537 1.138-.769 1.793 2.803 2.39 5.564 2.305 9.12 1.82 2.306-.312 4.597-1.095 6.888-1.564 2.034-.413 4.097.07 5.82-1.21.682-.498 1.18-1.423.625-2.234z" fill="#FFEEAD"/><path d="M54.295 26.21c.555.81.043 1.75-.626 2.248-1.721 1.294-3.784.796-5.82 1.21-2.29.469-4.58 1.251-6.886 1.564-2.348.313-4.34.456-6.232-.17 2.59 1.863 5.18 1.778 8.466 1.337 2.305-.313 4.596-1.096 6.887-1.565 2.034-.413 4.098.071 5.82-1.21.668-.498 1.18-1.437.625-2.248-.754-1.124-1.764-1.693-2.888-1.935.228.214.441.47.654.768z" fill="#FFC44D"/><path d="M7.184 48.477c-1.422.626-1.92 2.348-2.077 3.771-.156 1.508.455 2.732 1.594 3.614.555.441 1.522-.043 1.494-.754-.015-.669.028-1.565.156-2.234.185-.953.712-1.58 1.082-2.462.611-1.394-1.068-2.461-2.249-1.935z" fill="#FFEEAD"/><path d="M7.896 49.53c-.37.868-.897 1.508-1.081 2.462-.129.668-.171 1.565-.157 2.234.014.426-.327.768-.726.882.214.27.484.526.769.754.555.44 1.522-.043 1.494-.754-.015-.669.028-1.565.156-2.234.185-.954.712-1.58 1.082-2.462.483-1.138-.541-2.063-1.58-2.063.2.327.242.74.043 1.181z" fill="#FFC44D"/><path d="M40.878 32.228c-.142-.512-1.025-.598-1.124 0-.27 1.68-1.537 3.557-2.889 4.567-1.707 1.281.114 3.657 1.765 2.32 1.024-.826 1.721-1.822 2.234-3.031.569-1.309.384-2.547.014-3.856z" fill="#FFEEAD"/><path d="M39.754 32.228a4.883 4.883 0 01-.228.868c.057.697-.014 1.409-.327 2.134-.512 1.21-1.21 2.206-2.234 3.031-.213.17-.441.285-.655.341.342.797 1.352 1.295 2.334.513 1.025-.826 1.722-1.822 2.234-3.031.555-1.309.37-2.533 0-3.856-.142-.512-1.025-.598-1.124 0z" fill="#FFC44D"/><path d="M77.986 47.439c-.654-.37-1.266-.356-1.978-.498-.711-.128-1.337-.455-1.92-.84-1.196-.782-1.494-2.39-1.566-3.713-.028-.527-.74-1.01-1.166-.512-1.523 1.82-1.324 4.183.114 6.018 1.294 1.665 4.382 3.458 6.474 2.22.953-.57 1.08-2.078.042-2.675z" fill="#FFEBB1"/><path d="M72.508 42.387c-.028-.526-.74-1.01-1.167-.512-.17.2-.313.413-.44.626.17 1.039.569 2.106 1.465 2.69.47.312.967.568 1.508.74-1.01-.826-1.309-2.306-1.366-3.544zm5.422 7.726c.967-.583 1.095-2.091.056-2.689-.398-.227-.782-.313-1.18-.37.412.712.17 1.708-.584 2.163-.953.57-2.12.498-3.23.1 1.494 1.038 3.472 1.678 4.937.796z" fill="#FFC44D"/><path d="M57.44 31.09c-.114-.57-.54-1.167-1.138-1.338-2.348-.654-4.98-.241-7.37.015-1.836.199-4.113.74-4.98 2.532-.129.256.014.64.241.769 1.637.967 3.856.597 5.677.512 2.22-.1 4.482.17 6.588-.584.584-.213.925-.882.996-1.45a.992.992 0 00-.014-.456z" fill="#FFEEAD"/><path d="M56.316 29.766a7.205 7.205 0 00-.797-.17c.071.142.114.284.142.427.029.156.043.313.029.47-.071.568-.413 1.251-.996 1.45-2.12.754-4.383.484-6.588.584-1.309.057-2.831.256-4.183.014 0 .214.114.455.284.555 1.637.968 3.856.598 5.678.512 2.22-.1 4.482.17 6.587-.583.584-.214.925-.882.996-1.451a1.31 1.31 0 00-.028-.47c-.114-.583-.54-1.181-1.124-1.338zm32.712 29.426c.654 1.408-.399 3.315-2.135 2.788.584.385 1.195.712 1.85.911 1.722.526 2.775-1.38 2.134-2.789-.683-1.48-2.475-2.376-3.912-3.016a.696.696 0 00-.157-.057c.925.54 1.793 1.238 2.22 2.163z" fill="#FFC44D"/><path d="M90.863 60.102c-.683-1.48-2.476-2.376-3.913-3.016-1.508-.683-2.93-1.068-4.581-1.196-1.139-.085-1.85 1.594-.954 2.32 1.11.91 2.234 1.679 3.472 2.419 1.252.754 2.433 1.82 3.842 2.248 1.736.54 2.789-1.366 2.134-2.775z" fill="#FFEBB1"/><path d="M97.408 57.413c-1.593-1.21-3.984.1-5.378 1.081-1.352.953-2.69 2.191-3.173 3.828-.342 1.124.028 2.347 1.024 3.016 1.11.74 2.946.527 3.614-.725.67-1.224 1.281-1.608 2.433-2.604.612-.527 1.38-.968 1.85-1.65.655-.954.584-2.22-.37-2.946z" fill="#FFE49A"/><path d="M95.63 59.12c-.456.683-1.224 1.124-1.836 1.65-1.152.997-1.778 1.381-2.433 2.605-.441.796-1.337 1.166-2.234 1.152a2.4 2.4 0 00.783.825c1.11.74 2.945.527 3.614-.725.669-1.224 1.28-1.608 2.433-2.604.612-.527 1.38-.968 1.85-1.65.64-.968.569-2.234-.385-2.946-.47-.356-.995-.47-1.55-.47.284.67.199 1.495-.242 2.163z" fill="#FFC44D"/><path d="M76.905 30.094c-1.039-1.181-2.874-.754-4.013.014-.555.37-1.01.825-1.38 1.38-.299.456-.356 1.082-.54 1.594-.37.982.967 1.537 1.636.939.256-.228.47-.228.768-.384.342-.171.669-.384 1.01-.555.698-.356 1.494-.057 2.22-.54.854-.57.982-1.666.299-2.448z" fill="#FFEBB1"/><path d="M75.197 29.369c.513.768.356 1.721-.455 2.262-.726.484-1.508.185-2.22.54-.341.171-.668.37-1.01.556-.199.1-.356.142-.512.213-.014.043-.028.1-.043.142-.37.982.968 1.537 1.637.94.256-.228.47-.228.768-.385.341-.17.669-.384 1.01-.555.697-.355 1.494-.057 2.22-.54.882-.584.996-1.68.313-2.462-.456-.498-1.067-.697-1.708-.711z" fill="#FFC44D"/><path d="M46.427 14.442c-1.152.996-1.409 2.405-1.92 3.785-.385 1.039-.812 2.191-1.552 3.06-.654.768-1.408 0-2.376.056-.47.029-.782.456-.768.897.128 3.13 4.354 3.201 6.118 1.579 1.779-1.622 3.201-4.752 3.572-7.143.241-1.55-1.509-3.585-3.074-2.234z" fill="#FFEEAD"/><path d="M45.943 23.819c1.779-1.622 3.202-4.752 3.572-7.143.213-1.408-1.196-3.187-2.633-2.532.313.498.47 1.08.385 1.621-.356 2.377-1.779 5.507-3.572 7.143-.768.712-2.02 1.096-3.187 1.039 1.309 1.352 4.084 1.11 5.435-.128z" fill="#FFC44D"/><path d="M54.794 22.467c-2.135.3-4.013 1.21-5.863 2.263-1.55.896-3.557 1.963-4.51 3.514-.555.91.156 1.836 1.095 1.95 1.694.227 3.415-.868 4.88-1.608 1.794-.897 3.501-1.665 5.493-1.978 2.746-.427 1.608-4.525-1.096-4.14z" fill="#FFEEAD"/><path d="M45.502 30.193c1.693.228 3.415-.868 4.88-1.608 1.793-.896 3.5-1.664 5.493-1.977 2.604-.413 1.707-4.112-.683-4.17.882 1.139.754 2.989-1.039 3.288-1.992.313-3.7 1.095-5.506 1.977-1.31.655-2.832 1.594-4.34 1.622.2.456.654.797 1.195.868z" fill="#FFC44D"/><path d="M61.737 28.372c-.683-.384-1.323-.37-2.063-.512-.74-.142-1.395-.47-2.006-.882-1.238-.811-1.58-2.49-1.65-3.87-.03-.555-.783-1.053-1.21-.527-1.594 1.907-1.366 4.368.128 6.29 1.366 1.735 4.596 3.6 6.758 2.304 1.01-.611 1.139-2.19.043-2.803z" fill="#FFEEAD"/><path d="M56.017 23.108c-.028-.555-.782-1.053-1.21-.527-.17.214-.327.427-.455.655.185 1.095.598 2.191 1.537 2.803.498.327 1.01.597 1.58.768-1.082-.854-1.38-2.404-1.452-3.7zm5.677 8.067c1.01-.612 1.139-2.177.057-2.803-.412-.242-.825-.327-1.238-.384.427.74.185 1.779-.597 2.248-.996.598-2.206.527-3.358.114 1.55 1.081 3.6 1.736 5.136.825z" fill="#FFC44D"/><path d="M83.165 36.924c-1.593-3.856-7.256-2.248-10.315-1.338-4.155 1.224-8.68 3.557-10.714 7.47a1.069 1.069 0 001.45 1.452c3.017-1.594 6.39-3.017 9.662-3.985 1.779-.526 3.514-.924 5.364-.981 1.366-.043 2.462.355 3.686-.441.64-.427 1.195-1.366.867-2.177z" fill="#FFE49A"/><path d="M63.573 44.507c3.016-1.593 6.388-3.016 9.66-3.984 1.78-.526 3.515-.925 5.365-.982 1.366-.042 2.462.356 3.685-.44.655-.428 1.21-1.352.882-2.163-.555-1.366-1.636-2.035-2.916-2.305a3.8 3.8 0 01.882 1.294c.327.811-.214 1.736-.882 2.163-1.224.797-2.32.398-3.686.441-1.85.057-3.6.456-5.364.982-3.087.91-6.246 2.234-9.135 3.728-.298.882.626 1.736 1.509 1.266zm28.642 5.863c-.726-.427-1.409-.427-2.206-.584-.782-.156-1.48-.526-2.134-.967-1.309-.897-1.636-2.704-1.693-4.17-.014-.597-.811-1.138-1.295-.583-1.736 2.007-1.55 4.653.028 6.73 1.423 1.893 4.852 3.942 7.186 2.59 1.11-.64 1.28-2.333.114-3.016z" fill="#FFC44D"/><path d="M86.182 44.65c-.014-.598-.811-1.139-1.295-.584a4.49 4.49 0 00-.498.698c.17 1.166.598 2.362 1.594 3.03a6.917 6.917 0 001.679.854c-1.124-.953-1.423-2.618-1.48-3.998zm5.933 8.722c1.096-.626 1.267-2.32.1-3.002-.441-.256-.868-.356-1.31-.427.456.797.157 1.907-.682 2.404-1.067.627-2.376.527-3.6.057 1.65 1.181 3.842 1.921 5.492.968z" fill="#FFC44D"/><path d="M58.55 15.325c-2.262.184-4.667.995-6.787 1.735-1.779.626-4.468 1.523-4.624 3.714-.029.441.313.825.654 1.039 1.437.882 3.913.028 5.421-.285 2.078-.427 4.17-.754 6.247-1.167 2.874-.583 1.935-5.278-.911-5.037z" fill="#FFEEAD"/><path d="M57.326 19.408c-2.077.413-4.169.74-6.246 1.167-1.039.213-2.533.669-3.842.654.128.242.327.442.54.57 1.438.882 3.914.028 5.422-.285 2.077-.427 4.169-.754 6.246-1.167 2.875-.569 1.95-5.279-.91-5.037-.015 0-.043.014-.057.014 1.01 1.352.825 3.686-1.153 4.084z" fill="#FFC44D"/><path d="M24.97 46.229c-3.756-1.31-7.783 1.18-10.842 3.116-1.85 1.167-3.543 2.433-5.236 3.828-1.039.867-2.775 1.778-3.145 3.187-.327.754.3 1.721 1.224 1.778 2.817.171 5.948-2.632 8.238-3.913 3.06-1.707 5.706-3.244 9.292-3.244 2.917-.028 2.874-3.913.47-4.752z" fill="#FFEEAD"/><path d="M23.86 45.959c1.253 1.409.868 4.027-1.522 4.027-3.586.014-6.232 1.536-9.291 3.244-2.05 1.152-4.781 3.5-7.342 3.87.142.526.626.996 1.252 1.024 2.817.171 5.947-2.632 8.238-3.912 3.06-1.708 5.706-3.245 9.291-3.245 2.903 0 2.86-3.898.456-4.738a5.471 5.471 0 00-1.082-.27z" fill="#FFC44D"/><path d="M69.406 29.652c-3.785-.569-7.214.456-10.842 1.452-3.97 1.081-8.238 1.807-12.037 3.386-1.039.427-.982 2.149.128 2.462 3.799 1.081 7.584.114 11.354-.74 4.041-.91 8.182-1.878 11.966-3.557 1.509-.683.883-2.79-.569-3.003z" fill="#FFEEAD"/><path d="M69.406 29.653c-.27-.043-.54-.057-.797-.085.2.668 0 1.408-.796 1.764-3.785 1.679-7.94 2.646-11.967 3.557-3.33.754-6.673 1.594-10.016 1.039.07.455.341.868.839 1.01 3.799 1.081 7.584.114 11.354-.74 4.041-.91 8.182-1.878 11.967-3.557 1.494-.669.868-2.775-.584-2.988z" fill="#FFC44D"/><path d="M64.412 25.256c-3.33-.37-6.56 2.817-9.249 4.411-3.272 1.95-7.17 3.017-9.831 5.89-2.263 2.434.882 5.777 3.486 3.757 5.022-3.899 14.185-6.047 16.618-12.607.27-.71-.327-1.365-1.024-1.45z" fill="#FFEEAD"/><path d="M64.412 25.256a4.955 4.955 0 00-1.124.014c-.014.072-.028.157-.057.242-2.419 6.56-11.596 8.708-16.619 12.607-.555.427-1.124.598-1.665.612.74 1.166 2.39 1.75 3.87.597 5.023-3.898 14.186-6.047 16.62-12.606.27-.726-.328-1.38-1.025-1.466z" fill="#FFC44D"/><path d="M23.946 48.506c-.17-.64-.697-1.295-1.38-1.437-2.718-.57-5.678.085-8.381.555-2.077.355-4.624 1.138-5.478 3.244-.114.298.057.725.327.868 1.935.967 4.425.398 6.489.17 2.504-.27 5.108-.128 7.455-1.138.655-.285.996-1.067 1.025-1.722.014-.185 0-.37-.057-.54z" fill="#FFEEAD"/><path d="M22.566 47.069c-.3-.057-.612-.1-.911-.143.085.157.156.313.2.484.042.17.07.356.056.54-.043.655-.384 1.452-1.024 1.722-2.348 1.01-4.938.868-7.456 1.139-1.494.156-3.187.498-4.752.313.014.242.156.512.37.612 1.934.967 4.425.398 6.488.17 2.504-.27 5.108-.128 7.455-1.138.655-.285.996-1.067 1.025-1.722a1.755 1.755 0 00-.057-.54c-.185-.64-.711-1.295-1.394-1.437z" fill="#FFC44D"/><path d="M55.064 24.047c-2.39-2.063-6.787-1.025-8.01 1.864-.385.896.654 1.82 1.507 1.579.911-.242 1.65-.256 2.604-.242 1.252.029 2.234.356 3.444-.228 1.038-.483 1.38-2.19.455-2.973z" fill="#FFEEAD"/><path d="M52.63 25.982c-1.195.583-2.19.256-3.443.227-.81-.014-1.465 0-2.205.157.043.725.868 1.337 1.58 1.138.91-.242 1.65-.256 2.603-.242 1.252.029 2.234.356 3.444-.227 1.038-.498 1.38-2.206.455-2.988-.54-.47-1.195-.769-1.878-.94.768.826.44 2.39-.555 2.875z" fill="#FFC44D"/><path d="M69.904 24.018c-1.764-.967-4.297.242-6.118.555-1.067.185-2.29.256-3.358.029-1.394-.3-1.722-1.295-2.134-2.519-.157-.47-.854-.711-1.138-.185-1.893 3.4 1.28 5.677 4.31 6.161 2.42.384 8.353-.2 8.808-3.33.029-.27-.156-.597-.37-.71z" fill="#FFEEAD"/><path d="M70.26 24.715c.043-.256-.142-.569-.37-.697-.384-.213-.81-.313-1.252-.355.014.056.014.113.014.17-.47 3.13-6.403 3.714-8.807 3.33a8.713 8.713 0 01-1.665-.441c.91.683 2.106 1.138 3.273 1.323 2.418.384 8.352-.2 8.807-3.33z" fill="#FFC44D"/><path d="M43.425 21.727c-.071-.569-.953-.925-1.21-.284-.483 1.18-1.195 2.12-1.579 3.372-.427 1.409-.811 2.888-.783 4.382.043 1.822 2.775 2.064 3.173.3.285-1.296.456-2.662.64-3.97.186-1.41-.07-2.42-.241-3.8z" fill="#FFEEAD"/><path d="M41.96 24.772c-.186 1.324-.342 2.675-.641 3.984-.157.712-.697 1.082-1.28 1.181.625 1.139 2.632 1.096 2.973-.412.285-1.295.456-2.661.64-3.97.2-1.423-.056-2.419-.241-3.8-.072-.568-.954-.924-1.21-.284-.1.242-.213.47-.313.683.128.84.214 1.622.071 2.618zm37.036 17.359c-.341-1.11-1.494-1.508-2.29-2.205-1.04-.897-1.608-2.163-1.708-3.515-.1-1.48-2.134-1.252-2.22.143-.128 1.792.413 3.642 1.623 4.994 1.053 1.18 2.988 2.618 4.467 1.252.171-.157.185-.455.128-.669z" fill="#FFC44D"/><path d="M76.691 39.926c-1.038-.896-1.608-2.163-1.707-3.515-.085-1.237-1.508-1.266-2.035-.426.185 1.166.712 2.262 1.622 3.045.811.697 1.95 1.095 2.291 2.205.071.214.043.512-.128.669-.427.398-.91.555-1.394.54 1.053.826 2.404 1.352 3.486.342.185-.17.199-.455.128-.669-.3-1.095-1.452-1.494-2.263-2.191z" fill="#FFC44D"/><path d="M55.306 23.79c-.27-1.053-1.31-1.465-2.02-2.148-.911-.883-1.38-2.078-1.41-3.33-.028-1.38-1.906-1.252-2.063.028-.199 1.651.214 3.387 1.267 4.696.925 1.138 2.646 2.561 4.07 1.38.17-.156.198-.427.156-.626z" fill="#FFEEAD"/><path d="M53.285 21.628c-.91-.882-1.38-2.077-1.408-3.33-.029-1.152-1.338-1.252-1.864-.497.114 1.095.555 2.134 1.366 2.902.711.683 1.764 1.11 2.02 2.149.057.199.014.47-.156.611-.427.356-.868.47-1.31.442.94.81 2.163 1.366 3.216.483.171-.142.214-.412.157-.611-.27-1.04-1.31-1.466-2.02-2.149z" fill="#FFC44D"/><path d="M34.888 34.846c-2.192-1.223-6.859-1.522-8.153 1.195-.342.726-.015 1.494.825 1.594 1.21.157 2.447-.185 3.657-.242 1.28-.071 2.504-.242 3.6-.953.526-.37.725-1.238.07-1.594z" fill="#FFEEAD"/><path d="M27.56 37.635c1.21.157 2.447-.185 3.657-.242 1.28-.071 2.504-.242 3.6-.953.526-.356.725-1.224.07-1.58a5.997 5.997 0 00-1.294-.526c.17.413-.029.94-.413 1.195-1.081.726-2.305.897-3.6.953-.981.057-1.977.27-2.96.27.043.442.37.812.94.883z" fill="#FFC44D"/><path d="M51.848 28.657c-.498-.441-1.465-.299-1.593.44-.2 1.182-.029 2.377-.129 3.572-.113 1.395-.924 2.362-1.593 3.515-.712 1.223.768 2.703 1.978 1.92 2.618-1.693 3.87-7.156 1.337-9.447z" fill="#FFEEAD"/><path d="M50.639 28.543c1.622 2.561.384 7.143-1.992 8.665a1.133 1.133 0 01-.228.114c.285.783 1.238 1.31 2.078.783 2.632-1.693 3.884-7.171 1.351-9.448a1.08 1.08 0 00-1.21-.114z" fill="#FFC44D"/><path d="M91.575 58.765c-.897-.285-1.423.754-1.253 1.48.626 2.56.441 4.51-.199 7.071-.199.825-.697 2.063-.142 2.86.413.584 1.238.74 1.835.327 3.33-2.347 4.297-10.315-.242-11.738z" fill="#FFEBB1"/><path d="M91.574 58.765a.849.849 0 00-.655.042c2.633 2.533 1.594 8.566-1.166 10.686.028.242.1.47.241.669.413.583 1.238.74 1.836.327 3.315-2.334 4.283-10.302-.256-11.724z" fill="#FFC44D"/><path d="M41.177 65.253c-1.267-.94-2.79-1.366-4.24-1.907-1.509-.569-2.946-1.437-4.369-2.191-.782-.413-2.12.114-1.778 1.195 1.18 3.813 6.431 6.773 10.259 4.838.768-.384.796-1.437.128-1.935z" fill="#FFEEAD"/><path d="M41.177 65.253c-.584-.427-1.21-.74-1.864-1.01.455.54.355 1.394-.328 1.736-1.735.868-3.756.74-5.563-.015 2.177 1.694 5.194 2.448 7.627 1.224.768-.384.796-1.437.128-1.935z" fill="#FFC44D"/><path d="M28.513 46.443c-.74-1.736-2.774-2.818-4.397-3.6-1.721-.84-3.329-1.324-5.236-1.523-1.309-.142-2.19 1.765-1.18 2.647 1.252 1.081 2.532 2.006 3.912 2.903 1.409.91 2.746 2.176 4.354 2.717 1.978.655 3.259-1.508 2.547-3.144z" fill="#FFEEAD"/><path d="M26.422 45.319c.711 1.65-.57 3.798-2.547 3.144.668.455 1.351.868 2.091 1.11 1.978.669 3.259-1.494 2.547-3.145-.74-1.736-2.774-2.817-4.396-3.6-.057-.028-.114-.042-.171-.07 1.053.654 2.02 1.493 2.476 2.56z" fill="#FFC44D"/><path d="M23.946 43.298c-.512-1.779-2.775-2.234-4.354-2.092-1.722.157-3.088.868-3.984 2.362-.512.854.156 2.206 1.223 2.092 1.096-.114 2.39-.313 3.486-.142.854.142 1.95.597 2.76.014.726-.54 1.14-1.295.869-2.234z" fill="#FFEEAD"/><path d="M16.831 45.66c1.096-.114 2.39-.313 3.486-.142.854.142 1.95.597 2.76.014.726-.54 1.153-1.28.883-2.22-.327-1.167-1.409-1.75-2.561-1.992.284.285.512.626.626 1.039.27.939-.157 1.679-.882 2.22-.797.597-1.893.127-2.76-.015-.897-.142-1.936-.028-2.889.086.17.583.683 1.08 1.337 1.01z" fill="#FFC44D"/><path d="M38.445 30.42c-1.11-1.195-2.22-2.362-3.102-3.728-.555-.867-2.02-.398-1.92.64.141 1.537.725 2.761 1.664 3.97.754.982 2.419 2.903 3.827 2.064 1.167-.683.157-2.277-.47-2.946z" fill="#FFEEAD"/><path d="M35.343 26.679c-.384-.598-1.181-.555-1.622-.128.768 1.039 1.65 1.978 2.533 2.93.626.67 1.636 2.263.483 2.946-.156.1-.313.142-.47.171.798.726 1.78 1.28 2.662.754 1.152-.683.142-2.276-.484-2.945-1.11-1.181-2.206-2.348-3.102-3.728zm30.264-5.492c-1.423-.783-3.016-1.01-4.567-1.366-1.608-.384-3.187-1.067-4.738-1.637-.854-.313-2.149.399-1.65 1.452 1.72 3.713 7.455 6.004 11.083 3.529.74-.498.626-1.566-.128-1.978z" fill="#FFC44D"/><path d="M65.607 21.187c-.654-.356-1.337-.584-2.034-.783.526.484.54 1.366-.1 1.807-1.636 1.124-3.714 1.266-5.649.74 2.448 1.437 5.606 1.793 7.925.213.726-.498.612-1.565-.142-1.977z" fill="#FFC44D"/><path d="M34.83 40.395c-1.536-2.59-4.737-2.02-7.341-1.593-3.643.597-7.03 1.707-10.771 1.693-.683 0-1.338.868-.726 1.451 2.22 2.135 4.51 2.192 7.498 1.964 1.936-.142 3.885-.683 5.806-.968 1.707-.242 3.4.27 4.894-.725.598-.37 1.053-1.11.64-1.822z" fill="#FFEEAD"/><path d="M33.038 39.328c.413.697-.043 1.452-.626 1.836-1.494.981-3.187.47-4.895.725-1.92.27-3.87.811-5.805.968-1.964.157-3.628.157-5.18-.455 2.064 1.679 4.227 1.736 6.973 1.522 1.935-.142 3.884-.683 5.805-.968 1.707-.241 3.4.27 4.895-.725.583-.384 1.053-1.138.626-1.836-.584-.967-1.395-1.494-2.32-1.75.185.2.37.413.527.683z" fill="#FFC44D"/><path d="M80.035 35.856c-.043-.953-1.437-1.437-1.892-.483-.47.981-1.38 1.764-2.05 2.618-.753.939-1.692 1.707-2.632 2.447-1.906 1.522.67 4.738 2.647 3.344a10.976 10.976 0 003.187-3.387c.91-1.465.797-2.902.74-4.539z" fill="#FFE49A"/><path d="M78.143 35.373c-.043.1-.114.185-.171.284.043 1.31-.014 2.505-.754 3.728-.825 1.366-1.893 2.462-3.187 3.387-.257.17-.513.284-.769.313.64.882 1.822 1.422 2.86.697 1.31-.91 2.362-2.02 3.188-3.387.896-1.465.796-2.902.725-4.539-.043-.939-1.437-1.437-1.892-.483z" fill="#FFC44D"/><path d="M38.374 25.712c-1.11-.584-2.348-.74-3.558-.997-1.252-.27-2.49-.782-3.699-1.195-.669-.227-1.65.342-1.266 1.153 1.38 2.86 5.862 4.553 8.65 2.59.57-.413.47-1.239-.127-1.552z" fill="#FFEEAD"/><path d="M38.374 25.711c-.513-.27-1.039-.44-1.594-.583.413.37.441 1.053-.057 1.409-1.252.896-2.86 1.024-4.368.654 1.907 1.082 4.382 1.31 6.147.057.569-.398.47-1.224-.128-1.537z" fill="#FFC44D"/><path d="M30.761 44.892c-2.362-.029-4.41 2.433-6.19 3.742-2.162 1.593-4.823 2.618-6.487 4.809-1.423 1.864 1.024 3.998 2.703 2.39 3.258-3.087 9.547-5.221 10.8-10.002.142-.513-.342-.925-.826-.94z" fill="#FFEEAD"/><path d="M30.761 44.892c-.27 0-.526.028-.782.085 0 .057 0 .114-.029.171-1.252 4.78-7.54 6.915-10.8 10.003-.355.341-.74.498-1.123.54.597.769 1.793 1.053 2.76.157 3.258-3.088 9.547-5.222 10.8-10.003.142-.526-.342-.939-.826-.953z" fill="#FFC44D"/><path d="M37.079 52.006c-3.5-1.665-7.67.313-10.842 1.864a47.475 47.475 0 00-5.478 3.159c-1.096.725-2.889 1.437-3.387 2.76-.398.697.1 1.707.996 1.85 2.704.455 6.047-1.921 8.41-2.917 3.158-1.338 5.876-2.533 9.362-2.163 2.803.299 3.187-3.486.939-4.553z" fill="#FFEEAD"/><path d="M36.04 51.636c1.067 1.494.413 3.998-1.907 3.742-3.486-.37-6.203.826-9.362 2.163-2.12.897-5.008 2.889-7.527 2.974a1.359 1.359 0 001.11 1.124c2.703.455 6.047-1.92 8.41-2.917 3.158-1.337 5.875-2.533 9.362-2.163 2.817.3 3.187-3.486.953-4.553a6.954 6.954 0 00-1.039-.37z" fill="#FFC44D"/><path d="M14 62.677c-.213-1.152-1.323-1.679-2.063-2.462-.94-1.01-1.38-2.347-1.323-3.713.056-1.494-2.007-1.494-2.249-.114-.313 1.793.015 3.7 1.082 5.194.925 1.294 2.718 2.959 4.34 1.75.199-.143.256-.427.213-.655z" fill="#FFEEAD"/><path d="M11.937 60.202c-.94-1.01-1.38-2.348-1.323-3.714.056-1.252-1.38-1.437-1.992-.655.056 1.196.47 2.348 1.294 3.245.74.782 1.836 1.308 2.063 2.461.043.228-.014.512-.213.669-.484.355-.967.455-1.451.398.967.94 2.262 1.622 3.472.74.199-.142.256-.441.213-.669-.228-1.152-1.323-1.679-2.063-2.475zm63.161-27.874c-1.167-1.096-2.504-.982-3.885-.37-1.038.47-1.664 1.266-2.404 2.077-.655.712-.214 2.006.882 1.779.711-.157 1.437-.214 2.163-.313.91-.128 1.878.114 2.703-.413.854-.57 1.451-1.892.54-2.76z" fill="#FFC44D"/><path d="M73.547 31.545c.597.854.057 2.006-.74 2.519-.811.526-1.793.298-2.704.412-.54.071-1.067.128-1.607.214-.072.64.37 1.28 1.166 1.11.712-.157 1.438-.214 2.163-.313.91-.129 1.878.113 2.704-.413.868-.57 1.465-1.892.555-2.76a2.872 2.872 0 00-1.537-.769z" fill="#FFC44D"/><path d="M61.85 25.67c-.27-1.267-1.493-1.808-2.333-2.647-1.053-1.081-1.565-2.547-1.55-4.041.028-1.636-2.234-1.58-2.476-.057-.3 1.964.114 4.055 1.323 5.663 1.053 1.395 3.06 3.173 4.81 1.807.227-.17.284-.484.227-.726z" fill="#FFE49A"/><path d="M59.532 23.008c-1.053-1.081-1.565-2.547-1.551-4.04.014-1.381-1.551-1.538-2.206-.67.086 1.31.57 2.562 1.508 3.515.826.84 2.05 1.394 2.334 2.646.057.242 0 .57-.213.726-.513.399-1.053.527-1.58.47 1.082 1.01 2.533 1.721 3.828.711.213-.17.27-.484.213-.726-.284-1.238-1.508-1.778-2.333-2.632zm23.135 9.391c-2.945-1.224-8.878-.94-10.116 2.69-.327.967.199 1.877 1.28 1.892 1.551.014 3.06-.584 4.582-.84 1.608-.27 3.13-.669 4.397-1.722.626-.526.74-1.65-.143-2.02z" fill="#FFC44D"/><path d="M73.831 36.98c1.551.015 3.06-.583 4.582-.839 1.608-.27 3.13-.669 4.397-1.721.611-.527.725-1.637-.143-2.007-.498-.213-1.081-.37-1.707-.484.285.498.1 1.196-.356 1.58-1.266 1.067-2.789 1.465-4.396 1.736-1.224.199-2.462.626-3.7.768.142.555.612.968 1.323.968z" fill="#FFC44D"/><path d="M69.933 60.927c-1.523-2.504-4.767-1.65-7.257-1.266-3.714.569-8.566.882-11.91 2.618-.753.398-.767 1.55-.042 1.978 2.832 1.679 6.417.84 9.505.341 2.817-.455 7.94-.128 9.69-2.66.184-.3.184-.726.014-1.01z" fill="#FFE49A"/><path d="M69.904 61.923c.2-.284.2-.711.014-1.01-.569-.939-1.38-1.394-2.305-1.593.2.185.37.412.527.668.17.285.17.726-.014 1.01-1.75 2.533-6.873 2.206-9.69 2.661-2.575.413-5.507 1.053-8.04.285.086.114.186.227.314.299 2.831 1.679 6.417.84 9.505.341 2.831-.44 7.953-.128 9.69-2.66z" fill="#FFC44D"/><path d="M45.716 15.595c-.67-.228-1.068.555-.954 1.081.427 1.921.27 3.372-.242 5.265-.156.611-.54 1.536-.142 2.134a1 1 0 001.366.27c2.519-1.693 3.344-7.626-.028-8.75z" fill="#FFEEAD"/><path d="M45.716 15.595a.66.66 0 00-.498.029c1.935 1.92 1.081 6.417-1.01 7.953a.994.994 0 00.17.498.999.999 0 001.366.27c2.519-1.692 3.344-7.626-.028-8.75z" fill="#FFC44D"/><path d="M60.585 24.53c-.527-1.01-2.234-.654-3.074-.512-2.419.399-4.553-.185-5.435-2.689-.342-.968-1.665-.598-1.68.341-.042 2.362.869 4.084 2.86 5.336 1.722 1.082 5.322 1.224 6.816-.327.598-.626.925-1.337.513-2.148z" fill="#FFEEAD"/><path d="M52.06 21.329c-.312-.868-1.394-.655-1.636.085.684 1.096 1.694 1.636 2.889 1.793-.512-.441-.953-1.039-1.252-1.878zm6.518 2.547c.27.726-.057 1.366-.597 1.935-1.082 1.124-3.244 1.352-5.023.996.1.071.185.142.299.213 1.721 1.082 5.321 1.224 6.815-.327.598-.626.94-1.337.513-2.148-.356-.683-1.224-.74-2.007-.67z" fill="#FFC44D"/><path d="M51.464 21.756c-2.191-.356-4.425-.029-6.574-.712-2.162-.697-3.073-2.774-3.941-4.695-.228-.498-1.096-.47-1.309.014-3.216 7.257 6.63 11.81 12.28 8.566 1.237-.711 1.066-2.931-.456-3.173z" fill="#FFEEAD"/><path d="M51.934 24.929c1.223-.711 1.053-2.931-.47-3.173-.341-.057-.697-.085-1.039-.114.313.768.086 1.793-.683 2.234-2.233 1.28-5.122 1.337-7.598.498 2.775 1.821 6.844 2.234 9.79.555z" fill="#FFC44D"/><path d="M28.172 58.693c-3.06-.298-6.29-.569-9.292.2-.583.142-1.095.64-1.238 1.223-.056.256-.113.47-.056.726.355 1.593 2.19 1.793 3.543 2.049 2.29.427 4.68.697 7.014.626 3.173-.1 3.088-4.525.029-4.824z" fill="#FFEEAD"/><path d="M28.157 63.517c3.16-.1 3.074-4.54.015-4.838-.057 0-.114-.014-.171-.014 1.053 1.394.484 3.77-1.835 3.856-2.32.07-4.724-.2-7.015-.626-.356-.071-.754-.143-1.153-.228.712.84 2.063 1.01 3.13 1.224 2.306.44 4.71.711 7.03.626zm62.791-2.405c-1.565.541-2.22 1.438-2.96 2.903-.568 1.11-1.365 2.063-1.92 3.173-.669 1.323.825 2.462 2.006 2.348 1.75-.171 2.732-1.878 3.444-3.287.298-.612.611-1.252.825-1.892.1-.27.2-.527.27-.797.071-.2.086-.413.086-.612.014-.043.042-.085.07-.17.527-1.21-.825-2.007-1.82-1.666z" fill="#FFC44D"/><path d="M91.005 61.112c0 .171-.014.342-.1.527-.028.07-.042.128-.07.17 0 .214-.015.413-.086.612-.07.285-.185.527-.27.797a17.27 17.27 0 01-.825 1.892c-.697 1.41-1.694 3.117-3.444 3.287h-.17c.327.726 1.252 1.21 2.034 1.124 1.75-.17 2.732-1.878 3.444-3.287.298-.611.611-1.252.825-1.892.1-.27.2-.526.27-.797.071-.199.086-.412.086-.611.014-.043.042-.086.07-.171.513-1.167-.782-1.95-1.764-1.65zm-8.85-20.034c-1.28-.07-2.22.94-2.988 1.836-.854.996-1.892 2.049-2.504 3.215-.655 1.253.654 2.846 1.992 2.05 1.167-.698 1.978-1.922 2.718-3.031.668-.982 1.579-2.064 1.494-3.33-.029-.412-.285-.711-.712-.74z" fill="#FFC44D"/><path d="M82.155 41.078a2.25 2.25 0 00-.882.128c-.028 1.167-.868 2.192-1.494 3.116-.754 1.11-1.55 2.334-2.718 3.031a1.41 1.41 0 01-.412.17c.341.712 1.166 1.153 2.006.655 1.167-.697 1.978-1.92 2.718-3.03.668-.982 1.579-2.063 1.494-3.33-.029-.412-.285-.711-.712-.74z" fill="#FFC44D"/><path d="M34.077 30.563c0-.783-.968-1.452-1.608-.797-1.537 1.537-2.803 4.112-2.462 6.317.242 1.594 2.362 1.494 2.931.2.399-.911.47-1.95.712-2.903.227-.925.427-1.864.427-2.817z" fill="#FFEEAD"/><path d="M32.042 32.427c-.242.953-.313 2.006-.712 2.903-.227.526-.74.854-1.266.939.398 1.366 2.334 1.224 2.86 0 .398-.91.47-1.95.712-2.903.241-.91.44-1.864.426-2.817 0-.783-.953-1.451-1.607-.811 0 .925-.185 1.821-.413 2.69z" fill="#FFC44D"/><path d="M21.143 51.138c-1.295.028-2.177 1.124-2.889 2.092-.782 1.08-1.75 2.22-2.276 3.457-.555 1.31.882 2.832 2.177 1.907 1.124-.811 1.835-2.106 2.504-3.287.598-1.053 1.423-2.22 1.252-3.486-.043-.413-.341-.697-.768-.683z" fill="#FFEEAD"/><path d="M21.143 51.138a2.04 2.04 0 00-.882.2c.07 1.18-.698 2.276-1.252 3.272-.67 1.195-1.38 2.49-2.505 3.287-.128.1-.27.156-.398.199.398.697 1.266 1.081 2.077.498 1.124-.811 1.836-2.106 2.505-3.287.597-1.053 1.422-2.22 1.252-3.486-.072-.413-.37-.697-.797-.683z" fill="#FFC44D"/><path d="M27.29 32.911c-1.466-.284-2.903.1-4.383.1-1.451 0-2.974-.584-4.382-.1-.74.256-1.167 1.195-.683 1.878 2.034 2.917 8.466 3.273 10.344.1.427-.74-.057-1.807-.896-1.978z" fill="#FFEEAD"/><path d="M27.29 32.91a7.03 7.03 0 00-1.324-.099c.1.342.086.712-.1 1.025-1.237 2.077-4.424 2.632-7.057 1.95 2.633 1.948 7.712 1.863 9.363-.897.44-.74-.043-1.807-.883-1.978z" fill="#FFC44D"/><path d="M17.045 57.541c-2.177-.726-4.61-.54-6.873-.626-2.319-.085-5.236-.54-7.384.441-.868.398-1.039 1.323-.413 2.035 1.565 1.75 4.183 1.935 6.389 2.234 2.518.327 5.45.654 7.954.227 2.476-.44 2.717-3.528.327-4.31z" fill="#FFEEAD"/><path d="M17.045 57.54a7.637 7.637 0 00-1.124-.284c1.152 1.195.626 3.301-1.38 3.643-2.49.426-5.436.1-7.954-.228-1.067-.142-2.234-.256-3.315-.54 1.565 1.052 3.656 1.237 5.506 1.48 2.519.326 5.45.654 7.954.227 2.462-.427 2.703-3.515.313-4.297z" fill="#FFC44D"/><path d="M65.607 36.497c-.014-1.152-1.309-1.48-2.006-.654-1.779 2.091-2.447 5.364-1.565 7.996.285.868.896 1.537 1.878 1.58.996.057 2.206-.811 2.134-1.921-.199-2.334-.427-4.639-.44-7z" fill="#FFEEAD"/><path d="M64.042 42.373c.071.996-.896 1.779-1.821 1.893.327.64.882 1.11 1.679 1.152.996.057 2.205-.81 2.134-1.92-.185-2.348-.413-4.653-.427-7.001-.014-1.153-1.28-1.465-1.977-.683.042 2.206.241 4.368.412 6.56z" fill="#FFC44D"/><path d="M68.71 32.57c-1.253-.385-2.534-.185-3.814-.328-1.267-.142-2.519-.782-3.8-.498-.668.157-1.123.925-.768 1.565 1.494 2.718 7.03 3.629 8.965 1.053.455-.597.142-1.565-.584-1.793z" fill="#FFEEAD"/><path d="M68.71 32.57a6.179 6.179 0 00-1.14-.214c.058.299.015.626-.184.882-1.266 1.694-4.084 1.864-6.303 1.025 2.105 1.935 6.516 2.348 8.195.1.47-.598.157-1.566-.569-1.793z" fill="#FFC44D"/><path d="M21.712 55.72c-1.38-.812-3.173.47-4.17 1.38-.98.896-1.92 2.006-2.148 3.358-.156.939.242 1.864 1.11 2.29.954.484 2.39.129 2.803-.924.413-1.04.868-1.409 1.694-2.305.44-.484 1.01-.897 1.308-1.494.399-.826.228-1.822-.597-2.306z" fill="#FFEEAD"/><path d="M20.446 57.256c-.3.598-.868 1.01-1.31 1.494-.825.897-1.28 1.267-1.693 2.305-.27.683-.953 1.067-1.664 1.124.185.242.412.441.697.584.953.483 2.39.128 2.803-.925.413-1.039.868-1.409 1.693-2.305.441-.484 1.01-.897 1.31-1.494.412-.825.241-1.822-.599-2.305-.398-.242-.839-.285-1.28-.228.327.498.341 1.167.043 1.75z" fill="#FFC44D"/><path d="M36.538 39.3c-1.067-.94-2.248-.783-3.457-.2-.911.456-1.438 1.167-2.064 1.922-.555.654-.113 1.778.84 1.536.626-.156 1.266-.242 1.907-.341.81-.143 1.679.042 2.376-.456.754-.54 1.238-1.736.398-2.461z" fill="#FFEEAD"/><path d="M35.157 38.645c.57.74.114 1.778-.569 2.262-.697.498-1.58.313-2.376.455-.47.086-.94.157-1.409.242-.042.57.37 1.124 1.067.954.626-.157 1.267-.242 1.907-.342.811-.142 1.679.043 2.376-.455.754-.527 1.238-1.722.399-2.462a2.663 2.663 0 00-1.395-.654z" fill="#FFC44D"/><path d="M85.001 44.593c-.74-.328-1.294.512-1.21 1.138.271 2.248-.084 3.899-.881 6.005-.256.683-.797 1.693-.413 2.418.299.541.982.754 1.537.456 3.073-1.65 4.71-8.338.967-10.017z" fill="#FFEEAD"/><path d="M85 44.593a.728.728 0 00-.568-.028c1.992 2.433.498 7.47-2.078 8.992 0 .213.043.413.143.598.299.54.981.754 1.536.455 3.074-1.65 4.71-8.338.968-10.017z" fill="#FFC44D"/><path d="M64.725 31.446c-.256-.91-1.167-1.267-1.821-1.85-.825-.754-1.252-1.793-1.31-2.888-.056-1.21-1.707-1.068-1.806.057-.142 1.45.256 2.973 1.21 4.097.825.982 2.375 2.192 3.599 1.124.157-.128.17-.355.128-.54z" fill="#FFEEAD"/><path d="M62.918 29.61c-.825-.754-1.252-1.793-1.309-2.888-.043-1.01-1.195-1.068-1.636-.399.128.953.526 1.85 1.252 2.519.64.583 1.565.939 1.821 1.85.057.184.029.412-.128.54a1.595 1.595 0 01-1.138.413c.84.697 1.92 1.152 2.831.355.143-.128.171-.37.128-.54-.27-.925-1.18-1.267-1.82-1.85z" fill="#FFC44D"/><path d="M31.544 39.997c-2.96-1.636-9.277-1.992-10.999 1.693-.455.996 0 2.007 1.138 2.149 1.637.185 3.302-.27 4.938-.37 1.736-.1 3.386-.342 4.852-1.323.697-.484.953-1.665.07-2.149z" fill="#FFEEAD"/><path d="M21.683 43.824c1.637.185 3.302-.27 4.938-.37 1.736-.1 3.386-.341 4.852-1.323.711-.484.967-1.65.07-2.134a8.621 8.621 0 00-1.75-.697c.243.555-.028 1.28-.554 1.622-1.466.981-3.116 1.223-4.852 1.323-1.323.071-2.66.384-3.998.398.085.612.526 1.096 1.294 1.181zm56.587-4.567c-.483-.84-1.778-.555-1.835.427-.1 1.722-.398 3.458-1.138 5.023-.526 1.095-.953 3.102.854 3.173 1.65.057 2.404-2.263 2.774-3.5.527-1.822.27-3.5-.654-5.123z" fill="#FFC44D"/><path d="M76.962 38.873c.711 1.48.882 3.017.412 4.653-.341 1.152-1.024 3.258-2.461 3.486.142.484.498.84 1.238.868 1.65.057 2.404-2.263 2.774-3.5.527-1.808.27-3.5-.654-5.123-.285-.512-.882-.597-1.31-.384z" fill="#FFC44D"/><path d="M47.779 39.044c-2.22-1.053-5.222.583-7.428 1.095-1.294.3-2.774.456-4.097.256-1.722-.27-2.192-1.465-2.775-2.93-.228-.57-1.081-.797-1.394-.157-2.078 4.268 1.949 6.83 5.677 7.214 2.974.299 10.16-.811 10.5-4.653.043-.313-.199-.683-.483-.825z" fill="#FFEEAD"/><path d="M48.277 39.869c.028-.313-.214-.683-.498-.825-.484-.228-1.01-.328-1.551-.342.014.071.028.142.028.2-.355 3.855-7.54 4.965-10.5 4.652a10.43 10.43 0 01-2.064-.427c1.167.769 2.647 1.252 4.084 1.395 2.96.313 10.145-.797 10.5-4.653zm38.545 14.186c-1.978-.086-4.14.356-6.061.768-1.608.342-4.027.84-4.411 2.718-.071.37.185.754.455.968 1.153.924 3.387.44 4.724.34 1.85-.141 3.7-.198 5.535-.34 2.561-.185 2.262-4.355-.242-4.454z" fill="#FFC44D"/><path d="M85.328 57.456c-1.85.128-3.7.199-5.535.341-.925.071-2.262.313-3.4.157.085.213.242.412.412.554 1.153.925 3.387.442 4.724.342 1.85-.142 3.7-.2 5.535-.342 2.561-.184 2.262-4.354-.242-4.453h-.057c.726 1.28.313 3.273-1.437 3.4z" fill="#FFC44D"/><path d="M55.52 32.769c-2.12-2.661-5.635-1.523-8.481-.64-3.984 1.252-7.612 3.016-11.81 3.585-.768.1-1.352 1.181-.597 1.736 2.817 2.049 5.406 1.75 8.722 1.024 2.148-.47 4.254-1.38 6.36-1.992 1.878-.54 3.856-.242 5.378-1.579.598-.498.996-1.409.427-2.134z" fill="#FFEEAD"/><path d="M53.328 31.844c.583.726.17 1.636-.413 2.163-1.522 1.337-3.5 1.038-5.378 1.58-2.12.61-4.212 1.521-6.36 1.991-2.177.47-4.056.754-5.877.299 2.576 1.565 5.009 1.28 8.068.612 2.148-.47 4.254-1.38 6.36-1.992 1.878-.541 3.856-.242 5.378-1.58.598-.526.996-1.437.413-2.162-.797-.996-1.793-1.466-2.874-1.608.242.213.47.427.683.697z" fill="#FFC44D"/><path d="M19.634 65.253c-1.85-.185-3.685.199-5.506-.27-1.835-.47-2.69-2.163-3.514-3.714-.214-.413-.94-.342-1.096.085-2.305 6.204 6.118 9.49 10.657 6.503.996-.64.74-2.476-.54-2.604z" fill="#FFEEAD"/><path d="M20.19 67.871c.981-.655.725-2.49-.541-2.618a9.07 9.07 0 00-.868-.043c.299.626.17 1.494-.455 1.893-1.793 1.18-4.198 1.38-6.304.796 2.39 1.366 5.806 1.523 8.167-.028z" fill="#FFC44D"/><path d="M50.852 21.6c-.569-.456-1.622-.257-1.721.568-.157 1.295.085 2.604.056 3.899-.042 1.522-.882 2.632-1.55 3.927-.712 1.366.981 2.917 2.262 1.992 2.789-1.992 3.842-8.04.953-10.387z" fill="#FFEEAD"/><path d="M49.529 21.543c1.906 2.717.81 7.768-1.693 9.561-.086.057-.157.1-.242.143.355.839 1.423 1.365 2.305.74 2.774-1.993 3.842-8.04.953-10.387a1.158 1.158 0 00-1.323-.057z" fill="#FFC44D"/><path d="M38.744 37.735c-2.931.028-5.422 3.158-7.584 4.837-2.647 2.05-5.92 3.401-7.926 6.19-1.707 2.362 1.395 4.937 3.444 2.902 3.955-3.94 11.71-6.787 13.119-12.763.156-.668-.442-1.18-1.053-1.166z" fill="#FFEEAD"/><path d="M38.744 37.735c-.328 0-.655.057-.982.128 0 .07 0 .142-.029.213-1.408 5.976-9.177 8.822-13.118 12.763-.427.427-.911.64-1.38.712.768.939 2.262 1.266 3.428.1 3.956-3.942 11.71-6.788 13.12-12.764.17-.654-.428-1.167-1.04-1.152z" fill="#FFC44D"/><path d="M93.467 68.696c-1.039-.57-2.22-.754-3.372-1.025-1.181-.284-2.362-.796-3.5-1.209-.626-.228-1.58.285-1.224 1.081 1.266 2.746 5.492 4.454 8.181 2.618.555-.37.47-1.166-.085-1.465z" fill="#FFEEAD"/><path d="M93.467 68.696c-.484-.27-.982-.44-1.508-.583.384.356.398 1.01-.086 1.338-1.21.825-2.746.924-4.169.54 1.807 1.067 4.14 1.338 5.863.171.54-.37.455-1.167-.1-1.466z" fill="#FFC44D"/><path d="M40.892 19.949c-.498-.399-1.423-.2-1.508.526-.128 1.138.114 2.291.1 3.43-.015 1.337-.74 2.319-1.31 3.471-.611 1.21.897 2.547 2.007 1.722 2.433-1.793 3.287-7.115.711-9.15z" fill="#FFEEAD"/><path d="M39.725 19.92c1.708 2.362.811 6.83-1.366 8.438-.07.057-.142.085-.213.128.327.726 1.266 1.18 2.035.612 2.419-1.793 3.272-7.115.697-9.15-.313-.255-.811-.255-1.153-.028z" fill="#FFC44D"/><path d="M76.535 36.283c-.356.128-.854-.014-1.238-.043-.598-.028-1.167.17-1.736.341-1.323.413-2.703 1.41-3.657 2.39-.697.727-.939 1.751-.455 2.662.512.967 1.992 1.607 2.988.91a44.362 44.362 0 003.03-2.362c.428-.355.869-.967 1.11-1.465.228-.47.257-1.167.555-1.58.285-.384-.113-1.024-.597-.853z" fill="#FFE49A"/><path d="M76.535 36.283c-.356.128-.854-.014-1.238-.043a2.26 2.26 0 00-.54.029c-.143.398-.2.868-.37 1.224-.243.498-.698 1.11-1.11 1.465-.996.825-1.978 1.622-3.031 2.362-.242.17-.512.256-.783.285 0 .014.015.014.015.028.512.968 1.992 1.608 2.988.91a44.362 44.362 0 003.03-2.361c.427-.356.868-.968 1.11-1.466.228-.47.256-1.166.555-1.58.256-.383-.142-1.024-.626-.853z" fill="#FFC44D"/><path d="M48.476 40.239c-1.323-3.842-6.915-2.604-9.96-1.907-4.112.94-8.651 2.946-10.87 6.645a1.04 1.04 0 001.322 1.494c3.031-1.366 6.39-2.561 9.633-3.315 1.75-.413 3.472-.697 5.28-.64 1.322.042 2.361.498 3.599-.214.683-.384 1.28-1.252.996-2.063z" fill="#FFEEAD"/><path d="M28.983 46.457c3.03-1.366 6.388-2.562 9.632-3.316 1.75-.412 3.472-.697 5.28-.64 1.323.043 2.361.498 3.6-.213.668-.385 1.251-1.252.981-2.063-.47-1.352-1.466-2.078-2.703-2.405.327.355.597.782.782 1.309.27.81-.313 1.679-.982 2.063-1.237.711-2.276.256-3.6.213-1.806-.056-3.528.242-5.278.64-3.06.712-6.218 1.808-9.107 3.088-.341.854.498 1.736 1.395 1.324z" fill="#FFC44D"/><path d="M84.574 44.707c-3.287-.313-6.431 2.874-9.05 4.496-3.2 1.978-7.028 3.088-9.604 5.962-2.19 2.447.968 5.691 3.5 3.642 4.881-3.927 13.902-6.175 16.193-12.692.256-.711-.356-1.351-1.039-1.408z" fill="#FFEBB1"/><path d="M84.574 44.707a5.785 5.785 0 00-1.11.028c-.014.071-.028.157-.057.242-2.29 6.503-11.297 8.765-16.192 12.692-.54.427-1.096.612-1.622.626.74 1.138 2.39 1.679 3.828.526 4.88-3.927 13.9-6.175 16.192-12.691.256-.726-.356-1.366-1.039-1.423z" fill="#FFC44D"/><path d="M82.91 49.288c-2.974-.1-6.119-.17-8.979.769-.555.185-1.024.683-1.124 1.266-.043.242-.071.455 0 .712.441 1.522 2.234 1.607 3.557 1.764 2.234.285 4.582.398 6.83.185 3.059-.299 2.703-4.596-.285-4.696z" fill="#FFEEAD"/><path d="M83.194 53.97c3.059-.285 2.703-4.582-.285-4.682h-.156c1.095 1.295.697 3.628-1.537 3.842-2.248.213-4.596.1-6.83-.185-.355-.043-.74-.086-1.124-.142.74.768 2.063.853 3.102.996 2.234.27 4.582.384 6.83.17z" fill="#FFC44D"/><path d="M60.015 51.55c-1.736-.54-3.67-.37-5.478-.398-1.85-.028-4.169-.355-5.862.456-.683.327-.81 1.067-.299 1.622 1.281 1.366 3.358 1.48 5.123 1.679 2.006.227 4.354.44 6.331.07 1.936-.37 2.092-2.83.185-3.428z" fill="#FFEEAD"/><path d="M60.015 51.55a10.213 10.213 0 00-.896-.213c.94.94.54 2.618-1.053 2.917-1.978.37-4.325.157-6.332-.071-.853-.1-1.778-.17-2.646-.384 1.252.81 2.93.925 4.396 1.095 2.007.228 4.354.441 6.332.072 1.95-.356 2.106-2.818.2-3.415z" fill="#FFC44D"/><path d="M61.751 31.787c-3.557.014-6.56 1.437-9.76 2.874-3.486 1.551-7.314 2.832-10.572 4.81-.897.54-.598 2.12.47 2.248 3.642.455 6.971-.968 10.315-2.291 3.571-1.409 7.242-2.889 10.486-4.966 1.295-.84.427-2.675-.939-2.675z" fill="#FFEEAD"/><path d="M61.751 31.787c-.256 0-.498.029-.754.043.27.583.2 1.295-.484 1.736-3.244 2.077-6.915 3.557-10.486 4.965-2.945 1.167-5.905 2.405-9.064 2.377.128.412.441.754.91.81 3.643.456 6.973-.967 10.317-2.29 3.571-1.409 7.242-2.889 10.486-4.966 1.31-.84.441-2.675-.925-2.675z" fill="#FFC44D"/><path d="M47.907 39.869c-2.504-1.11-5.777.797-8.21 1.423-1.423.37-3.074.597-4.539.398-1.92-.256-2.476-1.565-3.159-3.173-.27-.626-1.223-.854-1.55-.128-2.192 4.795 2.361 7.541 6.516 7.854 3.301.256 11.255-1.18 11.54-5.464 0-.355-.285-.782-.598-.91z" fill="#FFEEAD"/><path d="M48.476 40.765c.028-.341-.256-.754-.57-.896-.54-.242-1.123-.342-1.735-.342.014.072.028.157.028.228-.284 4.283-8.224 5.72-11.539 5.464-.768-.057-1.55-.2-2.305-.427 1.309.825 2.974 1.309 4.567 1.437 3.33.256 11.27-1.18 11.554-5.464z" fill="#FFC44D"/><path d="M22.964 53.571c-.427-.228-1.053-.085-1.266.384-.47 1.081-.498 2.29-.954 3.372-.583 1.395-1.75 2.02-2.504 3.23-.697 1.11.37 2.191 1.423 2.277 1.95.17 3.458-2.376 4.055-3.913.64-1.636 1.181-4.34-.754-5.35z" fill="#FFEEAD"/><path d="M22.964 53.571c-.242-.128-.54-.128-.811-.028.896 1.252.441 3.287-.071 4.624-.57 1.465-1.964 3.828-3.77 3.913a1.96 1.96 0 001.351.74c1.95.17 3.458-2.376 4.055-3.913.64-1.622 1.181-4.326-.754-5.336z" fill="#FFC44D"/><path d="M48.69 25.157c-.982.711-1.267 1.821-1.75 2.874-.37.797-.783 1.693-1.41 2.32-.569.569-1.11-.086-1.877-.114-.37-.015-.655.313-.67.668-.085 2.49 3.245 2.803 4.753 1.637 1.523-1.181 2.832-3.572 3.273-5.436.27-1.21-.996-2.93-2.32-1.95z" fill="#FFEEAD"/><path d="M47.722 32.541c1.522-1.18 2.831-3.571 3.273-5.435.256-1.096-.755-2.604-1.936-2.163.214.413.3.896.214 1.309-.427 1.864-1.75 4.254-3.273 5.435-.654.513-1.664.74-2.59.626.954 1.153 3.174 1.124 4.312.228z" fill="#FFC44D"/><path d="M17.927 58.067c-.854-1.11-1.707-2.19-2.348-3.443-.412-.783-1.693-.498-1.693.398 0 1.324.413 2.42 1.11 3.53.57.895 1.835 2.674 3.116 2.062 1.025-.47.299-1.92-.185-2.547z" fill="#FFEEAD"/><path d="M15.565 54.638c-.284-.54-.967-.569-1.38-.242.583.954 1.252 1.822 1.935 2.704.484.626 1.21 2.063.17 2.56-.142.072-.284.1-.426.115.626.683 1.423 1.238 2.22.854 1.038-.498.298-1.936-.171-2.562-.84-1.095-1.693-2.19-2.348-3.429z" fill="#FFC44D"/><path d="M83.478 37.251c-.47-.512-1.508-.47-1.721.299-.328 1.21-.285 2.49-.498 3.714-.256 1.45-1.21 2.376-2.02 3.514-.869 1.21.526 2.903 1.863 2.22 2.931-1.509 4.795-7.1 2.376-9.747z" fill="#FFEBB1"/><path d="M82.226 37.009c1.423 2.846-.327 7.513-2.96 8.864-.085.043-.17.071-.241.1.227.854 1.167 1.508 2.091 1.024 2.932-1.508 4.796-7.1 2.377-9.746a1.144 1.144 0 00-1.267-.242z" fill="#FFC44D"/><path d="M67.4 25.342c-.498-.47-1.494-.341-1.636.427-.228 1.195-.071 2.433-.2 3.657-.142 1.423-.981 2.405-1.693 3.571-.754 1.238.74 2.79 1.992 2.007 2.704-1.708 4.084-7.285 1.537-9.662z" fill="#FFE49A"/><path d="M66.162 25.2c1.608 2.66.27 7.327-2.191 8.85a1.69 1.69 0 01-.228.113c.285.811 1.252 1.366 2.106.84 2.732-1.693 4.098-7.271 1.551-9.661-.327-.313-.868-.356-1.238-.143z" fill="#FFC44D"/><path d="M82.852 45.304c-3.286-.27-6.403 2.96-9.006 4.61-3.173 2.02-6.987 3.173-9.534 6.076-2.162 2.476 1.025 5.677 3.543 3.614 4.852-3.984 13.83-6.346 16.05-12.877.242-.74-.37-1.366-1.053-1.423z" fill="#FFEBB1"/><path d="M82.852 45.304a4.83 4.83 0 00-1.11.043c-.014.071-.014.157-.042.242-2.22 6.545-11.212 8.893-16.05 12.877a2.693 2.693 0 01-1.622.654c.754 1.124 2.404 1.65 3.827.484 4.852-3.984 13.83-6.346 16.05-12.877.242-.74-.37-1.366-1.053-1.423z" fill="#FFC44D"/><path d="M67.542 30.222c-1.195.896-1.55 2.276-2.134 3.6-.455.996-.953 2.105-1.722 2.902-.697.712-1.38-.085-2.333-.1-.47-.014-.797.4-.811.84-.071 3.088 4.07 3.43 5.919 1.95 1.864-1.494 3.472-4.468 3.97-6.788.341-1.508-1.252-3.628-2.889-2.404z" fill="#FFEBB1"/><path d="M66.461 39.428c1.864-1.494 3.472-4.468 3.97-6.787.299-1.366-.968-3.216-2.433-2.661.27.498.384 1.096.27 1.622-.512 2.32-2.106 5.307-3.97 6.787-.81.64-2.063.94-3.201.811 1.21 1.409 3.955 1.352 5.364.228zm14.086 28.571c-1.707.854-2.22 2.988-2.333 4.724-.114 1.85.711 3.3 2.148 4.325.712.498 1.85-.142 1.793-1.01-.057-.825-.057-1.92.071-2.746.185-1.181.783-1.978 1.195-3.06.64-1.72-1.465-2.93-2.874-2.233z" fill="#FFC44D"/><path d="M81.472 69.251c-.412 1.081-1.01 1.892-1.195 3.06-.128.824-.128 1.92-.071 2.745.043.527-.37.954-.84 1.11.285.327.612.612.982.882.712.498 1.85-.142 1.793-1.01-.057-.825-.057-1.92.071-2.746.185-1.181.783-1.978 1.195-3.06.541-1.422-.782-2.49-2.049-2.447.257.413.328.911.114 1.466z" fill="#FFC44D"/><path d="M75.738 39.84c-1.636.925-2.049 3.06-2.077 4.781-.029 1.836.868 3.23 2.333 4.17.726.469 1.821-.228 1.722-1.082-.1-.811-.157-1.892-.071-2.718.128-1.166.668-1.992 1.024-3.087.57-1.736-1.58-2.832-2.93-2.063z" fill="#FFE49A"/><path d="M76.72 41.035c-.356 1.096-.91 1.907-1.025 3.088-.085.825-.028 1.907.072 2.718.056.512-.313.953-.783 1.138.299.299.64.584 1.01.825.726.47 1.821-.227 1.722-1.081-.1-.811-.157-1.892-.071-2.718.128-1.166.668-1.992 1.024-3.087.456-1.423-.882-2.42-2.134-2.32.27.385.356.868.185 1.438z" fill="#FFC44D"/><path d="M21.954 41.036c-.17-.484-1.025-.513-1.082.07-.156 1.623-1.238 3.515-2.461 4.568-1.551 1.338.341 3.5 1.85 2.106.925-.868 1.536-1.864 1.949-3.06.441-1.294.17-2.446-.256-3.684z" fill="#FFEEAD"/><path d="M20.872 41.107c-.028.27-.085.555-.156.853.1.67.071 1.352-.17 2.063-.413 1.196-1.011 2.192-1.95 3.06a1.72 1.72 0 01-.598.37c.384.74 1.38 1.152 2.263.341.925-.868 1.536-1.864 1.949-3.059.441-1.295.185-2.462-.256-3.685-.17-.498-1.025-.527-1.082.057z" fill="#FFC44D"/><path d="M30.576 44.692c-1.323.498-1.85 1.267-2.461 2.533-.455.953-1.11 1.779-1.565 2.732-.541 1.152.754 2.063 1.75 1.95 1.48-.186 2.29-1.651 2.86-2.875.242-.526.483-1.081.668-1.636.072-.228.157-.441.214-.683.057-.17.071-.342.071-.527.014-.028.029-.07.057-.142.398-1.024-.768-1.665-1.594-1.352z" fill="#FFEEAD"/><path d="M30.62 44.678a.896.896 0 01-.072.455c-.014.072-.043.114-.057.143 0 .17-.014.355-.071.526-.057.242-.142.456-.214.683-.17.54-.412 1.11-.668 1.636-.57 1.21-1.366 2.69-2.86 2.875h-.143c.3.611 1.082.996 1.75.91 1.48-.185 2.291-1.65 2.86-2.874.242-.526.484-1.081.67-1.636.07-.228.156-.441.213-.683.057-.17.07-.342.07-.527.015-.028.03-.07.058-.142.398-.996-.712-1.636-1.537-1.366z" fill="#FFC44D"/><path d="M18.226 62.962c-.285.128-.726.028-1.039.028-.498 0-.967.2-1.437.37-1.095.413-2.205 1.31-2.96 2.177-.54.64-.71 1.509-.255 2.248.469.783 1.75 1.253 2.546.627.854-.67 1.65-1.395 2.434-2.12.341-.314.683-.854.867-1.281.171-.398.157-.996.385-1.352.213-.327-.157-.853-.541-.697z" fill="#FFEEAD"/><path d="M18.226 62.962c-.285.128-.726.029-1.039.029-.156 0-.299.028-.455.057-.1.341-.128.74-.256 1.052-.185.427-.527.968-.868 1.281-.797.74-1.58 1.451-2.433 2.12a1.27 1.27 0 01-.64.27c0 .015.014.015.014.029.47.782 1.75 1.252 2.547.626.853-.669 1.65-1.394 2.433-2.12.341-.313.683-.854.868-1.28.17-.399.156-.997.384-1.352.199-.342-.17-.868-.555-.712z" fill="#FFC44D"/><path d="M54.48 29.254c-.014-1.038-1.522-1.608-2.048-.583-.541 1.053-1.551 1.892-2.32 2.789-.853 1.01-1.906 1.821-2.945 2.604-2.134 1.607.583 5.193 2.789 3.727 1.451-.967 2.646-2.148 3.585-3.6 1.025-1.593.968-3.158.94-4.937z" fill="#FFEEAD"/><path d="M52.431 28.67c-.056.1-.127.2-.199.314 0 1.423-.085 2.732-.939 4.04a12.181 12.181 0 01-3.585 3.6 2.12 2.12 0 01-.854.328c.669.996 1.95 1.608 3.102.84 1.451-.968 2.646-2.149 3.585-3.6 1.025-1.58.954-3.16.925-4.938 0-1.038-1.508-1.608-2.035-.583z" fill="#FFC44D"/><path d="M94.35 56.744c-.698-1.679-2.662-2.746-4.227-3.529-1.665-.825-3.216-1.309-5.051-1.522-1.266-.142-2.134 1.693-1.167 2.547 1.195 1.067 2.42 1.963 3.757 2.846 1.366.896 2.632 2.134 4.183 2.675 1.92.654 3.173-1.423 2.504-3.017z" fill="#FFEEAD"/><path d="M92.343 55.648c.669 1.594-.584 3.671-2.49 3.017.64.44 1.295.854 2.02 1.095 1.907.655 3.16-1.422 2.49-3.016-.697-1.68-2.66-2.746-4.226-3.529-.056-.028-.113-.043-.17-.071 1.01.64 1.935 1.451 2.376 2.504z" fill="#FFC44D"/><path d="M88.288 67.017c-2.02-1.977-5.99-1.294-7.257 1.224-.384.782.484 1.665 1.266 1.494.826-.17 1.495-.142 2.334-.071 1.11.1 1.978.44 3.088-.014.953-.385 1.351-1.879.569-2.633z" fill="#FFE49A"/><path d="M86.011 68.61c-1.096.456-1.963.1-3.073.015-.712-.057-1.31-.085-1.964.014 0 .655.697 1.238 1.352 1.11.825-.17 1.494-.142 2.333-.071 1.11.1 1.978.441 3.088-.014.953-.399 1.352-1.893.57-2.647-.456-.455-1.025-.754-1.623-.939.612.783.228 2.163-.683 2.533zm-12.08-27.062c-1.366-.384-2.76-.128-4.169-.242-1.38-.114-2.775-.782-4.155-.427-.725.185-1.195 1.039-.796 1.736 1.721 2.917 7.782 3.742 9.817.882.484-.668.1-1.721-.697-1.949z" fill="#FFC44D"/><path d="M73.931 41.548a5.324 5.324 0 00-1.238-.185c.071.327.029.683-.17.968-1.338 1.878-4.411 2.162-6.845 1.323 2.348 2.049 7.186 2.362 8.95-.142.484-.683.1-1.736-.697-1.964z" fill="#FFC44D"/><path d="M51.777 48.819c-1.224-.811-2.917.27-3.884 1.067-.94.768-1.864 1.736-2.135 2.96-.185.839.128 1.721.897 2.162.84.484 2.177.242 2.618-.711.427-.925.853-1.238 1.65-2.02.427-.413.968-.77 1.267-1.296.427-.754.313-1.678-.413-2.162z" fill="#FFEEAD"/><path d="M50.553 50.156c-.298.526-.84.882-1.266 1.295-.797.782-1.224 1.096-1.65 2.02-.285.612-.925.925-1.58.954.157.227.356.427.612.569.84.484 2.177.242 2.618-.712.427-.924.854-1.237 1.65-2.02.427-.413.968-.769 1.267-1.295.427-.74.313-1.665-.427-2.148-.356-.242-.754-.3-1.167-.27.256.483.228 1.095-.057 1.607z" fill="#FFC44D"/><path d="M90.792 63.034c-.441-.441-1.366-.356-1.523.341-.241 1.096-.142 2.234-.284 3.358-.17 1.31-.982 2.191-1.665 3.245-.725 1.11.598 2.59 1.779 1.906 2.547-1.494 3.97-6.588 1.693-8.85z" fill="#FFEBB1"/><path d="M89.654 62.862c1.408 2.49.028 6.745-2.277 8.082a1.361 1.361 0 01-.213.1c.242.754 1.11 1.295 1.92.825 2.562-1.48 3.984-6.573 1.708-8.85a1.02 1.02 0 00-1.138-.157z" fill="#FFC44D"/><path d="M78.84 65.936c-1.437-1.067-3.572.156-4.795 1.053-1.195.882-2.376 2.006-2.775 3.472-.284 1.01.057 2.091.968 2.675.996.64 2.632.426 3.23-.712.569-1.096 1.124-1.451 2.134-2.362.54-.484 1.224-.882 1.622-1.508.57-.854.484-1.978-.384-2.618z" fill="#FFE49A"/><path d="M77.275 67.487c-.399.626-1.082 1.024-1.622 1.508-1.025.91-1.566 1.266-2.135 2.362-.384.726-1.18 1.067-1.977 1.053.17.285.412.54.711.726.996.64 2.632.427 3.23-.712.57-1.095 1.124-1.451 2.134-2.362.54-.484 1.224-.882 1.622-1.508.555-.868.47-2.006-.384-2.632-.412-.313-.896-.413-1.394-.399.27.626.199 1.352-.185 1.964z" fill="#FFC44D"/><path d="M81.842 37.735c-1.693-.413-3.472-.3-5.094-.968-1.636-.683-2.234-2.362-2.788-3.913-.143-.413-.826-.44-1.025-.071-2.96 5.478 4.454 9.633 9.078 7.456 1.01-.484 1.01-2.22-.17-2.504z" fill="#FFEEAD"/><path d="M82.013 40.239c1.01-.47 1.01-2.22-.17-2.504a8.154 8.154 0 00-.812-.157c.2.626-.043 1.409-.669 1.708-1.82.867-4.083.74-5.976-.072 2.078 1.58 5.222 2.163 7.627 1.025z" fill="#FFC44D"/><path d="M83.749 55.264c-2.163-1.323-5.421.057-7.726.342-1.352.17-2.903.185-4.226-.171-1.736-.455-2.092-1.736-2.547-3.301-.17-.598-1.025-.94-1.423-.299-2.575 4.17 1.295 7.214 5.08 7.997 3.016.611 10.5.227 11.269-3.686.057-.313-.157-.725-.427-.882z" fill="#FFEEAD"/><path d="M84.176 56.16c.057-.312-.157-.725-.413-.896-.47-.284-.996-.44-1.55-.512a.54.54 0 010 .213c-.77 3.913-8.253 4.297-11.27 3.686a10.54 10.54 0 01-2.063-.655c1.11.91 2.575 1.551 4.04 1.85 3.003.612 10.487.228 11.256-3.685z" fill="#FFC44D"/><path d="M56.444 37.052c-1.081-.954-2.29-.825-3.514-.228-.925.455-1.466 1.181-2.12 1.935-.57.655-.143 1.807.839 1.58.64-.157 1.295-.228 1.95-.342.825-.128 1.707.057 2.418-.441.783-.526 1.28-1.75.427-2.504z" fill="#FFEEAD"/><path d="M55.035 36.382c.569.754.1 1.807-.598 2.291-.726.498-1.608.313-2.419.441-.483.086-.967.143-1.437.242-.043.57.37 1.153 1.081.968.64-.157 1.295-.228 1.95-.342.825-.128 1.707.057 2.419-.44.768-.527 1.266-1.751.427-2.505a2.81 2.81 0 00-1.423-.655z" fill="#FFC44D"/><path d="M83.009 44.408c-3.742-1.793-8.196.327-11.61 1.978a51.981 51.981 0 00-5.863 3.358c-1.18.768-3.087 1.522-3.628 2.945-.427.754.114 1.821 1.067 1.978 2.903.498 6.474-2.049 9.007-3.116 3.372-1.423 6.289-2.704 10.017-2.291 3.002.342 3.4-3.7 1.01-4.852z" fill="#FFEEAD"/><path d="M81.9 43.995c1.137 1.608.426 4.269-2.036 3.999-3.728-.399-6.644.882-10.017 2.29-2.262.954-5.35 3.074-8.053 3.16a1.45 1.45 0 001.181 1.209c2.903.498 6.474-2.05 9.007-3.117 3.372-1.422 6.289-2.703 10.017-2.29 3.016.327 3.415-3.714 1.024-4.867-.37-.142-.754-.27-1.124-.384z" fill="#FFC44D"/><path d="M45.56 28.514c-.229-.654-1.353-.697-1.438.072-.213 2.162-1.679 4.652-3.315 6.047-2.063 1.75.427 4.652 2.433 2.817 1.252-1.138 2.049-2.462 2.618-4.04.598-1.694.256-3.245-.299-4.896z" fill="#FFEEAD"/><path d="M44.122 28.6a8.29 8.29 0 01-.228 1.124c.128.896.086 1.793-.256 2.746-.555 1.58-1.366 2.903-2.618 4.041a2.072 2.072 0 01-.797.484c.498.996 1.836 1.55 3.003.47 1.252-1.139 2.049-2.462 2.618-4.042.611-1.707.27-3.258-.3-4.909-.212-.64-1.337-.683-1.422.086z" fill="#FFC44D"/><path d="M30.975 49.7c-2.007-.084-4.198.342-6.147.755-1.622.342-4.098.84-4.482 2.732-.071.384.185.754.455.982 1.167.939 3.43.455 4.795.355 1.878-.142 3.742-.184 5.62-.313 2.59-.17 2.306-4.396-.241-4.51z" fill="#FFEEAD"/><path d="M29.452 53.158c-1.864.128-3.742.185-5.62.313-.94.072-2.305.3-3.443.143a1.4 1.4 0 00.412.569c1.167.939 3.43.455 4.795.356 1.878-.143 3.742-.185 5.62-.313 2.59-.185 2.306-4.411-.227-4.525h-.057c.726 1.295.299 3.33-1.48 3.457z" fill="#FFC44D"/><path d="M58.436 29.226c-.057-.81-1.096-1.451-1.736-.726-1.494 1.694-2.646 4.468-2.148 6.745.355 1.65 2.56 1.394 3.059.014.356-.967.356-2.063.555-3.073.199-.968.341-1.964.27-2.96z" fill="#FFEEAD"/><path d="M56.444 31.303c-.2 1.01-.2 2.106-.555 3.074-.213.569-.711.939-1.252 1.067.498 1.394 2.504 1.124 2.988-.185.356-.968.356-2.063.555-3.074.185-.967.327-1.963.27-2.96-.057-.81-1.095-1.45-1.736-.739.043.953-.1 1.892-.27 2.817z" fill="#FFC44D"/><path d="M44.392 33.41c-.242-.57-.91-.954-1.508-.982-5.492-.228-12.137 5.093-15.595 8.964-.583.64-.17 1.863.826 1.607 3.813-.953 7.043-3.315 10.529-5.065 1.65-.84 6.972-1.636 5.748-4.525z" fill="#FFEEAD"/><path d="M42.884 32.427h-.17c0 .014.014.014.014.029 1.209 2.888-4.098 3.7-5.749 4.524-3.287 1.65-6.374 3.842-9.917 4.88-.128.627.284 1.324 1.053 1.14 3.813-.954 7.043-3.316 10.529-5.066 1.665-.84 6.972-1.637 5.763-4.525-.256-.57-.925-.953-1.523-.982z" fill="#FFC44D"/><path d="M46.299 37.08c-.441-.213-1.096-.042-1.28.441-.442 1.124-.413 2.377-.84 3.515-.54 1.465-1.708 2.148-2.447 3.415-.67 1.166.47 2.234 1.565 2.29 2.006.086 3.472-2.575 4.012-4.183.57-1.721 1.025-4.51-1.01-5.478z" fill="#FFEEAD"/><path d="M46.299 37.08a1.04 1.04 0 00-.825.014c.967 1.252.583 3.373.114 4.767-.527 1.522-1.864 4.012-3.728 4.169a2.03 2.03 0 001.422.711c2.007.086 3.472-2.575 4.013-4.183.583-1.722 1.039-4.51-.996-5.478z" fill="#FFC44D"/><path d="M88.188 59.191c-1.18-1.423-3.358-.982-4.724-.114a5.683 5.683 0 00-1.665 1.58c-.37.526-.44 1.266-.683 1.864-.455 1.152 1.082 1.835 1.893 1.166.299-.256.555-.256.925-.426.412-.2.797-.427 1.195-.612.84-.399 1.764-.014 2.618-.57 1.053-.668 1.224-1.934.441-2.888z" fill="#FFEEAD"/><path d="M86.21 58.28c.584.91.356 2.035-.611 2.647-.868.54-1.793.17-2.633.569-.412.185-.797.427-1.195.611-.228.114-.413.157-.598.242a.806.806 0 01-.056.171c-.456 1.153 1.08 1.836 1.892 1.167.299-.256.555-.256.925-.427.412-.2.797-.427 1.195-.612.84-.398 1.764-.014 2.618-.569 1.053-.669 1.238-1.935.441-2.888-.512-.626-1.224-.883-1.978-.911z" fill="#FFC44D"/><path d="M88.8 54.695a8.243 8.243 0 00-1.195-.342c1.195 1.324.555 3.558-1.608 3.856-2.69.37-5.805-.085-8.495-.512-1.138-.185-2.376-.355-3.528-.683 1.636 1.181 3.87 1.437 5.833 1.765 2.675.44 5.806.882 8.495.512 2.66-.384 3.016-3.671.498-4.596z" fill="#FFC44D"/><path d="M88.8 54.695c-2.29-.84-4.909-.74-7.328-.91-2.476-.171-5.577-.754-7.91.227-.94.399-1.153 1.38-.513 2.149 1.622 1.92 4.41 2.205 6.758 2.604 2.675.44 5.806.882 8.495.512 2.66-.37 3.016-3.657.498-4.582z" fill="#FFC44D"/><path d="M28.897 48.89c-1.351-.953-2.96-1.366-4.496-1.921-1.593-.57-3.13-1.451-4.638-2.205-.84-.413-2.234.156-1.85 1.294 1.323 3.984 6.9 6.972 10.885 4.867.81-.427.825-1.523.1-2.035z" fill="#FFEEAD"/><path d="M28.897 48.89c-.626-.441-1.294-.754-1.992-1.025.484.555.399 1.452-.313 1.836-1.807.953-3.927.853-5.848.1 2.32 1.735 5.507 2.475 8.054 1.123.81-.426.825-1.522.1-2.034z" fill="#FFC44D"/><path d="M83.208 48.164c-1.167-.925-2.974.014-4.027.74-1.024.697-2.034 1.608-2.418 2.817-.27.84-.015 1.75.725 2.263.811.569 2.191.426 2.704-.498.512-.897.981-1.181 1.85-1.907.469-.384 1.038-.697 1.394-1.21.512-.711.47-1.65-.228-2.205z" fill="#FFEBB1"/><path d="M81.842 49.402c-.356.512-.925.825-1.394 1.21-.882.725-1.338 1.01-1.85 1.906-.341.584-1.024.854-1.679.825.142.242.327.456.57.626.81.57 2.19.427 2.703-.498.512-.896.981-1.18 1.85-1.906.469-.384 1.038-.697 1.394-1.21.498-.711.455-1.65-.242-2.205-.342-.27-.74-.37-1.153-.37a1.633 1.633 0 01-.199 1.622z" fill="#FFC44D"/><path d="M76.976 56.188c-1.835.968-2.348 3.316-2.419 5.222-.085 2.02.868 3.586 2.462 4.667.782.527 2.02-.199 1.92-1.152-.085-.897-.113-2.092 0-3.002.171-1.281.797-2.178 1.21-3.373.683-1.906-1.65-3.173-3.173-2.362z" fill="#FFEEAD"/><path d="M78.029 57.526c-.413 1.196-1.053 2.092-1.21 3.373-.113.896-.085 2.105 0 3.002.057.57-.37 1.053-.882 1.238a6.47 6.47 0 001.096.939c.782.526 2.02-.2 1.92-1.153-.085-.896-.113-2.091 0-3.002.171-1.28.797-2.177 1.21-3.372.54-1.565-.925-2.69-2.29-2.618.27.441.37.982.156 1.593z" fill="#FFC44D"/><path d="M68.908 33.153c-3.343-.996-6.787 1.352-9.405 3.187a44.855 44.855 0 00-4.44 3.586c-.881.797-2.361 1.679-2.631 2.93-.257.684.327 1.51 1.152 1.51 2.476.028 5.122-2.562 7.086-3.786 2.618-1.636 4.88-3.087 8.04-3.244 2.546-.128 2.347-3.543.198-4.183z" fill="#FFEEAD"/><path d="M67.927 32.954c1.166 1.18.924 3.5-1.167 3.6-3.159.156-5.421 1.607-8.04 3.244-1.764 1.095-4.054 3.272-6.288 3.699.142.455.597.84 1.152.854 2.476.028 5.122-2.561 7.086-3.785 2.618-1.636 4.88-3.088 8.04-3.244 2.546-.128 2.347-3.557.198-4.183a7.933 7.933 0 00-.981-.185zm14.257 29.354c-.3.113-.712 0-1.025-.015-.498-.014-.967.157-1.437.313-1.096.37-2.234 1.21-3.016 2.05-.57.611-.755 1.465-.342 2.219.441.797 1.693 1.309 2.504.711.868-.626 1.68-1.323 2.49-2.02.342-.299.712-.825.911-1.238.185-.398.2-.968.427-1.323.242-.313-.114-.84-.512-.697z" fill="#FFC44D"/><path d="M82.184 62.308c-.3.113-.712 0-1.025-.015-.156 0-.299.015-.455.043-.114.327-.157.726-.299 1.025-.2.412-.555.939-.91 1.237-.812.698-1.623 1.38-2.49 2.02-.2.143-.427.214-.655.243 0 .014 0 .014.014.028.441.797 1.693 1.31 2.504.712.868-.626 1.68-1.324 2.49-2.02.342-.3.712-.826.911-1.239.185-.398.2-.967.427-1.323.242-.327-.114-.854-.512-.711z" fill="#FFC44D"/><path d="M24.785 52.461c-.583-2.105-3.244-2.66-5.108-2.518-2.02.156-3.642.996-4.71 2.732-.611.996.157 2.604 1.423 2.476 1.281-.129 2.818-.356 4.098-.143 1.01.171 2.291.726 3.244.043.854-.612 1.352-1.494 1.053-2.59z" fill="#FFEEAD"/><path d="M16.376 55.164c1.28-.128 2.817-.355 4.098-.142 1.01.171 2.29.726 3.244.043.868-.626 1.366-1.494 1.067-2.604-.37-1.366-1.636-2.077-2.988-2.362.328.342.598.74.726 1.238.299 1.11-.2 1.978-1.067 2.604-.953.697-2.234.128-3.244-.043-1.053-.17-2.277-.057-3.387.071.185.683.783 1.267 1.551 1.195zM69.15 36.61c0-.995-1.451-1.565-1.963-.583-.527 1.01-1.509 1.807-2.248 2.675-.826.968-1.85 1.736-2.86 2.476-2.064 1.537.526 5.008 2.66 3.614a11.656 11.656 0 003.486-3.443c.982-1.509.925-3.017.925-4.738z" fill="#FFC44D"/><path d="M67.187 36.027c-.057.1-.128.2-.185.299-.015 1.366-.114 2.632-.94 3.885-.924 1.394-2.077 2.518-3.485 3.443-.27.17-.541.27-.826.313.626.953 1.864 1.565 2.988.825a11.656 11.656 0 003.486-3.443c.996-1.508.94-3.031.94-4.738-.015-.996-1.466-1.551-1.978-.584z" fill="#FFC44D"/><path d="M13.189 59.29c-1.409-.127-2.504.954-3.386 1.922-.982 1.067-2.177 2.191-2.889 3.471-.768 1.352.612 3.173 2.12 2.334 1.323-.74 2.248-2.049 3.13-3.258.769-1.068 1.822-2.234 1.78-3.629-.015-.455-.3-.796-.755-.84z" fill="#FFEEAD"/><path d="M13.189 59.291a2.815 2.815 0 00-.982.1c-.07 1.294-1.039 2.39-1.764 3.386-.868 1.21-1.807 2.519-3.13 3.258a1.562 1.562 0 01-.47.171c.341.797 1.238 1.323 2.191.797 1.323-.74 2.248-2.049 3.13-3.258.769-1.068 1.822-2.234 1.78-3.629-.015-.44-.3-.782-.755-.825z" fill="#FFC44D"/><path d="M37.264 40.822c-3.23-.341-6.66-.668-9.846.114-.612.157-1.167.669-1.324 1.295-.07.27-.128.498-.057.768.356 1.694 2.306 1.921 3.743 2.206 2.418.484 4.965.797 7.427.74 3.344-.057 3.3-4.767.057-5.123z" fill="#FFEEAD"/><path d="M37.193 45.959c3.358-.071 3.315-4.781.07-5.123-.056 0-.113-.014-.17-.014 1.096 1.494.47 4.013-1.978 4.07-2.461.057-5.008-.257-7.427-.74-.384-.071-.797-.157-1.224-.242.74.896 2.177 1.096 3.301 1.323 2.42.47 4.966.783 7.428.726z" fill="#FFC44D"/><path d="M37.819 51.167c-2.05-1.267-6.531-1.765-7.897.796-.37.683-.071 1.438.726 1.566 1.152.199 2.362-.072 3.528-.086 1.238-.014 2.42-.114 3.5-.768.527-.299.755-1.124.143-1.508z" fill="#FFEEAD"/><path d="M30.648 53.528c1.152.2 2.362-.07 3.528-.085 1.238-.014 2.42-.114 3.5-.768.527-.313.74-1.139.128-1.523-.341-.213-.768-.398-1.223-.569.156.398-.071.91-.456 1.138-1.08.64-2.262.754-3.5.769-.939 0-1.906.17-2.86.142.043.441.356.811.883.896z" fill="#FFC44D"/><path d="M27.39 66.86c-.883-.284-1.395.726-1.239 1.438.584 2.518.384 4.425-.27 6.929-.213.811-.697 2.02-.17 2.803.398.583 1.209.74 1.806.341 3.273-2.262 4.311-10.06-.128-11.51z" fill="#FFEEAD"/><path d="M27.389 66.86a.762.762 0 00-.64.043c2.546 2.519 1.479 8.424-1.253 10.458.029.242.085.47.228.655.398.583 1.21.74 1.807.341 3.258-2.248 4.297-10.045-.142-11.496z" fill="#FFC44D"/><path d="M54.794 44.322c-.015-1.252-1.423-1.593-2.177-.711-1.921 2.277-2.633 5.82-1.694 8.65.313.94.982 1.666 2.035 1.708 1.081.057 2.39-.882 2.305-2.077-.2-2.533-.455-5.023-.47-7.57z" fill="#FFEEAD"/><path d="M53.1 50.683c.086 1.067-.967 1.935-1.963 2.063.355.697.953 1.195 1.821 1.238 1.081.057 2.39-.882 2.305-2.078-.2-2.546-.441-5.022-.47-7.583-.014-1.238-1.394-1.58-2.148-.726.043 2.376.27 4.71.455 7.086z" fill="#FFC44D"/><path d="M64.469 47.097c-.085-.84-1.181-1.465-1.807-.697-1.494 1.807-2.59 4.695-2.006 7.029.427 1.693 2.689 1.366 3.173-.071.341-1.01.313-2.149.47-3.202.156-1.01.27-2.034.17-3.059z" fill="#FFE49A"/><path d="M62.477 49.303c-.17 1.053-.142 2.177-.47 3.201-.199.598-.711.982-1.266 1.138.555 1.423 2.618 1.082 3.074-.284.34-1.01.313-2.149.469-3.202.156-1.01.285-2.049.185-3.059-.085-.84-1.167-1.465-1.807-.697.071.968-.029 1.95-.185 2.903z" fill="#FFC44D"/><path d="M29.48 68.028c-.326-1.082-1.436-1.48-2.205-2.163-.996-.882-1.536-2.12-1.622-3.415-.085-1.437-2.063-1.238-2.162.114-.129 1.736.37 3.543 1.536 4.866 1.01 1.152 2.889 2.561 4.326 1.266.17-.17.185-.455.128-.668z" fill="#FFEEAD"/><path d="M27.275 65.865c-.996-.883-1.536-2.12-1.622-3.415-.07-1.196-1.451-1.238-1.963-.442.17 1.139.668 2.206 1.55 2.974.783.683 1.893 1.082 2.206 2.163.057.214.043.498-.142.654-.427.385-.882.527-1.352.513 1.01.81 2.32 1.337 3.386.37.171-.157.2-.441.143-.655-.328-1.081-1.437-1.48-2.206-2.162z" fill="#FFC44D"/><path d="M41.618 58.437c-1.409-2.276-4.383-1.48-6.66-1.11-3.4.556-7.84.869-10.884 2.476-.697.37-.697 1.423-.029 1.807 2.604 1.509 5.877.726 8.708.242 2.576-.427 7.271-.185 8.85-2.504.171-.242.171-.64.015-.91z" fill="#FFEEAD"/><path d="M41.603 59.362c.171-.256.171-.654.015-.925-.527-.854-1.28-1.266-2.12-1.451.17.17.341.37.483.597.157.27.157.67-.014.925-1.58 2.334-6.275 2.078-8.85 2.505-2.362.398-5.023 1.01-7.37.313.07.113.17.199.284.27 2.604 1.508 5.877.726 8.708.242 2.59-.399 7.285-.142 8.864-2.476z" fill="#FFC44D"/><path d="M24.7 73.904c-.285-.953-1.266-1.309-1.964-1.907-.882-.768-1.366-1.878-1.437-3.03-.085-1.267-1.821-1.082-1.92.1-.114 1.536.34 3.144 1.365 4.31.897 1.025 2.561 2.263 3.828 1.11.156-.142.17-.398.128-.583z" fill="#FFEEAD"/><path d="M22.736 71.997c-.882-.768-1.366-1.878-1.437-3.03-.07-1.068-1.294-1.096-1.75-.385.157 1.01.598 1.95 1.38 2.633.698.597 1.68.953 1.964 1.906.057.185.028.441-.114.584a1.63 1.63 0 01-1.195.455c.896.711 2.063 1.18 3.002.327.157-.142.17-.398.114-.583-.299-.953-1.28-1.31-1.964-1.907z" fill="#FFC44D"/><path d="M60.542 42.615c.014-.868-1.224-1.394-1.693-.555-.484.868-1.366 1.537-2.035 2.262-.74.812-1.65 1.466-2.547 2.092-1.835 1.28.327 4.368 2.22 3.216 1.252-.769 2.276-1.708 3.116-2.903.91-1.295.91-2.618.939-4.112z" fill="#FFEEAD"/><path d="M58.849 42.06l-.171.256c-.043 1.195-.157 2.291-.91 3.358a10.283 10.283 0 01-3.117 2.903 1.625 1.625 0 01-.725.242c.526.853 1.579 1.408 2.575.797 1.252-.769 2.277-1.708 3.116-2.903.91-1.295.896-2.604.94-4.098.013-.868-1.239-1.394-1.708-.555z" fill="#FFC44D"/><path d="M73.29 72.424c-2.077-.654-4.396-.455-6.544-.498-2.206-.042-4.98-.44-7.015.527-.825.384-.968 1.28-.356 1.935 1.523 1.636 3.998 1.778 6.118 2.02 2.405.27 5.194.555 7.57.114 2.32-.441 2.49-3.386.228-4.098z" fill="#FFEEAD"/><path d="M73.29 72.424a9.208 9.208 0 00-1.08-.256c1.11 1.124.64 3.13-1.267 3.486-2.362.44-5.165.17-7.57-.114-1.024-.114-2.12-.214-3.158-.47 1.494.982 3.5 1.124 5.25 1.324 2.405.27 5.193.554 7.57.113 2.347-.426 2.518-3.372.256-4.083zM71.57 62.35c-1.922-.384-4.184.328-5.948 1.11-1.78.797-2.932 1.722-3.572 3.557-.227.64.427 1.181 1.01 1.196 1.409.014 2.561-.257 3.927-.655 1.551-.455 3.33-.441 4.81-1.053 1.85-.782 1.992-3.714-.228-4.155z" fill="#FFC44D"/><path d="M63.045 68.212c1.409.014 2.561-.256 3.927-.655 1.551-.455 3.33-.44 4.81-1.053 1.878-.768 2.02-3.713-.2-4.154a5.785 5.785 0 00-.867-.1c.697 1.067.256 2.732-1.096 3.301-1.48.612-3.258.598-4.81 1.053-.981.284-1.849.498-2.788.598-.086.555.498.996 1.024 1.01z" fill="#FFC44D"/><path d="M29.025 53.628c-1.124.797-1.465 2.035-2.048 3.216-.442.896-.925 1.892-1.651 2.59-.654.64-1.252-.114-2.12-.157-.427-.014-.74.341-.768.74-.157 2.817 3.614 3.244 5.335 1.949 1.736-1.295 3.287-3.97 3.814-6.076.355-1.366-1.04-3.343-2.562-2.262z" fill="#FFEEAD"/><path d="M27.773 61.966c1.736-1.295 3.287-3.97 3.814-6.076.313-1.238-.797-2.96-2.135-2.49.228.47.328 1.01.2 1.494-.527 2.092-2.078 4.767-3.814 6.076-.754.569-1.906.797-2.945.654 1.053 1.31 3.571 1.324 4.88.342z" fill="#FFC44D"/><path d="M22.566 63.29c-.84-1.181-1.68-2.334-2.291-3.643-.384-.825-1.736-.583-1.764.342-.043 1.366.327 2.518.995 3.7.541.953 1.793 2.83 3.13 2.262 1.096-.484.4-1.992-.07-2.661z" fill="#FFEEAD"/><path d="M20.26 59.633c-.27-.57-.981-.626-1.408-.3.555.997 1.224 1.936 1.892 2.875.47.669 1.167 2.191.086 2.66a1.64 1.64 0 01-.441.1c.611.74 1.422 1.338 2.262.968 1.096-.47.398-1.992-.085-2.66-.84-1.168-1.68-2.32-2.305-3.643zm59.902 3.784c-.71-.256-1.166.57-1.038 1.138.427 2.078.213 3.629-.37 5.663-.185.655-.626 1.637-.2 2.277.314.484.982.64 1.466.313 2.718-1.764 3.742-8.11.142-9.39z" fill="#FFC44D"/><path d="M80.163 63.417a.67.67 0 00-.526.014c2.034 2.106 1.024 6.915-1.267 8.523.015.2.072.384.171.54.313.484.982.641 1.466.314 2.732-1.765 3.756-8.11.156-9.391z" fill="#FFC44D"/><path d="M84.033 58.252c-.398-1.679-2.49-2.205-3.955-2.134-1.608.071-2.917.683-3.814 2.02-.512.769.057 2.064 1.053 2.007 1.025-.057 2.234-.2 3.245.014.796.157 1.792.64 2.56.128.698-.484 1.125-1.152.911-2.035z" fill="#FFEBB1"/><path d="M77.317 60.145c1.025-.057 2.234-.2 3.245.014.796.157 1.792.64 2.56.128.698-.47 1.125-1.138.911-2.02-.256-1.096-1.237-1.694-2.29-1.964.256.27.44.598.54.996.214.882-.213 1.55-.91 2.02-.769.513-1.765.043-2.562-.128-.825-.17-1.792-.113-2.689-.042.128.555.584 1.024 1.195.996z" fill="#FFC44D"/><path d="M61.31 48.25c-.355-.612-1.18-.94-1.85-.883-6.246.555-12.962 7.556-16.32 12.436-.555.811.086 2.135 1.167 1.708 4.169-1.65 7.484-4.795 11.155-7.285 1.765-1.196 7.641-2.889 5.848-5.976z" fill="#FFEEAD"/><path d="M59.446 47.367c-.07 0-.128.029-.199.029 0 .014.014.014.014.028 1.793 3.088-4.083 4.781-5.833 5.976-3.472 2.362-6.617 5.28-10.487 6.987-.057.725.512 1.465 1.366 1.124 4.17-1.65 7.484-4.795 11.155-7.285 1.75-1.195 7.641-2.889 5.834-5.976-.341-.598-1.167-.94-1.85-.883z" fill="#FFC44D"/><path d="M82.44 70.702c-.014-.81-1.195-1.252-1.594-.44-.413.825-1.195 1.48-1.793 2.19-.654.783-1.48 1.423-2.276 2.035-1.65 1.267.483 4.041 2.191 2.889a9.404 9.404 0 002.775-2.832c.782-1.224.725-2.447.697-3.842z" fill="#FFEBB1"/><path d="M80.832 70.261c-.043.086-.1.157-.157.242.015 1.11-.056 2.135-.711 3.159-.726 1.138-1.65 2.063-2.775 2.831a1.555 1.555 0 01-.668.257c.526.768 1.522 1.237 2.418.64a9.404 9.404 0 002.775-2.832c.783-1.238.726-2.461.697-3.841.014-.811-1.166-1.252-1.58-.456z" fill="#FFC44D"/><path d="M54.054 39.2c-1.936-.81-4.17-.825-6.233-1.053-2.105-.242-4.738-.853-6.758-.114-.825.3-1.039 1.139-.512 1.822 1.309 1.707 3.67 2.063 5.677 2.476 2.276.483 4.923.981 7.228.768 2.277-.214 2.718-3.017.598-3.899z" fill="#FFEEAD"/><path d="M54.054 39.2a8.426 8.426 0 00-1.01-.341c.967 1.18.327 3.059-1.523 3.23-2.305.213-4.966-.3-7.228-.769-.968-.199-2.007-.398-2.988-.726 1.352 1.068 3.258 1.38 4.909 1.736 2.276.484 4.923.982 7.228.769 2.29-.214 2.732-3.017.612-3.899zm-18.142 4.027c-.085-.598-.953-1.067-1.38-.455-.17.256-.313.512-.441.768.299 1.167.868 2.333 1.95 2.903a6.37 6.37 0 001.792.683c-1.224-.84-1.707-2.505-1.92-3.9z" fill="#FFC44D"/><path d="M42.685 48.392c-.783-.356-1.48-.285-2.305-.356-.811-.071-1.565-.37-2.277-.754-1.437-.768-1.963-2.561-2.177-4.055-.085-.598-.953-1.067-1.38-.455-1.55 2.233-1.067 4.894.769 6.843 1.664 1.765 5.364 3.486 7.598 1.85 1.038-.768 1.024-2.504-.228-3.073z" fill="#FFEEAD"/><path d="M42.913 51.465c1.038-.768 1.038-2.504-.228-3.059-.484-.213-.925-.27-1.38-.299.54.769.37 1.935-.427 2.519-1.025.754-2.362.782-3.657.455 1.793 1.01 4.112 1.537 5.692.384z" fill="#FFC44D"/><path d="M71.697 47.097c-1.11-.669-2.376-.91-3.6-1.252-1.266-.356-2.518-.968-3.728-1.48-.668-.284-1.736.242-1.38 1.11 1.238 3.045 5.749 5.08 8.75 3.216.598-.384.541-1.238-.042-1.594z" fill="#FFEEAD"/><path d="M71.697 47.097a6.966 6.966 0 00-1.608-.697c.399.413.385 1.11-.142 1.437-1.352.84-3.017.882-4.553.398 1.906 1.238 4.425 1.637 6.332.456.611-.385.555-1.238-.029-1.594z" fill="#FFC44D"/><path d="M62.633 53.372c-.256.085-.611-.029-.882-.057-.426-.043-.84.1-1.238.2-.953.255-1.963.938-2.675 1.621-.512.498-.711 1.224-.384 1.893.342.697 1.38 1.195 2.106.725.768-.498 1.494-1.053 2.22-1.608.313-.242.64-.668.825-1.024.17-.327.214-.825.427-1.11.228-.285-.043-.754-.398-.64z" fill="#FFEEAD"/><path d="M62.633 53.372c-.256.085-.611-.029-.882-.057-.128-.014-.256 0-.384.014-.114.27-.17.612-.299.868a3.633 3.633 0 01-.825 1.025c-.726.554-1.451 1.11-2.22 1.608-.17.113-.37.17-.569.184 0 0 0 .015.014.015.342.697 1.38 1.195 2.106.725.769-.498 1.494-1.053 2.22-1.607.313-.242.64-.67.825-1.025.171-.327.214-.825.427-1.11.214-.284-.057-.754-.413-.64z" fill="#FFC44D"/><path d="M67.898 54.681c.029-.853-1.195-1.38-1.665-.555-.483.854-1.351 1.509-2.02 2.22-.74.797-1.636 1.423-2.533 2.035-1.821 1.252.299 4.311 2.163 3.187a10.013 10.013 0 003.087-2.846c.925-1.266.925-2.561.968-4.04z" fill="#FFEBB1"/><path d="M66.233 54.126c-.042.085-.114.156-.17.242-.043 1.18-.171 2.262-.925 3.3a10.343 10.343 0 01-3.088 2.846 1.838 1.838 0 01-.711.242c.512.84 1.55 1.395 2.532.811a10.012 10.012 0 003.088-2.845c.896-1.267.91-2.561.953-4.041.014-.854-1.21-1.38-1.679-.555zm9.405 4.368c-2.362-.896-6.8.612-7.057 3.458-.057.612.413 1.096.94 1.295 1.08.427 2.205-.086 3.243-.413 1.096-.356 2.177-.583 3.216-1.11 1.451-.74 1.01-2.703-.342-3.23z" fill="#FFC44D"/><path d="M73.788 60.57c-1.039.527-2.12.755-3.216 1.11-.626.214-1.295.47-1.963.555.085.484.47.854.91 1.025 1.082.427 2.206-.085 3.244-.413 1.096-.355 2.177-.583 3.216-1.11 1.451-.74 1.01-2.717-.341-3.23a3.873 3.873 0 00-1.181-.241c.412.782.298 1.807-.67 2.305z" fill="#FFC44D"/><path d="M35.386 71.03c-.982-1.039-1.964-2.064-2.747-3.273-.498-.754-1.778-.341-1.679.584.143 1.351.655 2.418 1.48 3.486.67.867 2.135 2.532 3.373 1.792 1.024-.597.128-1.992-.427-2.59z" fill="#FFEEAD"/><path d="M32.654 67.771c-.342-.526-1.053-.47-1.423-.1.683.911 1.465 1.737 2.234 2.562.555.598 1.451 1.992.44 2.59-.141.085-.27.128-.412.156.697.64 1.565 1.124 2.348.655 1.01-.612.114-2.007-.441-2.59-.996-1.053-1.978-2.077-2.746-3.273z" fill="#FFC44D"/><path d="M43.837 54.212c-1.252-.783-2.703-1.068-4.097-1.48-1.452-.427-2.86-1.139-4.24-1.736-.769-.327-1.978.256-1.58 1.252 1.38 3.486 6.503 5.876 9.946 3.785.683-.427.626-1.409-.029-1.822z" fill="#FFEEAD"/><path d="M43.837 54.212c-.569-.356-1.195-.612-1.82-.811.454.47.426 1.28-.186 1.65-1.565.94-3.457.968-5.208.384 2.163 1.437 5.038 1.921 7.229.598.697-.427.64-1.409-.014-1.821z" fill="#FFC44D"/><path d="M48.433 44.692c-1.323-1.152-3.158-.697-4.78-.498-1.537.185-3.188.484-4.184 1.722-.683.854.142 1.864.996 2.006 1.053.185 2.291.157 3.472.157 1.31 0 3.287.384 4.311-.57.74-.668 1.01-2.091.185-2.817z" fill="#FFEEAD"/><path d="M46.527 46.514c-1.039.953-3.003.583-4.312.569-.981 0-1.977.014-2.902-.085.185.47.668.839 1.166.924 1.053.185 2.291.157 3.472.157 1.31 0 3.287.384 4.312-.57.725-.668.996-2.09.17-2.816-.44-.385-.939-.584-1.465-.683.47.768.185 1.92-.441 2.504z" fill="#FFC44D"/><path d="M35.03 65.85c-2.063-1.266-6.574-1.75-7.94.84-.37.697-.07 1.437.74 1.58 1.167.199 2.376-.086 3.557-.1 1.252-.015 2.434-.128 3.515-.783.526-.327.74-1.167.128-1.537z" fill="#FFEEAD"/><path d="M27.83 68.255c1.167.2 2.376-.085 3.557-.1 1.252-.014 2.434-.128 3.515-.782.526-.313.74-1.153.128-1.537a7.164 7.164 0 00-1.238-.569c.157.398-.071.91-.455 1.153-1.082.654-2.277.768-3.515.782-.953.014-1.92.185-2.874.142.043.456.341.826.882.911z" fill="#FFC44D"/><path d="M78.484 63.958c-2.817-1.18-6.004.54-8.452 1.892a37.994 37.994 0 00-4.183 2.69c-.84.612-2.205 1.238-2.547 2.29-.284.57.142 1.338.854 1.423 2.148.257 4.667-1.736 6.488-2.618 2.42-1.166 4.525-2.22 7.271-2.063 2.22.128 2.376-2.86.57-3.614z" fill="#FFE49A"/><path d="M77.645 63.702c.896 1.138.47 3.116-1.352 3.016-2.746-.156-4.838.897-7.27 2.063-1.623.783-3.814 2.462-5.792 2.619.085.412.427.782.91.84 2.15.255 4.668-1.737 6.489-2.619 2.419-1.167 4.525-2.22 7.27-2.063 2.22.128 2.363-2.86.57-3.614a6.85 6.85 0 00-.825-.242z" fill="#FFC44D"/><path d="M85.385 73.107c-1.793-2.988-5.52-2.319-8.537-1.793-4.212.726-8.153 2.035-12.479 2.05-.796 0-1.536 1.024-.84 1.692 2.59 2.462 5.251 2.519 8.723 2.234 2.248-.184 4.51-.825 6.744-1.152 1.992-.299 3.956.284 5.678-.868.668-.47 1.21-1.352.711-2.163z" fill="#FFEEAD"/><path d="M83.293 71.883c.484.811-.042 1.68-.725 2.135-1.736 1.152-3.7.569-5.677.867-2.234.328-4.482.968-6.745 1.153-2.276.185-4.212.213-6.019-.484 2.405 1.935 4.924 1.978 8.11 1.722 2.249-.185 4.511-.825 6.745-1.153 1.992-.299 3.956.285 5.677-.868.67-.455 1.21-1.323.726-2.134-.669-1.124-1.622-1.722-2.703-2.02.227.227.427.47.611.782z" fill="#FFC44D"/><path d="M31.515 81.886c-1.067-1.21-2.134-2.404-2.973-3.799-.527-.868-1.992-.455-1.921.584.1 1.536.654 2.76 1.537 3.998.725.996 2.319 2.945 3.756 2.148 1.152-.64.2-2.248-.399-2.93z" fill="#FFEEAD"/><path d="M28.542 78.087c-.37-.597-1.167-.583-1.608-.17.74 1.052 1.58 2.006 2.433 2.973.598.683 1.565 2.305.398 2.945a1.21 1.21 0 01-.483.157c.768.74 1.735 1.323 2.632.825 1.167-.654.213-2.262-.399-2.945-1.067-1.21-2.134-2.39-2.973-3.785z" fill="#FFC44D"/><path d="M55.918 46.798c-3.117-.37-5.891.57-8.836 1.466-3.216.996-6.688 1.693-9.747 3.087-.84.385-.74 1.779.17 2.007 3.131.782 6.204-.1 9.264-.91 3.272-.855 6.63-1.751 9.69-3.23 1.223-.584.654-2.277-.541-2.42z" fill="#FFEEAD"/><path d="M55.918 46.798c-.228-.028-.441-.028-.655-.042.185.54.043 1.152-.612 1.465-3.059 1.466-6.417 2.376-9.69 3.23-2.703.712-5.406 1.48-8.167 1.11.071.37.3.711.712.81 3.13.783 6.203-.099 9.263-.91 3.272-.853 6.63-1.75 9.69-3.23 1.223-.597.654-2.29-.541-2.433z" fill="#FFC44D"/><path d="M65.677 54.154c-.355-.697-1.237-1.11-1.992-1.08-6.929.255-14.74 7.597-18.71 12.805-.669.868-.029 2.362 1.195 1.95 4.695-1.58 8.523-4.867 12.735-7.414 1.992-1.224 8.58-2.76 6.772-6.26z" fill="#FFEEAD"/><path d="M63.672 53.073c-.071 0-.142.015-.213.015 0 .014.014.014.014.028 1.807 3.515-4.78 5.051-6.787 6.26-3.97 2.405-7.627 5.45-11.98 7.115-.1.797.483 1.636 1.436 1.323 4.696-1.58 8.523-4.866 12.735-7.413 2.006-1.21 8.594-2.746 6.787-6.26-.341-.683-1.238-1.096-1.992-1.068z" fill="#FFC44D"/><path d="M75.653 47.154c-2.718-.128-5.194 2.632-7.3 4.07-2.56 1.764-5.677 2.817-7.697 5.292-1.708 2.106 1.01 4.653 3.03 2.875 3.885-3.43 11.241-5.65 12.877-11.113.185-.598-.341-1.11-.91-1.124z" fill="#FFEEAD"/><path d="M75.653 47.154a3.87 3.87 0 00-.91.071c0 .057-.015.128-.03.2-1.636 5.463-8.992 7.669-12.876 11.112-.427.37-.883.555-1.324.583.655.91 2.035 1.295 3.173.285 3.885-3.43 11.241-5.649 12.877-11.113.185-.611-.341-1.124-.91-1.138z" fill="#FFC44D"/><path d="M48.49 62.108c-.299-.611-1.053-.996-1.707-.981-6.019.07-12.962 6.289-16.534 10.714-.598.74-.071 2.049.996 1.707 4.112-1.266 7.513-4.04 11.212-6.16 1.779-.997 7.527-2.192 6.033-5.28z" fill="#FFEEAD"/><path d="M46.783 61.127c-.057 0-.128.014-.185.014 0 .014.015.014.015.028 1.494 3.088-4.255 4.283-6.033 5.293-3.5 2.007-6.73 4.582-10.558 5.92-.114.697.384 1.437 1.224 1.18 4.112-1.266 7.512-4.04 11.212-6.16 1.764-1.01 7.527-2.206 6.033-5.294-.3-.597-1.053-.981-1.708-.981z" fill="#FFC44D"/><path d="M26.336 74.914c-1.366-1.167-2.874-.953-4.382-.185-1.153.583-1.793 1.508-2.59 2.462-.697.825-.114 2.262 1.082 1.935.796-.214 1.607-.328 2.418-.47 1.01-.185 2.12.014 3.003-.626.953-.683 1.55-2.206.47-3.116z" fill="#FFEEAD"/><path d="M24.557 74.117c.726.925.171 2.248-.683 2.874-.882.64-1.992.427-3.002.626-.598.114-1.195.213-1.793.341-.042.712.498 1.423 1.366 1.181.797-.213 1.608-.327 2.42-.47 1.01-.184 2.12.015 3.001-.625.94-.683 1.537-2.206.456-3.13a3.195 3.195 0 00-1.765-.797z" fill="#FFC44D"/><path d="M61.993 70.332c-1.053-.241-2.106 0-3.159-.042-1.053-.043-2.134-.498-3.158-.185-.541.17-.883.825-.555 1.337 1.394 2.163 6.018 2.59 7.47.356.327-.526.014-1.309-.598-1.466z" fill="#FFEEAD"/><path d="M61.993 70.332a4.255 4.255 0 00-.953-.1.91.91 0 01-.1.74c-.953 1.466-3.272 1.78-5.136 1.225 1.85 1.48 5.52 1.55 6.773-.399.341-.526.028-1.309-.584-1.466z" fill="#FFC44D"/><path d="M51.137 55.748c-.982.612-1.338 1.65-1.878 2.618-.413.74-.868 1.55-1.509 2.12-.583.512-1.053-.156-1.792-.228-.356-.042-.64.257-.683.584-.27 2.362 2.902 2.903 4.425 1.892 1.536-1.01 2.96-3.201 3.514-4.951.342-1.139-.74-2.875-2.077-2.035z" fill="#FFEEAD"/><path d="M49.7 62.734c1.536-1.01 2.96-3.201 3.514-4.951.313-1.025-.54-2.533-1.693-2.206.17.413.228.868.1 1.267-.541 1.75-1.978 3.927-3.5 4.951-.67.441-1.637.584-2.52.413.826 1.167 2.932 1.295 4.099.526z" fill="#FFC44D"/><path d="M67.912 77.247c-2.106.228-3.998 1.053-5.862 2.035-1.565.825-3.571 1.807-4.567 3.315-.584.883.1 1.807 1.01 1.964 1.665.284 3.4-.754 4.866-1.423 1.793-.825 3.515-1.522 5.478-1.779 2.732-.327 1.75-4.396-.925-4.112z" fill="#FFEBB1"/><path d="M58.507 84.575c1.665.285 3.4-.754 4.866-1.423 1.793-.825 3.515-1.522 5.478-1.778 2.576-.327 1.822-3.998-.54-4.126.84 1.152.654 2.973-1.139 3.201-1.977.256-3.685.953-5.478 1.779-1.309.597-2.845 1.48-4.34 1.465.186.441.627.797 1.153.882z" fill="#FFC44D"/><path d="M54.694 75.028c-1.508-2.69-4.952-1.92-7.584-1.608-3.927.47-9.035.612-12.606 2.305-.812.384-.868 1.594-.114 2.078 2.916 1.864 6.701 1.124 9.974.725 2.974-.37 8.352.157 10.287-2.433.185-.299.214-.754.043-1.067z" fill="#FFEEAD"/><path d="M54.623 76.095c.213-.284.227-.74.057-1.053-.57-1.01-1.395-1.522-2.362-1.764.199.213.37.44.526.711.17.313.157.769-.057 1.053-1.92 2.59-7.299 2.063-10.273 2.433-2.732.342-5.82.91-8.466 0 .085.128.185.242.327.328 2.917 1.864 6.702 1.124 9.975.725 2.974-.37 8.352.157 10.273-2.433z" fill="#FFC44D"/><path d="M50.54 76.608c-2.989-.427-5.678.398-8.538 1.195-3.116.868-6.488 1.465-9.462 2.732-.811.341-.754 1.707.114 1.935 3.002.825 5.976.057 8.935-.64 3.173-.74 6.432-1.523 9.42-2.875 1.195-.526.683-2.177-.47-2.347z" fill="#FFEEAD"/><path d="M50.54 76.608c-.214-.029-.428-.043-.627-.058.157.527.014 1.11-.626 1.395-2.974 1.337-6.246 2.12-9.42 2.874-2.617.612-5.25 1.295-7.896.868.057.356.284.683.668.797 3.003.825 5.976.057 8.936-.64 3.173-.74 6.431-1.523 9.42-2.875 1.209-.54.697-2.19-.456-2.361z" fill="#FFC44D"/><path d="M53.328 63.489c-2.66.384-5.037 1.523-7.342 2.86-1.95 1.124-4.468 2.476-5.649 4.44-.697 1.152.214 2.29 1.38 2.447 2.135.284 4.283-1.11 6.119-2.035 2.248-1.124 4.396-2.106 6.886-2.518 3.444-.555 1.992-5.692-1.394-5.194z" fill="#FFEEAD"/><path d="M41.717 73.235c2.135.285 4.283-1.11 6.119-2.035 2.248-1.124 4.396-2.105 6.886-2.518 3.259-.54 2.135-5.165-.868-5.236 1.11 1.423.968 3.756-1.294 4.126-2.505.413-4.639 1.38-6.887 2.519-1.65.825-3.543 2.02-5.45 2.063.228.569.811.996 1.494 1.081z" fill="#FFC44D"/><path d="M56.757 70.02c-.427-.257-1.081-.143-1.323.327-.54 1.081-.626 2.319-1.153 3.429-.669 1.408-1.892 1.992-2.732 3.187-.768 1.11.27 2.277 1.352 2.419 1.992.27 3.685-2.263 4.368-3.828.726-1.65 1.423-4.396-.512-5.535z" fill="#FFEEAD"/><path d="M56.757 70.02a.983.983 0 00-.825-.058c.853 1.338.284 3.401-.313 4.753-.655 1.48-2.206 3.841-4.07 3.841.3.442.826.769 1.366.84 1.992.27 3.685-2.262 4.368-3.828.712-1.664 1.41-4.41-.526-5.549z" fill="#FFC44D"/><path d="M44.592 51.978c-1.779.697-2.49 1.764-3.273 3.471-.598 1.31-1.466 2.434-2.063 3.742-.712 1.566 1.067 2.79 2.419 2.604 2.006-.284 3.059-2.29 3.813-3.941.327-.711.64-1.48.868-2.22.1-.313.213-.611.27-.939a2.02 2.02 0 00.071-.711c.015-.043.043-.1.072-.2.526-1.394-1.068-2.248-2.177-1.806z" fill="#FFEEAD"/><path d="M44.648 51.963c.015.185 0 .399-.085.612-.028.085-.043.142-.071.2.014.241 0 .483-.071.71-.071.328-.185.613-.27.94-.228.74-.541 1.508-.869 2.22-.74 1.65-1.806 3.67-3.813 3.94-.057.015-.128 0-.185 0 .413.812 1.494 1.324 2.39 1.196 2.007-.285 3.06-2.29 3.814-3.941.327-.712.64-1.48.868-2.22.1-.313.213-.612.27-.939a2.01 2.01 0 00.071-.712c.015-.042.043-.1.072-.199.526-1.351-.996-2.19-2.12-1.807z" fill="#FFC44D"/><path d="M59.83 65.053c-1.323-1.209-3.215-.796-4.866-.626-1.58.157-3.258.413-4.311 1.665-.712.854.1 1.907.968 2.078 1.08.213 2.333.213 3.542.242 1.338.028 3.344.469 4.426-.484.754-.669 1.067-2.12.241-2.874z" fill="#FFEEAD"/><path d="M57.838 66.86c-1.08.954-3.087.513-4.425.485-.996-.029-2.02-.043-2.96-.157a1.63 1.63 0 001.167.982c1.082.213 2.334.213 3.543.242 1.338.028 3.344.47 4.426-.484.754-.669 1.067-2.106.241-2.874-.44-.399-.953-.612-1.48-.726.456.783.143 1.95-.512 2.533z" fill="#FFC44D"/><path d="M60.371 73.022c-3.628-1.494-7.74.725-10.87 2.461a49.63 49.63 0 00-5.379 3.486c-1.081.797-2.846 1.608-3.273 2.974-.37.726.2 1.722 1.11 1.821 2.76.328 6.019-2.262 8.352-3.4 3.117-1.523 5.806-2.875 9.363-2.69 2.86.157 3.03-3.685.697-4.652z" fill="#FFEEAD"/><path d="M59.304 72.695c1.167 1.45.626 4.012-1.722 3.884-3.543-.2-6.232 1.167-9.348 2.69-2.092 1.024-4.909 3.186-7.456 3.4a1.38 1.38 0 001.181 1.081c2.76.328 6.019-2.262 8.352-3.4 3.117-1.523 5.806-2.875 9.363-2.69 2.86.157 3.045-3.685.711-4.652a10.338 10.338 0 00-1.081-.313z" fill="#FFC44D"/><path d="M53.328 59.433c-1.693-2.106-4.468-1.195-6.73-.484-3.159.996-6.033 2.405-9.363 2.875-.611.085-1.081.939-.47 1.38 2.249 1.622 4.298 1.38 6.916.797 1.707-.37 3.372-1.096 5.051-1.594 1.494-.441 3.06-.2 4.269-1.266.47-.399.797-1.139.327-1.708z" fill="#FFEEAD"/><path d="M51.592 58.708c.455.569.142 1.294-.327 1.707-1.21 1.067-2.775.825-4.269 1.267-1.679.483-3.343 1.209-5.051 1.593-1.736.384-3.216.598-4.667.256 2.049 1.238 3.984 1.01 6.403.47 1.707-.37 3.372-1.096 5.051-1.594 1.494-.441 3.06-.2 4.269-1.266.47-.413.782-1.139.327-1.708-.64-.797-1.423-1.152-2.277-1.266.185.157.37.327.541.54zm-9.576 9.932c-.071-.485-.782-.855-1.11-.356a3.84 3.84 0 00-.341.626c.256.939.726 1.878 1.593 2.333.47.242.94.441 1.452.54-1.025-.682-1.423-2.02-1.594-3.144z" fill="#FFC44D"/><path d="M47.508 72.751c-.64-.284-1.195-.213-1.864-.27-.654-.057-1.266-.285-1.85-.598-1.166-.611-1.607-2.048-1.792-3.258-.071-.484-.783-.854-1.11-.356-1.224 1.822-.825 3.97.669 5.521 1.352 1.409 4.354 2.76 6.147 1.423.84-.612.825-2.02-.2-2.462z" fill="#FFEEAD"/><path d="M47.722 75.227c.84-.626.81-2.02-.2-2.476-.383-.17-.753-.213-1.123-.227.44.611.313 1.55-.328 2.034-.825.612-1.892.655-2.945.399 1.451.81 3.33 1.21 4.596.27z" fill="#FFC44D"/><path d="M64.526 65.594c-.953-.996-1.907-1.963-2.675-3.116-.484-.726-1.707-.313-1.608.57.142 1.294.655 2.319 1.466 3.343.654.825 2.077 2.419 3.272 1.693.954-.583.071-1.92-.455-2.49z" fill="#FFEEAD"/><path d="M61.85 62.478c-.326-.498-1.01-.44-1.38-.085.67.868 1.424 1.65 2.178 2.447.54.555 1.408 1.893.44 2.49-.127.086-.27.128-.398.157.683.612 1.523 1.053 2.263.598.967-.598.085-1.936-.441-2.49-.94-.982-1.893-1.964-2.661-3.117z" fill="#FFC44D"/></svg>