<svg width="100" height="100" viewBox="0 0 100 100" fill="none" xmlns="http://www.w3.org/2000/svg"><g clip-path="url(#clip0)"><path fill-rule="evenodd" clip-rule="evenodd" d="M61.445 1.625c17.407 5.022 30.182 21.15 30.182 40.217 0 2.958-.312 5.938-.935 8.834v.042l-3.074 15.503h-3.282l-5.173-6.272-.013-.041-29.234-35.445-34.44 41.779h-3.282L9.12 50.739v-.042a41.982 41.982 0 01-.934-8.835C8.186 18.774 26.9 0 49.916 0c3.989 0 7.873.563 11.529 1.625z" fill="#FF5A35"/><path fill-rule="evenodd" clip-rule="evenodd" d="M54.694 24.463c12.297 1.667 22.33 9.668 27.19 20.337l-.001.021h.002c2.928 6.418 3.946 13.836 2.45 21.421v.021h3.283L84.273 83.1h-3.282l-5.442-4.897v-.021L49.896 55.115 18.82 83.078h-3.282l-3.345-16.836h3.262c-3.989-20.192 9.97-39.091 29.641-41.78h9.597z" fill="#FF7A3C"/><path fill-rule="evenodd" clip-rule="evenodd" d="M61.03 91.08V72.347c0-6.168-4.986-11.169-11.134-11.169-6.149 0-11.134 5.001-11.134 11.17V91.08c0 5.064-5.526 9.168-12.339 9.168-4.341 0-8.1-3.104-8.952-7.376l-1.932-9.793H18.8c-3.24-16.4 6.626-31.86 21.561-36.55H59.41c8.512 2.687 15.365 8.83 19.105 16.659l.005-.01c2.825 5.94 3.864 12.837 2.472 19.9h3.261l-1.931 9.794c-.852 4.272-4.612 7.376-8.953 7.376-6.792 0-12.339-4.125-12.339-9.168z" fill="#FF9A42"/><path d="M50.271 58.152V5.539" stroke="#fff" stroke-linecap="round" stroke-linejoin="round"/></g><defs><clipPath id="clip0"><path fill="#fff" d="M0 0h100v100H0z"/></clipPath></defs></svg>