<svg width="100" height="100" viewBox="0 0 100 100" fill="none" xmlns="http://www.w3.org/2000/svg"><g clip-path="url(#clip0)"><path d="M45.886 23.06l-5.338 37.37 37.37-5.34-32.032-32.03z" fill="#FF9D73"/><path d="M77.917 55.09a15.182 15.182 0 00-12.836-4.267l-7.464 1.071c-2.384.346-4.716-.432-6.427-2.142a7.51 7.51 0 01-2.142-6.427l1.071-7.463a15.09 15.09 0 00-4.233-12.802L26.744 3.917a1.898 1.898 0 00-2.661 0l-3.697 3.697C.328 27.672-.001 60.826 20.058 80.884c20.11 20.145 52.866 20.145 72.994.018l4.008-4.008a1.882 1.882 0 000-2.66L77.917 55.09z" fill="#FF533E"/><path d="M82.375 70.225l-56.962 5.338c17.208 17.208 45.093 17.208 62.3 0l-5.338-5.338z" fill="#FF2E23"/><path d="M82.375 70.225l-9.796-9.796a7.53 7.53 0 00-6.41-2.125l-7.463 1.071c-4.544.64-9.33-.76-12.837-4.267-3.507-3.507-4.907-8.293-4.25-12.854l1.071-7.463a7.53 7.53 0 00-2.125-6.41L25.431 13.247c-17.208 17.207-17.208 45.092 0 62.3 14.236 14.27 39.736 11.886 56.944-5.322z" fill="#FF2E23"/><path d="M36.816 60.395c-2.073 0-3.766 1.693-3.784 3.783 0 2.073 1.693 3.767 3.784 3.784 2.073 0 3.766-1.693 3.783-3.784v-3.766l-3.783-.017zM53.92 69.69a3.79 3.79 0 000 5.355 3.79 3.79 0 005.356 0 3.775 3.775 0 000-5.356l-2.678-2.677-2.678 2.677zM31.27 47.04a3.79 3.79 0 01-5.356 0 3.775 3.775 0 010-5.356 3.775 3.775 0 015.356 0l2.678 2.678-2.678 2.677z" fill="#FFE9B0"/></g><defs><clipPath id="clip0"><path fill="#fff" d="M0 0h100v100H0z"/></clipPath></defs></svg>