<svg width="301" height="300" viewBox="0 0 301 300" fill="none" xmlns="http://www.w3.org/2000/svg"><path d="M152.063 145.851c-.685 0-1.35-.27-1.843-.763l-5.779-5.779-.837-2.922-2.995-.91-3.708-3.708-.987-3.072-2.835-.75-5.452-5.452a2.608 2.608 0 01-.525-2.933c2.149-4.67 5.125-5.597 7.751-6.414 1.813-.565 3.378-1.052 5.151-2.824 2.167-2.167 2.778-3.588 3.486-5.233.803-1.867 1.714-3.984 4.588-6.858 2.874-2.874 4.991-3.785 6.859-4.588 1.644-.708 3.065-1.32 5.232-3.486 2.167-2.168 2.778-3.588 3.486-5.233.804-1.867 1.714-3.984 4.589-6.858 2.874-2.875 4.991-3.786 6.859-4.59 1.645-.707 3.065-1.318 5.232-3.486 1.773-1.772 2.26-3.338 2.825-5.15.817-2.626 1.744-5.602 6.414-7.752a2.607 2.607 0 012.933.525l5.511 5.51.519 2.952 3.313.88 3.699 3.7.287 2.72 3.545 1.112 5.719 5.718a2.607 2.607 0 01-.753 4.211c-2.563 1.18-2.915 2.311-3.617 4.566-.639 2.052-1.435 4.606-4.116 7.287-2.874 2.875-4.991 3.785-6.859 4.589-1.645.708-3.065 1.319-5.232 3.486-2.168 2.167-2.779 3.588-3.487 5.233-.803 1.867-1.714 3.984-4.588 6.858-2.874 2.875-4.991 3.785-6.859 4.589-1.644.708-3.065 1.319-5.232 3.486-2.167 2.167-2.778 3.588-3.486 5.232-.803 1.868-1.714 3.985-4.588 6.859-2.681 2.681-5.235 3.476-7.287 4.115-2.255.702-3.386 1.054-4.565 3.616a2.607 2.607 0 01-2.368 1.517z" fill="#FC5866"/><path d="M205.548 70.656c-3.769 2.235-4.713 4.978-5.554 7.425-.639 1.86-1.243 3.618-3.21 5.586-2.379 2.379-3.903 3.079-5.668 3.89-1.94.89-4.139 1.9-7.179 4.94-3.04 3.04-4.049 5.239-4.94 7.178-.811 1.765-1.51 3.289-3.889 5.668-2.379 2.379-3.903 3.078-5.668 3.889-1.939.891-4.138 1.9-7.178 4.94-3.04 3.04-4.05 5.239-4.94 7.178-.811 1.765-1.51 3.289-3.889 5.668-1.967 1.967-3.725 2.571-5.585 3.21-2.38.818-5.04 1.734-7.24 5.25l3.832 3.831.021-.039c1.387-2.843 2.699-3.294 5.08-4.112 2.12-.728 4.759-1.634 7.578-4.454 3.04-3.04 4.05-5.238 4.94-7.178.811-1.765 1.51-3.289 3.889-5.668 2.379-2.378 3.903-3.078 5.668-3.889 1.94-.89 4.138-1.9 7.178-4.94 3.04-3.04 4.05-5.238 4.941-7.178.81-1.765 1.51-3.29 3.889-5.668 2.379-2.379 3.903-3.079 5.668-3.89 1.939-.89 4.138-1.9 7.178-4.94 2.82-2.82 3.726-5.458 4.455-7.578.818-2.38 1.269-3.693 4.112-5.08.122-.06.235-.13.344-.206l-3.833-3.833z" fill="#FFE7CC"/><path d="M201.85 66.958l-3.833-3.833c-3.769 2.235-4.713 4.979-5.554 7.425-.639 1.861-1.243 3.618-3.21 5.586-2.379 2.379-3.903 3.079-5.668 3.89-1.94.89-4.138 1.9-7.179 4.94-3.04 3.04-4.049 5.239-4.94 7.178-.81 1.765-1.51 3.29-3.889 5.668-2.379 2.379-3.903 3.079-5.668 3.889-1.939.891-4.138 1.9-7.178 4.94-3.04 3.04-4.05 5.239-4.94 7.179-.811 1.764-1.51 3.288-3.889 5.667-1.967 1.967-3.725 2.571-5.585 3.21-2.38.818-5.04 1.734-7.24 5.25l3.832 3.832.021-.039c1.388-2.843 2.699-3.294 5.081-4.112 2.119-.728 4.758-1.635 7.577-4.454 3.04-3.04 4.05-5.239 4.941-7.179.81-1.764 1.51-3.288 3.889-5.667 2.378-2.379 3.902-3.079 5.667-3.889 1.94-.891 4.138-1.901 7.178-4.94 3.04-3.04 4.05-5.239 4.941-7.179.81-1.765 1.51-3.289 3.889-5.667 2.379-2.38 3.903-3.08 5.668-3.89 1.94-.89 4.138-1.9 7.178-4.94 2.82-2.82 3.726-5.458 4.455-7.578.818-2.382 1.269-3.693 4.112-5.082.122-.06.235-.13.344-.205z" fill="#FFFAF4"/><path d="M91.563 205.307c-.685 0-1.35-.271-1.843-.764l-5.78-5.779-.836-2.922-2.995-.909-3.708-3.709-.987-3.072-2.835-.75-5.452-5.451a2.607 2.607 0 01-.525-2.933c2.15-4.671 5.125-5.597 7.751-6.415 1.813-.564 3.378-1.052 5.15-2.824 2.168-2.167 2.779-3.587 3.487-5.232.803-1.868 1.714-3.984 4.588-6.859 2.874-2.874 4.991-3.784 6.859-4.588 1.645-.708 3.065-1.319 5.232-3.486 2.167-2.167 2.778-3.588 3.486-5.233.804-1.867 1.714-3.984 4.589-6.858 2.874-2.875 4.991-3.785 6.859-4.589 1.645-.708 3.065-1.319 5.232-3.486 1.773-1.772 2.26-3.338 2.825-5.151.817-2.626 1.744-5.602 6.414-7.752a2.608 2.608 0 012.933.525l5.511 5.511.519 2.951 3.313.881 3.699 3.698.287 2.721 3.545 1.112 5.719 5.719a2.606 2.606 0 01-.753 4.211c-2.563 1.179-2.915 2.311-3.617 4.565-.639 2.052-1.435 4.606-4.116 7.287-2.874 2.875-4.991 3.786-6.859 4.589-1.645.708-3.065 1.319-5.232 3.487-2.168 2.167-2.779 3.587-3.487 5.232-.803 1.868-1.714 3.984-4.588 6.859-2.874 2.874-4.991 3.785-6.859 4.588-1.644.708-3.065 1.319-5.232 3.486-2.167 2.167-2.778 3.588-3.486 5.233-.803 1.867-1.714 3.984-4.588 6.858-2.681 2.681-5.235 3.476-7.287 4.115-2.255.702-3.386 1.054-4.565 3.617a2.608 2.608 0 01-2.368 1.517z" fill="#FC5866"/><path d="M145.048 130.111c-3.769 2.235-4.713 4.979-5.554 7.426-.639 1.86-1.243 3.618-3.21 5.585-2.379 2.379-3.903 3.079-5.668 3.889-1.94.891-4.139 1.901-7.179 4.941s-4.049 5.239-4.94 7.178c-.811 1.765-1.51 3.289-3.889 5.668-2.379 2.379-3.903 3.079-5.668 3.889-1.939.891-4.138 1.9-7.178 4.94-3.04 3.04-4.05 5.239-4.94 7.179-.81 1.764-1.51 3.288-3.89 5.667-1.966 1.967-3.724 2.571-5.584 3.21-2.38.818-5.04 1.734-7.24 5.25l3.832 3.832.02-.039c1.388-2.843 2.7-3.294 5.081-4.112 2.12-.728 4.759-1.635 7.578-4.454 3.04-3.04 4.05-5.239 4.94-7.179.811-1.764 1.51-3.288 3.889-5.667 2.379-2.379 3.903-3.079 5.668-3.889 1.94-.891 4.138-1.901 7.178-4.941 3.04-3.039 4.05-5.238 4.941-7.178.81-1.765 1.51-3.289 3.889-5.668 2.379-2.378 3.903-3.078 5.668-3.889 1.939-.891 4.138-1.9 7.178-4.941 2.82-2.819 3.726-5.457 4.455-7.577.818-2.382 1.269-3.693 4.112-5.082.122-.059.235-.13.344-.205l-3.833-3.833z" fill="#FFE7CC"/><path d="M141.35 126.413l-3.833-3.832c-3.769 2.234-4.713 4.978-5.554 7.425-.639 1.86-1.243 3.618-3.21 5.585-2.379 2.379-3.903 3.079-5.668 3.89-1.94.89-4.138 1.9-7.179 4.94-3.04 3.04-4.049 5.239-4.94 7.179-.81 1.764-1.51 3.288-3.889 5.667-2.379 2.379-3.903 3.079-5.668 3.889-1.94.891-4.138 1.901-7.178 4.941s-4.05 5.238-4.94 7.178c-.81 1.765-1.51 3.289-3.89 5.667-1.966 1.967-3.724 2.571-5.584 3.21-2.38.818-5.04 1.734-7.24 5.25l3.832 3.832.02-.039c1.388-2.843 2.7-3.294 5.081-4.112 2.12-.728 4.759-1.635 7.578-4.454 3.04-3.04 4.05-5.239 4.94-7.178.81-1.765 1.51-3.289 3.89-5.668 2.378-2.379 3.902-3.079 5.667-3.889 1.94-.891 4.138-1.9 7.178-4.94 3.04-3.04 4.05-5.239 4.941-7.179.81-1.764 1.51-3.288 3.889-5.667 2.379-2.379 3.903-3.079 5.668-3.889 1.94-.891 4.138-1.901 7.178-4.941 2.82-2.82 3.726-5.458 4.455-7.578.818-2.381 1.269-3.693 4.112-5.081.122-.06.235-.131.344-.206z" fill="#FFFAF4"/><path d="M126.963 266.8c-.685 0-1.35-.27-1.843-.763l-5.779-5.779-.837-2.922-2.995-.91-3.708-3.708-.987-3.072-2.835-.751-5.452-5.451a2.608 2.608 0 01-.525-2.933c2.149-4.67 5.125-5.597 7.751-6.414 1.813-.565 3.378-1.052 5.151-2.824 2.167-2.167 2.778-3.588 3.486-5.233.803-1.867 1.714-3.984 4.588-6.858 2.874-2.874 4.991-3.785 6.859-4.589 1.644-.707 3.065-1.319 5.232-3.486 2.167-2.167 2.778-3.587 3.486-5.232.804-1.868 1.714-3.984 4.589-6.859 2.874-2.874 4.991-3.785 6.858-4.588 1.645-.708 3.066-1.32 5.233-3.487 1.772-1.772 2.26-3.338 2.825-5.151.817-2.625 1.744-5.601 6.414-7.751a2.606 2.606 0 012.933.525l5.511 5.51.519 2.952 3.313.881 3.699 3.698.287 2.72 3.545 1.113 5.719 5.718a2.607 2.607 0 01-.753 4.211c-2.563 1.179-2.915 2.311-3.617 4.566-.639 2.052-1.435 4.606-4.116 7.287-2.874 2.874-4.991 3.785-6.859 4.589-1.645.707-3.065 1.319-5.232 3.486-2.168 2.167-2.779 3.588-3.487 5.233-.803 1.867-1.714 3.984-4.588 6.858-2.874 2.875-4.991 3.785-6.859 4.589-1.644.707-3.065 1.318-5.232 3.485-2.167 2.168-2.778 3.588-3.486 5.233-.804 1.868-1.714 3.984-4.588 6.859-2.681 2.681-5.235 3.476-7.287 4.115-2.255.702-3.386 1.054-4.565 3.616a2.607 2.607 0 01-2.368 1.517z" fill="#FC5866"/><path d="M180.448 191.605c-3.769 2.234-4.713 4.978-5.554 7.425-.639 1.861-1.243 3.618-3.21 5.585-2.379 2.379-3.903 3.079-5.668 3.89-1.94.891-4.139 1.9-7.179 4.94-3.04 3.04-4.05 5.239-4.94 7.179-.811 1.765-1.51 3.289-3.889 5.667-2.379 2.379-3.903 3.079-5.668 3.889-1.939.891-4.138 1.901-7.178 4.941s-4.05 5.238-4.94 7.178c-.811 1.765-1.51 3.289-3.889 5.668-1.967 1.966-3.725 2.57-5.585 3.21-2.38.817-5.04 1.733-7.24 5.249l3.832 3.832.021-.039c1.387-2.843 2.699-3.294 5.08-4.112 2.12-.728 4.759-1.635 7.578-4.454 3.04-3.04 4.05-5.239 4.94-7.178.811-1.765 1.51-3.289 3.889-5.668 2.379-2.379 3.903-3.079 5.668-3.889 1.94-.891 4.138-1.9 7.178-4.94 3.04-3.04 4.05-5.239 4.941-7.179.81-1.764 1.51-3.288 3.889-5.667 2.379-2.379 3.903-3.079 5.667-3.889 1.94-.891 4.139-1.901 7.179-4.941 2.82-2.82 3.726-5.458 4.455-7.578.818-2.381 1.269-3.693 4.112-5.081.122-.06.235-.13.344-.205l-3.833-3.833z" fill="#FFE7CC"/><path d="M176.75 187.907l-3.833-3.833c-3.769 2.235-4.713 4.978-5.554 7.425-.639 1.861-1.243 3.618-3.21 5.586-2.379 2.379-3.903 3.079-5.668 3.889-1.94.891-4.138 1.901-7.179 4.941-3.04 3.04-4.049 5.238-4.94 7.178-.811 1.765-1.511 3.289-3.889 5.668-2.379 2.378-3.903 3.078-5.668 3.889-1.939.89-4.138 1.9-7.178 4.94-3.04 3.04-4.05 5.239-4.94 7.178-.811 1.765-1.51 3.289-3.889 5.668-1.967 1.967-3.725 2.571-5.585 3.21-2.38.817-5.04 1.734-7.24 5.25l3.832 3.831.021-.039c1.388-2.843 2.699-3.293 5.08-4.112 2.12-.728 4.759-1.634 7.578-4.454 3.04-3.04 4.05-5.238 4.941-7.178.81-1.765 1.51-3.289 3.889-5.667 2.378-2.379 3.902-3.079 5.667-3.889 1.94-.891 4.138-1.901 7.178-4.941s4.05-5.238 4.941-7.178c.81-1.765 1.51-3.289 3.889-5.668 2.379-2.379 3.903-3.079 5.668-3.889 1.939-.891 4.138-1.901 7.178-4.941 2.82-2.819 3.726-5.458 4.455-7.577.818-2.382 1.269-3.694 4.112-5.082.122-.06.235-.13.344-.205z" fill="#FFFAF4"/><path d="M189.073 204.807a2.61 2.61 0 01-1.843-.764l-5.778-5.779-.837-2.922-2.995-.909-3.708-3.709-.987-3.072-2.836-.75-5.451-5.451a2.606 2.606 0 01-.525-2.933c2.149-4.671 5.125-5.597 7.751-6.415 1.813-.564 3.378-1.052 5.15-2.824 2.168-2.167 2.779-3.587 3.487-5.232.803-1.868 1.714-3.984 4.588-6.859 2.874-2.874 4.991-3.784 6.858-4.588 1.645-.708 3.066-1.319 5.233-3.486 2.167-2.167 2.778-3.588 3.486-5.233.803-1.867 1.714-3.984 4.589-6.858 2.874-2.875 4.991-3.785 6.858-4.589 1.645-.708 3.066-1.319 5.233-3.486 1.772-1.772 2.26-3.338 2.824-5.151.818-2.626 1.745-5.602 6.415-7.752a2.608 2.608 0 012.933.525l5.511 5.511.518 2.951 3.314.881 3.698 3.698.288 2.721 3.545 1.112 5.719 5.719a2.607 2.607 0 01-.754 4.211c-2.562 1.179-2.914 2.311-3.617 4.565-.639 2.052-1.434 4.606-4.115 7.287-2.874 2.875-4.991 3.786-6.859 4.589-1.645.708-3.065 1.319-5.233 3.487-2.167 2.167-2.778 3.587-3.486 5.232-.803 1.868-1.714 3.984-4.588 6.859-2.875 2.874-4.991 3.785-6.859 4.588-1.645.708-3.065 1.319-5.232 3.486-2.167 2.167-2.778 3.588-3.486 5.233-.804 1.867-1.714 3.984-4.589 6.858-2.681 2.681-5.234 3.476-7.287 4.115-2.254.702-3.385 1.054-4.565 3.617a2.606 2.606 0 01-2.368 1.517z" fill="#FC5866"/><path d="M242.559 129.611c-3.769 2.235-4.713 4.979-5.554 7.426-.639 1.86-1.243 3.618-3.21 5.585-2.379 2.379-3.903 3.079-5.668 3.889-1.94.891-4.139 1.901-7.179 4.941s-4.05 5.239-4.94 7.178c-.811 1.765-1.511 3.289-3.889 5.668-2.379 2.379-3.903 3.079-5.668 3.889-1.94.891-4.138 1.9-7.178 4.94-3.04 3.04-4.05 5.239-4.941 7.179-.81 1.764-1.51 3.288-3.889 5.667-1.967 1.967-3.724 2.571-5.585 3.21-2.379.818-5.039 1.734-7.239 5.25l3.832 3.832c.006-.014.014-.026.02-.039 1.388-2.843 2.7-3.294 5.081-4.112 2.12-.728 4.758-1.635 7.578-4.454 3.04-3.04 4.049-5.239 4.94-7.179.811-1.764 1.51-3.288 3.889-5.667 2.379-2.379 3.903-3.079 5.668-3.889 1.939-.891 4.138-1.901 7.178-4.941 3.04-3.039 4.05-5.238 4.94-7.178.811-1.765 1.511-3.289 3.889-5.668 2.379-2.378 3.904-3.078 5.668-3.889 1.94-.891 4.139-1.9 7.179-4.941 2.82-2.819 3.726-5.457 4.455-7.577.818-2.382 1.269-3.693 4.112-5.082.122-.059.235-.13.344-.205l-3.833-3.833z" fill="#FFE7CC"/><path d="M238.861 125.913l-3.833-3.832c-3.769 2.234-4.713 4.978-5.554 7.425-.639 1.86-1.243 3.618-3.21 5.585-2.379 2.379-3.903 3.079-5.668 3.89-1.94.89-4.139 1.9-7.179 4.94-3.04 3.04-4.05 5.239-4.94 7.179-.811 1.764-1.511 3.288-3.889 5.667-2.379 2.379-3.903 3.079-5.668 3.889-1.939.891-4.138 1.901-7.178 4.941s-4.05 5.238-4.94 7.178c-.811 1.765-1.511 3.289-3.889 5.667-1.967 1.967-3.725 2.571-5.586 3.21-2.379.818-5.039 1.734-7.239 5.25l3.832 3.832.021-.039c1.387-2.843 2.699-3.294 5.08-4.112 2.12-.728 4.759-1.635 7.578-4.454 3.04-3.04 4.05-5.239 4.94-7.178.811-1.765 1.51-3.289 3.889-5.668 2.379-2.379 3.903-3.079 5.668-3.889 1.939-.891 4.138-1.9 7.178-4.94 3.04-3.04 4.05-5.239 4.941-7.179.81-1.764 1.51-3.288 3.888-5.667 2.38-2.379 3.904-3.079 5.668-3.889 1.94-.891 4.139-1.901 7.179-4.941 2.82-2.82 3.726-5.458 4.455-7.578.818-2.381 1.269-3.693 4.112-5.081.122-.06.235-.131.344-.206z" fill="#FFFAF4"/></svg>