<svg width="301" height="300" viewBox="0 0 301 300" fill="none" xmlns="http://www.w3.org/2000/svg"><g clip-path="url(#clip0)"><path d="M204.66 115.835c-2.273-1.035-9.622-5.18-9.928-5.368l4.07-58.267s26.151 10.935 33.306 22.521c-26.18 42.55-22.984 36.223-27.448 41.114z" fill="#E4DDC2"/><path d="M201.926 82.767c-.308-.849-.456-1.761-.144-2.403.941-1.936 4.573-2.502 6.405-1.373.21.13.427.296.65.503 2.314 2.15 1.847 1.136 3.429 2.11 1.583.974-.344 2.333-2.718.873-1.741-1.071-3.822 2.164-5.82 1.733-.802-.173-1.521-.671-1.802-1.443zm16.54-5.467a317.06 317.06 0 014.505-2.595 1.689 1.689 0 012.124.402c.565.674.528 1.66-.211 2.139a8.533 8.533 0 01-1.742.867 3.97 3.97 0 01-.748.195c-.755.113-2.121.33-2.52.98a.955.955 0 01-1.646-.033l-.196-.348a1.186 1.186 0 01.434-1.607z" fill="#395C47"/><path d="M194.548 110.354l-1.636-55.861 5.89-2.293-4.07 58.267-.184-.113z" fill="#CCC9B1"/><path d="M205.59 65.859c-2.577-2.313 2.049-2.74 4.91-2.07.548.094 1.745.71 2.151 2.414.507 2.13 2.273 1.035 4.18 1.481 1.907.446 1.36 1.928 1.238 3.307-.122 1.38-3.957 2.293-5.823 2.963-1.867.67-.711-2.982-1.847-5.864-1.137-2.88-2.232.082-4.809-2.231zm-5.983 36.32c.974-1.582-.893-5.64.973-6.31l5.316-.366c-.717.772-2.037 2.602-1.582 3.754.568 1.441.832 1.603-1.623 2.638-1.964.828-2.739 4.255-2.881 5.864-.602-.006-1.972-.34-2.638-1.623-.832-1.603 1.461-2.374 2.435-3.957zM216.936 91.5c-.65 1.056-2.942 1.827-3.855 2.72-.569.136-1.733.098-1.847-1.136-.142-1.542 1.522-3.064 2.272-3.693.751-.63 2.618-1.299 4.261-1.015 1.644.284-.182 2.07-.831 3.125z" fill="#395C47"/></g><g clip-path="url(#clip1)"><path d="M102.78 181.208c1.603 1.915 6.442 8.827 6.637 9.13l-28.835 50.795s-18.864-21.156-20.314-34.696c41.989-27.072 36.374-22.745 42.512-25.229z" fill="#E4DDC2"/><path d="M90.965 212.214c-.088.899-.35 1.786-.908 2.23-1.684 1.34-5.205.282-6.37-1.528a4.223 4.223 0 01-.369-.734c-1.157-2.939-1.174-1.822-2.181-3.384-1.008-1.562 1.318-1.956 2.829.387 1.107 1.717 4.381-.301 5.997.95.65.502 1.082 1.262 1.002 2.079zm-17.278-2.212c-1.575.131-3.682.298-5.184.395a1.69 1.69 0 01-1.743-1.28c-.218-.852.242-1.726 1.114-1.838a8.637 8.637 0 011.946-.03 4 4 0 01.76.148c.728.224 2.054.618 2.695.204a.955.955 0 011.47.74l.027.399a1.187 1.187 0 01-1.085 1.262z" fill="#395C47"/><path d="M109.534 190.519l-22.649 51.09-6.302-.476 28.834-50.796.117.182z" fill="#CCC9B1"/><path d="M80.359 225.882c1.325 3.199-3.031 1.586-5.323-.253-.453-.322-1.267-1.394-.897-3.107.462-2.141-1.603-1.915-3.13-3.141-1.528-1.226-.394-2.325.311-3.517.706-1.192 4.559-.36 6.532-.158 1.973.202-.648 2.997-.867 6.086-.22 3.09 2.048.891 3.374 4.09zm21.082-30.175c-1.562 1.007-1.63 5.473-3.604 5.271l-4.952-1.966c.98-.386 2.96-1.466 3.048-2.702.11-1.545-.058-1.805 2.603-1.678 2.129.101 4.308-2.655 5.131-4.045.54.266 1.632 1.159 1.678 2.603.059 1.805-2.342 1.51-3.904 2.517zM81.2 197.855c1.04-.672 3.442-.377 4.65-.788.572.123 1.606.66 1.175 1.822-.537 1.452-2.695 2.106-3.644 2.35-.949.243-2.921.041-4.281-.925-1.36-.966 1.058-1.788 2.1-2.459z" fill="#395C47"/></g><path d="M129.227 140.584c-2.388.731-10.639 2.493-10.993 2.555L82.69 96.79s26.835-9.129 39.87-5.188c8.569 49.219 6.772 42.362 6.667 48.982z" fill="#E4DDC2"/><path d="M105.277 117.621c-.794-.431-1.508-1.018-1.7-1.705-.577-2.073 1.769-4.904 3.89-5.27.243-.043.515-.062.82-.055 3.157.079 2.136-.371 3.966-.69 1.831-.319 1.288 1.976-1.459 2.454-2.013.351-1.43 4.153-3.211 5.154-.716.402-1.585.504-2.306.112zm8.77-15.05a329.13 329.13 0 011.656-4.929 1.69 1.69 0 011.858-1.106c.87.13 1.496.895 1.259 1.742a8.576 8.576 0 01-.731 1.804 3.988 3.988 0 01-.432.642c-.49.584-1.369 1.652-1.239 2.403a.955.955 0 01-1.254 1.066l-.378-.132a1.186 1.186 0 01-.739-1.49z" fill="#395C47"/><path d="M118.021 143.176l-38.225-40.767 2.894-5.619 35.544 46.349-.213.037z" fill="#CCC9B1"/><path d="M96.822 102.527c-3.462-.026-.279-3.41 2.308-4.803.473-.292 1.778-.624 3.211.384 1.791 1.26 2.387-.73 4.112-1.66 1.725-.928 2.295.545 3.118 1.659.823 1.114-1.445 4.338-2.4 6.076-.955 1.739-2.508-1.764-5.268-3.169-2.76-1.406-1.618 1.539-5.08 1.513zm19.575 31.174c-.319-1.831-4.405-3.634-3.451-5.372l3.741-3.795c-.026 1.052.197 3.298 1.301 3.86 1.38.703 1.685.65.531 3.051-.923 1.922.766 5.002 1.726 6.302-.455.394-1.703 1.051-3.051.531-1.685-.65-.478-2.746-.797-4.577zm5.91-19.478c.212 1.22-.995 3.317-1.088 4.591-.336.477-1.233 1.22-2.135.371-1.128-1.061-.89-3.303-.744-4.271.146-.969 1.1-2.707 2.52-3.583 1.419-.876 1.234 1.671 1.447 2.892z" fill="#395C47"/><g clip-path="url(#clip2)"><path d="M170.096 175.468c1.933-1.581 8.9-6.34 9.205-6.531l50.461 29.415s-21.371 18.62-34.927 19.914c-26.588-42.296-22.326-36.632-24.739-42.798z" fill="#E4DDC2"/><path d="M200.964 187.638c.898.098 1.782.37 2.219.933 1.321 1.7.222 5.208-1.601 6.352a4.16 4.16 0 01-.738.361c-2.952 1.124-1.836 1.154-3.409 2.143-1.573.989-1.94-1.341.42-2.825 1.73-1.087-.251-4.385 1.018-5.986.51-.643 1.275-1.067 2.091-.978zm-2.41 17.252c.113 1.575.256 3.685.336 5.188a1.69 1.69 0 01-1.3 1.728c-.854.208-1.723-.262-1.825-1.135a8.555 8.555 0 01-.008-1.946 4.08 4.08 0 01.156-.758c.232-.726.642-2.048.236-2.693a.955.955 0 01.757-1.462l.399-.022a1.186 1.186 0 011.249 1.1z" fill="#395C47"/><path d="M179.484 168.822l50.826 23.233-.548 6.296-50.461-29.414.183-.115z" fill="#CCC9B1"/><path d="M214.51 198.401c3.214-1.289 1.551 3.049-.315 5.319-.327.449-1.408 1.251-3.117.862-2.135-.487-1.932 1.58-3.176 3.094-1.244 1.513-2.33.367-3.514-.352-1.184-.719-.307-4.563-.082-6.533.224-1.971 2.989.681 6.076.936 3.086.255.914-2.038 4.128-3.326zm-29.932-21.427c.989 1.573 5.455 1.693 5.23 3.663l-2.023 4.93c-.374-.984-1.432-2.977-2.667-3.079-1.543-.127-1.806.038-1.648-2.622.125-2.128-2.605-4.338-3.986-5.177.272-.537 1.177-1.618 2.622-1.648 1.805-.038 1.483 2.36 2.472 3.933zm1.916 20.264c-.66-1.049-.337-3.446-.735-4.66.13-.569.679-1.597 1.836-1.154 1.446.555 2.075 2.72 2.308 3.671.232.952.007 2.922-.974 4.271-.982 1.348-1.776-1.079-2.435-2.128z" fill="#395C47"/></g><defs><clipPath id="clip0"><path fill="#fff" transform="rotate(31.603 33.355 358.23)" d="M0 0h72v72H0z"/></clipPath><clipPath id="clip1"><path fill="#fff" transform="rotate(-122.811 109.992 107.834)" d="M0 0h72v72H0z"/></clipPath><clipPath id="clip2"><path fill="#fff" transform="rotate(147.846 94.815 135.725)" d="M0 0h72v72H0z"/></clipPath></defs></svg>