<svg width="301" height="301" viewBox="0 0 301 301" fill="none" xmlns="http://www.w3.org/2000/svg"><path d="M167.567 95.468s-3.814 13.461-3.972 13.456c-.394-.015-.871.047-1.266.032L134.713 51.09s30.896-3.694 43.996 3.507l-7.945 29.126c-1.509.182-3.187.674-4.503 2.05-2.439 1.808-2.791 4.958-1.366 7.067.668 1.21 1.587 2.034 2.672 2.628z" fill="#FBBE36"/><path d="M162.092 108.948l-31.767-52.483 4.388-5.375 27.616 57.867-.237-.009z" fill="#F2B12E"/><path d="M166.902 61.757c-1.459.974-3.831.967-4.718-.726a2.172 2.172 0 01.584-2.984c.903-.916 2.088-.873 2.959-.92 1.34.128 2.244 1.347 2.119 2.608a2.94 2.94 0 01-.944 2.022zm-6.209 14.086c-2.593 1.724-6.787 1.807-8.333-1.333-1.051-1.541-.806-3.904.983-5.262 1.561-1.604 3.618-1.608 5.2-1.629 2.363.245 3.947 2.359 3.784 4.646a5.144 5.144 0 01-1.634 3.578z" fill="#DB942C"/><g clip-path="url(#clip0)"><path d="M111.496 140.831s9.752 10.034 9.668 10.168c-.21.334-.395.778-.605 1.113l-63.922-5.017s12.25-28.604 25.036-36.349l21.251 21.444c-.597 1.398-1.01 3.098-.477 4.925.347 3.016 2.899 4.896 5.438 4.716 1.382.027 2.555-.357 3.611-1z" fill="#FBBE36"/><path d="M120.433 152.313l-61.335 1.269-2.46-6.487 63.921 5.017-.126.201z" fill="#F2B12E"/><path d="M81.97 124.551c.114 1.751-1.079 3.801-2.989 3.723a2.172 2.172 0 01-2.291-1.997c-.342-1.241.288-2.245.683-3.023.78-1.096 2.288-1.27 3.318-.531a2.94 2.94 0 011.278 1.828zm9.094 12.42c.196 3.108-1.828 6.782-5.321 6.551-1.86.139-3.784-1.254-4.066-3.483-.608-2.154.417-3.936 1.19-5.317 1.393-1.924 4.016-2.239 5.915-.954a5.148 5.148 0 012.282 3.203z" fill="#DB942C"/></g><g clip-path="url(#clip1)"><path d="M140.882 202.877s13.565-3.428 13.639-3.289c.185.349.477.731.662 1.081l-36.306 52.849s-18.647-24.91-18.96-39.856l29.196-7.682c.912 1.216 2.177 2.424 4.026 2.875 2.786 1.208 5.69-.062 6.803-2.351.715-1.183.969-2.391.94-3.627z" fill="#FBBE36"/><path d="M155.294 200.878l-29.568 53.753-6.849-1.113 36.306-52.849.111.209z" fill="#F2B12E"/><path d="M112.02 220.308c1.573.776 2.753 2.834 1.73 4.449a2.171 2.171 0 01-2.876.986c-1.244-.324-1.799-1.371-2.276-2.103-.559-1.224.045-2.617 1.199-3.139a2.945 2.945 0 012.223-.193zm15.303-1.666c2.79 1.384 4.96 4.974 3.013 7.883-.809 1.681-2.979 2.651-5.049 1.78-2.169-.55-3.201-2.329-4.01-3.689-.97-2.169.069-4.597 2.131-5.6a5.151 5.151 0 013.915-.374z" fill="#DB942C"/></g><g clip-path="url(#clip2)"><path d="M198.693 156.019s-6.822-12.215-6.707-12.323c.29-.269.583-.65.873-.919l60.445 21.391s-19.235 24.458-33.59 28.63l-14.977-26.213c.938-1.196 1.777-2.731 1.735-4.634.445-3.003-1.533-5.48-4.032-5.962-1.328-.385-2.56-.318-3.747.03z" fill="#FBBE36"/><path d="M193.032 142.616l59.574 14.648.698 6.904-60.445-21.391.173-.161z" fill="#F2B12E"/><path d="M223 179.387c.343-1.721 2.026-3.393 3.85-2.823a2.171 2.171 0 011.697 2.522c.009 1.287-.859 2.094-1.442 2.743-1.038.857-2.54.634-3.343-.346a2.944 2.944 0 01-.762-2.096zm-5.57-14.351c.615-3.053 3.522-6.078 6.835-4.95 1.833.346 3.331 2.191 3.026 4.416.03 2.238-1.421 3.694-2.525 4.828-1.844 1.498-4.459 1.123-5.961-.609a5.147 5.147 0 01-1.375-3.685z" fill="#DB942C"/></g><defs><clipPath id="clip0"><path fill="#fff" transform="rotate(-57.905 162.624 38.552)" d="M0 0h68v68H0z"/></clipPath><clipPath id="clip1"><path fill="#fff" transform="rotate(-117.905 140.988 98.516)" d="M0 0h68v68H0z"/></clipPath><clipPath id="clip2"><path fill="#fff" transform="rotate(137.095 102.84 132.249)" d="M0 0h68v68H0z"/></clipPath></defs></svg>