<svg width="301" height="300" viewBox="0 0 301 300" fill="none" xmlns="http://www.w3.org/2000/svg"><g clip-path="url(#clip0)"><path d="M148.536 54.89a.556.556 0 01-.591.158.556.556 0 01-.405-.683c.065-.112.916-3.316-1.502-4.662a.545.545 0 01-.206-.768.573.573 0 01.768-.206c2.568 1.433 2.479 4.528 2.065 5.936a.275.275 0 01-.129.225z" fill="#41B619"/><path d="M158.741 70.768c-3.285-1.747-5.267-5.837-5.537-10.387-.146-2.081.1-4.236-3.526-5.48-4.938-1.653-6.842 1.991-6.984 3.707-.626 6.878 2.814 13.807 9.31 17.258 7.289 3.892 14.927 2.788 20.045-2.966.599-.672-.025-1.619-.902-1.415-4.852 1.13-7.62 1.856-12.406-.717z" fill="#ED1C24"/><path d="M154.196 76.133c-6.833-3.646-10.464-10.935-9.814-18.2.095-.943.686-2.399 1.924-3.332-2.469.472-3.536 2.752-3.671 4.022-.626 6.879 2.814 13.808 9.31 17.258 2.514 1.352 5.123 2.11 7.573 2.276a24.647 24.647 0 01-5.322-2.024z" fill="#A7080E"/></g><g clip-path="url(#clip1)"><path d="M99.943 195.559a.555.555 0 01-.279-.544.555.555 0 01.583-.539c.124.04 3.434.2 4.243-2.447a.545.545 0 01.708-.362.572.572 0 01.362.707c-.862 2.812-3.906 3.374-5.37 3.265a.277.277 0 01-.247-.08z" fill="#41B619"/><path d="M86.56 208.869c1.018-3.579 4.602-6.375 8.993-7.593 2.005-.58 4.163-.792 4.62-4.598.579-5.174-3.383-6.272-5.09-6.05-6.857.831-12.91 5.647-14.921 12.722-2.277 7.945.404 15.18 7.104 18.978.783.444 1.578-.364 1.195-1.179-2.123-4.507-3.414-7.061-1.902-12.28z" fill="#ED1C24"/><path d="M80.36 205.55c2.131-7.446 8.496-12.525 15.735-13.414.943-.105 2.49.168 3.662 1.182-.979-2.315-3.432-2.88-4.702-2.745-6.857.831-12.91 5.648-14.921 12.723-.795 2.742-.988 5.452-.636 7.882.065-1.751.32-3.667.862-5.628z" fill="#A7080E"/></g><g clip-path="url(#clip2)"><path d="M221.501 229.515a.555.555 0 01.609-.056c.288.127.41.454.283.742-.083.1-1.465 3.112.69 4.849a.545.545 0 01.073.792.572.572 0 01-.792.072c-2.288-1.847-1.676-4.881-1.029-6.2a.277.277 0 01.166-.199z" fill="#41B619"/><path d="M214.137 212.136c2.941 2.279 4.201 6.646 3.695 11.175-.209 2.076-.817 4.159 2.545 6 4.586 2.466 7.081-.802 7.511-2.469 1.784-6.673-.43-14.084-6.247-18.587-6.524-5.072-14.237-5.28-20.258-.478-.704.561-.25 1.6.649 1.548 4.974-.291 7.825-.537 12.105 2.811z" fill="#ED1C24"/><path d="M219.526 207.62c6.116 4.751 8.457 12.551 6.585 19.6-.254.913-1.083 2.248-2.461 2.958 2.513-.046 3.951-2.112 4.299-3.342 1.784-6.672-.43-14.084-6.247-18.587-2.249-1.759-4.691-2.947-7.078-3.527a24.597 24.597 0 014.902 2.898z" fill="#A7080E"/></g><defs><clipPath id="clip0"><path fill="#fff" transform="translate(136.067 44.82)" d="M0 0h40v40H0z"/></clipPath><clipPath id="clip1"><path fill="#fff" transform="rotate(77.89 -58.55 156.931)" d="M0 0h40v40H0z"/></clipPath><clipPath id="clip2"><path fill="#fff" transform="rotate(-170.234 126.359 110.863)" d="M0 0h40v40H0z"/></clipPath></defs></svg>