<svg width="301" height="301" viewBox="0 0 301 301" fill="none" xmlns="http://www.w3.org/2000/svg"><g clip-path="url(#clip0)"><path d="M219.28 97.852c0 20.018-14.109 39.682-36.243 36.243-19.752-3.087-36.242-16.225-36.242-36.243 0-20.017 16.754-31.745 36.242-36.242 22.046-5.026 36.243 16.314 36.243 36.242z" fill="#ED9898"/><path d="M165.137 85.066a4.85 4.85 0 100-9.7 4.85 4.85 0 000 9.7zm21.604-11.992a3.161 3.161 0 01-3.175 3.174 3.161 3.161 0 01-3.174-3.174 3.161 3.161 0 013.174-3.175 3.161 3.161 0 013.175 3.175zm18.606 12.345c0 2.998-2.469 5.467-5.467 5.467-2.998 0-5.467-2.47-5.467-5.467 0-2.998 2.469-5.468 5.467-5.468 2.998-.088 5.467 2.381 5.467 5.468zm-24.338 5.908a2.91 2.91 0 100-5.82 2.91 2.91 0 000 5.82zm-12.962 10.141a5.91 5.91 0 01-11.817 0 5.909 5.909 0 0111.817 0zm20.987 4.85a4.14 4.14 0 01-4.145 4.144 4.138 4.138 0 01-4.144-4.144 4.14 4.14 0 014.144-4.145c2.293-.088 4.145 1.852 4.145 4.145zm20.458-1.764c0 2.381-1.94 4.409-4.409 4.409a4.366 4.366 0 01-4.409-4.409c0-2.381 1.94-4.409 4.409-4.409s4.409 2.028 4.409 4.409zm-12.169 15.255a2.748 2.748 0 01-2.734 2.734 2.748 2.748 0 01-2.734-2.734 2.747 2.747 0 012.734-2.733c1.499-.088 2.734 1.146 2.734 2.733zm-20.017 1.059a3.576 3.576 0 01-3.616 3.615 3.575 3.575 0 01-3.615-3.615 3.576 3.576 0 013.615-3.616c2.028 0 3.616 1.676 3.616 3.616z" fill="#FFC2C2"/></g><g clip-path="url(#clip1)"><path d="M117.428 105.855c0 15.689-11.059 31.102-28.407 28.406-15.481-2.419-28.406-12.717-28.406-28.406 0-15.689 13.132-24.881 28.406-28.406 17.279-3.94 28.407 12.786 28.407 28.406z" fill="#ED9898"/><path d="M74.991 95.834a3.801 3.801 0 100-7.603 3.801 3.801 0 000 7.603zm16.933-9.4a2.478 2.478 0 01-2.488 2.488 2.478 2.478 0 01-2.488-2.488 2.478 2.478 0 012.488-2.488 2.478 2.478 0 012.488 2.488zm14.583 9.676c0 2.35-1.935 4.285-4.285 4.285s-4.285-1.935-4.285-4.285 1.935-4.285 4.285-4.285c2.35-.07 4.285 1.866 4.285 4.285zm-19.075 4.631a2.281 2.281 0 100-4.562 2.281 2.281 0 000 4.562zm-10.16 7.948a4.631 4.631 0 11-9.263 0 4.631 4.631 0 019.263 0zm16.449 3.801a3.245 3.245 0 01-3.248 3.249 3.245 3.245 0 01-3.249-3.249 3.244 3.244 0 013.249-3.248c1.797-.069 3.248 1.451 3.248 3.248zm16.035-1.382c0 1.866-1.521 3.456-3.456 3.456a3.423 3.423 0 01-3.456-3.456c0-1.866 1.521-3.456 3.456-3.456s3.456 1.59 3.456 3.456zm-9.538 11.957a2.153 2.153 0 01-2.143 2.142 2.153 2.153 0 01-2.142-2.142c0-1.175.967-2.143 2.142-2.143 1.175-.069 2.143.899 2.143 2.143zm-15.689.829a2.803 2.803 0 01-2.834 2.834 2.803 2.803 0 01-2.833-2.834 2.803 2.803 0 012.833-2.833c1.59 0 2.834 1.313 2.834 2.833z" fill="#FFC2C2"/></g><g clip-path="url(#clip2)"><path d="M117.428 179.656c0 15.689-11.059 31.102-28.407 28.406-15.481-2.419-28.406-12.717-28.406-28.406 0-15.689 13.132-24.881 28.406-28.406 17.279-3.94 28.407 12.786 28.407 28.406z" fill="#ED9898"/><path d="M74.991 169.635a3.802 3.802 0 100-7.603 3.802 3.802 0 000 7.603zm16.933-9.4a2.478 2.478 0 01-2.488 2.488 2.478 2.478 0 01-2.488-2.488 2.478 2.478 0 012.488-2.488 2.478 2.478 0 012.488 2.488zm14.583 9.676c0 2.35-1.935 4.285-4.285 4.285s-4.285-1.935-4.285-4.285 1.935-4.285 4.285-4.285c2.35-.069 4.285 1.866 4.285 4.285zm-19.075 4.631a2.28 2.28 0 100-4.562 2.28 2.28 0 000 4.562zm-10.16 7.948a4.631 4.631 0 11-9.263 0 4.631 4.631 0 019.263 0zm16.449 3.801a3.245 3.245 0 01-3.248 3.249 3.245 3.245 0 01-3.249-3.249 3.244 3.244 0 013.249-3.248c1.797-.069 3.248 1.451 3.248 3.248zm16.035-1.382c0 1.866-1.521 3.456-3.456 3.456a3.423 3.423 0 01-3.456-3.456c0-1.866 1.521-3.456 3.456-3.456s3.456 1.59 3.456 3.456zm-9.538 11.957a2.153 2.153 0 01-2.143 2.142 2.153 2.153 0 01-2.142-2.142c0-1.175.967-2.143 2.142-2.143 1.175-.069 2.143.899 2.143 2.143zm-15.689.829a2.803 2.803 0 01-2.834 2.834 2.803 2.803 0 01-2.833-2.834 2.803 2.803 0 012.833-2.833c1.59 0 2.834 1.313 2.834 2.833z" fill="#FFC2C2"/></g><g clip-path="url(#clip3)"><path d="M203.428 224.824c0 15.689-11.059 31.101-28.407 28.406-15.481-2.419-28.406-12.717-28.406-28.406 0-15.689 13.132-24.882 28.406-28.407 17.279-3.939 28.407 12.787 28.407 28.407z" fill="#ED9898"/><path d="M160.991 214.802a3.801 3.801 0 100-7.603 3.801 3.801 0 000 7.603zm16.933-9.4a2.478 2.478 0 01-2.488 2.489 2.478 2.478 0 01-2.488-2.489 2.478 2.478 0 012.488-2.488 2.478 2.478 0 012.488 2.488zm14.583 9.676c0 2.35-1.935 4.286-4.285 4.286s-4.285-1.936-4.285-4.286c0-2.349 1.935-4.285 4.285-4.285 2.35-.069 4.285 1.866 4.285 4.285zm-19.075 4.631a2.28 2.28 0 10-.001-4.561 2.28 2.28 0 00.001 4.561zm-10.16 7.948a4.631 4.631 0 11-9.262 0 4.631 4.631 0 019.262 0zm16.449 3.802a3.244 3.244 0 01-3.248 3.248 3.245 3.245 0 01-3.249-3.248 3.246 3.246 0 013.249-3.249c1.797-.069 3.248 1.452 3.248 3.249zm16.035-1.383c0 1.866-1.521 3.456-3.456 3.456a3.422 3.422 0 01-3.456-3.456c0-1.866 1.521-3.455 3.456-3.455s3.456 1.589 3.456 3.455zm-9.538 11.957a2.154 2.154 0 01-2.143 2.143 2.153 2.153 0 01-2.142-2.143c0-1.175.967-2.142 2.142-2.142 1.175-.069 2.143.898 2.143 2.142zm-15.689.83a2.803 2.803 0 01-2.834 2.833 2.803 2.803 0 01-2.834-2.833 2.803 2.803 0 012.834-2.834c1.59 0 2.834 1.313 2.834 2.834z" fill="#FFC2C2"/></g><g clip-path="url(#clip4)"><path d="M240.428 166.824c0 15.689-11.059 31.101-28.407 28.406-15.481-2.419-28.406-12.717-28.406-28.406 0-15.689 13.132-24.882 28.406-28.407 17.279-3.939 28.407 12.787 28.407 28.407z" fill="#ED9898"/><path d="M197.991 156.802a3.801 3.801 0 100-7.603 3.801 3.801 0 000 7.603zm16.933-9.4a2.478 2.478 0 01-2.488 2.489 2.478 2.478 0 01-2.488-2.489 2.478 2.478 0 012.488-2.488 2.478 2.478 0 012.488 2.488zm14.583 9.676c0 2.35-1.935 4.286-4.285 4.286s-4.285-1.936-4.285-4.286c0-2.349 1.935-4.285 4.285-4.285 2.35-.069 4.285 1.866 4.285 4.285zm-19.075 4.631a2.28 2.28 0 10-.001-4.561 2.28 2.28 0 00.001 4.561zm-10.16 7.948a4.631 4.631 0 11-9.262 0 4.631 4.631 0 019.262 0zm16.449 3.802a3.244 3.244 0 01-3.248 3.248 3.245 3.245 0 01-3.249-3.248 3.246 3.246 0 013.249-3.249c1.797-.069 3.248 1.452 3.248 3.249zm16.035-1.383c0 1.866-1.521 3.456-3.456 3.456a3.422 3.422 0 01-3.456-3.456c0-1.866 1.521-3.455 3.456-3.455s3.456 1.589 3.456 3.455zm-9.538 11.957a2.154 2.154 0 01-2.143 2.143 2.153 2.153 0 01-2.142-2.143c0-1.175.967-2.142 2.142-2.142 1.175-.069 2.143.898 2.143 2.142zm-15.689.83a2.803 2.803 0 01-2.834 2.833 2.803 2.803 0 01-2.834-2.833 2.803 2.803 0 012.834-2.834c1.59 0 2.834 1.313 2.834 2.834z" fill="#FFC2C2"/></g><defs><clipPath id="clip0"><path fill="#fff" transform="translate(145.963 60.865)" d="M0 0h74v74H0z"/></clipPath><clipPath id="clip1"><path fill="#fff" transform="translate(59.963 76.865)" d="M0 0h58v58H0z"/></clipPath><clipPath id="clip2"><path fill="#fff" transform="translate(59.963 150.666)" d="M0 0h58v58H0z"/></clipPath><clipPath id="clip3"><path fill="#fff" transform="translate(145.963 195.834)" d="M0 0h58v58H0z"/></clipPath><clipPath id="clip4"><path fill="#fff" transform="translate(182.963 137.834)" d="M0 0h58v58H0z"/></clipPath></defs></svg>