<svg width="301" height="300" viewBox="0 0 301 300" fill="none" xmlns="http://www.w3.org/2000/svg"><path d="M127.989 81.908c1.941.996 3.983 1.694 6.225 1.521 1.154-.065 2.261-.343 3.345-.727-.023-.106-.005-.276-.028-.382.306-5.99 5.189-10.627 11.174-10.72.844-5.821 5.967-10.119 12.068-9.681 6.035.396 10.778 5.317 10.963 11.264 5.873.927 10.278 6.082 9.929 12.136-.185 4.249-2.757 7.757-6.319 9.525.667 1.528 1.417 2.929 2.422 4.223.635.87 1.482 1.698 2.473 2.163 6.138-2.45 10.595-8.276 10.948-15.329.478-8.518-5.269-16.008-13.218-18.291-1.333-8.155-8.239-14.582-16.757-15.144l-.065-.042-.065-.042c-8.583-.605-16.037 4.992-18.215 12.853-8.189 1.2-14.555 7.964-14.991 16.418.088.149.153.191.111.255z" fill="#348717"/><path d="M130.851 83.051c1.075.339 2.21.443 3.363.378 1.154-.065 2.261-.343 3.345-.727-.023-.106-.005-.276-.028-.382.306-5.99 5.189-10.627 11.174-10.72.844-5.821 5.967-10.119 12.068-9.68 6.035.395 10.778 5.316 10.963 11.263 5.873.927 10.278 6.082 9.929 12.136-.185 4.249-2.757 7.757-6.319 9.525.667 1.528 1.417 2.929 2.422 4.223 5.851-1.728 10.275-6.938 10.595-13.374.404-7.838-5.353-14.607-13.005-15.786-.235-7.71-6.413-14.116-14.311-14.636l-.065-.043-.065-.042c-7.898-.52-14.624 5.096-15.695 12.68a14.712 14.712 0 00-14.519 13.996c.093.425.121.807.148 1.19z" fill="#41B619"/><path d="M110.618 63.975c-.107 2.178.098 4.327 1.179 6.299.535 1.024 1.244 1.918 2.04 2.748.088-.065.25-.118.337-.183 5.585-2.189 11.822.35 14.372 5.765 5.652-1.63 11.679 1.268 13.793 7.007 2.126 5.663-.404 12.012-5.747 14.63 1.575 5.734-1.308 11.871-6.967 14.048-3.948 1.581-8.204.684-11.282-1.834-1.118 1.237-2.086 2.498-2.851 3.947-.531.937-.936 2.05-.952 3.145 4.762 4.583 11.907 6.244 18.478 3.66 7.959-3.074 12.416-11.397 11.221-19.58 6.882-4.575 9.892-13.515 6.895-21.508l.012-.076.012-.077c-2.986-8.07-11.156-12.556-19.217-11.302-4.468-6.967-13.253-9.981-21.136-6.896-.099.142-.111.218-.187.207z" fill="#348717"/><path d="M110.756 67.054c.135 1.118.507 2.196 1.041 3.22.535 1.024 1.244 1.918 2.04 2.748.088-.065.25-.118.337-.183 5.585-2.189 11.822.35 14.372 5.765 5.652-1.63 11.679 1.269 13.793 7.008 2.126 5.662-.404 12.011-5.747 14.629 1.575 5.734-1.308 11.871-6.967 14.048-3.948 1.581-8.204.684-11.282-1.834-1.118 1.238-2.086 2.498-2.851 3.947 3.985 4.619 10.555 6.504 16.552 4.144 7.309-2.861 11.104-10.895 9.025-18.353 6.929-3.391 10.221-11.66 7.441-19.07l.012-.078.012-.076c-2.78-7.41-10.669-11.226-18.021-9.077a14.711 14.711 0 00-18.734-7.463c-.349.26-.686.442-1.023.625z" fill="#41B619"/><path d="M68.41 174.078c-.107 2.178.098 4.327 1.18 6.299.534 1.024 1.243 1.918 2.04 2.748.087-.065.25-.118.337-.183 5.584-2.188 11.82.35 14.371 5.765 5.652-1.629 11.679 1.269 13.793 7.008 2.126 5.662-.404 12.011-5.747 14.63 1.576 5.733-1.308 11.871-6.967 14.048-3.948 1.581-8.204.683-11.282-1.835-1.118 1.238-2.086 2.498-2.85 3.947-.532.937-.937 2.05-.953 3.145 4.762 4.583 11.907 6.244 18.478 3.66 7.959-3.074 12.416-11.397 11.222-19.58 6.881-4.574 9.891-13.514 6.894-21.508l.012-.076.012-.077c-2.986-8.07-11.156-12.556-19.217-11.301-4.468-6.968-13.253-9.982-21.136-6.896-.1.141-.111.218-.186.206z" fill="#348717"/><path d="M68.548 177.157c.135 1.119.507 2.196 1.041 3.22.535 1.024 1.244 1.919 2.04 2.748.088-.065.25-.118.337-.183 5.585-2.188 11.822.35 14.372 5.765 5.652-1.629 11.679 1.269 13.793 7.008 2.126 5.662-.404 12.011-5.747 14.63 1.576 5.733-1.308 11.871-6.967 14.048-3.948 1.581-8.204.683-11.282-1.834-1.118 1.237-2.086 2.498-2.85 3.947 3.984 4.618 10.554 6.503 16.551 4.144 7.309-2.862 11.104-10.896 9.026-18.354 6.928-3.391 10.22-11.66 7.44-19.071l.012-.076.012-.077c-2.78-7.41-10.669-11.226-18.02-9.077a14.713 14.713 0 00-18.735-7.463c-.349.26-.686.442-1.023.625z" fill="#41B619"/><path d="M229.279 190.534c-1.575 1.509-2.902 3.211-3.472 5.386-.315 1.112-.414 2.249-.406 3.399.108.012.263.086.371.098 5.561 2.248 8.347 8.378 6.479 14.064 5.226 2.7 7.613 8.947 5.205 14.569-2.346 5.575-8.547 8.449-14.228 6.68-2.796 5.248-9.108 7.726-14.715 5.418-3.955-1.564-6.43-5.141-6.936-9.085-1.663.13-3.232.382-4.784.908-1.029.316-2.088.846-2.852 1.631.31 6.602 4.359 12.718 10.909 15.356 7.894 3.236 16.852.252 21.607-6.514 8.143 1.406 16.473-3.02 19.789-10.887l.061-.048.061-.047c3.377-7.914.524-16.788-6.195-21.416 1.542-8.132-2.769-16.358-10.616-19.534-.17.035-.231.082-.278.022z" fill="#348717"/><path d="M227.264 192.866c-.671.905-1.141 1.943-1.457 3.054-.315 1.112-.414 2.249-.406 3.399.108.012.263.085.37.098 5.562 2.248 8.348 8.378 6.48 14.064 5.226 2.7 7.613 8.947 5.205 14.569-2.346 5.575-8.547 8.449-14.228 6.68-2.796 5.248-9.108 7.725-14.715 5.418-3.955-1.564-6.43-5.141-6.936-9.085-1.663.13-3.232.382-4.784.908-.278 6.095 3.2 11.979 9.178 14.385 7.276 2.943 15.553-.285 19.169-7.132 7.363 2.298 15.437-1.448 18.51-8.742l.061-.047.062-.047c3.073-7.294-.037-15.487-6.855-18.978a14.712 14.712 0 00-8.482-18.296c-.432-.051-.802-.15-1.172-.248z" fill="#41B619"/></svg>