<svg width="301" height="300" viewBox="0 0 301 300" fill="none" xmlns="http://www.w3.org/2000/svg"><path d="M128.86 149.14v-.107c0-.077 0-.138.015-.215 0-.046 0-.076.015-.122 0-.062.016-.123.016-.2 0-.046.015-.092.015-.122.015-.062.015-.123.031-.184 0-.046.015-.092.015-.138.015-.062.015-.123.031-.184.015-.046.015-.092.03-.138a.738.738 0 00.031-.184c.015-.046.015-.092.031-.138l.046-.184a.456.456 0 00.03-.138l.046-.184c.016-.046.031-.092.046-.122.016-.062.046-.123.062-.184.015-.046.03-.077.046-.123.015-.061.046-.123.076-.199.016-.046.031-.077.046-.123.031-.061.046-.138.077-.199.015-.031.03-.077.046-.108.03-.061.061-.137.092-.199l.046-.092c.03-.076.061-.138.107-.214l.046-.092c.046-.077.077-.154.123-.23a.12.12 0 00.03-.062c.046-.092.092-.168.154-.26 0-.015.015-.015.015-.031.061-.107.123-.199.184-.291.475-.889.383-.674 1.134-1.502a11.777 11.777 0 012.269-1.977c.107-.062.214-.138.306-.2 3.097-1.946 7.051-2.927 10.055-2.927 5.565 0 10.975 5.518 12.079 11.143.153.644.291 1.839.184 2.698-.015.153-.031.322-.061.506a7.403 7.403 0 01-.476 1.701 4.646 4.646 0 01-.245.552c0 .015-.015.015-.015.031-.215.429-.46.843-.736 1.241-.628.935-1.349 1.671-2.406 2.499-.246.184-.491.383-.751.551-.062.046-.123.077-.184.123-.108.077-.215.138-.322.215-.092.061-.184.107-.276.168l-.322.184c-.077.046-.169.092-.245.138-.123.061-.246.138-.368.199-.062.031-.138.077-.199.108-.138.076-.292.138-.43.214-.046.016-.092.046-.138.062-.168.076-.352.168-.536.245-.015 0-.031.015-.046.015-1.885.797-3.893 1.288-5.779 1.38h-.015c-.215.015-.414.015-.629.015-2.912 0-6.422-1.073-8.92-3.112-2.851-2.329-4.507-5.84-4.507-9.181.031-.107.031-.215.031-.322z" fill="#AFAFAF"/><path d="M128.86 149.155c0 3.342 1.64 6.852 4.506 9.182 2.499 2.038 6.009 3.111 8.921 3.111 6.254 0 14.179-4.537 14.179-10.791 0-6.238-6.04-13.197-12.294-13.197-3.004 0-6.958.981-10.055 2.912-3.341 2.085-5.257 5.534-5.257 8.783z" fill="#FCFAF7"/><path d="M131.787 142.288c.751-.72 1.273-1.195 2.008-1.701-.368 1.012-.505 1.701-.505 2.728 0 3.342.643 5.595 3.494 7.94 2.499 2.039 6.009 3.112 8.921 3.112 4.675 0 8.002-1.87 10.546-5.748.199.843.383 2.667 0 3.403-.904 1.701-.843 1.44-2.529 2.713-2.79 2.13-6.637 3.418-9.933 3.418-2.912 0-6.438-1.073-8.921-3.112-2.851-2.33-4.506-5.84-4.506-9.181 0-1.748.429-1.978 1.425-3.572z" fill="#F7F6F2"/><path d="M130.393 144.067c.49-.889.383-.675 1.134-1.503-.368 1.012-.736 1.794-.736 2.821 0 3.341 1.64 6.851 4.507 9.181 2.498 2.039 6.008 3.112 8.92 3.112 4.676 0 9.703-2.744 12.248-6.637 0 .812-.414 2.268-.797 3.02-.905 1.701-1.763 2.713-3.434 3.985-2.79 2.13-6.637 3.418-9.933 3.418-2.912 0-6.422-1.073-8.921-3.112-2.851-2.329-4.506-5.84-4.506-9.181-.015-1.732.521-3.51 1.518-5.104z" fill="#F0EFEB"/><path d="M175.223 59.584v-.107c0-.077 0-.138.015-.215 0-.046 0-.076.016-.122 0-.062.015-.123.015-.2 0-.046.015-.092.015-.122.016-.062.016-.123.031-.184 0-.046.015-.092.015-.138.016-.062.016-.123.031-.184.015-.046.015-.092.031-.138a.784.784 0 00.03-.184c.016-.046.016-.092.031-.138l.046-.184c.015-.046.031-.092.031-.138l.046-.184a.901.901 0 01.046-.122c.015-.062.046-.123.061-.184.015-.046.031-.077.046-.123.015-.061.046-.123.076-.2.016-.045.031-.076.046-.122.031-.061.046-.138.077-.2.015-.03.031-.076.046-.106.031-.062.061-.138.092-.2l.046-.092c.031-.076.061-.138.107-.214l.046-.092c.046-.077.077-.154.123-.23a.12.12 0 00.031-.061 2.36 2.36 0 01.153-.261c0-.015.015-.015.015-.03.062-.108.123-.2.184-.292.475-.889.383-.674 1.134-1.502a11.835 11.835 0 012.269-1.977c.107-.062.215-.138.307-.2 3.096-1.946 7.05-2.927 10.055-2.927 5.564 0 10.975 5.518 12.078 11.143.154.644.292 1.84.184 2.698-.015.153-.03.322-.061.506a7.396 7.396 0 01-.475 1.701 4.856 4.856 0 01-.246.552c0 .015-.015.015-.015.03-.214.43-.46.844-.736 1.242-.628.935-1.348 1.671-2.406 2.499-.245.184-.491.383-.751.552-.061.046-.123.076-.184.122-.107.077-.215.138-.322.215-.092.061-.184.107-.276.168l-.322.184c-.076.046-.168.092-.245.138-.123.061-.245.138-.368.2-.061.03-.138.076-.199.107-.138.076-.291.138-.429.214-.046.016-.092.046-.138.062-.169.076-.353.168-.537.245-.015 0-.03.015-.046.015-1.885.797-3.893 1.288-5.778 1.38h-.016c-.214.015-.414.015-.628.015-2.913 0-6.423-1.073-8.921-3.111-2.851-2.33-4.507-5.84-4.507-9.182.031-.107.031-.215.031-.322z" fill="#AFAFAF"/><path d="M175.223 59.6c0 3.34 1.64 6.851 4.506 9.18 2.499 2.04 6.009 3.112 8.921 3.112 6.254 0 14.179-4.537 14.179-10.79 0-6.239-6.039-13.198-12.293-13.198-3.005 0-6.959.981-10.055 2.912-3.342 2.085-5.258 5.534-5.258 8.783z" fill="#FCFAF7"/><path d="M178.151 52.732c.751-.72 1.272-1.195 2.008-1.701-.368 1.012-.506 1.701-.506 2.728 0 3.342.644 5.595 3.495 7.94 2.498 2.039 6.008 3.112 8.921 3.112 4.675 0 8.001-1.87 10.545-5.748.2.843.383 2.667 0 3.403-.904 1.701-.843 1.44-2.529 2.713-2.79 2.13-6.637 3.418-9.932 3.418-2.913 0-6.438-1.073-8.921-3.112-2.851-2.33-4.507-5.84-4.507-9.181 0-1.748.429-1.977 1.426-3.572z" fill="#F7F6F2"/><path d="M176.756 54.51c.49-.888.383-.674 1.134-1.502-.368 1.012-.736 1.794-.736 2.82 0 3.342 1.64 6.853 4.507 9.182 2.498 2.04 6.008 3.112 8.921 3.112 4.675 0 9.702-2.744 12.247-6.637 0 .812-.414 2.269-.797 3.02-.905 1.701-1.763 2.713-3.434 3.985-2.789 2.13-6.637 3.418-9.932 3.418-2.913 0-6.423-1.073-8.921-3.112-2.851-2.33-4.507-5.84-4.507-9.181-.015-1.732.521-3.51 1.518-5.104z" fill="#F0EFEB"/><path d="M54.916 155.66v-.108c0-.076 0-.138.015-.214 0-.046 0-.077.015-.123 0-.061.016-.123.016-.199 0-.046.015-.092.015-.123.015-.061.015-.122.03-.184 0-.046.016-.092.016-.138.015-.061.015-.122.03-.184.016-.046.016-.092.031-.138a.758.758 0 00.03-.184c.016-.046.016-.092.032-.138l.045-.183a.446.446 0 00.031-.138l.046-.184c.015-.046.03-.092.046-.123.016-.061.046-.123.062-.184.015-.046.03-.077.046-.123.015-.061.045-.122.076-.199.015-.046.03-.076.046-.122.03-.062.046-.138.077-.2.015-.03.03-.076.046-.107.03-.061.061-.138.092-.199l.046-.092c.03-.077.061-.138.107-.215l.046-.092c.046-.076.077-.153.123-.23a.115.115 0 00.03-.061c.046-.092.092-.169.154-.261 0-.015.015-.015.015-.03.061-.108.123-.199.184-.291.475-.889.383-.675 1.134-1.503a11.855 11.855 0 012.269-1.977c.107-.061.214-.138.306-.199 3.096-1.947 7.051-2.928 10.055-2.928 5.565 0 10.975 5.518 12.079 11.144.153.643.291 1.839.184 2.697-.016.154-.03.322-.061.506a7.395 7.395 0 01-.476 1.702 4.869 4.869 0 01-.245.551c0 .016-.015.016-.015.031-.215.429-.46.843-.736 1.242-.628.935-1.349 1.67-2.406 2.498-.246.184-.491.383-.752.552-.06.046-.122.077-.183.123-.108.076-.215.138-.322.214-.092.061-.184.107-.276.169l-.322.184c-.077.046-.169.092-.245.138-.123.061-.246.138-.368.199-.062.031-.138.077-.2.107-.138.077-.29.138-.429.215-.046.015-.092.046-.138.061-.168.077-.352.169-.536.245-.016 0-.03.016-.046.016-1.885.797-3.894 1.287-5.779 1.379h-.015c-.215.016-.414.016-.629.016-2.912 0-6.422-1.073-8.92-3.112-2.852-2.33-4.507-5.84-4.507-9.182.03-.107.03-.214.03-.321z" fill="#AFAFAF"/><path d="M54.916 155.675c0 3.341 1.64 6.851 4.506 9.181 2.499 2.039 6.009 3.112 8.921 3.112 6.254 0 14.178-4.537 14.178-10.791 0-6.239-6.039-13.198-12.293-13.198-3.004 0-6.959.981-10.055 2.913-3.341 2.084-5.257 5.533-5.257 8.783z" fill="#FCFAF7"/><path d="M57.843 148.808c.751-.721 1.272-1.196 2.008-1.702-.368 1.012-.506 1.702-.506 2.729 0 3.341.644 5.595 3.495 7.94 2.499 2.038 6.009 3.111 8.921 3.111 4.675 0 8.001-1.87 10.546-5.748.2.843.383 2.667 0 3.403-.904 1.702-.843 1.441-2.53 2.713-2.789 2.131-6.636 3.418-9.932 3.418-2.912 0-6.438-1.073-8.92-3.111-2.852-2.33-4.507-5.84-4.507-9.182 0-1.747.429-1.977 1.425-3.571z" fill="#F7F6F2"/><path d="M56.448 150.586c.49-.889.384-.674 1.135-1.502-.368 1.012-.736 1.793-.736 2.82 0 3.342 1.64 6.852 4.506 9.182 2.499 2.039 6.009 3.111 8.921 3.111 4.675 0 9.703-2.743 12.248-6.637 0 .813-.414 2.269-.798 3.02-.904 1.701-1.762 2.713-3.433 3.985-2.79 2.131-6.637 3.419-9.933 3.419-2.912 0-6.422-1.073-8.92-3.112-2.852-2.33-4.507-5.84-4.507-9.182-.015-1.732.521-3.51 1.517-5.104z" fill="#F0EFEB"/><path d="M113.298 237.54v-.107c0-.077 0-.138.015-.215 0-.046 0-.077.016-.123 0-.061.015-.122.015-.199 0-.046.015-.092.015-.122.016-.062.016-.123.031-.184 0-.046.015-.092.015-.138.016-.062.016-.123.031-.184.015-.046.015-.092.031-.138.015-.062.03-.123.03-.184.016-.046.016-.092.031-.138l.046-.184c.015-.046.031-.092.031-.138l.046-.184c.015-.046.03-.092.046-.123.015-.061.046-.122.061-.184.015-.046.031-.076.046-.122.015-.061.046-.123.077-.199.015-.046.03-.077.046-.123.03-.061.046-.138.076-.199.015-.031.031-.077.046-.108.031-.061.061-.138.092-.199l.046-.092c.031-.076.061-.138.107-.214l.046-.092c.046-.077.077-.154.123-.23.015-.016.031-.046.031-.062.046-.092.092-.168.153-.26 0-.016.015-.016.015-.031.062-.107.123-.199.184-.291.475-.889.383-.675 1.134-1.502a11.845 11.845 0 012.269-1.978c.107-.061.215-.138.307-.199 3.096-1.946 7.051-2.927 10.055-2.927 5.564 0 10.975 5.518 12.078 11.143.154.644.292 1.839.184 2.698-.015.153-.03.322-.061.506a7.4 7.4 0 01-.475 1.701c-.077.215-.169.399-.245.552 0 .015-.016.015-.016.03-.214.43-.46.844-.736 1.242-.628.935-1.348 1.671-2.406 2.499-.245.183-.491.383-.751.551-.061.046-.123.077-.184.123-.107.077-.215.138-.322.215-.092.061-.184.107-.276.168l-.322.184c-.076.046-.168.092-.245.138-.123.061-.245.138-.368.199-.061.031-.138.077-.199.108-.138.076-.291.138-.429.214-.046.016-.092.046-.138.062-.169.076-.353.168-.537.245-.015 0-.03.015-.046.015-1.885.797-3.893 1.288-5.778 1.38h-.016a8.774 8.774 0 01-.628.015c-2.913 0-6.423-1.073-8.921-3.112-2.851-2.33-4.507-5.84-4.507-9.181.031-.107.031-.215.031-.322z" fill="#AFAFAF"/><path d="M113.298 237.555c0 3.342 1.64 6.852 4.507 9.182 2.498 2.038 6.008 3.111 8.92 3.111 6.254 0 14.179-4.537 14.179-10.791 0-6.238-6.039-13.197-12.293-13.197-3.004 0-6.959.981-10.055 2.912-3.342 2.085-5.258 5.534-5.258 8.783z" fill="#FCFAF7"/><path d="M116.226 230.688c.751-.72 1.272-1.195 2.008-1.701-.368 1.011-.506 1.701-.506 2.728 0 3.342.644 5.595 3.495 7.94 2.498 2.039 6.008 3.112 8.921 3.112 4.675 0 8.001-1.87 10.545-5.748.2.843.384 2.667 0 3.403-.904 1.701-.843 1.44-2.529 2.713-2.79 2.13-6.637 3.418-9.932 3.418-2.913 0-6.438-1.073-8.921-3.112-2.851-2.33-4.507-5.84-4.507-9.181 0-1.748.429-1.978 1.426-3.572z" fill="#F7F6F2"/><path d="M114.831 232.467c.49-.89.383-.675 1.134-1.503-.368 1.012-.736 1.794-.736 2.821 0 3.341 1.641 6.851 4.507 9.181 2.498 2.039 6.008 3.112 8.921 3.112 4.675 0 9.702-2.744 12.247-6.637 0 .812-.414 2.268-.797 3.019-.904 1.702-1.763 2.713-3.434 3.986-2.789 2.13-6.637 3.418-9.932 3.418-2.913 0-6.423-1.073-8.921-3.112-2.851-2.33-4.507-5.84-4.507-9.181-.015-1.732.522-3.51 1.518-5.104z" fill="#F0EFEB"/><path d="M223.986 177.859v-.107c0-.077 0-.138.016-.215 0-.046 0-.076.015-.122 0-.062.015-.123.015-.2 0-.045.016-.091.016-.122.015-.061.015-.123.03-.184 0-.046.016-.092.016-.138.015-.061.015-.123.03-.184.016-.046.016-.092.031-.138.015-.061.031-.123.031-.184.015-.046.015-.092.03-.138l.046-.184a.43.43 0 00.031-.138l.046-.184a.997.997 0 01.046-.122c.015-.062.046-.123.061-.184.016-.046.031-.077.046-.123.016-.061.046-.122.077-.199.015-.046.031-.077.046-.123.031-.061.046-.138.077-.199.015-.031.03-.077.046-.107.03-.062.061-.138.091-.2l.046-.091c.031-.077.062-.138.108-.215l.046-.092c.046-.077.076-.153.122-.23a.111.111 0 00.031-.061 2.36 2.36 0 01.153-.261c0-.015.016-.015.016-.031.061-.107.122-.199.184-.291.475-.889.383-.674 1.134-1.502a11.8 11.8 0 012.268-1.977c.108-.062.215-.138.307-.199 3.096-1.947 7.051-2.928 10.055-2.928 5.564 0 10.975 5.518 12.079 11.143.153.644.291 1.84.184 2.698-.016.153-.031.322-.062.506a7.387 7.387 0 01-.475 1.701 4.646 4.646 0 01-.245.552c0 .015-.015.015-.015.031-.215.429-.46.843-.736 1.241-.629.935-1.349 1.671-2.407 2.499-.245.184-.49.383-.751.552-.061.046-.122.076-.184.122-.107.077-.214.138-.322.215-.092.061-.184.107-.275.168l-.322.184c-.077.046-.169.092-.246.138-.122.062-.245.138-.367.2-.062.03-.138.076-.2.107-.138.077-.291.138-.429.215-.046.015-.092.046-.138.061-.169.076-.352.168-.536.245-.016 0-.031.015-.046.015-1.886.797-3.894 1.288-5.779 1.38h-.015c-.215.015-.414.015-.629.015-2.912 0-6.422-1.073-8.921-3.111-2.851-2.33-4.506-5.84-4.506-9.182.03-.107.03-.214.03-.322z" fill="#AFAFAF"/><path d="M223.986 177.875c0 3.341 1.641 6.851 4.507 9.181 2.498 2.039 6.008 3.112 8.921 3.112 6.254 0 14.178-4.537 14.178-10.791 0-6.239-6.039-13.198-12.293-13.198-3.004 0-6.959.981-10.055 2.913-3.342 2.084-5.258 5.533-5.258 8.783z" fill="#FCFAF7"/><path d="M226.914 171.008c.751-.721 1.272-1.196 2.008-1.702-.368 1.012-.506 1.702-.506 2.729 0 3.341.644 5.594 3.495 7.939 2.499 2.039 6.009 3.112 8.921 3.112 4.675 0 8.001-1.87 10.546-5.748.199.843.383 2.667 0 3.403-.905 1.701-.843 1.441-2.529 2.713-2.79 2.131-6.637 3.418-9.933 3.418-2.912 0-6.438-1.073-8.921-3.111-2.851-2.33-4.506-5.84-4.506-9.182 0-1.747.429-1.977 1.425-3.571z" fill="#F7F6F2"/><path d="M225.519 172.786c.491-.889.383-.675 1.135-1.502-.368 1.011-.736 1.793-.736 2.82 0 3.342 1.64 6.852 4.506 9.182 2.499 2.038 6.009 3.111 8.921 3.111 4.675 0 9.703-2.744 12.247-6.637 0 .813-.414 2.269-.797 3.02-.904 1.701-1.763 2.713-3.433 3.985-2.79 2.131-6.637 3.418-9.933 3.418-2.912 0-6.422-1.073-8.921-3.111-2.851-2.33-4.506-5.84-4.506-9.182-.016-1.732.521-3.51 1.517-5.104z" fill="#F0EFEB"/><path d="M88.023 62.098v-.107c0-.077 0-.138.015-.215 0-.046 0-.076.016-.122 0-.062.015-.123.015-.2 0-.046.015-.092.015-.122.016-.061.016-.123.031-.184 0-.046.015-.092.015-.138.016-.061.016-.123.031-.184.015-.046.015-.092.03-.138a.738.738 0 00.031-.184c.016-.046.016-.092.031-.138l.046-.184a.456.456 0 00.03-.138l.047-.184a1.05 1.05 0 01.046-.122c.015-.062.046-.123.06-.184.016-.046.032-.077.047-.123.015-.061.046-.122.077-.2.015-.045.03-.076.046-.122.03-.061.046-.138.076-.199.016-.03.03-.077.046-.107.03-.062.061-.138.092-.2l.046-.092a1.4 1.4 0 01.107-.214l.046-.092c.046-.077.077-.153.123-.23a.116.116 0 00.03-.061c.047-.092.093-.169.154-.26 0-.016.015-.016.015-.032.062-.107.123-.199.184-.29.475-.89.383-.675 1.135-1.503a11.814 11.814 0 012.268-1.977c.107-.061.215-.138.307-.2 3.096-1.946 7.051-2.927 10.055-2.927 5.564 0 10.975 5.518 12.078 11.143.154.644.292 1.84.184 2.698-.015.153-.03.322-.061.506a7.394 7.394 0 01-.475 1.701c-.077.215-.169.399-.245.552 0 .016-.016.016-.016.03-.214.43-.46.844-.736 1.242-.628.935-1.348 1.671-2.406 2.499-.245.184-.491.383-.751.552-.061.046-.123.076-.184.122-.107.077-.215.138-.322.215-.092.061-.184.107-.276.168l-.322.184c-.076.046-.168.092-.245.138-.123.062-.245.138-.368.2-.061.03-.138.076-.199.107-.138.077-.291.138-.429.215-.046.015-.092.046-.138.06-.169.078-.353.17-.537.246-.015 0-.03.015-.046.015-1.885.797-3.893 1.288-5.778 1.38h-.016c-.214.015-.414.015-.628.015-2.913 0-6.423-1.073-8.921-3.111-2.851-2.33-4.507-5.84-4.507-9.182.031-.107.031-.214.031-.322z" fill="#AFAFAF"/><path d="M88.023 62.114c0 3.341 1.64 6.851 4.507 9.181 2.498 2.039 6.008 3.112 8.92 3.112 6.254 0 14.179-4.537 14.179-10.791 0-6.239-6.039-13.198-12.293-13.198-3.005 0-6.96.981-10.055 2.913-3.342 2.084-5.258 5.533-5.258 8.782z" fill="#FCFAF7"/><path d="M90.95 55.247c.752-.72 1.273-1.196 2.009-1.702-.368 1.012-.506 1.702-.506 2.729 0 3.341.644 5.594 3.495 7.94 2.498 2.038 6.008 3.111 8.921 3.111 4.675 0 8.001-1.87 10.545-5.748.2.843.384 2.667 0 3.403-.904 1.701-.843 1.44-2.529 2.713-2.79 2.13-6.637 3.418-9.932 3.418-2.913 0-6.438-1.073-8.921-3.112-2.851-2.33-4.507-5.84-4.507-9.181 0-1.747.43-1.977 1.426-3.571z" fill="#F7F6F2"/><path d="M89.556 57.025c.49-.89.383-.675 1.134-1.502-.368 1.011-.736 1.793-.736 2.82 0 3.342 1.64 6.852 4.507 9.182 2.498 2.038 6.008 3.111 8.921 3.111 4.675 0 9.702-2.743 12.247-6.637 0 .812-.414 2.269-.797 3.02-.905 1.701-1.763 2.713-3.434 3.985-2.789 2.13-6.637 3.418-9.932 3.418-2.913 0-6.423-1.073-8.921-3.111-2.851-2.33-4.507-5.84-4.507-9.182-.015-1.732.522-3.51 1.518-5.104z" fill="#F0EFEB"/></svg>