<svg width="301" height="301" viewBox="0 0 301 301" fill="none" xmlns="http://www.w3.org/2000/svg"><path d="M116.186 79.277c-.687-2.563.401-5.078 2.365-5.604 2.004-.538 3.483.81 4.261 2.913a6.632 6.632 0 00.32-4.097c-.886-3.469-4.496-5.554-8.075-4.639-3.538.905-5.673 4.485-4.786 7.954.817 3.051 6.089 4.124 5.915 3.473zm19.286-4.993c-.687-2.563-2.817-4.26-4.821-3.723-2.005.537-2.662 2.414-2.325 4.635-1.085-.843-1.875-2.027-2.257-3.45-.886-3.47 1.248-7.05 4.787-7.954 3.539-.905 7.137 1.14 8.075 4.638.755 2.98-3.295 6.464-3.459 5.854z" fill="#6E4736"/><path d="M120.931 57.639l-.044.012-.045.012c-8.908 2.387-14.711 9.416-13.048 15.802 1.833 7.018 6.727 8.71 7.667 6.52.321-.764-.067-1.677-.439-2.886-.763-2.848.603-5.055 2.798-5.594 2.506-.623 3.412.975 4.175 3.823.642 2.395.726 15.357 1.117 16.463.392 1.106 3.621 3.535 7.253 2.66l.045-.013.044-.012c3.653-.978 5.235-4.697 5.065-5.862-.213-1.154-6.411-12.526-7.053-14.922-.763-2.847-.733-4.696 1.761-5.365 2.183-.585 4.469.644 5.2 3.549.315 1.175.391 2.172 1.062 2.719 1.866 1.438 5.326-2.396 3.493-9.415-1.675-6.43-10.195-9.719-19.051-7.491z" fill="#D1AD88"/><path d="M185.382 222.001c.652 2.434-.435 4.837-2.366 5.354-1.97.528-3.408-.743-4.154-2.737a6.17 6.17 0 00-.347 3.902c.84 3.295 4.362 5.249 7.879 4.349 3.477-.891 5.599-4.317 4.759-7.611-.777-2.897-5.937-3.875-5.771-3.257zm-18.952 4.913c.652 2.434 2.727 4.031 4.697 3.503 1.97-.528 2.63-2.32 2.317-4.43a5.954 5.954 0 012.184 3.265c.841 3.295-1.281 6.72-4.759 7.611-3.477.89-6.988-1.026-7.879-4.349-.716-2.83 3.285-6.18 3.44-5.6z" fill="#6E4736"/><path d="M180.55 242.637l.043-.012.044-.011c8.755-2.346 14.503-9.085 12.925-15.149-1.739-6.666-6.523-8.236-7.464-6.144-.321.73.052 1.596.407 2.744.724 2.704-.633 4.816-2.79 5.348-2.463.614-3.337-.9-4.062-3.605-.61-2.275-.584-14.612-.959-15.661-.376-1.05-3.521-3.336-7.09-2.471l-.044.011-.044.012c-3.589.962-5.171 4.514-5.014 5.622.2 1.097 6.183 11.87 6.792 14.145.725 2.705.68 4.465-1.771 5.122-2.145.574-4.377-.576-5.069-3.335-.299-1.116-.365-2.064-1.02-2.579-1.817-1.354-5.241 2.324-3.502 8.99 1.589 6.107 9.916 9.167 18.618 6.973z" fill="#D1AD88"/><path d="M77.876 181.749c-2.348.629-4.652-.367-5.134-2.167-.492-1.836.743-3.19 2.669-3.903a6.074 6.074 0 00-3.753-.293c-3.178.812-5.088 4.118-4.25 7.397.83 3.241 4.11 5.196 7.287 4.384 2.795-.748 3.778-5.578 3.181-5.418zm-4.574-17.667c-2.348.629-3.902 2.58-3.41 4.417.492 1.836 2.211 2.438 4.245 2.129-.772.994-1.856 1.718-3.16 2.067-3.178.812-6.458-1.143-7.286-4.385-.829-3.241 1.044-6.538 4.249-7.397 2.73-.692 5.921 3.019 5.362 3.169z" fill="#6E4736"/><path d="M58.054 177.402l.011.04.011.041c2.187 8.161 8.626 13.477 14.476 11.953 6.429-1.679 7.98-6.162 5.973-7.024-.7-.293-1.537.062-2.644.403-2.609.699-4.63-.553-5.125-2.563-.57-2.296.894-3.126 3.502-3.825 2.195-.588 14.068-.664 15.082-1.023 1.013-.359 3.238-3.317 2.435-6.644l-.01-.041-.011-.041c-.897-3.346-4.303-4.795-5.371-4.64-1.057.196-11.474 5.874-13.668 6.462-2.61.699-4.303.671-4.915-1.614-.536-1.999.59-4.094 3.25-4.763 1.077-.288 1.99-.358 2.491-.973 1.317-1.709-2.195-4.879-8.624-3.2-5.89 1.535-8.903 9.339-6.863 17.452z" fill="#D1AD88"/><path d="M217.151 119.897c3.021-.809 5.987.473 6.607 2.789.634 2.363-.956 4.106-3.434 5.024 1.5.611 3.139.78 4.83.377 4.09-1.045 6.548-5.3 5.469-9.52-1.067-4.172-5.288-6.688-9.378-5.643-3.597.964-4.862 7.179-4.094 6.973zm5.887 22.739c3.022-.81 5.022-3.321 4.388-5.685-.633-2.363-2.845-3.138-5.463-2.74.993-1.28 2.389-2.211 4.068-2.661 4.089-1.045 8.311 1.472 9.377 5.644 1.067 4.172-1.344 8.414-5.469 9.52-3.514.891-7.621-3.885-6.901-4.078z" fill="#6E4736"/><path d="M242.662 125.493l-.014-.053-.014-.052c-2.814-10.503-11.102-17.345-18.63-15.384-8.275 2.161-10.27 7.93-7.688 9.04.901.377 1.978-.08 3.402-.518 3.358-.9 5.96.711 6.596 3.298.735 2.955-1.15 4.023-4.507 4.923-2.825.757-18.106.855-19.41 1.317-1.304.462-4.168 4.269-3.135 8.551l.014.053.014.052c1.154 4.307 5.538 6.171 6.912 5.972 1.361-.252 14.768-7.559 17.592-8.316 3.357-.9 5.537-.865 6.325 2.076.69 2.573-.758 5.269-4.183 6.131-1.386.371-2.561.461-3.206 1.252-1.695 2.2 2.825 6.279 11.099 4.118 7.582-1.975 11.459-12.019 8.833-22.46z" fill="#D1AD88"/><path d="M170.042 104.06c.779-1.876 2.613-2.895 4.051-2.298 1.468.609 1.736 2.117 1.228 3.757a5.084 5.084 0 002.106-2.338c1.081-2.52-.138-5.47-2.738-6.584-2.57-1.102-5.537.075-6.617 2.595-.928 2.233 1.772 5.345 1.97 4.868zm14.039 5.969c.779-1.876.277-3.9-1.19-4.51-1.468-.609-2.742.224-3.574 1.729-.266-1.018-.193-2.105.24-3.148 1.081-2.519 4.047-3.697 6.618-2.595 2.57 1.103 3.801 4.023 2.737 6.585-.932 2.162-5.017 2.386-4.831 1.939z" fill="#6E4736"/><path d="M183.021 93.139l-.033-.014-.032-.013c-6.522-2.709-13.326-1.149-15.296 3.504-2.162 5.116.019 8.427 1.612 7.536.551-.314.742-1.05 1.08-1.957.866-2.085 2.725-2.787 4.309-2.09 1.813.791 1.617 2.184.751 4.269-.728 1.754-6.726 9.662-7.005 10.516-.278.855.549 3.836 3.163 4.999l.032.014.033.013c2.674 1.111 5.369-.409 5.811-1.195.408-.801 1.953-10.597 2.681-12.351.866-2.084 1.746-3.193 3.573-2.435 1.598.664 2.413 2.476 1.5 4.581-.357.86-.776 1.501-.623 2.147.461 1.743 4.351 1.03 6.514-4.086 1.983-4.686-1.654-10.658-8.07-13.438z" fill="#D1AD88"/><path d="M123.413 184.061c-.56-1.953.239-3.894 1.736-4.323 1.528-.438 2.677.575 3.301 2.174.38-.981.471-2.047.191-3.141-.725-2.644-3.516-4.192-6.244-3.444-2.697.74-4.284 3.509-3.559 6.153.666 2.325 4.717 3.077 4.575 2.581zm14.699-4.08c-.56-1.953-2.213-3.223-3.741-2.786-1.527.438-2.006 1.884-1.718 3.579-.842-.63-1.462-1.526-1.773-2.611-.725-2.644.861-5.414 3.558-6.153 2.698-.74 5.48.777 6.244 3.443.618 2.272-2.437 4.993-2.57 4.528z" fill="#6E4736"/><path d="M126.758 167.431l-.034.01-.034.009c-6.788 1.947-11.138 7.405-9.779 12.272 1.496 5.349 5.265 6.58 5.957 4.891.235-.59-.074-1.284-.375-2.204-.622-2.17.394-3.878 2.067-4.321 1.911-.51 2.626.702 3.248 2.872.523 1.825.76 11.748 1.074 12.589.315.842 2.819 2.659 5.589 1.94l.034-.01.034-.01c2.783-.798 3.944-3.665 3.799-4.556-.179-.88-5.075-9.504-5.598-11.33-.622-2.17-.624-3.586 1.277-4.131 1.663-.476 3.43.434 4.028 2.648.257.895.328 1.658.85 2.067 1.447 1.077 4.045-1.905 2.549-7.254-1.369-4.901-7.935-7.305-14.686-5.482z" fill="#D1AD88"/></svg>