<svg width="301" height="300" viewBox="0 0 301 300" fill="none" xmlns="http://www.w3.org/2000/svg"><path d="M249.248 178.823c-2.106.228-3.998 1.053-5.862 2.035-1.565.825-3.571 1.807-4.567 3.315-.584.882.099 1.807 1.01 1.964 1.665.284 3.4-.754 4.866-1.423 1.793-.825 3.514-1.522 5.478-1.779 2.732-.327 1.75-4.396-.925-4.112z" fill="#F4E0A6"/><path d="M239.843 186.151c1.665.285 3.401-.754 4.866-1.423 1.793-.825 3.515-1.522 5.478-1.778 2.576-.328 1.821-3.999-.541-4.127.84 1.153.655 2.974-1.138 3.202-1.978.256-3.685.953-5.478 1.778-1.309.598-2.846 1.48-4.34 1.466.185.441.626.797 1.153.882z" fill="#FFC44D"/><path d="M163.945 135.839c-1.143 1.783-1.686 3.775-2.09 5.842-.339 1.737-.832 3.916-.281 5.637.321 1.008 1.47 1.056 2.163.444 1.265-1.118 1.544-3.122 1.942-4.683.482-1.914 1.018-3.692 2.05-5.382 1.457-2.334-2.328-4.12-3.784-1.858z" fill="#F4E0A6"/><path d="M163.757 147.76c1.265-1.118 1.544-3.122 1.942-4.683.482-1.914 1.018-3.692 2.05-5.382 1.359-2.212-1.973-3.926-3.554-2.166 1.424.068 2.727 1.354 1.78 2.894-1.04 1.701-1.568 3.468-2.049 5.382-.355 1.395-.631 3.145-1.579 4.3.459.132 1.013.012 1.41-.345z" fill="#FFC44D"/><path d="M111.003 191.205c-2.118.001-4.088.62-6.046 1.397-1.644.654-3.744 1.416-4.895 2.809-.674.815-.094 1.807.795 2.06 1.625.461 3.462-.387 4.99-.895 1.871-.629 3.657-1.139 5.637-1.184 2.751-.034 2.209-4.185-.481-4.187z" fill="#F4E0A6"/><path d="M100.87 197.487c1.624.461 3.461-.387 4.99-.895 1.87-.629 3.657-1.139 5.636-1.184 2.596-.05 2.238-3.781-.097-4.16.712 1.235.334 3.026-1.473 3.061-1.994.044-3.766.555-5.637 1.184-1.365.454-2.987 1.168-4.471.994.137.458.537.859 1.052 1z" fill="#FFC44D"/><path d="M140.817 229.186c-1.96-.805-4.017-.983-6.123-1.009-1.769-.022-4.001-.117-5.596.734-.934.497-.775 1.635-.049 2.207 1.327 1.045 3.348.96 4.955 1.072 1.97.13 3.815.339 5.663 1.051 2.557 1.016 3.636-3.029 1.15-4.055z" fill="#F4E0A6"/><path d="M129.055 231.138c1.327 1.044 3.348.96 4.955 1.071 1.969.13 3.815.339 5.663 1.051 2.419.942 3.508-2.644 1.494-3.884.187 1.413-.844 2.926-2.528 2.27-1.861-.718-3.694-.92-5.663-1.051-1.436-.099-3.207-.057-4.513-.783-.048.476.17.999.592 1.326z" fill="#FFC44D"/><path d="M137.368 169.85c-1.96-.805-4.017-.983-6.123-1.009-1.769-.022-4.001-.116-5.596.734-.934.497-.775 1.635-.049 2.207 1.327 1.045 3.348.96 4.955 1.072 1.97.13 3.815.339 5.663 1.051 2.557 1.016 3.636-3.029 1.15-4.055z" fill="#F4E0A6"/><path d="M125.606 171.802c1.327 1.044 3.348.96 4.955 1.071 1.969.131 3.815.339 5.663 1.051 2.419.942 3.508-2.644 1.494-3.884.187 1.413-.844 2.926-2.528 2.27-1.861-.718-3.694-.92-5.663-1.051-1.436-.099-3.207-.057-4.513-.783-.048.476.17.999.592 1.326z" fill="#FFC44D"/><path d="M85.832 123.308c-1.793 1.128-3.132 2.699-4.377 4.399-1.045 1.428-2.418 3.19-2.652 4.982-.137 1.048.882 1.58 1.77 1.322 1.62-.474 2.725-2.169 3.75-3.412 1.249-1.528 2.49-2.909 4.143-4 2.312-1.492-.354-4.719-2.634-3.291z" fill="#F4E0A6"/><path d="M80.591 134.017c1.621-.473 2.726-2.168 3.75-3.412 1.25-1.527 2.492-2.909 4.144-3.999 2.171-1.424-.116-4.392-2.295-3.472 1.26.668 1.892 2.386.38 3.376-1.665 1.097-2.894 2.473-4.143 4-.915 1.111-1.91 2.578-3.259 3.22.36.315.912.442 1.423.287z" fill="#FFC44D"/><path d="M111.253 55.29c-1.793 1.128-3.132 2.7-4.377 4.399-1.045 1.428-2.418 3.19-2.652 4.982-.138 1.048.882 1.58 1.769 1.322 1.621-.474 2.726-2.169 3.75-3.412 1.249-1.528 2.491-2.91 4.144-4 2.312-1.492-.355-4.72-2.634-3.29z" fill="#F4E0A6"/><path d="M106.012 66c1.621-.475 2.726-2.17 3.75-3.413 1.249-1.528 2.491-2.909 4.144-4 2.171-1.423-.116-4.392-2.295-3.472 1.26.668 1.892 2.386.38 3.377-1.665 1.097-2.894 2.472-4.144 4-.914 1.11-1.909 2.577-3.258 3.22.36.315.912.441 1.423.287z" fill="#FFC44D"/><path d="M171.25 58.042c-.822-1.952-2.156-3.528-3.632-5.031-1.24-1.263-2.756-2.903-4.487-3.424-1.012-.305-1.702.615-1.591 1.532.206 1.676 1.699 3.04 2.761 4.253 1.305 1.48 2.467 2.929 3.276 4.736 1.098 2.523 4.714.414 3.673-2.066z" fill="#F4E0A6"/><path d="M161.531 51.137c.205 1.676 1.699 3.04 2.76 4.252 1.305 1.48 2.467 2.93 3.277 4.737 1.052 2.373 4.352.597 3.797-1.703-.863 1.136-2.661 1.481-3.394-.17-.813-1.822-1.971-3.257-3.276-4.737-.949-1.083-2.235-2.301-2.65-3.737-.37.304-.584.829-.514 1.358z" fill="#FFC44D"/><path d="M216.245 76.788c-.822-1.951-2.156-3.527-3.632-5.03-1.24-1.263-2.756-2.903-4.487-3.424-1.013-.306-1.702.614-1.591 1.531.206 1.677 1.699 3.041 2.76 4.253 1.306 1.48 2.468 2.93 3.277 4.737 1.098 2.523 4.714.414 3.673-2.067z" fill="#F4E0A6"/><path d="M206.526 69.883c.205 1.677 1.698 3.041 2.76 4.253 1.305 1.48 2.467 2.93 3.276 4.737 1.053 2.373 4.353.596 3.798-1.703-.863 1.135-2.661 1.48-3.394-.171-.813-1.821-1.971-3.256-3.276-4.737-.949-1.082-2.235-2.3-2.65-3.736-.37.304-.584.829-.514 1.357z" fill="#FFC44D"/><path d="M174.662 193.127c-2.038.579-3.765 1.711-5.437 2.992-1.404 1.077-3.216 2.382-3.944 4.036-.427.968.402 1.765 1.326 1.766 1.689 0 3.225-1.316 4.557-2.221 1.629-1.115 3.208-2.092 5.101-2.675 2.638-.782.986-4.628-1.603-3.898z" fill="#F4E0A6"/><path d="M166.623 201.932c1.689.001 3.225-1.315 4.558-2.221 1.628-1.115 3.208-2.092 5.1-2.675 2.484-.755 1.123-4.247-1.227-3.976 1.022.995 1.146 2.821-.583 3.347-1.907.585-3.473 1.56-5.101 2.675-1.19.809-2.556 1.937-4.031 2.175.256.403.751.68 1.284.675z" fill="#FFC44D"/><path d="M186.86 244.923c-2.038.579-3.764 1.711-5.437 2.992-1.404 1.077-3.216 2.382-3.944 4.037-.427.967.402 1.764 1.326 1.765 1.689.001 3.225-1.315 4.557-2.221 1.629-1.115 3.209-2.092 5.101-2.675 2.638-.782.986-4.628-1.603-3.898z" fill="#F4E0A6"/><path d="M178.821 253.729c1.689 0 3.226-1.316 4.558-2.221 1.628-1.116 3.208-2.092 5.101-2.675 2.483-.756 1.122-4.248-1.227-3.977 1.021.995 1.145 2.822-.584 3.348-1.906.585-3.472 1.559-5.101 2.674-1.19.81-2.556 1.938-4.031 2.175.256.404.751.68 1.284.676z" fill="#FFC44D"/><path d="M93.428 222.371c-2.038.579-3.764 1.711-5.437 2.992-1.404 1.077-3.216 2.382-3.944 4.036-.427.968.402 1.765 1.326 1.766 1.689 0 3.225-1.315 4.557-2.221 1.629-1.115 3.209-2.092 5.101-2.675 2.638-.782.986-4.628-1.603-3.898z" fill="#F4E0A6"/><path d="M85.39 231.176c1.688.001 3.225-1.315 4.557-2.221 1.628-1.115 3.208-2.092 5.1-2.674 2.484-.756 1.123-4.248-1.227-3.977 1.022.995 1.146 2.821-.583 3.347-1.907.585-3.472 1.56-5.1 2.675-1.19.809-2.557 1.937-4.032 2.175.256.403.75.68 1.284.675z" fill="#FFC44D"/><path d="M54.59 137.514c-2.038.578-3.765 1.71-5.437 2.992-1.404 1.076-3.217 2.382-3.945 4.036-.426.968.402 1.764 1.326 1.766 1.69 0 3.226-1.316 4.558-2.222 1.628-1.115 3.208-2.092 5.1-2.674 2.639-.782.986-4.629-1.603-3.898z" fill="#F4E0A6"/><path d="M46.55 146.319c1.69 0 3.226-1.315 4.558-2.221 1.629-1.115 3.209-2.092 5.101-2.675 2.484-.756 1.123-4.248-1.227-3.976 1.022.994 1.145 2.821-.584 3.347-1.906.585-3.472 1.56-5.1 2.675-1.19.809-2.556 1.937-4.032 2.174.257.404.752.68 1.285.676z" fill="#FFC44D"/><path d="M87.717 150.756c-1.315.373-2.43 1.104-3.508 1.93-.906.695-2.076 1.538-2.546 2.605-.275.625.26 1.139.856 1.139 1.09.001 2.081-.848 2.94-1.433 1.052-.719 2.071-1.35 3.292-1.726 1.703-.505.636-2.987-1.034-2.515z" fill="#F4E0A6"/><path d="M82.53 156.438c1.09 0 2.08-.849 2.94-1.433 1.051-.72 2.07-1.35 3.292-1.726 1.603-.488.725-2.741-.792-2.566.66.642.74 1.82-.376 2.16-1.23.377-2.241 1.006-3.292 1.726-.768.522-1.65 1.25-2.601 1.403.165.26.484.439.829.436z" fill="#FFC44D"/><path d="M116.753 99.659c-.622-1.217-1.555-2.168-2.576-3.066-.858-.753-1.912-1.736-3.051-1.99-.666-.148-1.066.477-.951 1.062.212 1.069 1.238 1.876 1.979 2.605.91.891 1.727 1.769 2.333 2.893.827 1.572 3.054.043 2.266-1.504z" fill="#F4E0A6"/><path d="M110.17 95.677c.212 1.069 1.238 1.876 1.978 2.605.911.891 1.727 1.768 2.334 2.893.79 1.477 2.83.177 2.363-1.276-.502.771-1.642 1.079-2.192.051-.61-1.133-1.423-2.002-2.334-2.893-.661-.651-1.547-1.374-1.883-2.278a.983.983 0 00-.266.898z" fill="#FFC44D"/><path d="M74.653 96.53c-.622-1.217-1.555-2.168-2.576-3.065-.858-.754-1.912-1.737-3.05-1.99-.667-.149-1.067.476-.952 1.061.212 1.07 1.238 1.876 1.979 2.606.91.89 1.727 1.768 2.333 2.893.826 1.571 3.054.042 2.266-1.505z" fill="#F4E0A6"/><path d="M68.07 92.548c.212 1.069 1.238 1.876 1.978 2.606.91.89 1.727 1.768 2.334 2.892.79 1.478 2.83.178 2.363-1.276-.502.772-1.642 1.08-2.192.051-.61-1.133-1.424-2.002-2.334-2.892-.662-.652-1.547-1.375-1.883-2.279a.983.983 0 00-.266.898z" fill="#FFC44D"/><path d="M201.196 98.748c-1.354.183-2.561.748-3.746 1.413-.996.56-2.273 1.228-2.889 2.218-.361.579.095 1.164.685 1.249 1.079.155 2.181-.545 3.115-1.002 1.142-.563 2.241-1.043 3.503-1.242 1.756-.258 1.053-2.866-.668-2.636z" fill="#F4E0A6"/><path d="M195.256 103.637c1.079.155 2.181-.545 3.114-1.002 1.143-.563 2.241-1.043 3.503-1.242 1.656-.255 1.106-2.61-.42-2.652.562.729.474 1.907-.679 2.085-1.271.199-2.36.678-3.503 1.242-.834.408-1.81 1.003-2.774 1.02a.985.985 0 00.759.549z" fill="#FFC44D"/><path d="M152.88 93.063c-1.355.183-2.561.748-3.747 1.414-.995.56-2.272 1.227-2.889 2.217-.361.58.096 1.164.686 1.25 1.079.154 2.18-.546 3.114-1.002 1.142-.564 2.241-1.043 3.503-1.242 1.757-.259 1.053-2.867-.667-2.637z" fill="#F4E0A6"/><path d="M146.939 97.953c1.079.154 2.181-.546 3.115-1.002 1.142-.564 2.24-1.043 3.503-1.242 1.655-.256 1.105-2.611-.42-2.653.561.73.473 1.907-.679 2.085-1.272.2-2.361.679-3.503 1.242-.834.408-1.81 1.004-2.774 1.02a.98.98 0 00.758.55z" fill="#FFC44D"/><path d="M238.249 113.086c-1.354.183-2.561.748-3.746 1.414-.996.559-2.273 1.227-2.889 2.217-.361.579.095 1.164.685 1.25 1.079.154 2.181-.546 3.115-1.002 1.142-.564 2.241-1.043 3.503-1.242 1.756-.259 1.053-2.867-.668-2.637z" fill="#F4E0A6"/><path d="M232.309 117.976c1.079.154 2.181-.546 3.114-1.002 1.143-.564 2.241-1.043 3.503-1.242 1.656-.256 1.106-2.611-.42-2.653.562.729.474 1.907-.679 2.085-1.271.199-2.36.679-3.503 1.242-.834.408-1.81 1.004-2.774 1.02a.984.984 0 00.759.55z" fill="#FFC44D"/><path d="M237.547 164.918c-.715-1.165-1.72-2.04-2.808-2.855-.914-.684-2.041-1.583-3.196-1.746-.675-.097-1.026.557-.865 1.132.294 1.049 1.38 1.774 2.175 2.443.977.818 1.859 1.629 2.552 2.703.946 1.502 3.047-.196 2.142-1.677z" fill="#F4E0A6"/><path d="M230.673 161.461c.295 1.049 1.38 1.774 2.176 2.444.976.817 1.859 1.628 2.551 2.702.903 1.411 2.835-.044 2.257-1.456-.44.808-1.553 1.204-2.182.221-.696-1.082-1.575-1.885-2.551-2.702-.711-.598-1.65-1.25-2.055-2.125a.986.986 0 00-.196.916z" fill="#FFC44D"/><path d="M245.497 217.915c-.715-1.165-1.72-2.04-2.808-2.855-.914-.684-2.041-1.583-3.196-1.746-.675-.097-1.026.557-.865 1.132.294 1.049 1.38 1.774 2.175 2.443.977.818 1.859 1.629 2.552 2.703.946 1.502 3.047-.196 2.142-1.677z" fill="#F4E0A6"/><path d="M238.623 214.458c.295 1.049 1.38 1.774 2.176 2.444.976.817 1.859 1.628 2.551 2.702.903 1.411 2.835-.044 2.257-1.456-.44.808-1.553 1.204-2.182.221-.696-1.082-1.575-1.885-2.552-2.702-.71-.598-1.649-1.25-2.054-2.125a.986.986 0 00-.196.916z" fill="#FFC44D"/><path d="M159.953 228.557c-1.16.723-2.029 1.733-2.837 2.826-.679.918-1.57 2.051-1.726 3.207-.092.676.564 1.022 1.138.858 1.047-.301 1.765-1.391 2.429-2.191.811-.982 1.617-1.87 2.686-2.569 1.497-.956-.214-3.046-1.69-2.131z" fill="#F4E0A6"/><path d="M156.54 235.452c1.047-.301 1.765-1.391 2.43-2.191.811-.982 1.616-1.869 2.686-2.569 1.405-.912-.062-2.834-1.471-2.247.811.435 1.214 1.546.235 2.18-1.077.703-1.875 1.587-2.685 2.569-.594.714-1.24 1.658-2.112 2.068a.982.982 0 00.917.19z" fill="#FFC44D"/><path d="M100.199 241.519c-1.16.722-2.03 1.733-2.838 2.826-.678.918-1.57 2.051-1.726 3.207-.092.676.565 1.022 1.138.858 1.047-.301 1.765-1.391 2.43-2.191.811-.982 1.616-1.87 2.686-2.569 1.496-.956-.215-3.046-1.69-2.131z" fill="#F4E0A6"/><path d="M96.785 248.414c1.048-.301 1.766-1.391 2.43-2.191.811-.982 1.616-1.87 2.686-2.569 1.405-.912-.062-2.834-1.471-2.247.811.435 1.214 1.545.236 2.18-1.078.703-1.875 1.587-2.686 2.569-.594.714-1.24 1.658-2.112 2.068a.982.982 0 00.917.19z" fill="#FFC44D"/><path d="M153.924 253.929c1.091.823 2.346 1.271 3.656 1.632 1.101.303 2.479.727 3.613.458.664-.158.752-.894.392-1.37-.657-.869-1.933-1.147-2.918-1.48-1.208-.404-2.325-.836-3.362-1.583-1.43-1.052-2.766 1.296-1.381 2.343z" fill="#F4E0A6"/><path d="M161.585 254.636c-.658-.869-1.933-1.147-2.918-1.48-1.208-.404-2.326-.836-3.363-1.583-1.356-.983-2.623 1.077-1.568 2.18.114-.913 1.006-1.688 1.95-1.003 1.043.753 2.154 1.179 3.362 1.583.88.297 1.993.56 2.689 1.227a.982.982 0 00-.152-.924z" fill="#FFC44D"/><path d="M148.098 198.29c.944.712 2.029 1.099 3.163 1.411.952.262 2.143.629 3.124.396.575-.136.65-.773.339-1.185-.568-.752-1.671-.992-2.523-1.28-1.045-.349-2.012-.723-2.908-1.368-1.237-.911-2.392 1.12-1.195 2.026z" fill="#F4E0A6"/><path d="M154.724 198.901c-.569-.752-1.672-.992-2.523-1.28-1.045-.349-2.012-.723-2.909-1.369-1.173-.85-2.268.931-1.356 1.886.099-.79.87-1.46 1.686-.868.903.651 1.864 1.02 2.908 1.369.761.257 1.724.485 2.326 1.061a.85.85 0 00-.132-.799z" fill="#FFC44D"/><path d="M151.247 140.007c-1.003.626-1.753 1.501-2.451 2.447-.585.795-1.355 1.776-1.489 2.776-.078.585.49.883.985.741.906-.262 1.525-1.206 2.099-1.898.7-.85 1.396-1.619 2.32-2.225 1.293-.828-.189-2.634-1.464-1.841z" fill="#F4E0A6"/><path d="M148.303 145.975c.905-.262 1.525-1.206 2.099-1.898.7-.85 1.395-1.619 2.32-2.225 1.214-.79-.057-2.451-1.275-1.941.702.375 1.052 1.335.206 1.885-.931.609-1.619 1.374-2.32 2.225-.512.618-1.07 1.435-1.824 1.79.2.177.509.249.794.164z" fill="#FFC44D"/><path d="M110.364 164.762c-1.002.626-1.752 1.501-2.45 2.447-.586.795-1.355 1.776-1.489 2.776-.079.585.489.883.985.741.905-.262 1.525-1.206 2.099-1.898.7-.85 1.395-1.619 2.319-2.225 1.293-.828-.189-2.634-1.464-1.841z" fill="#F4E0A6"/><path d="M107.42 170.729c.906-.261 1.525-1.205 2.099-1.897.7-.85 1.396-1.619 2.32-2.225 1.214-.79-.057-2.451-1.274-1.942.701.375 1.051 1.335.206 1.886-.932.609-1.62 1.374-2.32 2.224-.513.619-1.07 1.435-1.824 1.791.2.177.508.249.793.163z" fill="#FFC44D"/><path d="M182.958 76.409c-1.002.626-1.753 1.5-2.45 2.447-.586.795-1.356 1.776-1.489 2.775-.079.585.489.884.984.741.906-.261 1.526-1.205 2.099-1.897.7-.85 1.396-1.62 2.32-2.225 1.293-.828-.189-2.634-1.464-1.841z" fill="#F4E0A6"/><path d="M180.014 82.376c.905-.262 1.525-1.205 2.099-1.898.7-.85 1.396-1.618 2.32-2.224 1.214-.79-.057-2.452-1.275-1.942.702.375 1.052 1.335.207 1.885-.932.61-1.62 1.375-2.32 2.225-.513.618-1.07 1.435-1.824 1.79a.85.85 0 00.793.164z" fill="#FFC44D"/><path d="M126.821 76.654c-1.002.626-1.753 1.5-2.45 2.447-.586.795-1.355 1.776-1.489 2.776-.079.585.489.883.984.74.906-.26 1.526-1.205 2.099-1.897.701-.85 1.396-1.619 2.32-2.225 1.293-.828-.189-2.634-1.464-1.84z" fill="#F4E0A6"/><path d="M123.877 82.621c.906-.261 1.525-1.205 2.099-1.897.7-.85 1.396-1.62 2.32-2.225 1.214-.79-.057-2.451-1.275-1.942.702.375 1.052 1.335.207 1.885-.932.61-1.62 1.375-2.32 2.225-.513.619-1.07 1.435-1.824 1.791a.85.85 0 00.793.163z" fill="#FFC44D"/><path d="M243.954 141.897c-1.003.626-1.753 1.501-2.451 2.447-.585.795-1.355 1.776-1.489 2.775-.078.585.49.884.985.741.906-.261 1.525-1.205 2.099-1.897.7-.85 1.396-1.619 2.32-2.225 1.293-.828-.189-2.634-1.464-1.841z" fill="#F4E0A6"/><path d="M241.01 147.864c.905-.261 1.525-1.205 2.099-1.897.7-.851 1.395-1.619 2.32-2.225 1.214-.79-.057-2.451-1.275-1.942.702.375 1.052 1.335.206 1.885-.931.61-1.619 1.375-2.32 2.225-.512.619-1.07 1.435-1.824 1.791a.85.85 0 00.794.163z" fill="#FFC44D"/><path d="M240.203 93.88c-.985-.656-2.091-.978-3.241-1.223-.966-.205-2.177-.501-3.142-.21-.566.17-.603.81-.269 1.202.612.717 1.727.892 2.595 1.129 1.063.287 2.05.603 2.984 1.195 1.288.835 2.321-1.26 1.073-2.094z" fill="#F4E0A6"/><path d="M233.552 93.66c.612.717 1.727.892 2.595 1.13 1.063.286 2.05.602 2.984 1.194 1.221.78 2.209-1.063 1.242-1.962-.052.794-.782 1.508-1.632.965-.939-.596-1.92-.907-2.984-1.194-.774-.212-1.748-.383-2.384-.922a.852.852 0 00.179.79z" fill="#FFC44D"/><path d="M180.348 119.844c-.985-.655-2.091-.977-3.241-1.222-.966-.206-2.177-.501-3.142-.211-.566.17-.603.811-.269 1.203.612.717 1.728.892 2.595 1.129 1.063.286 2.051.603 2.984 1.194 1.288.836 2.321-1.259 1.073-2.093z" fill="#F4E0A6"/><path d="M173.697 119.625c.612.717 1.727.892 2.595 1.129 1.063.287 2.05.603 2.984 1.195 1.221.779 2.209-1.064 1.242-1.963-.052.794-.782 1.509-1.632.966-.939-.597-1.92-.908-2.984-1.195-.774-.211-1.748-.382-2.384-.922a.852.852 0 00.179.79z" fill="#FFC44D"/><path d="M120.808 117.887c-.984-.655-2.091-.977-3.241-1.222-.965-.206-2.176-.501-3.142-.211-.566.17-.603.811-.269 1.203.612.717 1.728.892 2.595 1.129 1.063.286 2.051.603 2.984 1.194 1.288.836 2.321-1.259 1.073-2.093z" fill="#F4E0A6"/><path d="M114.157 117.668c.612.717 1.728.892 2.595 1.129 1.063.287 2.051.603 2.984 1.195 1.221.779 2.209-1.064 1.242-1.963-.051.794-.781 1.509-1.631.966-.94-.597-1.921-.908-2.984-1.195-.775-.211-1.749-.382-2.385-.922a.852.852 0 00.179.79z" fill="#FFC44D"/><path d="M86.07 179.465c-.983-.655-2.09-.977-3.24-1.223-.965-.205-2.176-.501-3.142-.21-.566.17-.603.81-.269 1.203.612.717 1.728.891 2.595 1.128 1.063.287 2.05.603 2.984 1.195 1.288.836 2.321-1.26 1.073-2.093z" fill="#F4E0A6"/><path d="M79.42 179.246c.612.717 1.728.892 2.595 1.128 1.063.287 2.05.603 2.984 1.195 1.221.78 2.21-1.063 1.242-1.962-.052.794-.781 1.509-1.632.966-.939-.597-1.92-.908-2.984-1.195-.774-.211-1.748-.382-2.384-.922a.85.85 0 00.18.79z" fill="#FFC44D"/><path d="M50.22 192.892c-.346 1.13-.34 2.282-.245 3.454.079.985.141 2.23.696 3.072.324.493.949.346 1.23-.086.511-.792.36-1.911.34-2.809-.03-1.101-.009-2.138.291-3.201.433-1.474-1.87-1.865-2.312-.43z" fill="#F4E0A6"/><path d="M51.91 199.328c.513-.792.362-1.91.34-2.809-.028-1.101-.007-2.138.293-3.201.398-1.393-1.65-1.814-2.236-.63.776-.177 1.67.318 1.392 1.288-.303 1.07-.32 2.099-.292 3.201.019.802.134 1.785-.202 2.548a.851.851 0 00.706-.397z" fill="#FFC44D"/><path d="M67.924 209.753c-1.162.218-2.179.758-3.174 1.385-.835.526-1.91 1.159-2.399 2.041-.287.516.133 1.001.647 1.049.938.087 1.86-.566 2.646-1.001.962-.536 1.89-.998 2.972-1.225 1.506-.3.785-2.522-.692-2.249z" fill="#F4E0A6"/><path d="M63.006 214.235c.939.087 1.86-.565 2.647-1.001.962-.536 1.89-.998 2.971-1.225 1.42-.293.842-2.303-.478-2.272.517.605.492 1.626-.496 1.83-1.09.227-2.01.689-2.971 1.225-.703.389-1.52.946-2.352 1.002a.847.847 0 00.68.441z" fill="#FFC44D"/></svg>