<svg width="301" height="300" viewBox="0 0 301 300" fill="none" xmlns="http://www.w3.org/2000/svg"><g clip-path="url(#clip0)"><path fill-rule="evenodd" clip-rule="evenodd" d="M182.478 63.86l1.146-1.654c7.011 8.524 7.905 20.916 1.389 30.319a24.884 24.884 0 01-3.488 4.032l-.014.02-6.84 6.578-1.646-1.14-.449-4.89.007-.025-2.544-27.637-31.545 8.637-1.646-1.14 3.757-8.714.014-.02a24.847 24.847 0 012.551-4.682c7.89-11.386 23.69-14.142 35.23-6.146a25.617 25.617 0 015.224 4.807l-1.146 1.655z" fill="#FF5A35"/><path fill-rule="evenodd" clip-rule="evenodd" d="M172.435 71.123a21.396 21.396 0 016.682 19.476l-.008.01h.001c-.725 4.183-2.75 8.195-6.092 11.416l-.007.011 1.646 1.14-7.431 7.141-1.646-1.14-1.055-4.306.008-.011-4.979-20.288-25.137 2.993-1.646-1.14 4.077-9.465 1.635 1.133c4.901-11.343 18.359-15.814 29.14-10.305l4.812 3.335z" fill="#FF7A3C"/><path fill-rule="evenodd" clip-rule="evenodd" d="M171.143 98.496a19.332 19.332 0 00-3.886-14.853l-9.55-6.618c-9.09-2.877-19.321 1.32-23.301 10.533l-1.635-1.133-2.378 5.501c-1.033 2.403-.209 5.24 1.968 6.748 3.416 2.368 7.589 2.263 9.319-.234l6.402-9.238c2.108-3.042 6.317-3.776 9.399-1.64 3.083 2.136 3.873 6.335 1.766 9.376l-6.402 9.239c-1.724 2.486-.353 6.448 3.053 8.808 2.176 1.508 5.122 1.284 7.009-.527l4.316-4.159-1.635-1.133c3.112-3 4.948-6.762 5.561-10.672l-.006.002z" fill="#FF9A42"/><path d="M158.704 86.2l17.981-25.947" stroke="#fff" stroke-linecap="round" stroke-linejoin="round"/></g><g clip-path="url(#clip1)"><path fill-rule="evenodd" clip-rule="evenodd" d="M101.53 161.826l.747-1.87c8.742 6.738 12.388 18.616 8.143 29.239a24.85 24.85 0 01-2.496 4.711l-.009.023-5.193 7.942-1.859-.743-1.534-4.665.002-.026-8.669-26.366-28.81 15.483-1.859-.743 1.71-9.333.01-.023a24.813 24.813 0 011.437-5.135c5.14-12.863 19.921-19.088 32.959-13.879a25.622 25.622 0 016.168 3.515l-.747 1.87z" fill="#FF5A35"/><path fill-rule="evenodd" clip-rule="evenodd" d="M93.369 171.153a21.394 21.394 0 0110.874 17.486.037.037 0 00-.005.011c.231 4.239-.844 8.603-3.38 12.49l-.005.012 1.859.743-5.642 8.623-1.86-.742-1.992-3.961.005-.011-9.396-18.659-23.828 8.547-1.86-.743 1.854-10.137 1.848.738c2.236-12.153 14.35-19.524 26.092-16.569l5.436 2.172z" fill="#FF7A3C"/><path fill-rule="evenodd" clip-rule="evenodd" d="M98.24 198.12a19.337 19.337 0 00-7.113-13.605l-10.79-4.311c-9.504-.768-18.535 5.613-20.35 15.483l-1.848-.738-1.086 5.894c-.468 2.573.97 5.154 3.43 6.136 3.859 1.542 7.903.506 9.03-2.315l4.17-10.438c1.373-3.436 5.31-5.094 8.794-3.702 3.483 1.391 5.193 5.306 3.82 8.742l-4.17 10.438c-1.123 2.809 1.1 6.363 4.948 7.901 2.459.982 5.28.103 6.713-2.084l3.275-5.019-1.848-.738a18.798 18.798 0 003.03-11.647l-.005.003z" fill="#FF9A42"/><path d="M83.363 188.922l11.713-29.314" stroke="#fff" stroke-linecap="round" stroke-linejoin="round"/></g><g clip-path="url(#clip2)"><path fill-rule="evenodd" clip-rule="evenodd" d="M191.367 230.13l1.928.578c-5.937 9.305-17.445 13.988-28.402 10.701a24.878 24.878 0 01-4.914-2.069l-.024-.008-8.371-4.469.576-1.917 4.511-1.941h.026l25.494-10.97-17.973-27.325.575-1.918 9.448.877.024.007c1.774.135 3.529.463 5.242.977 13.268 3.981 20.777 18.153 16.743 31.6a25.568 25.568 0 01-2.955 6.455l-1.928-.578z" fill="#FF5A35"/><path fill-rule="evenodd" clip-rule="evenodd" d="M181.354 222.826a21.397 21.397 0 01-16.454 12.381l-.012-.005v.001c-4.202.605-8.644-.079-12.74-2.261l-.012-.004-.576 1.918-9.089-4.857.575-1.917 3.768-2.336.012.004 17.753-11.012-10.623-22.977.575-1.918 10.262.949-.572 1.905c12.303 1.151 20.718 12.566 18.815 24.522l-1.682 5.607z" fill="#FF7A3C"/><path fill-rule="evenodd" clip-rule="evenodd" d="M154.923 230.067a19.334 19.334 0 0012.922-8.29l3.339-11.129c-.076-9.535-7.232-17.965-17.225-18.899l.572-1.906-5.967-.56c-2.604-.239-5.048 1.423-5.809 3.959-1.194 3.981.197 7.917 3.107 8.79l10.765 3.23c3.545 1.063 5.545 4.838 4.467 8.431-1.077 3.592-4.825 5.643-8.37 4.579l-10.765-3.229c-2.898-.87-6.242 1.659-7.432 5.628-.761 2.536.364 5.268 2.67 6.503l5.289 2.817.572-1.906a18.796 18.796 0 0011.87 1.987l-.005-.005z" fill="#FF9A42"/><path d="M162.768 214.434l30.236 9.071" stroke="#fff" stroke-linecap="round" stroke-linejoin="round"/></g><g clip-path="url(#clip3)"><path fill-rule="evenodd" clip-rule="evenodd" d="M254.178 160.201l1.455.436a19.309 19.309 0 002.23-4.871c3.044-10.147-2.622-20.84-12.634-23.844a18.684 18.684 0 00-3.955-.737l-.018-.006-7.129-.661-.435 1.447 13.562 20.619-19.236 8.277h-.02l-3.404 1.465-.434 1.446 6.316 3.373.018.005a18.767 18.767 0 003.708 1.562c8.268 2.48 16.951-1.054 21.431-8.075l-1.455-.436z" fill="#FF5A35"/><path fill-rule="evenodd" clip-rule="evenodd" d="M246.623 154.69a16.147 16.147 0 01-12.416 9.342l-.009-.004v.001c-3.171.456-6.522-.06-9.613-1.706l-.009-.003-.434 1.447-6.859-3.665.434-1.447 2.843-1.762.009.003 13.396-8.309-8.016-17.338.434-1.447 7.743.716-.431 1.438c9.284.868 15.633 9.481 14.197 18.503l-1.269 4.231z" fill="#FF7A3C"/><path fill-rule="evenodd" clip-rule="evenodd" d="M226.679 160.153a14.59 14.59 0 009.751-6.255l2.519-8.398c-.058-7.194-5.457-13.556-12.997-14.26l.431-1.438-4.502-.423c-1.965-.18-3.809 1.074-4.383 2.988-.901 3.004.148 5.974 2.344 6.632l8.123 2.437c2.675.803 4.184 3.651 3.371 6.362-.813 2.711-3.641 4.258-6.316 3.455l-8.123-2.437c-2.187-.656-4.71 1.253-5.608 4.247-.574 1.914.275 3.976 2.014 4.907l3.992 2.126.431-1.438a14.186 14.186 0 008.956 1.499l-.003-.004z" fill="#FF9A42"/><path d="M232.599 148.357l22.815 6.845" stroke="#fff" stroke-linecap="round" stroke-linejoin="round"/></g><defs><clipPath id="clip0"><path fill="#fff" transform="rotate(34.721 12.624 265.325)" d="M0 0h61v60H0z"/></clipPath><clipPath id="clip1"><path fill="#fff" transform="rotate(21.78 -343.296 248.862)" d="M0 0h61v60H0z"/></clipPath><clipPath id="clip2"><path fill="#fff" transform="rotate(106.699 29.923 173.807)" d="M0 0h61v60H0z"/></clipPath><clipPath id="clip3"><path fill="#fff" transform="rotate(106.699 82.472 165.265)" d="M0 0h46.028v45.274H0z"/></clipPath></defs></svg>