<svg width="301" height="300" viewBox="0 0 301 300" fill="none" xmlns="http://www.w3.org/2000/svg"><g clip-path="url(#clip0)"><path d="M161.336 50.443l-4.591 32.138 32.138-4.591-27.547-27.547z" fill="#FF9D73"/><path d="M188.883 77.99a13.057 13.057 0 00-11.04-3.67l-6.418.921a6.43 6.43 0 01-5.527-1.842 6.46 6.46 0 01-1.843-5.527l.921-6.419a12.973 12.973 0 00-3.64-11.01l-16.462-16.462a1.632 1.632 0 00-2.288 0l-3.18 3.18c-17.25 17.25-17.532 45.762-.282 63.012 17.294 17.324 45.465 17.324 62.775.015l3.447-3.447a1.62 1.62 0 000-2.288L188.883 77.99z" fill="#FF533E"/><path d="M192.716 91.005l-48.986 4.591c14.798 14.799 38.779 14.799 53.578 0l-4.592-4.59z" fill="#FF2E23"/><path d="M192.716 91.006l-8.424-8.425a6.476 6.476 0 00-5.512-1.827l-6.419.92c-3.908.55-8.023-.653-11.04-3.669-3.016-3.016-4.219-7.132-3.655-11.054l.922-6.419a6.476 6.476 0 00-1.828-5.512l-13.015-13.016c-14.799 14.799-14.799 38.78 0 53.578 12.242 12.273 34.173 10.222 48.971-4.576z" fill="#FF2E23"/><path d="M153.536 82.552c-1.783 0-3.239 1.456-3.254 3.254 0 1.783 1.456 3.239 3.254 3.254 1.783 0 3.239-1.457 3.254-3.254v-3.24l-3.254-.014zm14.709 7.993a3.26 3.26 0 000 4.606 3.26 3.26 0 004.606 0 3.246 3.246 0 000-4.606l-2.303-2.303-2.303 2.303zm-19.479-19.479a3.259 3.259 0 01-4.605 0 3.246 3.246 0 010-4.606 3.245 3.245 0 014.605 0l2.303 2.303-2.303 2.303z" fill="#FFE9B0"/></g><g clip-path="url(#clip1)"><path d="M118.353 195.095l-30.491 11.146 19.238 26.15 11.253-37.296z" fill="#FF9D73"/><path d="M107.099 232.392a13.055 13.055 0 00-1.984-11.463l-3.846-5.221a6.43 6.43 0 01-.989-5.742 6.458 6.458 0 014-4.236l6.091-2.222a12.98 12.98 0 007.982-8.413l6.725-22.289a1.632 1.632 0 00-1.082-2.016l-4.305-1.299c-23.355-7.047-48.614 6.183-55.661 29.538-7.092 23.43 6.225 48.254 29.66 55.325l4.668 1.408a1.618 1.618 0 002.016-1.081l6.725-22.289z" fill="#FF533E"/><path d="M97.442 241.922L70.24 200.924c-6.045 20.036 5.29 41.169 25.327 47.214l1.875-6.216z" fill="#FF2E23"/><path d="M97.442 241.922l3.441-11.406a6.475 6.475 0 00-.995-5.721l-3.846-5.221c-2.331-3.184-3.216-7.379-1.984-11.463 1.232-4.084 4.29-7.09 8.013-8.446l6.092-2.223a6.474 6.474 0 003.994-4.216l5.317-17.622c-20.037-6.045-41.169 5.291-47.214 25.327-5.028 16.59 7.146 34.946 27.182 40.991z" fill="#FF2E23"/><path d="M86.37 203.399c-.842-1.571-2.813-2.166-4.405-1.329-1.57.843-2.166 2.814-1.329 4.406.843 1.571 2.814 2.166 4.406 1.329l2.854-1.531-1.525-2.875zm-.09 16.741a3.26 3.26 0 00-4.059 2.177 3.26 3.26 0 002.178 4.059 3.246 3.246 0 004.058-2.177l.941-3.118-3.118-.941zm7.958-26.373a3.26 3.26 0 01-2.178-4.059 3.246 3.246 0 014.06-2.177 3.246 3.246 0 012.176 4.059l-.94 3.118-3.118-.941z" fill="#FFE9B0"/></g><g clip-path="url(#clip2)"><path d="M201.119 190.455l-7.317-31.629-28.315 15.88 35.632 15.749z" fill="#FF9D73"/><path d="M165.487 174.706a13.058 13.058 0 0011.62-.561l5.654-3.176a6.43 6.43 0 015.819-.276 6.457 6.457 0 013.713 4.49l1.457 6.318a12.978 12.978 0 007.369 8.954l21.294 9.412a1.633 1.633 0 002.134-.826l1.818-4.113c9.862-22.313-.165-49.005-22.478-58.868-22.381-9.915-48.653.252-58.549 22.642l-1.971 4.459a1.617 1.617 0 00.826 2.133l21.294 9.412z" fill="#FF533E"/><path d="M157.215 163.952l44.028-21.961c-19.142-8.46-41.506.194-49.967 19.336l5.939 2.625z" fill="#FF2E23"/><path d="M157.215 163.951l10.897 4.816a6.474 6.474 0 005.8-.285l5.654-3.175c3.446-1.923 7.718-2.286 11.62-.562 3.901 1.725 6.509 5.129 7.398 8.991l1.457 6.318a6.476 6.476 0 003.694 4.481l16.836 7.442c8.46-19.142-.194-41.507-19.336-49.967-15.847-7.028-35.56 2.799-44.02 21.941z" fill="#FF2E23"/><path d="M196.806 157.695c1.663-.643 2.495-2.527 1.86-4.209-.643-1.662-2.527-2.495-4.209-1.86-1.663.644-2.495 2.527-1.86 4.209l1.169 3.021 3.04-1.161zm-16.603-2.146a3.259 3.259 0 00-1.662-4.295 3.26 3.26 0 00-4.296 1.662 3.248 3.248 0 001.662 4.296l2.979 1.316 1.317-2.979zm25.196 11.137a3.26 3.26 0 014.295-1.663 3.248 3.248 0 011.663 4.296 3.246 3.246 0 01-4.296 1.662l-2.979-1.316 1.317-2.979z" fill="#FFE9B0"/></g><g clip-path="url(#clip3)"><path d="M122.449 142.7l-3.941-17.038-15.253 8.554 19.194 8.484z" fill="#FF9D73"/><path d="M103.255 134.216a7.033 7.033 0 006.26-.302l3.045-1.711a3.464 3.464 0 013.135-.149 3.484 3.484 0 012 2.419l.785 3.403a6.989 6.989 0 003.969 4.823l11.47 5.07a.88.88 0 001.15-.445l.979-2.215c5.312-12.019-.089-26.398-12.108-31.71-12.056-5.341-26.208.136-31.538 12.196l-1.062 2.402a.871.871 0 00.445 1.149l11.47 5.07z" fill="#FF533E"/><path d="M98.8 128.423l23.716-11.83c-10.311-4.557-22.358.105-26.915 10.416l3.198 1.414z" fill="#FF2E23"/><path d="M98.8 128.423l5.869 2.594a3.49 3.49 0 003.125-.153l3.045-1.711a6.997 6.997 0 016.259-.302 6.971 6.971 0 013.985 4.842l.785 3.404a3.49 3.49 0 001.99 2.414l9.069 4.008c4.557-10.311-.105-22.358-10.416-26.915-8.536-3.786-19.154 1.508-23.712 11.819z" fill="#FF2E23"/><path d="M120.126 125.053a1.763 1.763 0 001.002-2.267 1.762 1.762 0 00-2.267-1.002 1.762 1.762 0 00-1.003 2.267l.63 1.627 1.638-.625zm-8.944-1.156a1.756 1.756 0 00-.895-2.314 1.758 1.758 0 00-2.314.896 1.75 1.75 0 00.896 2.314l1.604.709.709-1.605zm13.572 5.999a1.757 1.757 0 012.314-.896 1.75 1.75 0 01.896 2.314 1.75 1.75 0 01-2.314.896l-1.605-.71.709-1.604z" fill="#FFE9B0"/></g><g clip-path="url(#clip4)"><path d="M158.017 243.682l17.487-.112-5.004-16.756-12.483 16.868z" fill="#FF9D73"/><path d="M170.501 226.814a7.03 7.03 0 00-1.077 6.173l1.001 3.346a3.465 3.465 0 01-.541 3.092 3.481 3.481 0 01-2.798 1.421l-3.493.02a6.991 6.991 0 00-5.576 2.815l-7.46 10.081a.88.88 0 00.182 1.219l1.947 1.441c10.562 7.817 25.775 5.699 33.592-4.864 7.854-10.592 5.612-25.6-4.987-33.445l-2.111-1.562a.873.873 0 00-1.219.182l-7.46 10.081z" fill="#FF533E"/><path d="M177.129 223.736l6.344 25.732c6.707-9.061 4.799-21.837-4.263-28.543l-2.081 2.811z" fill="#FF2E23"/><path d="M177.13 223.736l-3.818 5.158a3.491 3.491 0 00-.535 3.083l1.001 3.346a7 7 0 01-1.076 6.173 6.977 6.977 0 01-5.599 2.827l-3.493.02a3.49 3.49 0 00-2.791 1.412l-5.898 7.97c9.061 6.706 21.837 4.798 28.543-4.263 5.565-7.499 2.727-19.02-6.334-25.726z" fill="#FF2E23"/><path d="M175.743 245.282a1.763 1.763 0 001.993 1.475 1.763 1.763 0 001.475-1.993 1.762 1.762 0 00-1.993-1.474l-1.726.257.251 1.735zm3.088-8.472a1.756 1.756 0 002.088-2.821 1.75 1.75 0 00-2.454.367l-1.044 1.41 1.41 1.044zm-8.827 11.927a1.755 1.755 0 11-2.454.366l1.044-1.41 1.41 1.044z" fill="#FFE9B0"/></g><defs><clipPath id="clip0"><path fill="#fff" transform="translate(121.874 30.612)" d="M0 0h86v86H0z"/></clipPath><clipPath id="clip1"><path fill="#fff" transform="rotate(61.79 -67.545 173.385)" d="M0 0h86v86H0z"/></clipPath><clipPath id="clip2"><path fill="#fff" transform="rotate(158.845 104.36 120.237)" d="M0 0h86v86H0z"/></clipPath><clipPath id="clip3"><path fill="#fff" transform="rotate(158.845 59.526 86.139)" d="M0 0h46.325v46.325H0z"/></clipPath><clipPath id="clip4"><path fill="#fff" transform="rotate(-98.495 190.028 68.257)" d="M0 0h46.325v46.325H0z"/></clipPath></defs></svg>