<svg width="100" height="100" viewBox="0 0 100 100" fill="none" xmlns="http://www.w3.org/2000/svg"><path d="M31.2 94c-.686 0-1.35-.27-1.844-.763l-5.779-5.78-.836-2.921-2.995-.91-3.709-3.708-.986-3.072-2.836-.75-5.451-5.452a2.607 2.607 0 01-.525-2.933c2.149-4.67 5.125-5.597 7.75-6.414 1.814-.565 3.379-1.052 5.151-2.824 2.167-2.167 2.779-3.588 3.486-5.233.804-1.867 1.714-3.984 4.589-6.858 2.874-2.874 4.99-3.785 6.858-4.589 1.645-.707 3.066-1.319 5.233-3.486 2.167-2.167 2.778-3.587 3.486-5.232.803-1.868 1.714-3.985 4.588-6.859 2.875-2.874 4.991-3.785 6.86-4.588 1.644-.708 3.065-1.32 5.232-3.487 1.772-1.772 2.26-3.338 2.824-5.15.818-2.626 1.744-5.603 6.415-7.752a2.606 2.606 0 012.933.525l5.51 5.51.52 2.952 3.313.88 3.698 3.699.287 2.72 3.546 1.113 5.719 5.718a2.606 2.606 0 01-.754 4.21c-2.562 1.18-2.915 2.312-3.617 4.567-.639 2.052-1.434 4.606-4.115 7.287-2.875 2.874-4.992 3.785-6.86 4.589-1.644.707-3.065 1.319-5.232 3.486-2.167 2.167-2.778 3.588-3.486 5.233-.803 1.867-1.714 3.984-4.588 6.858-2.875 2.874-4.991 3.785-6.859 4.589-1.645.707-3.065 1.318-5.232 3.485-2.167 2.168-2.779 3.588-3.486 5.233-.804 1.868-1.715 3.984-4.589 6.858-2.68 2.682-5.235 3.477-7.287 4.116-2.254.701-3.386 1.054-4.565 3.616A2.607 2.607 0 0131.2 94z" fill="#FC5866"/><path d="M84.685 18.805c-3.77 2.234-4.713 4.978-5.554 7.425-.64 1.86-1.243 3.618-3.21 5.585-2.38 2.38-3.904 3.08-5.669 3.89-1.94.89-4.138 1.9-7.178 4.94-3.04 3.04-4.05 5.24-4.94 7.179-.811 1.765-1.51 3.289-3.89 5.667-2.379 2.38-3.902 3.08-5.667 3.89-1.94.89-4.138 1.9-7.178 4.94-3.04 3.04-4.05 5.238-4.94 7.178-.811 1.765-1.51 3.289-3.89 5.668-1.967 1.966-3.724 2.57-5.585 3.21-2.38.817-5.04 1.733-7.24 5.25l3.832 3.83c.007-.012.015-.025.021-.038 1.388-2.843 2.7-3.294 5.081-4.112 2.12-.728 4.758-1.635 7.577-4.454 3.04-3.04 4.05-5.239 4.941-7.178.81-1.765 1.51-3.29 3.889-5.668 2.379-2.379 3.903-3.079 5.667-3.889 1.94-.89 4.139-1.9 7.179-4.94 3.04-3.04 4.05-5.239 4.94-7.179.81-1.764 1.51-3.288 3.89-5.667 2.378-2.38 3.902-3.079 5.667-3.89 1.94-.89 4.138-1.9 7.179-4.94 2.82-2.82 3.726-5.458 4.454-7.578.819-2.381 1.27-3.693 4.113-5.081a2.6 2.6 0 00.343-.206l-3.832-3.832z" fill="#FFE7CC"/><path d="M80.986 15.107l-3.832-3.833c-3.77 2.235-4.713 4.978-5.554 7.425-.64 1.86-1.243 3.618-3.21 5.586-2.38 2.378-3.904 3.079-5.669 3.889-1.94.89-4.138 1.9-7.178 4.94-3.04 3.04-4.05 5.24-4.94 7.18-.81 1.764-1.51 3.288-3.89 5.667-2.378 2.378-3.902 3.078-5.667 3.889-1.94.89-4.138 1.9-7.178 4.94-3.04 3.04-4.05 5.239-4.94 7.178-.811 1.765-1.51 3.289-3.89 5.668-1.967 1.967-3.724 2.57-5.585 3.21-2.38.817-5.04 1.734-7.239 5.25l3.832 3.831c.006-.013.014-.025.02-.039 1.388-2.843 2.7-3.293 5.081-4.112 2.12-.728 4.758-1.634 7.578-4.454 3.04-3.04 4.05-5.238 4.94-7.178.81-1.765 1.51-3.289 3.89-5.668 2.378-2.378 3.902-3.078 5.667-3.889 1.94-.89 4.138-1.9 7.178-4.94 3.04-3.04 4.05-5.238 4.94-7.178.81-1.765 1.51-3.289 3.89-5.668 2.378-2.379 3.903-3.079 5.667-3.89 1.94-.89 4.139-1.9 7.179-4.94 2.82-2.82 3.726-5.458 4.454-7.577.819-2.382 1.27-3.694 4.113-5.082.122-.06.235-.13.343-.205z" fill="#FFFAF4"/></svg>