<svg width="100" height="100" viewBox="0 0 100 100" fill="none" xmlns="http://www.w3.org/2000/svg"><g clip-path="url(#clip0)"><path d="M31.17 25.173a1.389 1.389 0 01-1.476.396 1.388 1.388 0 01-1.011-1.708c.162-.28 2.29-8.29-3.757-11.655-.655-.378-.946-1.17-.514-1.92a1.43 1.43 0 011.92-.514c6.42 3.582 6.198 11.318 5.163 14.84a.69.69 0 01-.324.561z" fill="#41B619"/><path d="M56.685 64.868c-8.214-4.367-13.17-14.593-13.843-25.966-.366-5.205.248-10.592-8.815-13.703-12.345-4.131-17.105 4.979-17.46 9.268-1.564 17.196 7.034 34.518 23.273 43.145 19.381 10.348 39.744 6.572 52.472-10.29.542-.719-.106-1.687-.985-1.491-14.483 3.234-21.535 6.085-34.642-.963z" fill="#ED1C24"/><path d="M45.322 78.28c-17.083-9.113-26.16-27.336-24.537-45.497.239-2.359 1.717-6 4.811-8.332-6.173 1.18-8.84 6.88-9.176 10.056-1.565 17.196 7.033 34.518 23.273 43.145 6.287 3.38 12.808 5.272 18.934 5.689a61.626 61.626 0 01-13.305-5.061z" fill="#A7080E"/></g><defs><clipPath id="clip0"><path fill="#fff" d="M0 0h100v100H0z"/></clipPath></defs></svg>