<svg width="100" height="100" viewBox="0 0 100 100" fill="none" xmlns="http://www.w3.org/2000/svg"><g clip-path="url(#clip0)"><path d="M99.076 49.983c0 27.05-19.066 53.623-48.976 48.976-26.693-4.17-48.976-21.926-48.976-48.976S23.764 7.083 50.1 1.006c29.79-6.792 48.976 22.046 48.976 48.977z" fill="#ED9898"/><path d="M25.91 32.704a6.554 6.554 0 100-13.108 6.554 6.554 0 000 13.108zm29.195-16.206a4.272 4.272 0 01-4.29 4.29 4.272 4.272 0 01-4.29-4.29 4.272 4.272 0 014.29-4.29 4.272 4.272 0 014.29 4.29zM80.248 33.18c0 4.052-3.336 7.389-7.388 7.389-4.051 0-7.388-3.337-7.388-7.389 0-4.051 3.337-7.388 7.388-7.388 4.052-.119 7.388 3.218 7.388 7.389zM47.36 41.165a3.932 3.932 0 100-7.865 3.932 3.932 0 000 7.865zM29.842 54.868a7.984 7.984 0 11-15.969 0 7.984 7.984 0 0115.97 0zm28.361 6.554a5.594 5.594 0 01-5.6 5.601 5.594 5.594 0 01-5.601-5.6 5.594 5.594 0 015.6-5.601c3.099-.12 5.601 2.502 5.601 5.6zm27.647-2.383c0 3.217-2.622 5.958-5.96 5.958-3.336 0-5.957-2.621-5.957-5.958 0-3.217 2.621-5.958 5.958-5.958s5.958 2.74 5.958 5.958zM69.404 79.654a3.713 3.713 0 01-3.694 3.695 3.713 3.713 0 01-3.694-3.695 3.713 3.713 0 013.694-3.694c2.026-.119 3.695 1.55 3.695 3.694zm-27.05 1.43c0 2.741-2.145 4.886-4.885 4.886-2.741 0-4.886-2.145-4.886-4.886 0-2.74 2.145-4.885 4.886-4.885 2.74 0 4.885 2.264 4.885 4.885z" fill="#FFC2C2"/></g><defs><clipPath id="clip0"><path fill="#fff" d="M0 0h100v100H0z"/></clipPath></defs></svg>