<svg width="100" height="100" viewBox="0 0 100 100" fill="none" xmlns="http://www.w3.org/2000/svg"><path d="M50.2 79.954c17.864 0 32.346-13.427 32.346-29.99S68.064 19.974 50.2 19.974c-17.864 0-32.346 13.427-32.346 29.99s14.482 29.99 32.346 29.99z" fill="#F9D7DD"/><path d="M50.2 81.1c-18.656 0-33.874-14.135-33.874-31.518C16.326 32.135 31.544 18 50.2 18c18.656 0 33.874 14.135 33.874 31.582C84.074 66.965 68.92 81.1 50.2 81.1zm0-59.98c-16.937 0-30.754 12.735-30.754 28.398 0 15.664 13.817 28.398 30.754 28.398s30.754-12.734 30.754-28.398c0-15.663-13.753-28.398-30.754-28.398z" fill="#891652"/><path d="M50.2 74.987c14.875 0 26.934-11.032 26.934-24.64 0-13.61-12.059-24.642-26.934-24.642-14.875 0-26.934 11.032-26.934 24.641 0 13.61 12.059 24.642 26.934 24.642z" fill="#F9D7DD"/><path d="M50.2 75.242c-15.154 0-27.507-11.334-27.507-25.278 0-13.944 12.353-25.278 27.507-25.278 15.154 0 27.507 11.334 27.507 25.278 0 13.944-12.29 25.278-27.507 25.278zm0-49.346c-14.518 0-26.297 10.76-26.297 24.068 0 13.244 11.78 24.068 26.297 24.068 14.517-.063 26.297-10.824 26.297-24.068 0-13.244-11.78-24.068-26.297-24.068z" fill="#891652"/><path d="M49.436 70.785c12.73 0 23.05-8.923 23.05-19.93 0-11.006-10.32-19.93-23.05-19.93s-23.05 8.924-23.05 19.93c0 11.007 10.32 19.93 23.05 19.93z" fill="#F9D7DD"/><path d="M49.436 70.976c-13.053 0-23.686-9.233-23.686-20.503 0-11.334 10.633-20.502 23.686-20.502s23.686 9.232 23.686 20.502c-.063 11.27-10.633 20.503-23.686 20.503zm0-39.796c-12.353 0-22.413 8.66-22.413 19.293 0 10.634 10.06 19.293 22.413 19.293 12.352 0 22.413-8.66 22.413-19.293S61.789 31.18 49.436 31.18z" fill="#891652"/><path d="M49.436 67.983c10.128 0 18.338-7.098 18.338-15.854s-8.21-15.855-18.338-15.855-18.338 7.099-18.338 15.855 8.21 15.854 18.338 15.854z" fill="#F9D7DD"/><path d="M49.436 68.174c-10.443 0-18.975-7.386-18.975-16.491s8.532-16.491 18.975-16.491c10.442 0 18.974 7.386 18.974 16.491s-8.532 16.491-18.974 16.491zm0-31.645c-9.742 0-17.701 6.813-17.701 15.218 0 8.404 7.959 15.218 17.7 15.218 9.743 0 17.702-6.814 17.702-15.218 0-8.405-7.96-15.218-17.701-15.218z" fill="#891652"/><path d="M50.391 64.163c7.35 0 13.308-5.131 13.308-11.461S57.74 41.24 50.39 41.24 37.083 46.372 37.083 52.7c0 6.33 5.958 11.462 13.308 11.462z" fill="#F9D7DD"/><path d="M50.391 64.672c-7.577 0-13.753-5.348-13.753-11.97 0-6.622 6.176-11.97 13.753-11.97s13.753 5.348 13.753 11.97c0 6.558-6.176 11.97-13.753 11.97zm0-22.986c-7.068 0-12.862 4.967-12.862 11.016s5.73 11.015 12.862 11.015c7.068 0 12.862-4.966 12.862-11.015 0-6.05-5.794-11.016-12.862-11.016z" fill="#891652"/><path d="M50.9 62.507c5.17 0 9.36-3.62 9.36-8.086s-4.19-8.087-9.36-8.087c-5.169 0-9.36 3.62-9.36 8.087 0 4.466 4.191 8.086 9.36 8.086z" fill="#F9D7DD"/><path d="M50.9 62.953c-5.412 0-9.805-3.82-9.805-8.532s4.393-8.532 9.805-8.532c5.413 0 9.806 3.82 9.806 8.532s-4.393 8.532-9.806 8.532zm0-16.173c-4.902 0-8.914 3.439-8.914 7.641 0 4.203 4.012 7.64 8.914 7.64 4.903 0 8.915-3.438 8.915-7.64s-4.012-7.64-8.915-7.64z" fill="#891652"/></svg>