<svg width="100" height="100" viewBox="0 0 100 100" fill="none" xmlns="http://www.w3.org/2000/svg"><g clip-path="url(#clip0)"><path d="M50.1 90.767c22.46 0 40.667-18.207 40.667-40.667S72.56 9.432 50.1 9.432 9.433 27.64 9.433 50.1 27.64 90.767 50.1 90.767z" fill="#9B0A33"/><path d="M64.495 85.787C84.21 77.841 93.753 55.417 85.807 35.7 77.861 15.983 55.436 6.442 35.719 14.388c-19.716 7.946-29.258 30.37-21.312 50.087 7.946 19.717 30.371 29.259 50.088 21.313z" fill="#AF0931"/><path d="M30.014 35.654a5.442 5.442 0 100-10.885 5.442 5.442 0 000 10.885zm24.242-13.457a3.547 3.547 0 01-3.562 3.562 3.547 3.547 0 01-3.562-3.562 3.547 3.547 0 013.562-3.562 3.547 3.547 0 013.562 3.562zM75.134 36.05c0 3.364-2.77 6.134-6.135 6.134-3.364 0-6.135-2.77-6.135-6.134 0-3.365 2.77-6.135 6.135-6.135 3.364 0 6.135 2.671 6.135 6.135zm-27.31 6.728a3.265 3.265 0 100-6.53 3.265 3.265 0 000 6.53zM33.279 54.157a6.63 6.63 0 11-6.63-6.63c3.662 0 6.63 2.87 6.63 6.63zM56.828 59.5a4.645 4.645 0 01-4.65 4.65 4.645 4.645 0 01-4.65-4.65 4.645 4.645 0 014.65-4.65 4.645 4.645 0 014.65 4.65zm22.956-1.88c0 2.672-2.177 4.947-4.947 4.947s-4.948-2.176-4.948-4.947c0-2.672 2.177-4.947 4.948-4.947 2.77 0 4.947 2.176 4.947 4.947zM66.13 74.639a3.083 3.083 0 01-3.068 3.067 3.083 3.083 0 01-3.067-3.067 3.083 3.083 0 013.067-3.068 3.083 3.083 0 013.067 3.068zm-22.461 1.286c0 2.276-1.782 4.057-4.057 4.057-2.276 0-4.057-1.781-4.057-4.057 0-2.276 1.78-4.057 4.057-4.057 2.275 0 4.056 1.781 4.056 4.057z" fill="#FFC2C2"/></g><defs><clipPath id="clip0"><path fill="#fff" d="M0 0h100v100H0z"/></clipPath></defs></svg>