<svg width="32" height="32" viewBox="0 0 32 32" fill="none" xmlns="http://www.w3.org/2000/svg"><path d="M28.808 6.916H6.134l-.337-3.814A1.198 1.198 0 004.611 2H2.19A1.2 1.2 0 001 3.21a1.2 1.2 0 001.191 1.21h1.33l1.37 15.502c.098 1.117.692 2.33 1.716 3.153C4.761 25.47 6.447 29 9.45 29c2.492 0 4.25-2.525 3.396-4.916h6.518c-.854 2.388.9 4.916 3.395 4.916 1.991 0 3.61-1.645 3.61-3.668 0-2.022-1.619-3.668-3.61-3.668H9.46a2.211 2.211 0 01-2.034-1.362l19.033-1.136c.52-.031.96-.402 1.086-.915l2.42-9.832c.188-.762-.38-1.503-1.155-1.503zM9.45 26.58a1.24 1.24 0 01-1.228-1.248 1.24 1.24 0 011.228-1.248c.678 0 1.23.56 1.23 1.248a1.24 1.24 0 01-1.23 1.248zm13.309 0a1.24 1.24 0 01-1.229-1.248 1.24 1.24 0 011.229-1.248c.678 0 1.229.56 1.229 1.248a1.24 1.24 0 01-1.229 1.248zm2.686-9.778l-18.34 1.095-.757-8.562h20.935l-1.838 7.467z" fill="#fff"/></svg>