<svg width="39" height="60" viewBox="0 0 39 60" fill="none" xmlns="http://www.w3.org/2000/svg"><path fill="#fff" d="M0 0h39v60H0z"/><path d="M10.415 39.732c.768 2.33.768 4.839 0 7.17a11.341 11.341 0 00-.57 3.585v2.12c0 1.73 1.393 3.14 3.104 3.14a3.09 3.09 0 002.195-.92l.845-.855.516.521a4.198 4.198 0 005.99 0l.516-.522.845.855a3.088 3.088 0 004.39 0 3.16 3.16 0 00.91-2.22v-2.12c0-1.22-.198-2.43-.57-3.584a11.442 11.442 0 010-7.17c.372-1.132.559-2.32.57-3.518v-12.43a8.61 8.61 0 00-2.48-6.06l-1.174-1.188a8.603 8.603 0 01-2.48-6.06V8.69H16v1.776a8.603 8.603 0 01-2.48 6.06l-1.174 1.188a8.609 8.609 0 00-2.48 6.06v12.43c0 .588.055 1.176.143 1.753.077.61.22 1.199.406 1.776z" fill="#EBEBE9"/><path d="M10.415 39.732c.768 2.33.768 4.839 0 7.17a11.34 11.34 0 00-.57 3.584v2.12c0 1.732 1.393 3.141 3.104 3.141.823 0 1.613-.333 2.195-.921l.845-.855.516.522a4.198 4.198 0 005.99 0l.516-.522.845.855a3.087 3.087 0 004.39 0 3.16 3.16 0 00.91-2.22v-2.12c0-1.22-.198-2.43-.57-3.584a11.442 11.442 0 010-7.17c.372-1.132.559-2.32.57-3.518v-12.43a8.61 8.61 0 00-2.48-6.06l-1.174-1.188a8.555 8.555 0 01-1.723-2.508h-8.558a8.353 8.353 0 01-1.723 2.508l-1.174 1.188a8.604 8.604 0 00-2.48 6.07v12.43c0 .59.055 1.177.143 1.755.099.588.241 1.176.428 1.753z" fill="#38241D"/><path d="M10.415 39.732c.768 2.33.768 4.839 0 7.17a11.34 11.34 0 00-.57 3.584v2.12c0 1.732 1.393 3.141 3.104 3.141a3.09 3.09 0 002.195-.921l.845-.855.516.522a4.198 4.198 0 005.99 0l.516-.522.845.855a3.087 3.087 0 004.39 0 3.16 3.16 0 00.91-2.22v-2.12c0-1.22-.198-2.43-.57-3.584a11.495 11.495 0 01-.473-5.106C21.18 37.69 14.86 31.563 9.91 22.784a7.62 7.62 0 00-.055 1v12.43c0 .588.055 1.176.143 1.753.088.6.23 1.188.417 1.765z" fill="#231511"/><path d="M29.156 23.783H9.844v12.43h19.312v-12.43z" fill="#F41308"/><path d="M9.844 23.783v12.43H20.52c-3.697-3.34-7.099-7.435-10.04-12.43h-.636z" fill="#D80909"/><path d="M15.945 11.353h7.11a8.023 8.023 0 01-.044-.888V8.69H15.99v1.776a8 8 0 01-.044.888z" fill="#E0E0DE"/><path d="M22.133 4.25h-5.266c-.483 0-.878.4-.878.888v3.551h7.022V5.138a.885.885 0 00-.878-.888z" fill="#F41308"/><path d="M23.889 7.802H15.11v1.775h8.778V7.802z" fill="#EBEBE9"/></svg>