<svg width="39" height="60" viewBox="0 0 39 60" fill="none" xmlns="http://www.w3.org/2000/svg"><path fill="#fff" d="M0 0h39v60H0z"/><mask id="a" maskUnits="userSpaceOnUse" x="0" y="0" width="39" height="60"><path fill="#fff" d="M0 0h39v60H0z"/></mask><g mask="url(#a)"><path d="M35.417 27.117c-.37-.231-20.772 21.465-24.616 24.207-1.41 1.006-.694 1.365-.398 1.477 0 0 9.767 4.553 18.32-2.536 11.137-9.23 10.329-20.872 6.694-23.148z" fill="#F5BB46"/><path d="M26.938 48.991c-5.616 5.66-16.245 3.939-15.948 4.049 0 0 9.23 4.263 17.782-2.824 10.29-8.528 10.535-18.813 7.623-22.172-.24-.275 4.419 6.963-9.457 20.947z" fill="#CD8111"/><path d="M31.975 44.672s1.355-.2 1.068-.549c-.287-.349-.583-.803-.583-.803s-.012.582-.485 1.352z" fill="#F5BB46"/><path d="M31.79 33.083c.476.02-.1-1.468-.394-1.132-.294.335-.472 1.56-.472 1.56l.867-.428zM14.65 49.98l1.155.71-.38-.923c0 .002-.365-.711-.775.213z" fill="#CD8111"/><path d="M21.018 53.18l.588.117.256-.86c0-.002-.385-.238-.844.742z" fill="#F5BB46"/><path d="M24.946 45.47l.92.022-.556-.357c0 .002-.47-.254-.364.334zm4.601-7.627l-.192 1.804-.747.631c.002.002.793-2.267.94-2.435zm-5.791 11.863c.343-.055.146-1.111-.118-.81-.262.302-.575 1.27-.575 1.27l.693-.46zm.516-9.139c-.368.764.29 1.139.527.754.236-.385.059-1.426.059-1.426l-.586.672zm-3.764 4.261c.343-.055.146-1.11-.118-.81-.262.302-.575 1.268-.575 1.268l.693-.458z" fill="#CD8111"/><path d="M30.549 47.072l-.872.526-.132.402.94-.35.064-.578zm-4.208 2.975c-.369.764.29 1.14.526.754.236-.385.06-1.428.06-1.428l-.586.674zm-6.835-8.643c.387-.203-8.018-28.774-8.44-33.476-.155-1.726-.827-1.29-1.073-1.09 0 0-8.867 6.125-7.074 17.087C5.25 38.201 15.704 43.39 19.506 41.404z" fill="#F5BB46"/><path d="M4.92 23.03C2.876 15.322 9.735 7.022 9.49 7.222c0 0-8.344 5.808-6.554 16.77 2.156 13.19 10.905 18.601 15.275 17.786.359-.067-8.241.292-13.291-18.75z" fill="#CD8111"/><path d="M6.1 29.558s-.513 1.271-.067 1.2c.447-.07.988-.097.988-.097s-.496-.304-.921-1.103z" fill="#F5BB46"/><path d="M16.192 35.26c-.257.4 1.318.654 1.177.231-.142-.423-1.108-1.196-1.108-1.196l-.069.964zM10.28 11.928l-1.197.638.989.138c-.002 0 .798.045.208-.776z" fill="#CD8111"/><path d="M4.3 15.804l-.4.448.614.656c.001 0 .4-.212-.214-1.104z" fill="#F5BB46"/><path d="M8.966 23.092l-.485.782.59-.3c-.002 0 .456-.277-.105-.482zm5.086 11.203l-1.46-1.078-.167-.963c-.002 0 1.555 1.83 1.627 2.041zm-8.14-14.372c-.125.324.885.688.758.308-.128-.379-.804-1.138-.804-1.138l.046.83zm7.624 5.067c-.473-.705-1.13-.326-.916.072.213.398 1.2.772 1.2.772l-.284-.845zm-1.773-5.403c-.126.323.885.688.758.307-.128-.378-.802-1.137-.802-1.137l.044.83z" fill="#CD8111"/><path d="M4.75 27.115l-.013-1.018-.28-.317-.173.987.466.348zm4.57 8.797c-.472-.704-1.13-.325-.916.073.213.398 1.201.773 1.201.773l-.285-.846z" fill="#F5BB46"/></g></svg>