<svg width="56" height="56" viewBox="0 0 56 56" fill="none" xmlns="http://www.w3.org/2000/svg"><path d="M55.324 23.294c.47 3.004 1.035 6.425.376 9.278-.828 3.61-2.58 8.901-4.669 11.811-4.066 5.65-10.41 9.77-19.203 11.169-9.017 1.417-16.19-.492-22.403-6.218C4.888 45.158 1.5 39.64.483 33.064c-.49-3.137-.697-6.539-.189-9.506 1.092-6.33 4.33-11.433 8.868-15.647C13.058 4.32 17.859 1.22 23.62.314c7.418-1.172 14.007 1.04 19.787 4.895 6.4 4.29 10.636 9.92 11.917 18.085z" fill="#E06F00"/><path d="M54.57 23.426c.452 2.929 1.017 6.255.377 9.033-.81 3.515-2.504 8.674-4.537 11.49-3.954 5.499-10.129 9.505-18.676 10.866-8.773 1.38-15.739-.473-21.782-6.048-4.443-4.081-7.719-9.448-8.735-15.836-.47-3.042-.678-6.368-.188-9.24C2.083 17.53 5.246 12.56 9.669 8.477c3.785-3.496 8.454-6.501 14.064-7.39 7.23-1.133 13.63 1.021 19.26 4.763 6.211 4.14 10.334 9.62 11.577 17.576z" fill="#F4810F"/><path d="M51.897 24.163c.414 2.608.904 5.575.32 8.05-.734 3.137-2.26 7.73-4.085 10.262-3.558 4.894-8.51 8.863-16.793 9.694-7.945.794-14.139-.397-19.56-5.367-3.973-3.628-6.91-8.41-7.814-14.116-.433-2.722-.602-5.67-.15-8.24.96-5.499 3.784-9.92 7.775-13.568 3.408-3.118 7.606-5.802 12.632-6.595 6.495-1.02 11.597.037 16.643 3.382 5.572 3.685 9.921 9.411 11.032 16.498z" fill="#E06F00"/><path d="M51.012 24.314c.396 2.513.866 5.367.32 7.748-.715 3.005-2.184 7.446-3.934 9.864-3.427 4.725-8.209 8.542-16.172 9.336-7.644.775-13.611-.397-18.826-5.16-3.822-3.495-6.665-8.087-7.512-13.586-.414-2.608-.584-5.462-.15-7.938.922-5.29 3.652-9.562 7.473-13.058 3.276-3.004 7.324-5.593 12.162-6.368 6.25-.983 11.164.038 16.021 3.25 5.366 3.572 9.545 9.09 10.618 15.912z" fill="#B51212"/><path d="M50.127 24.465c.377 2.42.829 5.16.302 7.465-.678 2.891-2.09 7.162-3.784 9.505-3.295 4.536-7.889 8.22-15.55 8.995-7.362.737-13.104-.377-18.13-4.97-3.672-3.363-6.401-7.785-7.23-13.077-.395-2.513-.565-5.253-.15-7.634.884-5.084 3.52-9.203 7.191-12.567 3.163-2.892 7.041-5.386 11.71-6.123 6.006-.945 10.75.038 15.419 3.137 5.177 3.383 9.206 8.693 10.222 15.27z" fill="#FFE9B0"/><path d="M34.85 41.739c.131.037.766.373.84.056.076-.318-.709-.28-.802-.224-.018.074-.037.168-.037.168zm-9.706 4.311c.019.729-1.27 1.811-1.512 1.7-.224-.131 1.232-1.177 1.512-1.7z" fill="#41B619"/><path d="M35.579 41.72c.578-.037 1.138.896 1.026.97-.112.075-.597-.69-1.026-.97zm-8.473-10.135c.56.168 1.12 1.736.784 1.792-.131.037-.467-1.4-.784-1.792zm-13.909 6.522c.56.168 1.12 1.736.784 1.792-.13.037-.466-1.4-.784-1.792zm1.923-23.566c.56.168 1.12 1.736.784 1.792-.13.038-.466-1.4-.784-1.792zm24.808 21.803c-.448-.821-2.744-.168-2.65.093.093.262 1.94-.485 2.65-.093zm0 0c-.168 1.045-1.437 1.643-1.176 1.755.243.093 1.624-.616 1.176-1.755z" fill="#41B619"/><path d="M39.928 36.344c1.045.075.579 1.979.859 1.923.261-.075.261-2.334-.859-1.923zm-29.904-4.013c-.448-.821-2.744-.168-2.65.093.111.262 1.96-.485 2.65-.093zm29.157-9.521c-.877-.335-2.202 1.643-1.96 1.774.243.15 1.176-1.624 1.96-1.773zm-11.632-1.142c-.878-.336-2.203 1.643-1.96 1.773.242.15 1.176-1.624 1.96-1.773zm.994-10.44c-.877-.336-2.203 1.643-1.96 1.773.243.15 1.176-1.624 1.96-1.773zm4.426-3.713c-.087-.936-2.448-1.248-2.458-.972-.026.284 1.977.335 2.458.972zm-9.972 1.912c-.168 1.045-1.437 1.642-1.176 1.754.262.094 1.624-.616 1.176-1.754zm14 18.76c1.046.074.579 1.978.859 1.922.28-.074.28-2.333-.859-1.922zm10.286-1.765c1.045.074.578 1.978.858 1.922.262-.056.262-2.314-.858-1.922z" fill="#41B619"/><path d="M41.627 41.963l-.374.28-.112-.355.224-.299.262.374zM15.12 26.096l-.373.28-.112-.355.224-.298.261.373zm-4.61-3.509l-.374.28-.112-.355.224-.299.261.374zm26.17 11.2l-.13.448-.3-.206-.018-.373.448.13zm-13.145-8.512l-.13.448-.3-.206-.018-.373.448.13zm9.692-5.6l-.13.448-.299-.206-.019-.373.448.13zm8.848-5.582l-.131.448-.299-.205-.018-.373.448.13zM40.19 28l-.448-.075.186-.317.355-.056-.093.448zM20.963 42.243l-.448-.075.186-.317.355-.056-.093.448zm23.333-20.03l-.448-.074.187-.318.355-.056-.094.448zm-4.2 22.195l-.448-.093.187-.318.354-.037-.093.448z" fill="#422918"/><g clip-path="url(#clip0)"><path d="M28.303 37.81l-.645 4.517 4.517-.645-3.872-3.872z" fill="#FF9D73"/><path d="M32.175 41.682a1.835 1.835 0 00-1.551-.516l-.903.13a.904.904 0 01-.777-.26.908.908 0 01-.259-.776l.13-.903a1.824 1.824 0 00-.512-1.547l-2.314-2.314a.23.23 0 00-.322 0l-.447.447c-2.424 2.424-2.464 6.432-.04 8.857a6.244 6.244 0 008.825.002l.484-.484a.228.228 0 000-.322l-2.314-2.314z" fill="#FF533E"/><path d="M32.714 43.511l-6.886.646a5.325 5.325 0 007.531 0l-.645-.646z" fill="#FF2E23"/><path d="M32.714 43.511l-1.184-1.184a.91.91 0 00-.775-.257l-.902.13a1.82 1.82 0 01-2.066-2.07l.13-.902a.91.91 0 00-.257-.775l-1.83-1.83a5.325 5.325 0 000 7.532c1.721 1.725 4.804 1.437 6.884-.644z" fill="#FF2E23"/><path d="M27.207 42.323a.46.46 0 00-.458.458c0 .25.205.455.458.457a.46.46 0 00.457-.457v-.456l-.457-.002zm2.067 1.124a.458.458 0 10.648 0l-.324-.324-.324.324zm-2.738-2.738a.458.458 0 110-.648l.324.324-.324.324z" fill="#FFE9B0"/></g><g clip-path="url(#clip1)"><path d="M29.297 18.368l.646-4.518-4.518.646 3.872 3.872z" fill="#FF9D73"/><path d="M25.425 14.495c.405.406.986.598 1.552.516l.902-.13a.904.904 0 01.777.26c.205.204.3.489.26.777l-.13.902a1.824 1.824 0 00.511 1.548l2.314 2.314a.23.23 0 00.322 0l.447-.447c2.425-2.425 2.464-6.433.04-8.858a6.244 6.244 0 00-8.825-.002l-.484.485a.227.227 0 000 .321l2.314 2.314z" fill="#FF533E"/><path d="M24.886 12.666l6.886-.645a5.325 5.325 0 00-7.531 0l.645.645z" fill="#FF2E23"/><path d="M24.886 12.666l1.185 1.184a.91.91 0 00.774.257l.903-.13a1.826 1.826 0 012.065 2.07l-.13.903a.91.91 0 00.258.774l1.83 1.83a5.325 5.325 0 000-7.531c-1.722-1.725-4.804-1.437-6.885.643z" fill="#FF2E23"/><path d="M30.394 13.854a.46.46 0 00.457-.457.46.46 0 00-.457-.457.46.46 0 00-.458.457v.455l.458.002zm-2.068-1.124a.458.458 0 10-.647 0l.323.325.324-.324zm2.738 2.739a.458.458 0 110 .647l-.323-.323.323-.324z" fill="#FFE9B0"/></g><g clip-path="url(#clip2)"><path d="M38.521 28.586l4.518.645-.646-4.517-3.872 3.872z" fill="#FF9D73"/><path d="M42.393 24.714a1.835 1.835 0 00-.516 1.552l.13.902a.904.904 0 01-.26.777.908.908 0 01-.776.259l-.902-.13a1.824 1.824 0 00-1.548.512L36.207 30.9a.23.23 0 000 .322l.447.447c2.425 2.424 6.433 2.464 8.857.04a6.244 6.244 0 00.003-8.825l-.485-.484a.227.227 0 00-.322 0l-2.314 2.314z" fill="#FF533E"/><path d="M44.223 24.175l.645 6.886a5.325 5.325 0 000-7.532l-.645.646z" fill="#FF2E23"/><path d="M44.223 24.175l-1.184 1.184a.91.91 0 00-.257.775l.13.902a1.821 1.821 0 01-2.07 2.066l-.903-.13a.91.91 0 00-.775.257l-1.83 1.83a5.325 5.325 0 007.532 0c1.725-1.721 1.437-4.804-.643-6.884z" fill="#FF2E23"/><path d="M43.035 29.683c0 .25.204.455.457.457a.46.46 0 00.457-.457.46.46 0 00-.457-.458h-.455l-.002.457zm1.123-2.068a.458.458 0 100-.648l-.324.324.324.324zm-2.738 2.738a.458.458 0 11-.648 0l.324-.324.324.324z" fill="#FFE9B0"/></g><g clip-path="url(#clip3)"><path d="M19.08 27.591l-4.518-.645.645 4.518 3.872-3.873z" fill="#FF9D73"/><path d="M15.207 31.464c.405-.406.597-.986.516-1.552l-.13-.902a.904.904 0 01.26-.777.908.908 0 01.776-.26l.903.13a1.824 1.824 0 001.547-.512l2.314-2.314a.23.23 0 000-.321l-.447-.447c-2.424-2.425-6.432-2.465-8.857-.04a6.244 6.244 0 00-.002 8.824l.484.485c.09.09.234.087.322 0l2.314-2.314z" fill="#FF533E"/><path d="M13.377 32.002l-.645-6.886a5.325 5.325 0 000 7.532l.646-.646z" fill="#FF2E23"/><path d="M13.378 32.002l1.184-1.184a.91.91 0 00.257-.775l-.13-.902a1.82 1.82 0 012.07-2.066l.902.13a.91.91 0 00.775-.257l1.83-1.83a5.325 5.325 0 00-7.532 0c-1.725 1.722-1.437 4.804.644 6.884z" fill="#FF2E23"/><path d="M14.566 26.495a.46.46 0 00-.458-.457.46.46 0 00-.457.457c0 .25.205.455.457.457h.456l.002-.457zm-1.124 2.068a.458.458 0 100 .647l.324-.324-.324-.323zm2.738-2.738a.458.458 0 11.648 0l-.324.323-.324-.323z" fill="#FFE9B0"/></g><g clip-path="url(#clip4)"><path d="M41.47 40.742a4.916 4.916 0 10-6.952-6.953 4.916 4.916 0 006.952 6.953z" fill="#9B0A33"/><path d="M42.275 39.086a4.653 4.653 0 10-8.563-3.644 4.653 4.653 0 008.563 3.644z" fill="#AF0931"/><path d="M35.042 37.748a.658.658 0 10-.93-.93.658.658 0 00.93.93zm.922-3.223a.43.43 0 11-.609.61.429.429 0 010-.61.43.43 0 01.609 0zm2.969-.6a.745.745 0 010 1.049.745.745 0 01-1.049 0 .745.745 0 010-1.05.738.738 0 011.049 0zm-1.76 2.909a.395.395 0 10-.557-.558.395.395 0 00.557.558zm-.27 2.216a.801.801 0 11-1.134 0 .794.794 0 011.134 0zm2.47-1.556a.561.561 0 11-.793.795.561.561 0 01.793-.795zm1.801-2.123a.6.6 0 010 .846.592.592 0 01-.846 0 .6.6 0 010-.846.592.592 0 01.846 0zm.288 2.622a.373.373 0 010 .524.373.373 0 01-.525 0 .373.373 0 010-.524.373.373 0 01.525 0zm-1.81 2.03a.485.485 0 010 .694.485.485 0 01-.694 0 .485.485 0 010-.694.485.485 0 01.694 0z" fill="#FFC2C2"/></g><g clip-path="url(#clip5)"><path d="M16.13 15.436a4.916 4.916 0 106.953 6.953 4.916 4.916 0 00-6.953-6.953z" fill="#9B0A33"/><path d="M15.325 17.092a4.653 4.653 0 108.563 3.644 4.653 4.653 0 00-8.563-3.644z" fill="#AF0931"/><path d="M22.558 18.43a.658.658 0 10.93.93.658.658 0 00-.93-.93zm-.922 3.223a.429.429 0 010-.61.432.432 0 110 .61zm-2.969.6a.745.745 0 010-1.049.745.745 0 011.05 0 .745.745 0 010 1.05.738.738 0 01-1.05 0zm1.76-2.909a.395.395 0 10.558.558.395.395 0 00-.558-.558zm.27-2.216a.801.801 0 111.134 0 .794.794 0 01-1.134 0zm-2.47 1.556a.562.562 0 11.794-.795.562.562 0 01-.794.795zm-1.801 2.123a.6.6 0 010-.846.592.592 0 01.846 0 .6.6 0 010 .846.592.592 0 01-.846 0zm-.288-2.622a.373.373 0 010-.524.373.373 0 01.525 0 .373.373 0 010 .524.373.373 0 01-.525 0zm1.81-2.03a.485.485 0 010-.694.485.485 0 01.694 0c.195.195.195.5 0 .694a.485.485 0 01-.694 0z" fill="#FFC2C2"/></g><g clip-path="url(#clip6)"><path d="M41.453 15.419a4.916 4.916 0 10-6.953 6.953 4.916 4.916 0 006.953-6.953z" fill="#9B0A33"/><path d="M39.797 14.614a4.653 4.653 0 10-3.644 8.563 4.653 4.653 0 003.644-8.563z" fill="#AF0931"/><path d="M38.459 21.847a.658.658 0 10-.93.93.658.658 0 00.93-.93zm-3.223-.922a.43.43 0 110 .61.429.429 0 010-.61zm-.6-2.969a.745.745 0 011.049 0 .745.745 0 010 1.05.745.745 0 01-1.05 0 .738.738 0 010-1.05zm2.909 1.759a.395.395 0 10-.558.559.395.395 0 00.558-.559zm2.216.271a.802.802 0 110 1.134.794.794 0 010-1.134zm-1.556-2.47a.562.562 0 11.795.794.562.562 0 01-.795-.794zm-2.123-1.801a.6.6 0 01.846 0 .592.592 0 010 .846.6.6 0 01-.846 0 .592.592 0 010-.846zm2.622-.288a.373.373 0 01.524 0 .373.373 0 010 .525.373.373 0 01-.524 0 .373.373 0 010-.525zm2.03 1.81a.485.485 0 01.694 0 .485.485 0 010 .694.485.485 0 01-.694 0 .485.485 0 010-.694z" fill="#FFC2C2"/></g><g clip-path="url(#clip7)"><path d="M16.147 40.76a4.916 4.916 0 106.953-6.954 4.916 4.916 0 00-6.953 6.953z" fill="#9B0A33"/><path d="M17.803 41.564a4.653 4.653 0 103.644-8.563 4.653 4.653 0 00-3.644 8.563z" fill="#AF0931"/><path d="M19.141 34.33a.658.658 0 10.93-.93.658.658 0 00-.93.93zm3.223.923a.43.43 0 01-.61 0 .429.429 0 010-.61.432.432 0 01.61.61zm.6 2.969a.745.745 0 01-1.048 0 .746.746 0 010-1.05.745.745 0 011.048 0 .738.738 0 010 1.05zm-2.909-1.76a.395.395 0 10.558-.558.395.395 0 00-.558.558zm-2.216-.27a.802.802 0 110-1.134.794.794 0 010 1.134zm1.556 2.47a.562.562 0 11-.795-.794.562.562 0 01.795.794zm2.123 1.801a.6.6 0 01-.846 0 .592.592 0 010-.846.6.6 0 01.846 0 .592.592 0 010 .846zm-2.622.287a.373.373 0 01-.524 0 .373.373 0 010-.524.373.373 0 01.524 0 .373.373 0 010 .525zm-2.03-1.81a.485.485 0 01-.694 0 .485.485 0 010-.693.485.485 0 01.694 0 .485.485 0 010 .694z" fill="#FFC2C2"/></g><g clip-path="url(#clip8)"><path d="M19.856 12.868c-.202-.376-.12-.81.172-.967.298-.16.58-.005.78.295a1.054 1.054 0 00-.097-.654c-.266-.51-.913-.7-1.447-.42-.527.275-.736.916-.47 1.426.239.446 1.113.415 1.062.32zm2.874-1.512c-.201-.375-.6-.56-.898-.4-.298.16-.335.479-.201.813a1.019 1.019 0 01-.482-.454c-.266-.51-.057-1.151.471-1.427.528-.275 1.172-.091 1.447.42.227.439-.29 1.137-.337 1.048z" fill="#6E4736"/><path d="M19.826 9.3l-.006.004-.007.004c-1.325.71-1.99 2.03-1.496 2.967.543 1.03 1.38 1.11 1.45.73.023-.13-.072-.26-.174-.434-.224-.417-.087-.814.24-.982.375-.192.577.024.8.44.188.351.67 2.377.771 2.535.102.159.701.417 1.245.142l.007-.003.007-.004c.543-.291.659-.933.59-1.11-.075-.172-1.468-1.717-1.656-2.068-.223-.417-.285-.708.085-.907.325-.174.732-.068.952.36.093.171.14.324.267.384.347.155.757-.576.213-1.605-.497-.944-1.966-1.136-3.288-.452z" fill="#D1AD88"/></g><g clip-path="url(#clip9)"><path d="M8.798 27.786c.252-.343.68-.456.947-.26.272.2.254.523.069.831.213-.061.402-.182.548-.369.346-.458.239-1.124-.242-1.486-.476-.358-1.145-.271-1.49.188-.3.408.104 1.183.168 1.096zm2.6 1.946c.253-.343.248-.783-.024-.983-.273-.2-.576-.097-.821.168a1.02 1.02 0 01.203-.63c.346-.46 1.015-.547 1.49-.189.476.358.587 1.019.242 1.487-.297.394-1.15.228-1.09.146z" fill="#6E4736"/><path d="M12.005 26.226L12 26.222l-.006-.005c-1.211-.89-2.689-.924-3.322-.075-.696.934-.408 1.723-.036 1.623.128-.036.204-.176.318-.344.28-.381.697-.428.99-.204.334.255.226.53-.054.91-.236.322-1.858 1.627-1.957 1.787-.1.16-.075.812.407 1.185l.006.005.006.004c.497.365 1.126.194 1.256.056.123-.142.92-2.064 1.155-2.384.28-.382.516-.563.856-.313.296.218.376.63.085 1.013-.116.158-.233.267-.233.407.01.38.846.435 1.541-.498.638-.855.18-2.263-1.006-3.163z" fill="#D1AD88"/></g><g clip-path="url(#clip10)"><path d="M23.375 44.142c.253-.343.68-.457.947-.26.273.2.254.522.07.83.213-.06.402-.181.548-.368.345-.459.239-1.125-.243-1.487-.475-.358-1.144-.27-1.49.188-.3.408.104 1.184.168 1.097zm2.601 1.945c.252-.343.248-.783-.025-.983-.272-.2-.576-.096-.82.169a1.02 1.02 0 01.203-.631c.346-.459 1.014-.546 1.49-.188.476.358.586 1.018.242 1.487-.297.393-1.15.228-1.09.146z" fill="#6E4736"/><path d="M26.583 42.581l-.006-.004-.006-.004c-1.212-.89-2.69-.924-3.323-.075-.695.933-.408 1.722-.036 1.623.13-.036.204-.177.318-.344.28-.382.698-.429.99-.205.335.256.227.53-.054.911-.235.321-1.858 1.627-1.957 1.787-.099.16-.074.812.408 1.184l.006.005.006.004c.496.365 1.126.194 1.255.057.124-.143.92-2.064 1.156-2.385.28-.381.516-.562.855-.313.297.218.376.631.086 1.014-.116.157-.234.266-.234.406.01.38.846.436 1.542-.498.638-.854.18-2.263-1.006-3.163z" fill="#D1AD88"/></g><g clip-path="url(#clip11)"><path d="M41.287 28.477c-.385-.181-.578-.58-.437-.88.145-.305.464-.349.802-.227a1.054 1.054 0 00-.467-.467c-.516-.251-1.15-.019-1.412.523-.26.536-.047 1.175.47 1.427.459.216 1.142-.33 1.044-.376zm1.41-2.925c-.385-.182-.815-.093-.96.213-.144.305.016.583.323.773a1.02 1.02 0 01-.658-.079c-.517-.251-.73-.89-.47-1.426.26-.536.887-.771 1.412-.523.444.216.445 1.085.353 1.042z" fill="#6E4736"/><path d="M39.14 25.628l-.003.007-.003.007c-.642 1.36-.39 2.817.564 3.275 1.05.504 1.769.07 1.6-.276-.06-.12-.212-.166-.399-.246-.428-.202-.554-.602-.39-.932.186-.378.476-.324.904-.122.36.17 1.952 1.511 2.129 1.578.176.066.81-.083 1.084-.627l.003-.007.004-.007c.263-.557-.026-1.142-.186-1.243-.163-.093-2.202-.507-2.562-.677-.428-.201-.65-.398-.471-.779.157-.333.547-.49.978-.278.177.083.307.178.444.151.37-.083.265-.914-.785-1.417-.96-.462-2.255.257-2.91 1.593z" fill="#D1AD88"/></g><path d="M14.78 39.995c2.224 0 4.026-1.671 4.026-3.733 0-2.06-1.802-3.732-4.025-3.732-2.224 0-4.026 1.671-4.026 3.732 0 2.062 1.802 3.733 4.026 3.733z" fill="#F9D7DD"/><path d="M14.78 40.137c-2.321 0-4.215-1.76-4.215-3.922 0-2.171 1.894-3.93 4.216-3.93 2.321 0 4.215 1.759 4.215 3.93 0 2.163-1.886 3.922-4.215 3.922zm0-7.464c-2.107 0-3.827 1.585-3.827 3.534 0 1.95 1.72 3.534 3.828 3.534 2.107 0 3.827-1.585 3.827-3.534 0-1.95-1.712-3.534-3.827-3.534z" fill="#891652"/><path d="M14.78 39.376c1.852 0 3.353-1.373 3.353-3.066 0-1.694-1.501-3.067-3.352-3.067s-3.352 1.373-3.352 3.067c0 1.693 1.5 3.066 3.352 3.066z" fill="#F9D7DD"/><path d="M14.78 39.408c-1.885 0-3.422-1.41-3.422-3.146 0-1.735 1.537-3.145 3.423-3.145 1.886 0 3.423 1.41 3.423 3.145 0 1.736-1.53 3.146-3.423 3.146zm0-6.141c-1.806 0-3.272 1.34-3.272 2.995 0 1.648 1.466 2.995 3.273 2.995 1.806-.008 3.272-1.347 3.272-2.995 0-1.648-1.466-2.995-3.272-2.995z" fill="#891652"/><path d="M14.685 38.853c1.585 0 2.869-1.11 2.869-2.48 0-1.37-1.284-2.48-2.868-2.48-1.585 0-2.869 1.11-2.869 2.48 0 1.37 1.284 2.48 2.868 2.48z" fill="#F9D7DD"/><path d="M14.685 38.877c-1.624 0-2.947-1.149-2.947-2.551 0-1.41 1.323-2.552 2.947-2.552 1.625 0 2.948 1.15 2.948 2.552-.008 1.402-1.323 2.551-2.948 2.551zm0-4.952c-1.537 0-2.789 1.078-2.789 2.4 0 1.324 1.252 2.402 2.79 2.402 1.537 0 2.789-1.078 2.789-2.401 0-1.324-1.252-2.401-2.79-2.401z" fill="#891652"/><path d="M14.686 38.505c1.26 0 2.282-.884 2.282-1.973 0-1.09-1.022-1.973-2.282-1.973s-2.282.883-2.282 1.973 1.021 1.973 2.282 1.973z" fill="#F9D7DD"/><path d="M14.685 38.529c-1.299 0-2.36-.92-2.36-2.053s1.061-2.052 2.36-2.052c1.3 0 2.362.92 2.362 2.052 0 1.133-1.062 2.053-2.362 2.053zm0-3.939c-1.212 0-2.202.848-2.202 1.894 0 1.046.99 1.894 2.202 1.894 1.213 0 2.203-.848 2.203-1.894 0-1.046-.99-1.894-2.203-1.894z" fill="#891652"/><path d="M14.804 38.03c.915 0 1.656-.64 1.656-1.427 0-.788-.741-1.426-1.656-1.426-.914 0-1.656.638-1.656 1.426 0 .788.742 1.426 1.656 1.426z" fill="#F9D7DD"/><path d="M14.804 38.093c-.943 0-1.711-.666-1.711-1.49s.768-1.49 1.711-1.49c.943 0 1.712.666 1.712 1.49 0 .816-.769 1.49-1.712 1.49zm0-2.86c-.88 0-1.6.617-1.6 1.37 0 .753.713 1.37 1.6 1.37.88 0 1.6-.617 1.6-1.37 0-.753-.72-1.37-1.6-1.37z" fill="#891652"/><path d="M14.868 37.823c.643 0 1.164-.45 1.164-1.006s-.521-1.006-1.164-1.006c-.644 0-1.165.45-1.165 1.006s.521 1.006 1.165 1.006z" fill="#F9D7DD"/><path d="M14.868 37.879c-.674 0-1.22-.476-1.22-1.062 0-.586.546-1.062 1.22-1.062.673 0 1.22.476 1.22 1.062 0 .586-.547 1.062-1.22 1.062zm0-2.013c-.61 0-1.11.428-1.11.95 0 .524.5.952 1.11.952.61 0 1.109-.428 1.109-.951 0-.523-.5-.95-1.11-.95z" fill="#891652"/><path d="M28.292 28.26c2.223 0 4.025-1.67 4.025-3.731s-1.802-3.732-4.025-3.732c-2.224 0-4.026 1.67-4.026 3.732 0 2.061 1.803 3.732 4.026 3.732z" fill="#F9D7DD"/><path d="M28.292 28.404c-2.322 0-4.216-1.76-4.216-3.923 0-2.17 1.894-3.93 4.216-3.93 2.321 0 4.215 1.76 4.215 3.93 0 2.163-1.886 3.922-4.215 3.922zm0-7.465c-2.108 0-3.828 1.585-3.828 3.534 0 1.95 1.72 3.534 3.828 3.534 2.107 0 3.827-1.585 3.827-3.534 0-1.949-1.712-3.534-3.827-3.534z" fill="#891652"/><path d="M28.292 27.643c1.85 0 3.351-1.373 3.351-3.067 0-1.693-1.5-3.066-3.351-3.066s-3.352 1.373-3.352 3.066c0 1.694 1.5 3.067 3.352 3.067z" fill="#F9D7DD"/><path d="M28.292 27.674c-1.886 0-3.423-1.41-3.423-3.145 0-1.736 1.537-3.146 3.423-3.146 1.886 0 3.423 1.41 3.423 3.146 0 1.735-1.53 3.145-3.423 3.145zm0-6.14c-1.807 0-3.273 1.339-3.273 2.995 0 1.648 1.466 2.995 3.273 2.995 1.806-.008 3.272-1.347 3.272-2.995 0-1.648-1.466-2.995-3.272-2.995z" fill="#891652"/><path d="M28.197 27.12c1.584 0 2.868-1.11 2.868-2.48 0-1.37-1.284-2.48-2.869-2.48-1.584 0-2.868 1.11-2.868 2.48 0 1.37 1.284 2.48 2.869 2.48z" fill="#F9D7DD"/><path d="M28.196 27.144c-1.624 0-2.947-1.15-2.947-2.552 0-1.41 1.323-2.551 2.947-2.551 1.625 0 2.948 1.149 2.948 2.551-.008 1.403-1.323 2.552-2.948 2.552zm0-4.953c-1.537 0-2.789 1.078-2.789 2.401 0 1.324 1.252 2.401 2.79 2.401 1.537 0 2.789-1.077 2.789-2.4 0-1.324-1.252-2.402-2.79-2.402z" fill="#891652"/><path d="M28.197 26.771c1.26 0 2.282-.883 2.282-1.973s-1.022-1.973-2.282-1.973-2.282.884-2.282 1.973c0 1.09 1.021 1.973 2.282 1.973z" fill="#F9D7DD"/><path d="M28.197 26.795c-1.3 0-2.362-.92-2.362-2.052 0-1.133 1.062-2.052 2.361-2.052 1.3 0 2.362.919 2.362 2.052s-1.062 2.052-2.361 2.052zm0-3.938c-1.213 0-2.203.848-2.203 1.894 0 1.046.99 1.893 2.203 1.893 1.212 0 2.202-.847 2.202-1.893s-.99-1.894-2.203-1.894z" fill="#891652"/><path d="M28.315 26.296c.915 0 1.656-.639 1.656-1.427 0-.787-.741-1.426-1.656-1.426-.914 0-1.656.639-1.656 1.426 0 .788.742 1.427 1.656 1.427z" fill="#F9D7DD"/><path d="M28.315 26.36c-.943 0-1.711-.666-1.711-1.49 0-.825.768-1.49 1.711-1.49.943 0 1.712.666 1.712 1.49 0 .816-.769 1.49-1.712 1.49zm0-2.861c-.88 0-1.6.618-1.6 1.37 0 .753.713 1.371 1.6 1.371.88 0 1.6-.618 1.6-1.37 0-.753-.72-1.371-1.6-1.371z" fill="#891652"/><path d="M28.379 26.09c.643 0 1.165-.45 1.165-1.006s-.522-1.007-1.165-1.007c-.644 0-1.165.45-1.165 1.006s.521 1.007 1.165 1.007z" fill="#F9D7DD"/><path d="M28.379 26.145c-.674 0-1.22-.475-1.22-1.062 0-.586.546-1.061 1.22-1.061.673 0 1.22.475 1.22 1.061 0 .587-.547 1.062-1.22 1.062zm0-2.012c-.61 0-1.11.427-1.11.95 0 .523.5.951 1.11.951.61 0 1.109-.428 1.109-.95 0-.524-.5-.951-1.11-.951z" fill="#891652"/><path d="M33.27 39.639c2.222 0 4.025-1.671 4.025-3.732s-1.803-3.732-4.026-3.732-4.025 1.67-4.025 3.732c0 2.06 1.802 3.732 4.025 3.732z" fill="#F9D7DD"/><path d="M33.27 39.781c-2.322 0-4.216-1.759-4.216-3.922 0-2.171 1.894-3.93 4.215-3.93 2.322 0 4.216 1.759 4.216 3.93 0 2.163-1.886 3.922-4.216 3.922zm0-7.464c-2.108 0-3.828 1.585-3.828 3.534 0 1.95 1.72 3.534 3.827 3.534 2.108 0 3.828-1.585 3.828-3.534 0-1.95-1.712-3.534-3.828-3.534z" fill="#891652"/><path d="M33.27 39.02c1.85 0 3.351-1.373 3.351-3.066 0-1.694-1.5-3.066-3.352-3.066-1.85 0-3.351 1.372-3.351 3.066 0 1.694 1.5 3.066 3.352 3.066z" fill="#F9D7DD"/><path d="M33.27 39.052c-1.886 0-3.424-1.41-3.424-3.145 0-1.736 1.538-3.146 3.424-3.146 1.885 0 3.423 1.41 3.423 3.145 0 1.736-1.53 3.146-3.423 3.146zm0-6.14c-1.807 0-3.273 1.338-3.273 2.995 0 1.648 1.466 2.995 3.273 2.995 1.806-.008 3.272-1.347 3.272-2.995 0-1.649-1.466-2.996-3.273-2.996z" fill="#891652"/><path d="M33.174 38.498c1.584 0 2.869-1.11 2.869-2.48 0-1.37-1.285-2.48-2.869-2.48-1.584 0-2.868 1.11-2.868 2.48 0 1.37 1.284 2.48 2.868 2.48z" fill="#F9D7DD"/><path d="M33.174 38.522c-1.624 0-2.947-1.15-2.947-2.552 0-1.41 1.323-2.551 2.947-2.551 1.625 0 2.948 1.149 2.948 2.551-.008 1.403-1.323 2.552-2.948 2.552zm0-4.953c-1.537 0-2.789 1.078-2.789 2.401 0 1.323 1.252 2.4 2.79 2.4 1.536 0 2.788-1.077 2.788-2.4s-1.252-2.4-2.789-2.4z" fill="#891652"/><path d="M33.174 38.149c1.26 0 2.282-.883 2.282-1.973s-1.021-1.973-2.282-1.973c-1.26 0-2.282.883-2.282 1.973s1.022 1.973 2.282 1.973z" fill="#F9D7DD"/><path d="M33.174 38.173c-1.3 0-2.361-.92-2.361-2.052 0-1.134 1.062-2.053 2.361-2.053 1.3 0 2.361.92 2.361 2.053s-1.061 2.052-2.36 2.052zm0-3.938c-1.212 0-2.203.848-2.203 1.894 0 1.046.99 1.893 2.203 1.893 1.213 0 2.203-.847 2.203-1.893s-.99-1.894-2.203-1.894z" fill="#891652"/><path d="M33.293 37.674c.915 0 1.656-.639 1.656-1.427 0-.787-.741-1.426-1.656-1.426-.915 0-1.656.639-1.656 1.426 0 .788.741 1.427 1.656 1.427z" fill="#F9D7DD"/><path d="M33.293 37.737c-.943 0-1.712-.666-1.712-1.49s.77-1.49 1.712-1.49c.943 0 1.712.666 1.712 1.49 0 .816-.769 1.49-1.712 1.49zm0-2.86c-.88 0-1.6.618-1.6 1.37 0 .753.713 1.371 1.6 1.371.88 0 1.6-.618 1.6-1.37 0-.753-.72-1.371-1.6-1.371z" fill="#891652"/><path d="M33.356 37.468c.644 0 1.165-.451 1.165-1.007 0-.555-.521-1.006-1.165-1.006-.643 0-1.164.45-1.164 1.006s.521 1.007 1.164 1.007z" fill="#F9D7DD"/><path d="M33.356 37.523c-.673 0-1.22-.475-1.22-1.062 0-.586.547-1.062 1.22-1.062.674 0 1.22.476 1.22 1.062 0 .587-.546 1.062-1.22 1.062zm0-2.013c-.61 0-1.109.428-1.109.951 0 .523.5.951 1.11.951.61 0 1.109-.428 1.109-.95 0-.524-.5-.952-1.11-.952z" fill="#891652"/><path d="M42.604 18.67c-.375.04-.711.186-1.042.361-.279.147-.635.321-.812.59-.104.156.017.32.18.349.295.05.604-.135.864-.253.32-.147.625-.271.974-.317.486-.058.311-.781-.164-.73z" fill="#F8D87D"/><path d="M40.932 19.972c.296.05.604-.134.865-.253.319-.147.625-.27.974-.316.457-.058.323-.711-.096-.734.149.205.116.529-.203.57-.351.045-.655.169-.974.316-.232.106-.506.263-.771.26a.271.271 0 00.205.157z" fill="#FFC44D"/><path d="M34.49 11.823c-.267-.264-.594-.433-.938-.579-.29-.123-.65-.289-.97-.257-.187.019-.238.217-.157.36.148.261.486.384.742.51.316.155.605.314.86.556.353.34.803-.253.463-.59z" fill="#F8D87D"/><path d="M32.424 11.35c.148.262.486.384.743.511.315.154.605.313.86.555.335.318.756-.198.508-.538-.064.245-.336.424-.569.203-.257-.244-.545-.4-.86-.555-.23-.113-.524-.226-.69-.433a.27.27 0 00.008.258z" fill="#FFC44D"/><path d="M27.812 18.713c-.268-.265-.594-.433-.939-.58-.29-.122-.65-.288-.97-.256-.187.019-.237.217-.157.36.148.261.486.384.743.51.315.154.605.313.86.555.353.34.803-.253.463-.59z" fill="#F8D87D"/><path d="M25.746 18.24c.148.262.486.384.743.51.315.155.604.314.86.556.335.318.756-.198.508-.538-.064.245-.336.424-.569.203-.257-.244-.545-.401-.86-.555-.23-.114-.524-.226-.69-.434a.27.27 0 00.008.258z" fill="#FFC44D"/><path d="M16.257 18.18c-.268-.265-.594-.433-.94-.58-.289-.122-.65-.289-.969-.256-.187.018-.238.216-.157.36.148.26.486.383.743.51.315.154.604.313.86.555.352.34.803-.253.463-.59z" fill="#F8D87D"/><path d="M14.19 17.707c.149.261.487.384.744.51.315.155.604.314.86.556.334.318.755-.199.508-.539-.065.246-.336.425-.57.203-.257-.243-.545-.4-.86-.555-.23-.113-.523-.225-.69-.433a.27.27 0 00.009.258z" fill="#FFC44D"/><path d="M21.665 31.341c-.31.213-.538.5-.748.81-.176.262-.408.584-.438.904-.017.187.167.275.323.223.285-.095.47-.404.643-.631.212-.28.424-.534.71-.739.4-.28-.095-.836-.49-.567z" fill="#F8D87D"/><path d="M20.806 33.279c.284-.095.47-.404.643-.632.212-.28.423-.533.71-.738.376-.267-.05-.78-.431-.601.228.11.352.411.09.597-.289.206-.498.459-.71.738-.155.204-.322.471-.557.594a.271.271 0 00.255.042z" fill="#FFC44D"/><path d="M12.514 39.15c-.31.212-.538.5-.748.81-.176.26-.408.583-.438.903-.017.187.167.275.323.223.285-.095.47-.404.644-.631.211-.28.423-.534.709-.738.4-.281-.094-.837-.49-.567z" fill="#F8D87D"/><path d="M11.655 41.087c.285-.095.47-.404.643-.631.212-.28.423-.534.71-.739.376-.267-.05-.779-.431-.601.228.11.352.411.09.597-.289.206-.498.459-.71.739-.155.203-.322.47-.557.593a.271.271 0 00.255.042z" fill="#FFC44D"/><path d="M31.003 43.594c-.31.212-.538.5-.748.81-.176.261-.408.584-.438.903-.017.188.167.275.323.224.285-.096.47-.404.644-.632.211-.28.423-.533.71-.738.4-.28-.095-.836-.49-.567z" fill="#F8D87D"/><path d="M30.144 45.532c.285-.095.47-.404.643-.632.212-.28.423-.533.71-.738.376-.267-.05-.78-.431-.601.228.11.352.41.09.597-.289.206-.498.459-.71.738-.155.204-.322.47-.557.594a.271.271 0 00.255.041z" fill="#FFC44D"/><path d="M34.103 28.773c-.233-.296-.536-.503-.86-.691-.272-.158-.61-.368-.93-.375-.189-.005-.263.185-.201.337.114.278.435.441.674.599.293.192.561.386.785.657.307.38.828-.152.532-.527z" fill="#F8D87D"/><path d="M32.111 28.048c.115.278.435.44.674.598.294.192.561.386.785.658.293.357.775-.104.57-.471-.093.235-.385.379-.589.13-.225-.273-.492-.465-.785-.657-.214-.14-.492-.289-.63-.515a.271.271 0 00-.025.257z" fill="#FFC44D"/><path d="M42.65 40.183c-.233-.296-.536-.503-.86-.691-.273-.158-.61-.367-.931-.375-.188-.005-.263.186-.2.338.114.277.434.44.674.598.293.192.56.386.785.657.307.381.827-.151.532-.527z" fill="#F8D87D"/><path d="M40.658 39.458c.114.278.435.441.674.599.293.192.561.385.785.657.293.357.774-.103.57-.471-.094.235-.386.38-.59.13-.225-.273-.49-.464-.784-.656-.214-.141-.492-.29-.631-.516a.271.271 0 00-.024.257z" fill="#FFC44D"/><path d="M48.057 24.673c-.343.156-.616.402-.876.672-.217.226-.501.504-.585.814-.049.182.118.3.28.275.297-.045.532-.317.742-.512.256-.24.508-.454.825-.607.443-.208.05-.84-.386-.642z" fill="#F8D87D"/><path d="M46.88 26.436c.296-.045.531-.318.741-.512.256-.24.508-.454.825-.607.416-.2.084-.777-.322-.666.206.147.277.465-.013.604-.32.154-.569.367-.825.606-.187.174-.397.41-.65.49.056.065.15.1.244.085z" fill="#FFC44D"/><path d="M17.086 11.167c-.342.157-.616.402-.875.672-.218.227-.502.505-.586.815-.049.181.118.3.28.274.298-.045.532-.317.742-.512.257-.24.508-.453.825-.606.443-.208.05-.84-.386-.643z" fill="#F8D87D"/><path d="M15.909 12.93c.297-.045.531-.317.741-.512.257-.24.508-.454.825-.607.417-.2.084-.776-.322-.666.206.148.277.465-.013.604-.32.154-.568.367-.825.607-.187.174-.397.409-.65.49.056.064.15.1.244.084z" fill="#FFC44D"/><path d="M10.508 20.59c-.342.156-.615.401-.875.671-.218.227-.501.505-.585.815-.05.181.118.3.28.275.297-.045.532-.318.742-.513.256-.24.508-.453.825-.606.442-.208.049-.84-.386-.642z" fill="#F8D87D"/><path d="M9.331 22.352c.297-.045.532-.317.742-.512.256-.24.508-.453.825-.607.416-.199.083-.776-.322-.666.206.148.276.466-.013.604-.32.154-.569.367-.825.607-.188.174-.398.409-.65.49.055.064.15.1.243.084z" fill="#FFC44D"/><path d="M27 30.42c-.282-.25-.617-.401-.968-.53-.296-.108-.665-.255-.982-.206-.186.028-.227.229-.139.367.162.254.506.359.769.472.322.138.62.281.888.51.369.32.788-.295.431-.613z" fill="#F8D87D"/><path d="M24.912 30.055c.16.253.505.358.768.471.322.138.62.282.888.51.35.3.744-.237.479-.564-.052.248-.314.441-.558.232-.27-.23-.565-.371-.888-.51-.235-.1-.534-.198-.71-.396a.27.27 0 00.02.257z" fill="#FFC44D"/><path d="M36.731 45.493c-.281-.25-.616-.4-.967-.53-.296-.107-.665-.254-.982-.206-.186.029-.227.23-.138.368.16.253.505.358.768.471.322.138.62.282.888.51.369.32.788-.294.431-.613z" fill="#F8D87D"/><path d="M34.643 45.128c.162.254.506.358.769.472.322.138.62.281.888.51.35.3.744-.238.479-.564-.052.248-.314.44-.558.232-.27-.23-.565-.372-.888-.51-.235-.101-.535-.198-.71-.397a.27.27 0 00.02.257z" fill="#FFC44D"/><path d="M39.931 11.005c-.281-.25-.616-.402-.967-.53-.296-.108-.665-.255-.982-.206-.186.028-.227.228-.139.367.162.253.506.358.769.472.322.137.62.28.888.51.369.32.788-.295.431-.614z" fill="#F8D87D"/><path d="M37.843 10.64c.161.253.505.358.768.471.323.138.62.281.889.51.35.3.744-.238.479-.564-.052.248-.314.441-.558.232-.27-.23-.565-.372-.888-.51-.235-.1-.535-.198-.711-.396a.271.271 0 00.021.257z" fill="#FFC44D"/><path d="M30.51 8.338c-.282-.25-.617-.401-.969-.53-.295-.108-.664-.255-.982-.206-.185.028-.226.229-.138.367.162.254.506.358.768.472.323.138.62.281.889.51.369.32.788-.295.431-.613z" fill="#F8D87D"/><path d="M28.421 7.973c.161.253.505.358.768.471.323.138.62.282.889.51.35.3.744-.237.479-.564-.052.248-.314.441-.558.232-.27-.23-.565-.372-.888-.51-.235-.1-.535-.198-.711-.396a.271.271 0 00.021.257z" fill="#FFC44D"/><defs><clipPath id="clip0"><path fill="#fff" transform="translate(22.756 35.022)" d="M0 0h12.089v12.089H0z"/></clipPath><clipPath id="clip1"><path fill="#fff" transform="rotate(180 17.422 10.578)" d="M0 0h12.089v12.089H0z"/></clipPath><clipPath id="clip2"><path fill="#fff" transform="rotate(-90 34.933 -.8)" d="M0 0h12.089v12.089H0z"/></clipPath><clipPath id="clip3"><path fill="#fff" transform="rotate(90 -.089 21.956)" d="M0 0h12.089v12.089H0z"/></clipPath><clipPath id="clip4"><path fill="#fff" transform="rotate(-45 59.698 -16.89)" d="M0 0h12.089v12.089H0z"/></clipPath><clipPath id="clip5"><path fill="#fff" transform="rotate(135 10.169 15.29)" d="M0 0h12.089v12.089H0z"/></clipPath><clipPath id="clip6"><path fill="#fff" transform="rotate(-135 24.676 5.865)" d="M0 0h12.089v12.089H0z"/></clipPath><clipPath id="clip7"><path fill="#fff" transform="rotate(45 -24.853 38.046)" d="M0 0h12.089v12.089H0z"/></clipPath><clipPath id="clip8"><path fill="#fff" transform="rotate(-28.213 28.01 -25.425)" d="M0 0h8.711v8.711H0z"/></clipPath><clipPath id="clip9"><path fill="#fff" transform="rotate(36.322 -29.79 25.387)" d="M0 0h8.711v8.711H0z"/></clipPath><clipPath id="clip10"><path fill="#fff" transform="rotate(36.322 -47.432 55.785)" d="M0 0h8.711v8.711H0z"/></clipPath><clipPath id="clip11"><path fill="#fff" transform="rotate(-64.739 40.946 -13.95)" d="M0 0h8.711v8.711H0z"/></clipPath></defs></svg>