<svg width="301" height="301" viewBox="0 0 301 301" fill="none" xmlns="http://www.w3.org/2000/svg"><g clip-path="url(#clip0)"><path d="M132.01 187.113c1.526-.814 3.052-1.424 4.527-2.391 1.78-1.17 3.306-2.594 4.731-4.12.712-.814 1.475-1.679 2.238-2.442l2.339-2.339c1.577-1.577 3.052-3.256 4.324-5.036.407-.611.763-1.17 1.119-1.831-1.272-.865-2.34-1.933-3.255-3.256-3.968-5.799-2.442-13.734 3.357-17.701 4.12-2.798 9.359-2.849 13.378-.56l.457-1.068a33.162 33.162 0 016.867-9.512c2.391-2.289 5.24-4.018 8.037-5.9a103.537 103.537 0 003.815-2.696 43.705 43.705 0 00-5.188-3.663c-.305.713-.967 1.272-1.781 1.272-1.119.102-2.136-.814-2.238-1.933-.051-.458.102-.915.356-1.271a40.665 40.665 0 00-16.022-3.612c.152.763-.204 1.526-.865 1.984-.967.661-2.238.407-2.899-.56-.306-.407-.357-.864-.357-1.271a38.23 38.23 0 00-15.615 4.832c.508.61.61 1.424.254 2.187-.509 1.017-1.78 1.475-2.798.967a2.218 2.218 0 01-.966-.967c-4.629 3.306-8.444 7.427-11.14 12.055.712.306 1.272.967 1.272 1.781.102 1.119-.814 2.136-1.933 2.238-.458.051-.916-.102-1.272-.356a40.669 40.669 0 00-3.611 16.023c.763-.153 1.526.203 1.984.864.661.967.406 2.238-.56 2.9-.407.305-.865.356-1.272.356a40.319 40.319 0 004.833 15.717c.61-.508 1.424-.61 2.187-.254 1.017.509 1.475 1.78.966 2.798a2.21 2.21 0 01-.966.966 42.94 42.94 0 005.29 6.002c.102-.101.254-.152.407-.203z" fill="#F6D633"/><path d="M145.896 145.759a.72.72 0 01-1.017 0l-10.326-10.326a.72.72 0 011.018-1.017l10.275 10.275c.305.305.356.763.05 1.068zm-4.832 8.392a.754.754 0 01-.712.204l-14.09-3.815c-.407-.102-.61-.509-.509-.916.102-.407.509-.61.916-.508l14.039 3.764c.407.102.61.508.509.915a.547.547 0 01-.153.356zm0 9.665c-.102.102-.153.153-.305.203l-14.09 3.714c-.407.101-.814-.102-.916-.509-.101-.407.102-.814.509-.916l14.09-3.713c.407-.102.814.102.915.509a.857.857 0 01-.203.712zm4.832 8.393l-10.275 10.275a.72.72 0 01-1.017 0 .722.722 0 010-1.018l10.275-10.275a.72.72 0 011.017 1.018zm18.058-31.283a.754.754 0 01-.712.204c-.407-.102-.611-.509-.509-.916l3.764-14.039c.102-.407.509-.61.916-.508.406.101.61.508.508.915l-3.713 13.988c-.051.153-.153.255-.254.356zm-9.665 0c-.101.102-.152.153-.305.204-.407.102-.814-.102-.916-.509l-3.764-14.039c-.101-.407.102-.814.509-.915.407-.102.814.101.916.508l3.764 14.039a.753.753 0 01-.204.712z" fill="#FCFBFA"/></g><g clip-path="url(#clip1)"><path d="M80.725 58.575c-1.296 1.145-2.64 2.092-3.85 3.374-1.462 1.55-2.617 3.289-3.65 5.103-.504.957-1.046 1.974-1.612 2.893l-1.734 2.818c-1.17 1.899-2.216 3.873-3.041 5.9a21.924 21.924 0 00-.665 2.04c1.437.547 2.723 1.34 3.92 2.414 5.202 4.723 5.554 12.796.83 17.998-3.36 3.675-8.445 4.937-12.884 3.64l-.199 1.145a33.15 33.15 0 01-4.479 10.843c-1.796 2.78-4.167 5.122-6.453 7.6a102.303 102.303 0 00-3.087 3.506 43.756 43.756 0 005.895 2.362c.132-.764.646-1.461 1.437-1.649 1.066-.358 2.267.297 2.625 1.362.156.434.113.915-.052 1.32a40.662 40.662 0 0016.424-.195c-.326-.707-.156-1.532.382-2.13.787-.867 2.083-.914 2.95-.127.39.326.546.759.64 1.155a38.236 38.236 0 0014.074-8.315c-.636-.476-.923-1.244-.753-2.069.259-1.107 1.39-1.847 2.498-1.587.442.103.871.367 1.163.716 3.738-4.288 6.496-9.179 8.048-14.306-.764-.132-1.461-.646-1.65-1.438-.357-1.065.298-2.266 1.363-2.624.434-.156.914-.113 1.32.052a40.682 40.682 0 00-.195-16.424c-.707.325-1.532.156-2.13-.382-.867-.787-.914-2.083-.127-2.95.326-.391.76-.547 1.155-.64a40.318 40.318 0 00-8.338-14.173c-.477.636-1.245.923-2.07.753-1.107-.26-1.847-1.39-1.587-2.498.104-.443.368-.871.716-1.164a42.928 42.928 0 00-6.535-4.615c-.075.123-.212.208-.349.292z" fill="#F6D633"/><path d="M76.786 102.021a.721.721 0 01.99-.236l12.435 7.656a.721.721 0 01.235.99.72.72 0 01-.99.235l-12.373-7.618c-.368-.226-.523-.66-.297-1.027zm2.759-9.284a.755.755 0 01.645-.363l14.59.451c.42.005.712.354.707.773-.004.42-.353.712-.772.707l-14.53-.413c-.419-.005-.711-.354-.706-.773a.55.55 0 01.066-.382zm-2.237-9.402c.076-.122.113-.184.25-.268l12.848-6.874c.372-.193.815-.089 1.008.283.194.373.09.816-.282 1.009l-12.849 6.873c-.372.193-.815.09-1.008-.283a.858.858 0 01.033-.74zm-6.643-7.046l7.618-12.374a.72.72 0 01.99-.236.72.72 0 01.235.99L71.89 77.043a.72.72 0 01-.99.235.72.72 0 01-.235-.99zm-10.328 34.612a.755.755 0 01.646-.363c.42.005.712.354.707.773l-.413 14.529c-.005.419-.354.711-.773.707-.42-.005-.712-.354-.707-.773l.375-14.468c.014-.16.09-.283.165-.405zm9.403-2.237c.075-.122.112-.183.25-.268.372-.193.814-.09 1.008.283l6.91 12.787c.194.372.09.815-.282 1.008-.373.193-.816.089-1.009-.283l-6.91-12.787a.756.756 0 01.032-.74z" fill="#FCFBFA"/></g><g clip-path="url(#clip2)"><path d="M74.854 227.985c1.002 1.409 1.802 2.845 2.948 4.185 1.388 1.617 2.995 2.949 4.69 4.167.898.602 1.853 1.249 2.707 1.908l2.62 2.022c1.764 1.363 3.617 2.612 5.545 3.647.657.325 1.258.607 1.959.876a12.402 12.402 0 012.814-3.644c5.245-4.674 13.31-4.173 17.985 1.073 3.3 3.73 4.018 8.92 2.26 13.197l1.118.318a33.133 33.133 0 0110.31 5.598c2.575 2.079 4.654 4.684 6.877 7.219a102.53 102.53 0 003.161 3.44 43.653 43.653 0 002.97-5.613c-.745-.212-1.384-.796-1.488-1.604-.243-1.097.535-2.222 1.632-2.466.447-.109.921-.016 1.307.191a40.676 40.676 0 001.539-16.352c-.738.248-1.54-.008-2.078-.605-.779-.874-.689-2.168.185-2.947.365-.355.812-.464 1.216-.516a38.25 38.25 0 00-6.784-14.872c-.541.583-1.335.787-2.137.531-1.074-.374-1.69-1.577-1.315-2.651.15-.43.457-.828.835-1.082-3.87-4.169-8.442-7.428-13.377-9.512-.212.746-.797 1.385-1.604 1.489-1.097.243-2.223-.535-2.466-1.632-.109-.448-.016-.921.191-1.307a40.68 40.68 0 00-16.353-1.539c.249.738-.007 1.54-.604 2.078-.875.779-2.168.689-2.947-.185-.355-.365-.464-.812-.516-1.216a40.318 40.318 0 00-14.973 6.797c.582.54.787 1.335.531 2.137-.374 1.074-1.577 1.69-2.651 1.315a2.222 2.222 0 01-1.082-.835 42.923 42.923 0 00-5.279 6.012c.114.088.184.233.254.378z" fill="#F6D633"/><path d="M117.641 236.485a.72.72 0 01-.13-1.009l8.925-11.558a.72.72 0 011.139.879l-8.881 11.501c-.264.342-.711.451-1.053.187zm-8.94-3.723a.754.754 0 01-.293-.68l1.987-14.462c.049-.416.427-.67.843-.621.417.049.671.427.622.843l-1.944 14.405c-.049.416-.426.67-.843.621a.546.546 0 01-.372-.106zm-9.586 1.232c-.114-.088-.17-.131-.24-.276l-5.48-13.502c-.153-.39-.003-.82.388-.973.39-.153.82-.003.973.388l5.479 13.501c.153.391.003.821-.388.973a.858.858 0 01-.732-.111zm-7.708 5.863l-11.501-8.881a.72.72 0 01-.13-1.009.721.721 0 011.009-.129l11.501 8.881a.72.72 0 01.13 1.009.721.721 0 01-1.01.129zm33.329 13.922a.758.758 0 01-.292-.681c.049-.416.426-.67.843-.621l14.404 1.943c.417.049.671.427.622.844-.049.416-.427.67-.844.621l-14.347-1.899c-.158-.031-.272-.119-.386-.207zm-1.232-9.586c-.114-.088-.171-.132-.241-.277-.152-.39-.002-.82.388-.973l13.445-5.523c.39-.153.82-.003.973.388.152.39.003.82-.388.973l-13.445 5.523a.755.755 0 01-.732-.111z" fill="#FCFBFA"/></g><g clip-path="url(#clip3)"><path d="M199.998 113.827c.625 1.612 1.047 3.201 1.829 4.781.948 1.908 2.178 3.594 3.522 5.192.722.805 1.489 1.666 2.155 2.515l2.041 2.604c1.376 1.755 2.865 3.422 4.479 4.898.558.478 1.07.898 1.684 1.331 1.011-1.158 2.2-2.09 3.623-2.84 6.234-3.242 13.928-.773 17.169 5.461 2.282 4.427 1.703 9.634-1.053 13.348l1.006.583a33.14 33.14 0 018.617 7.961c1.985 2.648 3.359 5.684 4.891 8.688a103.655 103.655 0 002.218 4.111 43.752 43.752 0 004.26-4.71c-.671-.389-1.147-1.113-1.049-1.921.034-1.123 1.065-2.023 2.188-1.989.461.005.897.211 1.22.506a40.666 40.666 0 005.512-15.472c-.776.06-1.491-.385-1.866-1.097-.54-1.039-.135-2.271.904-2.811.441-.254.902-.249 1.306-.201a38.256 38.256 0 00-2.92-16.083c-.667.431-1.487.435-2.202-.011-.949-.627-1.25-1.944-.623-2.893.251-.38.647-.69 1.076-.843-2.726-4.993-6.358-9.276-10.629-12.509-.388.671-1.112 1.147-1.92 1.049-1.123-.034-2.023-1.065-1.99-2.188.005-.461.211-.897.507-1.22a40.67 40.67 0 00-15.473-5.512c.06.776-.385 1.491-1.097 1.866-1.039.54-2.27.135-2.811-.904-.254-.441-.249-.902-.2-1.306a40.318 40.318 0 00-16.185 2.908c.432.667.435 1.487-.01 2.202-.628.948-1.945 1.25-2.894.623a2.219 2.219 0 01-.843-1.076 42.943 42.943 0 00-6.595 4.53c.089.113.121.271.153.429z" fill="#F6D633"/><path d="M239.383 132.584a.72.72 0 01.122-1.009l11.492-9.01a.72.72 0 01.888 1.132l-11.436 8.965c-.34.267-.8.262-1.066-.078zm-7.751-5.806a.754.754 0 01-.117-.731l5.482-13.529c.15-.392.578-.545.97-.395.392.15.545.578.395.97l-5.425 13.485c-.15.391-.578.544-.97.395a.556.556 0 01-.335-.195zm-9.595-1.162c-.088-.113-.133-.17-.165-.327l-1.992-14.435c-.052-.416.199-.795.615-.847.416-.052.796.198.848.615l1.992 14.434c.052.416-.199.796-.615.848a.86.86 0 01-.683-.288zm-8.913 3.788l-8.965-11.436a.721.721 0 01.123-1.01.721.721 0 011.01.123l8.965 11.436a.721.721 0 01-.123 1.01.722.722 0 01-1.01-.123zm28.885 21.688a.756.756 0 01-.117-.732c.15-.391.579-.544.971-.394l13.484 5.424c.392.15.545.579.395.97-.15.392-.578.545-.97.395l-13.44-5.368c-.146-.069-.234-.182-.323-.295zm1.162-9.594c-.089-.114-.133-.17-.165-.328-.052-.416.199-.796.615-.848l14.39-2.048c.416-.052.795.198.847.615.052.416-.199.795-.615.847l-14.389 2.049a.757.757 0 01-.683-.287z" fill="#FCFBFA"/></g><defs><clipPath id="clip0"><path fill="#fff" transform="translate(114.159 117.686)" d="M0 0h70v70H0z"/></clipPath><clipPath id="clip1"><path fill="#fff" transform="rotate(166.619 49.925 67.689)" d="M0 0h70v70H0z"/></clipPath><clipPath id="clip2"><path fill="#fff" transform="rotate(82.674 -43.77 181.106)" d="M0 0h70v70H0z"/></clipPath><clipPath id="clip3"><path fill="#fff" transform="rotate(96.906 89.25 172.335)" d="M0 0h70v70H0z"/></clipPath></defs></svg>