<svg width="301" height="300" viewBox="0 0 301 300" fill="none" xmlns="http://www.w3.org/2000/svg"><path d="M163.541 65.524c4.43-6.277 3.992-14.21-.979-17.718-4.971-3.51-12.592-1.265-17.023 5.012-4.431 6.276-3.993 14.21.978 17.718 4.971 3.51 12.593 1.265 17.024-5.012z" fill="#000"/><path d="M163.265 53.038c-.514.747-2.241.42-3.875-.746-1.634-1.12-2.521-2.661-2.007-3.408.513-.747 2.241-.42 3.874.747 1.634 1.167 2.521 2.66 2.008 3.407z" fill="#58595B"/><path d="M224.509 103.326c5.558-5.304 6.657-13.173 2.456-17.575-4.201-4.401-12.112-3.669-17.67 1.636-5.558 5.305-6.658 13.174-2.456 17.575 4.201 4.402 12.112 3.669 17.67-1.636z" fill="#000"/><path d="M226.645 91.022c-.648.634-2.279-.02-3.658-1.48-1.387-1.415-1.96-3.097-1.312-3.731.648-.634 2.279.02 3.658 1.48 1.378 1.46 1.96 3.097 1.312 3.73z" fill="#58595B"/><path d="M234.087 182.522c7.681.199 14.035-4.571 14.192-10.653.158-6.083-5.941-11.175-13.622-11.374-7.68-.199-14.034 4.571-14.192 10.654-.157 6.082 5.942 11.174 13.622 11.373z" fill="#000"/><path d="M244.317 175.359c-.906-.013-1.593-1.63-1.53-3.637.024-1.981.813-3.574 1.719-3.562.906.012 1.594 1.63 1.531 3.637-.064 2.007-.813 3.574-1.72 3.562z" fill="#58595B"/><path d="M195.548 232.99c6.729 3.709 14.565 2.395 17.502-2.934 2.937-5.328-.137-12.655-6.866-16.363-6.728-3.709-14.564-2.396-17.501 2.933-2.937 5.329.137 12.656 6.865 16.364z" fill="#000"/><path d="M207.927 231.333c-.799-.427-.666-2.18.313-3.933.933-1.748 2.366-2.8 3.165-2.372.799.427.666 2.18-.313 3.933-.979 1.753-2.366 2.8-3.165 2.372z" fill="#58595B"/><path d="M128.389 228.721c-4.592 6.16-4.36 14.102.518 17.739 4.878 3.637 12.555 1.592 17.148-4.568 4.592-6.16 4.36-14.101-.518-17.738-4.878-3.637-12.555-1.592-17.148 4.567z" fill="#000"/><path d="M128.341 241.21c.533-.733 2.251-.361 3.854.848 1.604 1.162 2.45 2.725 1.918 3.459-.533.733-2.251.361-3.854-.848-1.603-1.209-2.451-2.725-1.918-3.459z" fill="#58595B"/><path d="M68.18 177.891c-6.127 4.637-8.116 12.329-4.444 17.18 3.673 4.852 11.616 5.026 17.742.389 6.126-4.637 8.115-12.329 4.443-17.181-3.672-4.852-11.616-5.025-17.742-.388z" fill="#000"/><path d="M64.655 189.872c.716-.556 2.263.279 3.465 1.887 1.217 1.563 1.595 3.3.88 3.856-.717.556-2.263-.279-3.466-1.887-1.203-1.608-1.595-3.3-.88-3.856z" fill="#58595B"/><path d="M59.88 113.896c-7.683.095-13.85 5.104-13.775 11.188.075 6.084 6.364 10.939 14.046 10.845 7.683-.095 13.85-5.104 13.775-11.188-.075-6.085-6.364-10.94-14.046-10.845z" fill="#000"/><path d="M49.93 121.445c.907-.022 1.656 1.568 1.67 3.576.05 1.98-.677 3.602-1.583 3.625-.906.022-1.655-1.568-1.668-3.576-.014-2.008.676-3.603 1.582-3.625z" fill="#58595B"/><path d="M109.906 71.86c-6.308-4.386-14.237-3.893-17.711 1.103-3.474 4.995-1.177 12.601 5.131 16.988 6.308 4.386 14.238 3.892 17.712-1.103 3.474-4.996 1.176-12.601-5.132-16.988z" fill="#000"/><path d="M97.422 72.224c.751.508.436 2.238-.72 3.88-1.108 1.641-2.642 2.54-3.393 2.03-.75-.507-.436-2.237.72-3.879s2.643-2.54 3.394-2.031z" fill="#58595B"/></svg>