<svg width="301" height="300" viewBox="0 0 301 300" fill="none" xmlns="http://www.w3.org/2000/svg"><path d="M178.196 255.054c17.864 0 32.346-13.427 32.346-29.99s-14.482-29.99-32.346-29.99c-17.865 0-32.346 13.427-32.346 29.99s14.481 29.99 32.346 29.99z" fill="#F9D7DD"/><path d="M178.196 256.2c-18.657 0-33.874-14.135-33.874-31.518 0-17.446 15.217-31.582 33.874-31.582 18.656 0 33.874 14.136 33.874 31.582 0 17.383-15.155 31.518-33.874 31.518zm0-59.98c-16.937 0-30.754 12.735-30.754 28.398 0 15.664 13.817 28.398 30.754 28.398s30.754-12.734 30.754-28.398c0-15.663-13.754-28.398-30.754-28.398z" fill="#891652"/><path d="M178.196 250.088c14.875 0 26.933-11.033 26.933-24.642s-12.058-24.641-26.933-24.641c-14.876 0-26.934 11.032-26.934 24.641 0 13.609 12.058 24.642 26.934 24.642z" fill="#F9D7DD"/><path d="M178.196 250.342c-15.155 0-27.507-11.334-27.507-25.278 0-13.944 12.352-25.278 27.507-25.278 15.154 0 27.506 11.334 27.506 25.278 0 13.944-12.289 25.278-27.506 25.278zm0-49.346c-14.518 0-26.297 10.76-26.297 24.068 0 13.244 11.779 24.069 26.297 24.069 14.517-.064 26.297-10.825 26.297-24.069s-11.78-24.068-26.297-24.068z" fill="#891652"/><path d="M177.431 245.885c12.73 0 23.05-8.923 23.05-19.929 0-11.007-10.32-19.93-23.05-19.93-12.729 0-23.049 8.923-23.049 19.93 0 11.006 10.32 19.929 23.049 19.929z" fill="#F9D7DD"/><path d="M177.431 246.076c-13.052 0-23.686-9.233-23.686-20.503 0-11.334 10.634-20.502 23.686-20.502 13.053 0 23.687 9.232 23.687 20.502-.064 11.27-10.634 20.503-23.687 20.503zm0-39.796c-12.352 0-22.412 8.66-22.412 19.293 0 10.634 10.06 19.293 22.412 19.293 12.353 0 22.413-8.659 22.413-19.293 0-10.633-10.06-19.293-22.413-19.293z" fill="#891652"/><path d="M177.431 243.083c10.128 0 18.338-7.098 18.338-15.854s-8.21-15.855-18.338-15.855c-10.127 0-18.337 7.099-18.337 15.855s8.21 15.854 18.337 15.854z" fill="#F9D7DD"/><path d="M177.431 243.274c-10.442 0-18.974-7.386-18.974-16.491s8.532-16.491 18.974-16.491c10.443 0 18.975 7.386 18.975 16.491s-8.532 16.491-18.975 16.491zm0-31.645c-9.741 0-17.701 6.813-17.701 15.218 0 8.405 7.96 15.218 17.701 15.218 9.742 0 17.702-6.813 17.702-15.218 0-8.405-7.96-15.218-17.702-15.218z" fill="#891652"/><path d="M178.387 239.263c7.349 0 13.307-5.131 13.307-11.461s-5.958-11.461-13.307-11.461c-7.35 0-13.308 5.131-13.308 11.461s5.958 11.461 13.308 11.461z" fill="#F9D7DD"/><path d="M178.387 239.772c-7.578 0-13.754-5.348-13.754-11.97 0-6.622 6.176-11.971 13.754-11.971 7.577 0 13.753 5.349 13.753 11.971 0 6.558-6.176 11.97-13.753 11.97zm0-22.986c-7.068 0-12.862 4.967-12.862 11.016s5.73 11.015 12.862 11.015c7.067 0 12.862-4.966 12.862-11.015s-5.795-11.016-12.862-11.016z" fill="#891652"/><path d="M178.896 237.608c5.169 0 9.36-3.621 9.36-8.087 0-4.466-4.191-8.086-9.36-8.086s-9.36 3.62-9.36 8.086 4.191 8.087 9.36 8.087z" fill="#F9D7DD"/><path d="M178.896 238.053c-5.412 0-9.806-3.82-9.806-8.532s4.394-8.532 9.806-8.532c5.412 0 9.806 3.82 9.806 8.532s-4.394 8.532-9.806 8.532zm0-16.173c-4.903 0-8.914 3.439-8.914 7.641 0 4.203 4.011 7.641 8.914 7.641s8.914-3.438 8.914-7.641c0-4.202-4.011-7.641-8.914-7.641z" fill="#891652"/><path d="M146.05 176.53c17.864 0 32.346-13.427 32.346-29.99s-14.482-29.99-32.346-29.99c-17.864 0-32.346 13.427-32.346 29.99s14.482 29.99 32.346 29.99z" fill="#F9D7DD"/><path d="M146.05 177.676c-18.656 0-33.874-14.136-33.874-31.518 0-17.447 15.218-31.582 33.874-31.582 18.656 0 33.874 14.135 33.874 31.582 0 17.382-15.154 31.518-33.874 31.518zm0-59.98c-16.937 0-30.754 12.734-30.754 28.398 0 15.663 13.817 28.398 30.754 28.398s30.754-12.735 30.754-28.398c0-15.664-13.754-28.398-30.754-28.398z" fill="#891652"/><path d="M146.05 171.563c14.875 0 26.933-11.032 26.933-24.641 0-13.609-12.058-24.642-26.933-24.642s-26.934 11.033-26.934 24.642 12.059 24.641 26.934 24.641z" fill="#F9D7DD"/><path d="M146.05 171.818c-15.154 0-27.507-11.334-27.507-25.278 0-13.945 12.353-25.279 27.507-25.279 15.154 0 27.506 11.334 27.506 25.279 0 13.944-12.288 25.278-27.506 25.278zm0-49.347c-14.518 0-26.297 10.761-26.297 24.069 0 13.244 11.779 24.068 26.297 24.068 14.517-.064 26.297-10.824 26.297-24.068 0-13.244-11.78-24.069-26.297-24.069z" fill="#891652"/><path d="M145.286 167.361c12.73 0 23.049-8.923 23.049-19.93s-10.319-19.93-23.049-19.93c-12.73 0-23.05 8.923-23.05 19.93s10.32 19.93 23.05 19.93z" fill="#F9D7DD"/><path d="M145.286 167.552c-13.053 0-23.687-9.233-23.687-20.503 0-11.334 10.634-20.503 23.687-20.503s23.686 9.233 23.686 20.503c-.064 11.27-10.633 20.503-23.686 20.503zm0-39.796c-12.353 0-22.413 8.659-22.413 19.293 0 10.633 10.06 19.293 22.413 19.293 12.352 0 22.413-8.66 22.413-19.293 0-10.634-10.061-19.293-22.413-19.293z" fill="#891652"/><path d="M145.286 164.559c10.127 0 18.337-7.098 18.337-15.855 0-8.756-8.21-15.854-18.337-15.854-10.128 0-18.338 7.098-18.338 15.854 0 8.757 8.21 15.855 18.338 15.855z" fill="#F9D7DD"/><path d="M145.286 164.75c-10.443 0-18.975-7.386-18.975-16.491 0-9.106 8.532-16.492 18.975-16.492 10.442 0 18.974 7.386 18.974 16.492 0 9.105-8.532 16.491-18.974 16.491zm0-31.646c-9.742 0-17.702 6.813-17.702 15.218 0 8.405 7.96 15.218 17.702 15.218s17.701-6.813 17.701-15.218c0-8.405-7.959-15.218-17.701-15.218z" fill="#891652"/><path d="M146.241 160.739c7.349 0 13.307-5.132 13.307-11.461 0-6.33-5.958-11.462-13.307-11.462-7.35 0-13.308 5.132-13.308 11.462 0 6.329 5.958 11.461 13.308 11.461z" fill="#F9D7DD"/><path d="M146.241 161.248c-7.577 0-13.754-5.349-13.754-11.971s6.177-11.97 13.754-11.97 13.753 5.348 13.753 11.97c0 6.559-6.176 11.971-13.753 11.971zm0-22.986c-7.068 0-12.862 4.966-12.862 11.015s5.73 11.016 12.862 11.016c7.067 0 12.862-4.967 12.862-11.016s-5.795-11.015-12.862-11.015z" fill="#891652"/><path d="M146.75 159.083c5.169 0 9.36-3.62 9.36-8.086s-4.191-8.087-9.36-8.087-9.36 3.621-9.36 8.087c0 4.466 4.191 8.086 9.36 8.086z" fill="#F9D7DD"/><path d="M146.75 159.529c-5.412 0-9.806-3.82-9.806-8.532s4.394-8.532 9.806-8.532c5.412 0 9.806 3.82 9.806 8.532s-4.394 8.532-9.806 8.532zm0-16.173c-4.903 0-8.914 3.438-8.914 7.641 0 4.202 4.011 7.641 8.914 7.641s8.914-3.439 8.914-7.641c0-4.203-4.011-7.641-8.914-7.641z" fill="#891652"/><path d="M228.196 154.754c17.864 0 32.346-13.427 32.346-29.99s-14.482-29.99-32.346-29.99c-17.865 0-32.346 13.427-32.346 29.99s14.481 29.99 32.346 29.99z" fill="#F9D7DD"/><path d="M228.196 155.9c-18.657 0-33.874-14.136-33.874-31.518 0-17.447 15.217-31.582 33.874-31.582 18.656 0 33.874 14.135 33.874 31.582 0 17.382-15.155 31.518-33.874 31.518zm0-59.98c-16.937 0-30.754 12.734-30.754 28.398s13.817 28.398 30.754 28.398 30.754-12.734 30.754-28.398-13.754-28.398-30.754-28.398z" fill="#891652"/><path d="M228.196 149.787c14.875 0 26.933-11.032 26.933-24.641 0-13.609-12.058-24.642-26.933-24.642-14.876 0-26.934 11.033-26.934 24.642s12.058 24.641 26.934 24.641z" fill="#F9D7DD"/><path d="M228.196 150.042c-15.155 0-27.507-11.334-27.507-25.278 0-13.945 12.352-25.278 27.507-25.278 15.154 0 27.506 11.333 27.506 25.278 0 13.944-12.289 25.278-27.506 25.278zm0-49.347c-14.518 0-26.297 10.761-26.297 24.069 0 13.244 11.779 24.068 26.297 24.068 14.517-.063 26.297-10.824 26.297-24.068 0-13.244-11.78-24.069-26.297-24.069z" fill="#891652"/><path d="M227.431 145.585c12.73 0 23.05-8.923 23.05-19.93s-10.32-19.929-23.05-19.929c-12.729 0-23.049 8.922-23.049 19.929 0 11.007 10.32 19.93 23.049 19.93z" fill="#F9D7DD"/><path d="M227.431 145.776c-13.052 0-23.686-9.233-23.686-20.503 0-11.334 10.634-20.503 23.686-20.503 13.053 0 23.687 9.233 23.687 20.503-.064 11.27-10.634 20.503-23.687 20.503zm0-39.796c-12.352 0-22.412 8.66-22.412 19.293s10.06 19.293 22.412 19.293c12.353 0 22.413-8.66 22.413-19.293s-10.06-19.293-22.413-19.293z" fill="#891652"/><path d="M227.431 142.783c10.128 0 18.338-7.098 18.338-15.854 0-8.757-8.21-15.855-18.338-15.855-10.127 0-18.337 7.098-18.337 15.855 0 8.756 8.21 15.854 18.337 15.854z" fill="#F9D7DD"/><path d="M227.431 142.974c-10.442 0-18.974-7.386-18.974-16.491s8.532-16.492 18.974-16.492c10.443 0 18.975 7.387 18.975 16.492s-8.532 16.491-18.975 16.491zm0-31.645c-9.741 0-17.701 6.813-17.701 15.217 0 8.405 7.96 15.218 17.701 15.218 9.742 0 17.702-6.813 17.702-15.218 0-8.404-7.96-15.217-17.702-15.217z" fill="#891652"/><path d="M228.387 138.963c7.349 0 13.307-5.132 13.307-11.461 0-6.33-5.958-11.461-13.307-11.461-7.35 0-13.308 5.131-13.308 11.461 0 6.329 5.958 11.461 13.308 11.461z" fill="#F9D7DD"/><path d="M228.387 139.472c-7.578 0-13.754-5.348-13.754-11.97 0-6.622 6.176-11.971 13.754-11.971 7.577 0 13.753 5.349 13.753 11.971 0 6.558-6.176 11.97-13.753 11.97zm0-22.986c-7.068 0-12.862 4.967-12.862 11.016 0 6.048 5.73 11.015 12.862 11.015 7.067 0 12.862-4.967 12.862-11.015 0-6.049-5.795-11.016-12.862-11.016z" fill="#891652"/><path d="M228.896 137.307c5.169 0 9.36-3.62 9.36-8.086s-4.191-8.087-9.36-8.087-9.36 3.621-9.36 8.087c0 4.466 4.191 8.086 9.36 8.086z" fill="#F9D7DD"/><path d="M228.896 137.753c-5.412 0-9.806-3.82-9.806-8.532s4.394-8.532 9.806-8.532c5.412 0 9.806 3.82 9.806 8.532s-4.394 8.532-9.806 8.532zm0-16.173c-4.903 0-8.914 3.438-8.914 7.641 0 4.202 4.011 7.641 8.914 7.641s8.914-3.439 8.914-7.641c0-4.203-4.011-7.641-8.914-7.641z" fill="#891652"/><path d="M108.657 105.1c17.864 0 32.346-13.427 32.346-29.99s-14.482-29.99-32.346-29.99c-17.864 0-32.346 13.427-32.346 29.99s14.482 29.99 32.346 29.99z" fill="#F9D7DD"/><path d="M108.657 106.246c-18.656 0-33.874-14.136-33.874-31.518 0-17.447 15.218-31.582 33.874-31.582 18.656 0 33.874 14.135 33.874 31.582 0 17.382-15.154 31.518-33.874 31.518zm0-59.98C91.72 46.266 77.903 59 77.903 74.664c0 15.663 13.817 28.398 30.754 28.398s30.754-12.734 30.754-28.398-13.753-28.398-30.754-28.398z" fill="#891652"/><path d="M108.657 100.133c14.875 0 26.934-11.032 26.934-24.641 0-13.61-12.059-24.642-26.934-24.642-14.875 0-26.934 11.033-26.934 24.642s12.059 24.641 26.934 24.641z" fill="#F9D7DD"/><path d="M108.657 100.388c-15.154 0-27.507-11.334-27.507-25.278 0-13.945 12.353-25.279 27.507-25.279 15.154 0 27.507 11.334 27.507 25.279 0 13.944-12.289 25.278-27.507 25.278zm0-49.347c-14.517 0-26.297 10.761-26.297 24.069 0 13.244 11.78 24.068 26.297 24.068 14.517-.063 26.297-10.824 26.297-24.068 0-13.244-11.78-24.069-26.297-24.069z" fill="#891652"/><path d="M107.893 95.93c12.73 0 23.049-8.922 23.049-19.929 0-11.007-10.319-19.93-23.049-19.93-12.73 0-23.05 8.923-23.05 19.93s10.32 19.93 23.05 19.93z" fill="#F9D7DD"/><path d="M107.893 96.122c-13.053 0-23.687-9.233-23.687-20.503 0-11.334 10.634-20.503 23.687-20.503s23.686 9.233 23.686 20.503c-.064 11.27-10.633 20.503-23.686 20.503zm0-39.796c-12.353 0-22.413 8.66-22.413 19.293s10.06 19.293 22.413 19.293c12.352 0 22.413-8.66 22.413-19.293s-10.061-19.293-22.413-19.293z" fill="#891652"/><path d="M107.893 93.13c10.127 0 18.338-7.1 18.338-15.855 0-8.757-8.211-15.855-18.338-15.855-10.128 0-18.338 7.098-18.338 15.855 0 8.756 8.21 15.854 18.338 15.854z" fill="#F9D7DD"/><path d="M107.893 93.32c-10.443 0-18.975-7.386-18.975-16.491s8.532-16.492 18.975-16.492c10.442 0 18.974 7.386 18.974 16.492 0 9.105-8.532 16.491-18.974 16.491zm0-31.645c-9.742 0-17.701 6.813-17.701 15.217 0 8.405 7.959 15.218 17.701 15.218s17.701-6.813 17.701-15.218c0-8.404-7.959-15.217-17.701-15.217z" fill="#891652"/><path d="M108.848 89.309c7.349 0 13.308-5.132 13.308-11.461 0-6.33-5.959-11.462-13.308-11.462-7.35 0-13.308 5.132-13.308 11.462s5.958 11.46 13.308 11.46z" fill="#F9D7DD"/><path d="M108.848 89.818c-7.577 0-13.754-5.349-13.754-11.97 0-6.623 6.177-11.971 13.754-11.971s13.753 5.349 13.753 11.97c0 6.559-6.176 11.971-13.753 11.971zm0-22.986c-7.068 0-12.862 4.967-12.862 11.016 0 6.048 5.73 11.015 12.862 11.015 7.068 0 12.862-4.967 12.862-11.016 0-6.048-5.794-11.015-12.862-11.015z" fill="#891652"/><path d="M109.357 87.653c5.17 0 9.36-3.62 9.36-8.086s-4.19-8.087-9.36-8.087c-5.169 0-9.36 3.62-9.36 8.087 0 4.466 4.191 8.086 9.36 8.086z" fill="#F9D7DD"/><path d="M109.357 88.099c-5.412 0-9.805-3.82-9.805-8.532s4.393-8.532 9.805-8.532 9.806 3.82 9.806 8.532-4.394 8.532-9.806 8.532zm0-16.173c-4.903 0-8.914 3.438-8.914 7.64 0 4.203 4.011 7.642 8.914 7.642s8.915-3.439 8.915-7.641c0-4.203-4.012-7.64-8.915-7.64z" fill="#891652"/><path d="M74.983 216.965c17.864 0 32.346-13.427 32.346-29.99s-14.482-29.99-32.346-29.99c-17.864 0-32.346 13.427-32.346 29.99s14.482 29.99 32.346 29.99z" fill="#F9D7DD"/><path d="M74.983 218.111c-18.656 0-33.874-14.135-33.874-31.518 0-17.446 15.218-31.582 33.874-31.582 18.656 0 33.874 14.136 33.874 31.582 0 17.383-15.154 31.518-33.874 31.518zm0-59.98c-16.937 0-30.754 12.735-30.754 28.398 0 15.664 13.817 28.399 30.754 28.399s30.754-12.735 30.754-28.399c0-15.663-13.753-28.398-30.754-28.398z" fill="#891652"/><path d="M74.983 211.999c14.875 0 26.933-11.033 26.933-24.642s-12.058-24.641-26.933-24.641-26.934 11.032-26.934 24.641c0 13.609 12.059 24.642 26.934 24.642z" fill="#F9D7DD"/><path d="M74.983 212.253c-15.154 0-27.507-11.333-27.507-25.278 0-13.944 12.353-25.278 27.507-25.278 15.154 0 27.507 11.334 27.507 25.278 0 13.945-12.29 25.278-27.507 25.278zm0-49.346c-14.518 0-26.297 10.761-26.297 24.068 0 13.244 11.78 24.069 26.297 24.069 14.517-.064 26.297-10.825 26.297-24.069s-11.78-24.068-26.297-24.068z" fill="#891652"/><path d="M74.219 207.796c12.73 0 23.05-8.922 23.05-19.929 0-11.007-10.32-19.93-23.05-19.93s-23.05 8.923-23.05 19.93 10.32 19.929 23.05 19.929z" fill="#F9D7DD"/><path d="M74.219 207.987c-13.053 0-23.687-9.232-23.687-20.503 0-11.333 10.634-20.502 23.687-20.502s23.686 9.232 23.686 20.502c-.064 11.271-10.633 20.503-23.686 20.503zm0-39.796c-12.353 0-22.413 8.66-22.413 19.293 0 10.634 10.06 19.293 22.413 19.293 12.352 0 22.413-8.659 22.413-19.293 0-10.633-10.06-19.293-22.413-19.293z" fill="#891652"/><path d="M74.219 204.995c10.127 0 18.338-7.099 18.338-15.855s-8.21-15.855-18.338-15.855-18.338 7.099-18.338 15.855 8.21 15.855 18.338 15.855z" fill="#F9D7DD"/><path d="M74.219 205.186c-10.443 0-18.975-7.387-18.975-16.492s8.532-16.491 18.975-16.491c10.442 0 18.974 7.386 18.974 16.491s-8.532 16.492-18.974 16.492zm0-31.646c-9.742 0-17.701 6.813-17.701 15.218 0 8.405 7.959 15.218 17.7 15.218 9.743 0 17.702-6.813 17.702-15.218 0-8.405-7.96-15.218-17.701-15.218z" fill="#891652"/><path d="M75.174 201.174c7.35 0 13.307-5.131 13.307-11.461s-5.958-11.461-13.307-11.461c-7.35 0-13.308 5.131-13.308 11.461s5.958 11.461 13.308 11.461z" fill="#F9D7DD"/><path d="M75.174 201.684c-7.577 0-13.754-5.349-13.754-11.971s6.177-11.971 13.754-11.971 13.753 5.349 13.753 11.971c0 6.558-6.176 11.971-13.753 11.971zm0-22.986c-7.068 0-12.862 4.966-12.862 11.015s5.73 11.015 12.862 11.015c7.067 0 12.862-4.966 12.862-11.015s-5.794-11.015-12.862-11.015z" fill="#891652"/><path d="M75.683 199.519c5.17 0 9.36-3.621 9.36-8.087 0-4.466-4.19-8.086-9.36-8.086-5.17 0-9.36 3.62-9.36 8.086s4.19 8.087 9.36 8.087z" fill="#F9D7DD"/><path d="M75.683 199.965c-5.412 0-9.805-3.821-9.805-8.533 0-4.711 4.393-8.532 9.805-8.532s9.806 3.821 9.806 8.532c0 4.712-4.394 8.533-9.806 8.533zm0-16.173c-4.903 0-8.914 3.438-8.914 7.64 0 4.203 4.011 7.641 8.914 7.641s8.914-3.438 8.914-7.641c0-4.202-4.011-7.64-8.914-7.64z" fill="#891652"/></svg>