<svg width="301" height="301" viewBox="0 0 301 301" fill="none" xmlns="http://www.w3.org/2000/svg"><g clip-path="url(#clip0)"><path d="M122.223 95.853c13.252 0 23.994-10.743 23.994-23.994 0-13.252-10.742-23.994-23.994-23.994-13.251 0-23.993 10.742-23.993 23.994 0 13.251 10.742 23.994 23.993 23.994z" fill="#9B0A33"/><path d="M130.716 92.915c11.633-4.689 17.263-17.92 12.574-29.552-4.688-11.633-17.919-17.263-29.551-12.574-11.633 4.688-17.263 17.919-12.574 29.551 4.688 11.633 17.919 17.263 29.551 12.575z" fill="#AF0931"/><path d="M110.372 63.336a3.21 3.21 0 10.001-6.421 3.21 3.21 0 00-.001 6.42zm14.303-7.94a2.093 2.093 0 01-2.101 2.102 2.093 2.093 0 01-2.102-2.102c0-1.168.934-2.102 2.102-2.102 1.167 0 2.101.934 2.101 2.102zm12.318 8.173a3.637 3.637 0 01-3.619 3.62 3.638 3.638 0 01-3.62-3.62 3.638 3.638 0 013.62-3.62 3.6 3.6 0 013.619 3.62zm-16.112 3.97a1.926 1.926 0 100-3.852 1.926 1.926 0 000 3.852zm-8.582 6.713a3.911 3.911 0 11-3.911-3.911c2.16 0 3.911 1.693 3.911 3.911zm13.894 3.153a2.74 2.74 0 01-2.744 2.744 2.74 2.74 0 01-2.743-2.744 2.74 2.74 0 012.743-2.744 2.74 2.74 0 012.744 2.744zm13.544-1.109a2.927 2.927 0 01-2.919 2.919 2.891 2.891 0 01-2.919-2.92 2.928 2.928 0 012.919-2.918 2.89 2.89 0 012.919 2.919zm-8.056 10.041a1.82 1.82 0 01-1.81 1.81 1.82 1.82 0 01-1.81-1.81c0-.993.818-1.81 1.81-1.81.992 0 1.81.817 1.81 1.81zm-13.252.759a2.368 2.368 0 01-2.394 2.393 2.367 2.367 0 01-2.393-2.393 2.367 2.367 0 012.393-2.394 2.368 2.368 0 012.394 2.394z" fill="#FFC2C2"/></g><g clip-path="url(#clip1)"><path d="M151.723 163.452c13.252 0 23.994-10.742 23.994-23.994 0-13.251-10.742-23.993-23.994-23.993-13.251 0-23.993 10.742-23.993 23.993 0 13.252 10.742 23.994 23.993 23.994z" fill="#9B0A33"/><path d="M160.216 160.514c11.633-4.688 17.263-17.919 12.574-29.552-4.688-11.632-17.919-17.262-29.551-12.574-11.633 4.688-17.263 17.919-12.574 29.552 4.688 11.633 17.919 17.262 29.551 12.574z" fill="#AF0931"/><path d="M139.872 130.935a3.21 3.21 0 10.002-6.42 3.21 3.21 0 00-.002 6.42zm14.303-7.94a2.093 2.093 0 01-2.101 2.102 2.093 2.093 0 01-2.102-2.102c0-1.167.934-2.101 2.102-2.101 1.167 0 2.101.934 2.101 2.101zm12.318 8.174a3.637 3.637 0 01-3.619 3.619c-1.985 0-3.62-1.635-3.62-3.619a3.638 3.638 0 013.62-3.62 3.6 3.6 0 013.619 3.62zm-16.112 3.969a1.926 1.926 0 100-3.851 1.926 1.926 0 000 3.851zm-8.582 6.714a3.911 3.911 0 11-3.911-3.912c2.16 0 3.911 1.693 3.911 3.912zm13.894 3.153a2.74 2.74 0 01-2.744 2.743 2.74 2.74 0 01-2.743-2.743 2.74 2.74 0 012.743-2.744 2.74 2.74 0 012.744 2.744zm13.544-1.11a2.927 2.927 0 01-2.919 2.919 2.89 2.89 0 01-2.919-2.919c0-1.576 1.285-2.919 2.919-2.919a2.89 2.89 0 012.919 2.919zm-8.056 10.041a1.82 1.82 0 01-1.81 1.81 1.82 1.82 0 01-1.81-1.81c0-.992.818-1.81 1.81-1.81.992 0 1.81.818 1.81 1.81zm-13.252.759a2.368 2.368 0 01-2.394 2.394 2.367 2.367 0 01-2.393-2.394 2.367 2.367 0 012.393-2.393 2.368 2.368 0 012.394 2.393z" fill="#FFC2C2"/></g><g clip-path="url(#clip2)"><path d="M109.687 253.253c13.251 0 23.993-10.742 23.993-23.994 0-13.251-10.742-23.993-23.993-23.993-13.252 0-23.994 10.742-23.994 23.993 0 13.252 10.742 23.994 23.994 23.994z" fill="#9B0A33"/><path d="M118.18 250.315c11.632-4.688 17.262-17.919 12.574-29.552-4.688-11.632-17.919-17.262-29.552-12.574-11.633 4.688-17.262 17.919-12.574 29.552 4.688 11.633 17.919 17.262 29.552 12.574z" fill="#AF0931"/><path d="M97.836 220.736a3.21 3.21 0 100-6.422 3.21 3.21 0 000 6.422zm14.303-7.94a2.093 2.093 0 01-2.102 2.102 2.093 2.093 0 01-2.102-2.102c0-1.167.934-2.101 2.102-2.101 1.168 0 2.102.934 2.102 2.101zm12.318 8.174c0 1.984-1.635 3.619-3.62 3.619a3.637 3.637 0 01-3.619-3.619 3.638 3.638 0 013.619-3.62 3.6 3.6 0 013.62 3.62zm-16.113 3.969a1.926 1.926 0 100-3.851 1.926 1.926 0 000 3.851zm-8.582 6.714a3.911 3.911 0 11-3.911-3.912c2.16 0 3.911 1.693 3.911 3.912zm13.895 3.153a2.74 2.74 0 01-2.744 2.743 2.74 2.74 0 01-2.744-2.743 2.74 2.74 0 012.744-2.744 2.74 2.74 0 012.744 2.744zm13.543-1.11a2.927 2.927 0 01-2.919 2.919 2.89 2.89 0 01-2.918-2.919c0-1.576 1.284-2.919 2.918-2.919a2.89 2.89 0 012.919 2.919zm-8.056 10.041c0 .993-.817 1.81-1.81 1.81a1.818 1.818 0 01-1.809-1.81c0-.992.817-1.81 1.809-1.81.993 0 1.81.818 1.81 1.81zm-13.252.759a2.368 2.368 0 01-2.393 2.394 2.368 2.368 0 01-2.394-2.394 2.368 2.368 0 012.394-2.393 2.367 2.367 0 012.393 2.393z" fill="#FFC2C2"/></g><g clip-path="url(#clip3)"><path d="M215.149 241.753c9.329-3.26 14.249-13.466 10.989-22.795-3.26-9.329-13.465-14.249-22.795-10.989-9.329 3.26-14.249 13.465-10.989 22.794 3.26 9.33 13.466 14.25 22.795 10.99z" fill="#9B0A33"/><path d="M220.405 237.595c7.037-6.162 7.745-16.862 1.583-23.898-6.163-7.037-16.862-7.745-23.899-1.583-7.036 6.163-7.744 16.862-1.582 23.899 6.162 7.036 16.862 7.744 23.898 1.582z" fill="#AF0931"/><path d="M198.806 221.776a2.395 2.395 0 10-1.58-4.522 2.395 2.395 0 001.58 4.522zm8.116-9.109a1.56 1.56 0 01-.962 1.997 1.562 1.562 0 01-1.997-.963 1.56 1.56 0 01.963-1.996 1.56 1.56 0 011.996.962zm10.683 2.724a2.712 2.712 0 01-1.658 3.438 2.712 2.712 0 01-3.438-1.657 2.712 2.712 0 011.657-3.439 2.685 2.685 0 013.439 1.658zm-10.367 6.759a1.437 1.437 0 10-.95-2.713 1.437 1.437 0 00.95 2.713zm-4.39 6.837a2.918 2.918 0 11-3.716-1.791 2.889 2.889 0 013.716 1.791zm10.557-1.199a2.044 2.044 0 01-1.256 2.607 2.043 2.043 0 01-2.607-1.257 2.043 2.043 0 011.257-2.606 2.043 2.043 0 012.606 1.256zm9.263-4.112a2.184 2.184 0 01-1.337 2.773 2.155 2.155 0 01-2.773-1.337 2.183 2.183 0 011.337-2.773 2.156 2.156 0 012.773 1.337zm-3.202 9.051a1.356 1.356 0 01-.829 1.719 1.356 1.356 0 01-1.719-.829 1.356 1.356 0 01.829-1.719 1.356 1.356 0 011.719.829zm-9.143 3.794a1.766 1.766 0 01-1.096 2.274 1.766 1.766 0 01-2.274-1.096 1.766 1.766 0 011.096-2.274 1.766 1.766 0 012.274 1.096z" fill="#FFC2C2"/></g><g clip-path="url(#clip4)"><path d="M215.951 182.226c12.159 5.27 26.287-.314 31.558-12.472 5.27-12.158-.314-26.287-12.472-31.557-12.159-5.27-26.287.314-31.557 12.472-5.271 12.158.313 26.287 12.471 31.557z" fill="#9B0A33"/><path d="M224.912 182.908c12.538.325 22.965-9.575 23.29-22.113.325-12.538-9.575-22.965-22.113-23.29-12.537-.325-22.965 9.575-23.29 22.113-.325 12.538 9.576 22.965 22.113 23.29z" fill="#AF0931"/><path d="M218.011 147.678a3.211 3.211 0 102.553-5.893 3.211 3.211 0 00-2.553 5.893zm16.28-1.596a2.093 2.093 0 01-2.764 1.092 2.092 2.092 0 01-1.092-2.764 2.092 2.092 0 012.764-1.092 2.092 2.092 0 011.092 2.764zm8.052 12.397a3.638 3.638 0 01-4.761 1.882 3.638 3.638 0 01-1.881-4.761c.789-1.821 2.939-2.67 4.76-1.881a3.6 3.6 0 011.882 4.76zm-16.363-2.765a1.926 1.926 0 101.533-3.534 1.926 1.926 0 00-1.533 3.534zm-10.544 2.746a3.911 3.911 0 11-2.033-5.144c1.982.859 2.916 3.109 2.033 5.144zm11.495 8.419a2.74 2.74 0 01-3.609 1.426 2.74 2.74 0 01-1.426-3.609 2.74 2.74 0 013.608-1.426 2.742 2.742 0 011.427 3.609zm12.868 4.369c-.627 1.446-2.34 2.167-3.839 1.517a2.89 2.89 0 01-1.518-3.839c.627-1.446 2.34-2.167 3.839-1.517a2.89 2.89 0 011.518 3.839zm-11.386 6.008a1.818 1.818 0 01-2.38.941 1.82 1.82 0 01-.941-2.38 1.82 1.82 0 012.381-.941c.91.395 1.335 1.47.94 2.38zm-12.46-4.574a2.368 2.368 0 01-3.148 1.244 2.368 2.368 0 01-1.245-3.148 2.367 2.367 0 013.148-1.244 2.368 2.368 0 011.245 3.148z" fill="#FFC2C2"/></g><g clip-path="url(#clip5)"><path d="M62.215 166.591c11.455 0 20.74-9.286 20.74-20.74 0-11.455-9.285-20.741-20.74-20.741-11.454 0-20.74 9.286-20.74 20.741 0 11.454 9.286 20.74 20.74 20.74z" fill="#9B0A33"/><path d="M69.557 164.052c10.055-4.053 14.921-15.49 10.869-25.545-4.053-10.056-15.49-14.922-25.545-10.869-10.055 4.052-14.922 15.489-10.87 25.544 4.053 10.056 15.49 14.922 25.546 10.87z" fill="#AF0931"/><path d="M51.971 138.483a2.776 2.776 0 100-5.551 2.776 2.776 0 000 5.551zm12.364-6.863a1.81 1.81 0 01-1.817 1.817 1.81 1.81 0 01-1.817-1.817 1.81 1.81 0 011.817-1.817 1.81 1.81 0 011.817 1.817zm10.648 7.065a3.144 3.144 0 01-3.13 3.129 3.145 3.145 0 01-3.128-3.129 3.145 3.145 0 013.129-3.129 3.112 3.112 0 013.129 3.129zm-13.928 3.431a1.665 1.665 0 100-3.33 1.665 1.665 0 000 3.33zm-7.418 5.804a3.381 3.381 0 11-3.382-3.381c1.868 0 3.382 1.463 3.382 3.381zm12.01 2.725a2.37 2.37 0 01-2.372 2.372 2.37 2.37 0 01-2.372-2.372 2.37 2.37 0 012.372-2.372 2.37 2.37 0 012.372 2.372zm11.707-.959a2.53 2.53 0 01-2.523 2.523 2.498 2.498 0 01-2.523-2.523 2.53 2.53 0 012.523-2.523 2.499 2.499 0 012.523 2.523zm-6.964 8.68c0 .857-.706 1.564-1.564 1.564a1.573 1.573 0 01-1.564-1.564c0-.858.706-1.565 1.564-1.565.858 0 1.564.707 1.564 1.565zm-11.455.656c0 1.16-.908 2.069-2.069 2.069a2.047 2.047 0 01-2.069-2.069c0-1.161.909-2.069 2.07-2.069 1.16 0 2.068.908 2.068 2.069z" fill="#FFC2C2"/></g><defs><clipPath id="clip0"><path fill="#fff" transform="translate(92.664 42.3)" d="M0 0h59v59H0z"/></clipPath><clipPath id="clip1"><path fill="#fff" transform="translate(122.164 109.899)" d="M0 0h59v59H0z"/></clipPath><clipPath id="clip2"><path fill="#fff" transform="translate(80.128 199.7)" d="M0 0h59v59H0z"/></clipPath><clipPath id="clip3"><path fill="#fff" transform="rotate(-19.261 713.264 -428.155)" d="M0 0h44v44H0z"/></clipPath><clipPath id="clip4"><path fill="#fff" transform="rotate(23.435 -187.434 567.219)" d="M0 0h59v59H0z"/></clipPath><clipPath id="clip5"><path fill="#fff" transform="translate(36.664 120.3)" d="M0 0h51v51H0z"/></clipPath></defs></svg>