<svg width="301" height="301" viewBox="0 0 301 301" fill="none" xmlns="http://www.w3.org/2000/svg"><path d="M296.876 125.287c2.521 16.096 5.547 34.42 2.017 49.707-4.437 19.336-13.817 47.683-25.012 63.273-21.785 30.27-55.773 52.34-102.872 59.831-48.31 7.593-86.735-2.632-120.017-33.307-24.307-22.373-42.46-51.934-47.907-87.165-2.622-16.805-3.731-35.028-1.008-50.922C7.927 92.79 25.273 65.456 49.579 42.88 70.457 23.645 96.174 7.042 127.036 2.182c39.737-6.276 75.036 5.569 105.999 26.22 34.291 22.982 56.983 53.15 63.841 96.885z" fill="#E06F00"/><path d="M292.842 125.995c2.42 15.692 5.446 33.51 2.017 48.392-4.337 18.83-13.414 46.467-24.306 61.552-21.18 29.46-54.26 50.922-100.048 58.211-46.999 7.39-84.315-2.531-116.69-32.396-23.801-21.867-41.35-50.618-46.796-84.836-2.522-16.3-3.631-34.117-1.009-49.505 5.648-33.004 22.592-59.629 46.293-81.496C72.575 27.188 97.587 11.09 127.64 6.333 166.37.26 200.66 11.8 230.816 31.845c33.282 22.17 55.369 51.53 62.026 94.15z" fill="#F4810F"/><path d="M278.521 129.943c2.218 13.971 4.841 29.865 1.714 43.127-3.933 16.806-12.103 41.406-21.885 54.972-19.062 26.221-45.587 47.48-89.963 51.935-42.561 4.252-75.742-2.126-104.789-28.752-21.28-19.437-37.013-45.05-41.855-75.624-2.32-14.578-3.227-30.371-.806-44.139 5.143-29.46 20.271-53.15 41.653-72.688 18.255-16.704 40.745-31.08 67.674-35.332 34.795-5.467 62.126.203 89.155 18.122 29.854 19.74 53.151 50.416 59.102 88.379z" fill="#E06F00"/><path d="M273.78 130.754c2.118 13.464 4.64 28.751 1.715 41.507-3.833 16.096-11.699 39.887-21.079 52.845-18.355 25.31-43.973 45.76-86.634 50.012-40.948 4.15-72.919-2.126-100.855-27.638-20.474-18.729-35.703-43.33-40.242-72.79-2.218-13.97-3.126-29.257-.806-42.519 4.941-28.347 19.565-51.226 40.039-69.955C83.467 46.12 105.151 32.25 131.07 28.1c33.484-5.264 59.807.203 85.828 17.413 28.744 19.134 51.134 48.695 56.882 85.242z" fill="#B51212"/><path d="M269.04 131.563c2.017 12.959 4.438 27.638 1.614 39.989-3.631 15.489-11.195 38.369-20.272 50.922-17.65 24.297-42.258 44.038-83.306 48.189-39.435 3.948-70.195-2.025-97.124-26.625-19.666-18.021-34.29-41.71-38.728-70.056-2.118-13.465-3.026-28.144-.807-40.9 4.74-27.233 18.86-49.303 38.527-67.323 16.943-15.49 37.719-28.852 62.732-32.8 32.172-5.063 57.588.202 82.6 16.805 27.735 18.121 49.318 46.569 54.764 81.799z" fill="#EBB4A8"/><path d="M187.7 224.1c.7.2 4.1 2 4.5.3.4-1.7-3.8-1.5-4.3-1.2-.1.4-.2.9-.2.9zm-52 23.1c.1 3.9-6.8 9.7-8.1 9.1-1.2-.7 6.6-6.3 8.1-9.1z" fill="#41B619"/><path d="M191.6 224c3.1-.2 6.1 4.8 5.5 5.2-.6.4-3.2-3.7-5.5-5.2zm-45.391-54.295c3 .9 6 9.3 4.2 9.6-.7.2-2.5-7.5-4.2-9.6zM71.7 204.644c3 .9 6 9.3 4.2 9.6-.7.2-2.5-7.5-4.2-9.6zM82 78.4c3 .9 6 9.3 4.2 9.6-.7.2-2.5-7.5-4.2-9.6zm132.9 116.8c-2.4-4.4-14.7-.9-14.2.5s10.4-2.6 14.2-.5zm0 0c-.9 5.6-7.7 8.8-6.3 9.4 1.3.5 8.7-3.3 6.3-9.4z" fill="#41B619"/><path d="M214.9 195.2c5.6.4 3.1 10.6 4.6 10.3 1.4-.4 1.4-12.5-4.6-10.3zM54.7 173.702c-2.4-4.4-14.7-.9-14.2.5.6 1.4 10.5-2.6 14.2-.5zM210.9 122.7c-4.7-1.8-11.8 8.8-10.5 9.5 1.3.8 6.3-8.7 10.5-9.5zm-62.319-6.121c-4.7-1.8-11.8 8.8-10.5 9.5 1.3.8 6.3-8.7 10.5-9.5zm5.328-55.929c-4.7-1.8-11.8 8.8-10.5 9.5 1.3.8 6.3-8.7 10.5-9.5zm23.711-19.893c-.468-5.011-13.117-6.681-13.168-5.206-.142 1.52 10.59 1.795 13.168 5.206zM124.2 51c-.9 5.6-7.7 8.8-6.3 9.4 1.4.5 8.7-3.3 6.3-9.4zm75 100.5c5.6.4 3.1 10.6 4.6 10.3 1.5-.4 1.5-12.5-4.6-10.3zm55.1-9.455c5.6.4 3.1 10.6 4.6 10.3 1.4-.3 1.4-12.4-4.6-10.3z" fill="#41B619"/><path d="M224 225.3l-2 1.5-.6-1.9 1.2-1.6 1.4 2zm-142-85l-2 1.5-.6-1.9 1.2-1.6 1.4 2zm-24.7-18.8l-2 1.5-.6-1.9 1.2-1.6 1.4 2zm140.2 60l-.7 2.4-1.6-1.1-.1-2 2.4.7zm-70.42-45.6l-.7 2.4-1.6-1.1-.1-2 2.4.7zm51.924-30l-.7 2.4-1.6-1.1-.1-2 2.4.7zM226.4 76l-.7 2.4-1.6-1.1-.1-2 2.4.7zm-10.1 74.5l-2.4-.4 1-1.7 1.9-.3-.5 2.4zm-103 76.3l-2.4-.4 1-1.7 1.9-.3-.5 2.4zm125-107.3l-2.4-.4 1-1.7 1.9-.3-.5 2.4zm-22.5 118.9l-2.4-.5 1-1.7 1.9-.2-.5 2.4z" fill="#422918"/></svg>